G04 #@! TF.GenerationSoftware,KiCad,Pcbnew,(5.1.6)-1*
G04 #@! TF.CreationDate,2021-02-22T20:56:29+01:00*
G04 #@! TF.ProjectId,RiderDetection,52696465-7244-4657-9465-6374696f6e2e,rev?*
G04 #@! TF.SameCoordinates,Original*
G04 #@! TF.FileFunction,Copper,L2,Bot*
G04 #@! TF.FilePolarity,Positive*
%FSLAX46Y46*%
G04 Gerber Fmt 4.6, Leading zero omitted, Abs format (unit mm)*
G04 Created by KiCad (PCBNEW (5.1.6)-1) date 2021-02-22 20:56:29*
%MOMM*%
%LPD*%
G01*
G04 APERTURE LIST*
G04 #@! TA.AperFunction,ComponentPad*
%ADD10C,1.524000*%
G04 #@! TD*
G04 #@! TA.AperFunction,ComponentPad*
%ADD11C,0.800000*%
G04 #@! TD*
G04 #@! TA.AperFunction,ComponentPad*
%ADD12C,6.400000*%
G04 #@! TD*
G04 #@! TA.AperFunction,ComponentPad*
%ADD13C,2.000000*%
G04 #@! TD*
G04 #@! TA.AperFunction,ComponentPad*
%ADD14R,2.000000X2.000000*%
G04 #@! TD*
G04 #@! TA.AperFunction,ComponentPad*
%ADD15O,2.500000X1.500000*%
G04 #@! TD*
G04 #@! TA.AperFunction,ComponentPad*
%ADD16R,2.500000X1.500000*%
G04 #@! TD*
G04 #@! TA.AperFunction,ComponentPad*
%ADD17O,2.400000X1.600000*%
G04 #@! TD*
G04 #@! TA.AperFunction,ComponentPad*
%ADD18R,2.400000X1.600000*%
G04 #@! TD*
G04 #@! TA.AperFunction,ComponentPad*
%ADD19O,2.000000X3.600000*%
G04 #@! TD*
G04 #@! TA.AperFunction,ComponentPad*
%ADD20O,1.600000X1.600000*%
G04 #@! TD*
G04 #@! TA.AperFunction,ComponentPad*
%ADD21C,1.600000*%
G04 #@! TD*
G04 #@! TA.AperFunction,ComponentPad*
%ADD22O,1.700000X1.700000*%
G04 #@! TD*
G04 #@! TA.AperFunction,ComponentPad*
%ADD23R,1.700000X1.700000*%
G04 #@! TD*
G04 #@! TA.AperFunction,ComponentPad*
%ADD24C,1.800000*%
G04 #@! TD*
G04 #@! TA.AperFunction,ComponentPad*
%ADD25R,1.800000X1.800000*%
G04 #@! TD*
G04 #@! TA.AperFunction,Conductor*
%ADD26C,0.250000*%
G04 #@! TD*
G04 #@! TA.AperFunction,Conductor*
%ADD27C,0.200000*%
G04 #@! TD*
G04 #@! TA.AperFunction,Conductor*
%ADD28C,0.254000*%
G04 #@! TD*
G04 APERTURE END LIST*
D10*
X53771800Y-93659960D03*
X53771800Y-91658440D03*
X53771800Y-89659460D03*
X53771800Y-87657940D03*
X53771800Y-85658960D03*
X53771800Y-83659980D03*
X53771800Y-81658460D03*
X53771800Y-79659480D03*
X53771800Y-77657960D03*
X53771800Y-75658980D03*
X75768200Y-75658980D03*
X75768200Y-77657960D03*
X75768200Y-79659480D03*
X75768200Y-81658460D03*
X75768200Y-83659980D03*
X75768200Y-85658960D03*
X75768200Y-87657940D03*
X75768200Y-89659460D03*
X75768200Y-91658440D03*
X75768200Y-93659960D03*
D11*
X56307056Y-111332944D03*
X54610000Y-110630000D03*
X52912944Y-111332944D03*
X52210000Y-113030000D03*
X52912944Y-114727056D03*
X54610000Y-115430000D03*
X56307056Y-114727056D03*
X57010000Y-113030000D03*
D12*
X54610000Y-113030000D03*
D13*
X118110000Y-87630000D03*
X118110000Y-92710000D03*
X125730000Y-87630000D03*
D14*
X128270000Y-87630000D03*
D13*
X125730000Y-92710000D03*
X128270000Y-92710000D03*
X118110000Y-97790000D03*
X118110000Y-102870000D03*
X125730000Y-97790000D03*
D14*
X128270000Y-97790000D03*
D13*
X125730000Y-102870000D03*
X128270000Y-102870000D03*
X118110000Y-107950000D03*
X118110000Y-113030000D03*
X125730000Y-107950000D03*
D14*
X128270000Y-107950000D03*
D13*
X125730000Y-113030000D03*
X128270000Y-113030000D03*
D15*
X87630000Y-58420000D03*
X87630000Y-55880000D03*
D16*
X87630000Y-53340000D03*
D17*
X104140000Y-85090000D03*
X96520000Y-102870000D03*
X104140000Y-87630000D03*
X96520000Y-100330000D03*
X104140000Y-90170000D03*
X96520000Y-97790000D03*
X104140000Y-92710000D03*
X96520000Y-95250000D03*
X104140000Y-95250000D03*
X96520000Y-92710000D03*
X104140000Y-97790000D03*
X96520000Y-90170000D03*
X104140000Y-100330000D03*
X96520000Y-87630000D03*
X104140000Y-102870000D03*
D18*
X96520000Y-85090000D03*
D19*
X110730000Y-59690000D03*
X115730000Y-59690000D03*
X120730000Y-59690000D03*
G04 #@! TA.AperFunction,ComponentPad*
G36*
G01*
X126730000Y-58140000D02*
X126730000Y-61240000D01*
G75*
G02*
X126480000Y-61490000I-250000J0D01*
G01*
X124980000Y-61490000D01*
G75*
G02*
X124730000Y-61240000I0J250000D01*
G01*
X124730000Y-58140000D01*
G75*
G02*
X124980000Y-57890000I250000J0D01*
G01*
X126480000Y-57890000D01*
G75*
G02*
X126730000Y-58140000I0J-250000D01*
G01*
G37*
G04 #@! TD.AperFunction*
D20*
X63500000Y-109220000D03*
D21*
X73660000Y-109220000D03*
D20*
X81280000Y-95250000D03*
D21*
X81280000Y-85090000D03*
D19*
X73740000Y-59690000D03*
G04 #@! TA.AperFunction,ComponentPad*
G36*
G01*
X79740000Y-58140000D02*
X79740000Y-61240000D01*
G75*
G02*
X79490000Y-61490000I-250000J0D01*
G01*
X77990000Y-61490000D01*
G75*
G02*
X77740000Y-61240000I0J250000D01*
G01*
X77740000Y-58140000D01*
G75*
G02*
X77990000Y-57890000I250000J0D01*
G01*
X79490000Y-57890000D01*
G75*
G02*
X79740000Y-58140000I0J-250000D01*
G01*
G37*
G04 #@! TD.AperFunction*
D22*
X125730000Y-74930000D03*
X123190000Y-74930000D03*
D23*
X120650000Y-74930000D03*
D22*
X125730000Y-78740000D03*
X123190000Y-78740000D03*
D23*
X120650000Y-78740000D03*
D22*
X53340000Y-59690000D03*
X55880000Y-59690000D03*
X58420000Y-59690000D03*
X60960000Y-59690000D03*
X63500000Y-59690000D03*
D23*
X66040000Y-59690000D03*
D22*
X113030000Y-114300000D03*
X113030000Y-111760000D03*
X113030000Y-109220000D03*
X113030000Y-106680000D03*
X113030000Y-104140000D03*
X113030000Y-101600000D03*
X113030000Y-99060000D03*
X113030000Y-96520000D03*
X113030000Y-93980000D03*
X113030000Y-91440000D03*
X113030000Y-88900000D03*
X113030000Y-86360000D03*
X113030000Y-83820000D03*
X113030000Y-81280000D03*
X113030000Y-78740000D03*
X113030000Y-76200000D03*
X113030000Y-73660000D03*
X113030000Y-71120000D03*
D23*
X113030000Y-68580000D03*
D22*
X87630000Y-114300000D03*
X87630000Y-111760000D03*
X87630000Y-109220000D03*
X87630000Y-106680000D03*
X87630000Y-104140000D03*
X87630000Y-101600000D03*
X87630000Y-99060000D03*
X87630000Y-96520000D03*
X87630000Y-93980000D03*
X87630000Y-91440000D03*
X87630000Y-88900000D03*
X87630000Y-86360000D03*
X87630000Y-83820000D03*
X87630000Y-81280000D03*
X87630000Y-78740000D03*
X87630000Y-76200000D03*
X87630000Y-73660000D03*
X87630000Y-71120000D03*
D23*
X87630000Y-68580000D03*
D24*
X78740000Y-109220000D03*
D25*
X81280000Y-109220000D03*
D24*
X78740000Y-101600000D03*
D25*
X81280000Y-101600000D03*
D26*
X81280000Y-95250000D02*
X80010000Y-95250000D01*
X80010000Y-95250000D02*
X78740000Y-96520000D01*
X78740000Y-96520000D02*
X78740000Y-101600000D01*
X73660000Y-109220000D02*
X78740000Y-109220000D01*
X87630000Y-93980000D02*
X88900000Y-93980000D01*
X88900000Y-93980000D02*
X91440000Y-91440000D01*
X91440000Y-90170000D02*
X96520000Y-85090000D01*
X91440000Y-91440000D02*
X91440000Y-90170000D01*
X87411560Y-91658440D02*
X87630000Y-91440000D01*
X75768200Y-91658440D02*
X87411560Y-91658440D01*
X60960000Y-76200000D02*
X60960000Y-59690000D01*
X60960000Y-76850240D02*
X60960000Y-76200000D01*
X75768200Y-91658440D02*
X60960000Y-76850240D01*
X87630000Y-88900000D02*
X88900000Y-88900000D01*
X88900000Y-88900000D02*
X93980000Y-83820000D01*
X93980000Y-83820000D02*
X97790000Y-83820000D01*
X97790000Y-83820000D02*
X99060000Y-85090000D01*
X99060000Y-85090000D02*
X99060000Y-86360000D01*
X97790000Y-87630000D02*
X96520000Y-87630000D01*
X99060000Y-86360000D02*
X97790000Y-87630000D01*
X87630000Y-86360000D02*
X90170000Y-86360000D01*
X90170000Y-86360000D02*
X93980000Y-82550000D01*
X93980000Y-82550000D02*
X99060000Y-82550000D01*
X99060000Y-82550000D02*
X100330000Y-83820000D01*
X100330000Y-83820000D02*
X100330000Y-88900000D01*
X99060000Y-90170000D02*
X96520000Y-90170000D01*
X100330000Y-88900000D02*
X99060000Y-90170000D01*
X75768200Y-89266702D02*
X75768200Y-89659460D01*
X75768200Y-89659460D02*
X79250540Y-89659460D01*
X79250540Y-89659460D02*
X85090000Y-83820000D01*
X85090000Y-83820000D02*
X87630000Y-83820000D01*
X63500000Y-77391260D02*
X63500000Y-59690000D01*
X75768200Y-89659460D02*
X63500000Y-77391260D01*
X104140000Y-105410000D02*
X113030000Y-114300000D01*
X104140000Y-102870000D02*
X104140000Y-105410000D01*
X125730000Y-97790000D02*
X125730000Y-95250000D01*
D27*
X127000000Y-93980000D02*
X125730000Y-95250000D01*
X127000000Y-91440000D02*
X127000000Y-93980000D01*
X125730000Y-87630000D02*
X125730000Y-90170000D01*
X125730000Y-90170000D02*
X127000000Y-91440000D01*
X125730000Y-97790000D02*
X127000000Y-99060000D01*
X127000000Y-106680000D02*
X125730000Y-107950000D01*
X127000000Y-99060000D02*
X127000000Y-106680000D01*
X125730000Y-107950000D02*
X125730000Y-110490000D01*
X125730000Y-110490000D02*
X127000000Y-111760000D01*
X114300000Y-115570000D02*
X113030000Y-114300000D01*
X125730000Y-115570000D02*
X127000000Y-114300000D01*
X127000000Y-114300000D02*
X127000000Y-111760000D01*
X125730000Y-115570000D02*
X124460000Y-116840000D01*
X124460000Y-116840000D02*
X115570000Y-116840000D01*
X115570000Y-116840000D02*
X114300000Y-115570000D01*
X100330000Y-99060000D02*
X104140000Y-102870000D01*
X118110000Y-73660000D02*
X116840000Y-74930000D01*
X114300000Y-66040000D02*
X118110000Y-69850000D01*
X101600000Y-58420000D02*
X109220000Y-66040000D01*
X109220000Y-66040000D02*
X114300000Y-66040000D01*
X102639990Y-80240010D02*
X102639990Y-89130010D01*
X102639990Y-89130010D02*
X100330000Y-91440000D01*
X87630000Y-58420000D02*
X101600000Y-58420000D01*
X116840000Y-74930000D02*
X107950000Y-74930000D01*
X107950000Y-74930000D02*
X102639990Y-80240010D01*
X118110000Y-69850000D02*
X118110000Y-73660000D01*
X100330000Y-91440000D02*
X100330000Y-99060000D01*
D26*
X106680000Y-68580000D02*
X113030000Y-68580000D01*
X101600000Y-88900000D02*
X101600000Y-73660000D01*
X101600000Y-73660000D02*
X106680000Y-68580000D01*
X99060000Y-91440000D02*
X101600000Y-88900000D01*
X75768200Y-93659960D02*
X82229960Y-93659960D01*
X82229960Y-93659960D02*
X83820000Y-95250000D01*
X83820000Y-95250000D02*
X91440000Y-95250000D01*
X91440000Y-95250000D02*
X95250000Y-91440000D01*
X95250000Y-91440000D02*
X99060000Y-91440000D01*
X124554999Y-60865001D02*
X124554999Y-77375001D01*
X124554999Y-77375001D02*
X123190000Y-78740000D01*
X125730000Y-59690000D02*
X124554999Y-60865001D01*
X78740000Y-59690000D02*
X85090000Y-53340000D01*
X85090000Y-53340000D02*
X87630000Y-53340000D01*
X120650000Y-74930000D02*
X120650000Y-78740000D01*
X120650000Y-73660000D02*
X120650000Y-74930000D01*
X120650000Y-66040000D02*
X120650000Y-74930000D01*
X118110000Y-63500000D02*
X120650000Y-66040000D01*
X102870000Y-53340000D02*
X104140000Y-54610000D01*
X104140000Y-59690000D02*
X107950000Y-63500000D01*
X87630000Y-53340000D02*
X102870000Y-53340000D01*
X104140000Y-54610000D02*
X104140000Y-59690000D01*
X107950000Y-63500000D02*
X118110000Y-63500000D01*
X118110000Y-87630000D02*
X118110000Y-92710000D01*
X118110000Y-92710000D02*
X118110000Y-97790000D01*
X118110000Y-97790000D02*
X118110000Y-102870000D01*
X118110000Y-102870000D02*
X118110000Y-107950000D01*
X118110000Y-107950000D02*
X118110000Y-113030000D01*
X122014999Y-76105001D02*
X123190000Y-74930000D01*
X122014999Y-83725001D02*
X122014999Y-76105001D01*
X118110000Y-87630000D02*
X122014999Y-83725001D01*
X53771800Y-83659980D02*
X60799980Y-83659980D01*
X63500000Y-86360000D02*
X63500000Y-109220000D01*
X60799980Y-83659980D02*
X63500000Y-86360000D01*
X79849980Y-83659980D02*
X81280000Y-85090000D01*
X75768200Y-83659980D02*
X79849980Y-83659980D01*
X104140000Y-90170000D02*
X111760000Y-97790000D01*
X111760000Y-109689002D02*
X112560998Y-110490000D01*
X111760000Y-97790000D02*
X111760000Y-109689002D01*
X113499002Y-110490000D02*
X114300000Y-111290998D01*
X113030000Y-110490000D02*
X113499002Y-110490000D01*
X112560998Y-110490000D02*
X113030000Y-110490000D01*
X114300000Y-111290998D02*
X114300000Y-114300000D01*
X114300000Y-114300000D02*
X115570000Y-115570000D01*
X123190000Y-115570000D02*
X125730000Y-113030000D01*
X115570000Y-115570000D02*
X123190000Y-115570000D01*
X131260009Y-110039991D02*
X131260009Y-58867189D01*
X128270000Y-113030000D02*
X131260009Y-110039991D01*
X131260009Y-58867189D02*
X127002820Y-54610000D01*
X115810000Y-54610000D02*
X110730000Y-59690000D01*
X127002820Y-54610000D02*
X115810000Y-54610000D01*
X104140000Y-87630000D02*
X111760000Y-95250000D01*
X111760000Y-95250000D02*
X114300000Y-95250000D01*
X114300000Y-95250000D02*
X115570000Y-96520000D01*
X115570000Y-96520000D02*
X115570000Y-114300000D01*
X115570000Y-114300000D02*
X116389990Y-115119990D01*
X119196420Y-115119990D02*
X121920000Y-112396410D01*
X116389990Y-115119990D02*
X119196420Y-115119990D01*
X121920000Y-106680000D02*
X125730000Y-102870000D01*
X121920000Y-112396410D02*
X121920000Y-106680000D01*
X128270000Y-102870000D02*
X130810000Y-100330000D01*
X127186400Y-55429990D02*
X123640010Y-55429990D01*
X130810000Y-100330000D02*
X130810000Y-59053590D01*
X130810000Y-59053590D02*
X127186400Y-55429990D01*
X123640010Y-55429990D02*
X123190000Y-55880000D01*
X119540000Y-55880000D02*
X115730000Y-59690000D01*
X123190000Y-55880000D02*
X119540000Y-55880000D01*
X120650000Y-97790000D02*
X125730000Y-92710000D01*
X120650000Y-113030000D02*
X120650000Y-97790000D01*
X116895001Y-114355001D02*
X119324999Y-114355001D01*
X115570000Y-85090000D02*
X116840000Y-86360000D01*
X104140000Y-85090000D02*
X115570000Y-85090000D01*
X116840000Y-86360000D02*
X116840000Y-86938998D01*
X116784999Y-86993999D02*
X116784999Y-114244999D01*
X119324999Y-114355001D02*
X120650000Y-113030000D01*
X116840000Y-86938998D02*
X116784999Y-86993999D01*
X116784999Y-114244999D02*
X116895001Y-114355001D01*
X128270000Y-92710000D02*
X129540000Y-91440000D01*
X129595001Y-91384999D02*
X129595001Y-58475001D01*
X128270000Y-92710000D02*
X129595001Y-91384999D01*
X129595001Y-58475001D02*
X127000000Y-55880000D01*
X124540000Y-55880000D02*
X120730000Y-59690000D01*
X127000000Y-55880000D02*
X124540000Y-55880000D01*
D28*
G36*
X135763000Y-115443000D02*
G01*
X126896447Y-115443000D01*
X127494197Y-114845250D01*
X127522237Y-114822238D01*
X127545250Y-114794197D01*
X127545253Y-114794194D01*
X127614086Y-114710321D01*
X127614087Y-114710320D01*
X127682337Y-114582633D01*
X127689435Y-114559233D01*
X127793088Y-114602168D01*
X128108967Y-114665000D01*
X128431033Y-114665000D01*
X128746912Y-114602168D01*
X129044463Y-114478918D01*
X129312252Y-114299987D01*
X129539987Y-114072252D01*
X129718918Y-113804463D01*
X129842168Y-113506912D01*
X129905000Y-113191033D01*
X129905000Y-112868967D01*
X129893246Y-112809872D01*
X131115000Y-112809872D01*
X131115000Y-113250128D01*
X131200890Y-113681925D01*
X131369369Y-114088669D01*
X131613962Y-114454729D01*
X131925271Y-114766038D01*
X132291331Y-115010631D01*
X132698075Y-115179110D01*
X133129872Y-115265000D01*
X133570128Y-115265000D01*
X134001925Y-115179110D01*
X134408669Y-115010631D01*
X134774729Y-114766038D01*
X135086038Y-114454729D01*
X135330631Y-114088669D01*
X135499110Y-113681925D01*
X135585000Y-113250128D01*
X135585000Y-112809872D01*
X135499110Y-112378075D01*
X135330631Y-111971331D01*
X135086038Y-111605271D01*
X134774729Y-111293962D01*
X134408669Y-111049369D01*
X134001925Y-110880890D01*
X133570128Y-110795000D01*
X133129872Y-110795000D01*
X132698075Y-110880890D01*
X132291331Y-111049369D01*
X131925271Y-111293962D01*
X131613962Y-111605271D01*
X131369369Y-111971331D01*
X131200890Y-112378075D01*
X131115000Y-112809872D01*
X129893246Y-112809872D01*
X129842168Y-112553088D01*
X129836177Y-112538624D01*
X131771013Y-110603789D01*
X131800010Y-110579992D01*
X131894983Y-110464267D01*
X131965555Y-110332238D01*
X132009012Y-110188977D01*
X132020009Y-110077324D01*
X132020009Y-110077315D01*
X132023685Y-110039992D01*
X132020009Y-110002669D01*
X132020009Y-58904511D01*
X132023685Y-58867188D01*
X132020009Y-58829865D01*
X132020009Y-58829856D01*
X132009012Y-58718203D01*
X131965555Y-58574942D01*
X131894983Y-58442913D01*
X131835018Y-58369845D01*
X131823808Y-58356185D01*
X131823804Y-58356181D01*
X131800010Y-58327188D01*
X131771017Y-58303394D01*
X127566624Y-54099003D01*
X127542821Y-54069999D01*
X127427096Y-53975026D01*
X127295067Y-53904454D01*
X127151806Y-53860997D01*
X127040153Y-53850000D01*
X127040142Y-53850000D01*
X127002820Y-53846324D01*
X126965498Y-53850000D01*
X115847323Y-53850000D01*
X115810000Y-53846324D01*
X115772677Y-53850000D01*
X115772667Y-53850000D01*
X115661014Y-53860997D01*
X115517753Y-53904454D01*
X115385723Y-53975026D01*
X115365132Y-53991925D01*
X115269999Y-54069999D01*
X115246201Y-54098997D01*
X111740780Y-57604418D01*
X111642752Y-57523969D01*
X111358715Y-57372148D01*
X111050516Y-57278657D01*
X110730000Y-57247089D01*
X110409485Y-57278657D01*
X110101286Y-57372148D01*
X109817249Y-57523969D01*
X109568287Y-57728286D01*
X109363970Y-57977248D01*
X109212149Y-58261285D01*
X109118658Y-58569484D01*
X109095000Y-58809678D01*
X109095000Y-60570321D01*
X109118657Y-60810515D01*
X109212148Y-61118714D01*
X109363969Y-61402751D01*
X109568286Y-61651714D01*
X109817248Y-61856031D01*
X110101285Y-62007852D01*
X110409484Y-62101343D01*
X110730000Y-62132911D01*
X111050515Y-62101343D01*
X111358714Y-62007852D01*
X111642751Y-61856031D01*
X111891714Y-61651714D01*
X112096031Y-61402752D01*
X112247852Y-61118715D01*
X112341343Y-60810516D01*
X112365000Y-60570322D01*
X112365000Y-59129801D01*
X116124802Y-55370000D01*
X118975198Y-55370000D01*
X116740780Y-57604418D01*
X116642752Y-57523969D01*
X116358715Y-57372148D01*
X116050516Y-57278657D01*
X115730000Y-57247089D01*
X115409485Y-57278657D01*
X115101286Y-57372148D01*
X114817249Y-57523969D01*
X114568287Y-57728286D01*
X114363970Y-57977248D01*
X114212149Y-58261285D01*
X114118658Y-58569484D01*
X114095000Y-58809678D01*
X114095000Y-60570321D01*
X114118657Y-60810515D01*
X114212148Y-61118714D01*
X114363969Y-61402751D01*
X114568286Y-61651714D01*
X114817248Y-61856031D01*
X115101285Y-62007852D01*
X115409484Y-62101343D01*
X115730000Y-62132911D01*
X116050515Y-62101343D01*
X116358714Y-62007852D01*
X116642751Y-61856031D01*
X116891714Y-61651714D01*
X117096031Y-61402752D01*
X117247852Y-61118715D01*
X117341343Y-60810516D01*
X117365000Y-60570322D01*
X117365000Y-59129801D01*
X119854802Y-56640000D01*
X122705198Y-56640000D01*
X121740780Y-57604418D01*
X121642752Y-57523969D01*
X121358715Y-57372148D01*
X121050516Y-57278657D01*
X120730000Y-57247089D01*
X120409485Y-57278657D01*
X120101286Y-57372148D01*
X119817249Y-57523969D01*
X119568287Y-57728286D01*
X119363970Y-57977248D01*
X119212149Y-58261285D01*
X119118658Y-58569484D01*
X119095000Y-58809678D01*
X119095000Y-60570321D01*
X119118657Y-60810515D01*
X119212148Y-61118714D01*
X119363969Y-61402751D01*
X119568286Y-61651714D01*
X119817248Y-61856031D01*
X120101285Y-62007852D01*
X120409484Y-62101343D01*
X120730000Y-62132911D01*
X121050515Y-62101343D01*
X121358714Y-62007852D01*
X121642751Y-61856031D01*
X121891714Y-61651714D01*
X122096031Y-61402752D01*
X122247852Y-61118715D01*
X122341343Y-60810516D01*
X122365000Y-60570322D01*
X122365000Y-59129801D01*
X124854802Y-56640000D01*
X126685199Y-56640000D01*
X128835002Y-58789804D01*
X128835001Y-85991928D01*
X127270000Y-85991928D01*
X127145518Y-86004188D01*
X127025820Y-86040498D01*
X126915506Y-86099463D01*
X126818815Y-86178815D01*
X126739463Y-86275506D01*
X126714809Y-86321630D01*
X126504463Y-86181082D01*
X126206912Y-86057832D01*
X125891033Y-85995000D01*
X125568967Y-85995000D01*
X125253088Y-86057832D01*
X124955537Y-86181082D01*
X124687748Y-86360013D01*
X124460013Y-86587748D01*
X124281082Y-86855537D01*
X124157832Y-87153088D01*
X124095000Y-87468967D01*
X124095000Y-87791033D01*
X124157832Y-88106912D01*
X124281082Y-88404463D01*
X124460013Y-88672252D01*
X124687748Y-88899987D01*
X124955537Y-89078918D01*
X124995001Y-89095264D01*
X124995001Y-90133885D01*
X124991444Y-90170000D01*
X125005635Y-90314085D01*
X125047262Y-90451309D01*
X125047664Y-90452633D01*
X125115914Y-90580320D01*
X125207763Y-90692238D01*
X125235808Y-90715254D01*
X125595554Y-91075000D01*
X125568967Y-91075000D01*
X125253088Y-91137832D01*
X124955537Y-91261082D01*
X124687748Y-91440013D01*
X124460013Y-91667748D01*
X124281082Y-91935537D01*
X124157832Y-92233088D01*
X124095000Y-92548967D01*
X124095000Y-92871033D01*
X124157832Y-93186912D01*
X124163823Y-93201375D01*
X120138998Y-97226201D01*
X120110000Y-97249999D01*
X120086202Y-97278997D01*
X120086201Y-97278998D01*
X120015026Y-97365724D01*
X119944454Y-97497754D01*
X119921023Y-97575000D01*
X119900999Y-97641013D01*
X119900998Y-97641015D01*
X119886324Y-97790000D01*
X119890001Y-97827332D01*
X119890000Y-112715197D01*
X119743545Y-112861653D01*
X119682168Y-112553088D01*
X119558918Y-112255537D01*
X119379987Y-111987748D01*
X119152252Y-111760013D01*
X118884463Y-111581082D01*
X118870000Y-111575091D01*
X118870000Y-109404909D01*
X118884463Y-109398918D01*
X119152252Y-109219987D01*
X119379987Y-108992252D01*
X119558918Y-108724463D01*
X119682168Y-108426912D01*
X119745000Y-108111033D01*
X119745000Y-107788967D01*
X119682168Y-107473088D01*
X119558918Y-107175537D01*
X119379987Y-106907748D01*
X119152252Y-106680013D01*
X118884463Y-106501082D01*
X118870000Y-106495091D01*
X118870000Y-104324909D01*
X118884463Y-104318918D01*
X119152252Y-104139987D01*
X119379987Y-103912252D01*
X119558918Y-103644463D01*
X119682168Y-103346912D01*
X119745000Y-103031033D01*
X119745000Y-102708967D01*
X119682168Y-102393088D01*
X119558918Y-102095537D01*
X119379987Y-101827748D01*
X119152252Y-101600013D01*
X118884463Y-101421082D01*
X118870000Y-101415091D01*
X118870000Y-99244909D01*
X118884463Y-99238918D01*
X119152252Y-99059987D01*
X119379987Y-98832252D01*
X119558918Y-98564463D01*
X119682168Y-98266912D01*
X119745000Y-97951033D01*
X119745000Y-97628967D01*
X119682168Y-97313088D01*
X119558918Y-97015537D01*
X119379987Y-96747748D01*
X119152252Y-96520013D01*
X118884463Y-96341082D01*
X118870000Y-96335091D01*
X118870000Y-94164909D01*
X118884463Y-94158918D01*
X119152252Y-93979987D01*
X119379987Y-93752252D01*
X119558918Y-93484463D01*
X119682168Y-93186912D01*
X119745000Y-92871033D01*
X119745000Y-92548967D01*
X119682168Y-92233088D01*
X119558918Y-91935537D01*
X119379987Y-91667748D01*
X119152252Y-91440013D01*
X118884463Y-91261082D01*
X118870000Y-91255091D01*
X118870000Y-89084909D01*
X118884463Y-89078918D01*
X119152252Y-88899987D01*
X119379987Y-88672252D01*
X119558918Y-88404463D01*
X119682168Y-88106912D01*
X119745000Y-87791033D01*
X119745000Y-87468967D01*
X119682168Y-87153088D01*
X119676177Y-87138624D01*
X122526003Y-84288799D01*
X122555000Y-84265002D01*
X122649973Y-84149277D01*
X122720545Y-84017248D01*
X122764002Y-83873987D01*
X122774999Y-83762334D01*
X122774999Y-83762333D01*
X122778676Y-83725001D01*
X122774999Y-83687668D01*
X122774999Y-80171544D01*
X123043740Y-80225000D01*
X123336260Y-80225000D01*
X123623158Y-80167932D01*
X123893411Y-80055990D01*
X124136632Y-79893475D01*
X124343475Y-79686632D01*
X124465195Y-79504466D01*
X124534822Y-79621355D01*
X124729731Y-79837588D01*
X124963080Y-80011641D01*
X125225901Y-80136825D01*
X125373110Y-80181476D01*
X125603000Y-80060155D01*
X125603000Y-78867000D01*
X125857000Y-78867000D01*
X125857000Y-80060155D01*
X126086890Y-80181476D01*
X126234099Y-80136825D01*
X126496920Y-80011641D01*
X126730269Y-79837588D01*
X126925178Y-79621355D01*
X127074157Y-79371252D01*
X127171481Y-79096891D01*
X127050814Y-78867000D01*
X125857000Y-78867000D01*
X125603000Y-78867000D01*
X125583000Y-78867000D01*
X125583000Y-78613000D01*
X125603000Y-78613000D01*
X125603000Y-77419845D01*
X125857000Y-77419845D01*
X125857000Y-78613000D01*
X127050814Y-78613000D01*
X127171481Y-78383109D01*
X127074157Y-78108748D01*
X126925178Y-77858645D01*
X126730269Y-77642412D01*
X126496920Y-77468359D01*
X126234099Y-77343175D01*
X126086890Y-77298524D01*
X125857000Y-77419845D01*
X125603000Y-77419845D01*
X125373110Y-77298524D01*
X125314999Y-77316150D01*
X125314999Y-76353850D01*
X125373110Y-76371476D01*
X125603000Y-76250155D01*
X125603000Y-75057000D01*
X125857000Y-75057000D01*
X125857000Y-76250155D01*
X126086890Y-76371476D01*
X126234099Y-76326825D01*
X126496920Y-76201641D01*
X126730269Y-76027588D01*
X126925178Y-75811355D01*
X127074157Y-75561252D01*
X127171481Y-75286891D01*
X127050814Y-75057000D01*
X125857000Y-75057000D01*
X125603000Y-75057000D01*
X125583000Y-75057000D01*
X125583000Y-74803000D01*
X125603000Y-74803000D01*
X125603000Y-73609845D01*
X125857000Y-73609845D01*
X125857000Y-74803000D01*
X127050814Y-74803000D01*
X127171481Y-74573109D01*
X127074157Y-74298748D01*
X126925178Y-74048645D01*
X126730269Y-73832412D01*
X126496920Y-73658359D01*
X126234099Y-73533175D01*
X126086890Y-73488524D01*
X125857000Y-73609845D01*
X125603000Y-73609845D01*
X125373110Y-73488524D01*
X125314999Y-73506150D01*
X125314999Y-62128072D01*
X126480000Y-62128072D01*
X126653254Y-62111008D01*
X126819850Y-62060472D01*
X126973386Y-61978405D01*
X127107962Y-61867962D01*
X127218405Y-61733386D01*
X127300472Y-61579850D01*
X127351008Y-61413254D01*
X127368072Y-61240000D01*
X127368072Y-58140000D01*
X127351008Y-57966746D01*
X127300472Y-57800150D01*
X127218405Y-57646614D01*
X127107962Y-57512038D01*
X126973386Y-57401595D01*
X126819850Y-57319528D01*
X126653254Y-57268992D01*
X126480000Y-57251928D01*
X124980000Y-57251928D01*
X124806746Y-57268992D01*
X124640150Y-57319528D01*
X124486614Y-57401595D01*
X124352038Y-57512038D01*
X124241595Y-57646614D01*
X124159528Y-57800150D01*
X124108992Y-57966746D01*
X124091928Y-58140000D01*
X124091928Y-60253271D01*
X124044002Y-60301197D01*
X124014998Y-60325000D01*
X123959870Y-60392175D01*
X123920025Y-60440725D01*
X123913102Y-60453677D01*
X123849453Y-60572755D01*
X123805996Y-60716016D01*
X123794999Y-60827669D01*
X123794999Y-60827679D01*
X123791323Y-60865001D01*
X123794999Y-60902323D01*
X123795000Y-73573247D01*
X123623158Y-73502068D01*
X123336260Y-73445000D01*
X123043740Y-73445000D01*
X122756842Y-73502068D01*
X122486589Y-73614010D01*
X122243368Y-73776525D01*
X122111513Y-73908380D01*
X122089502Y-73835820D01*
X122030537Y-73725506D01*
X121951185Y-73628815D01*
X121854494Y-73549463D01*
X121744180Y-73490498D01*
X121624482Y-73454188D01*
X121500000Y-73441928D01*
X121410000Y-73441928D01*
X121410000Y-66077322D01*
X121413676Y-66039999D01*
X121410000Y-66002676D01*
X121410000Y-66002667D01*
X121399003Y-65891014D01*
X121355546Y-65747753D01*
X121284974Y-65615724D01*
X121227594Y-65545806D01*
X121213799Y-65528996D01*
X121213795Y-65528992D01*
X121190001Y-65499999D01*
X121161009Y-65476206D01*
X118673804Y-62989003D01*
X118650001Y-62959999D01*
X118534276Y-62865026D01*
X118402247Y-62794454D01*
X118258986Y-62750997D01*
X118147333Y-62740000D01*
X118147322Y-62740000D01*
X118110000Y-62736324D01*
X118072678Y-62740000D01*
X108264802Y-62740000D01*
X104900000Y-59375199D01*
X104900000Y-54647322D01*
X104903676Y-54609999D01*
X104900000Y-54572676D01*
X104900000Y-54572667D01*
X104889003Y-54461014D01*
X104845546Y-54317753D01*
X104774974Y-54185724D01*
X104680001Y-54069999D01*
X104651003Y-54046201D01*
X103724674Y-53119872D01*
X131115000Y-53119872D01*
X131115000Y-53560128D01*
X131200890Y-53991925D01*
X131369369Y-54398669D01*
X131613962Y-54764729D01*
X131925271Y-55076038D01*
X132291331Y-55320631D01*
X132698075Y-55489110D01*
X133129872Y-55575000D01*
X133570128Y-55575000D01*
X134001925Y-55489110D01*
X134408669Y-55320631D01*
X134774729Y-55076038D01*
X135086038Y-54764729D01*
X135330631Y-54398669D01*
X135499110Y-53991925D01*
X135585000Y-53560128D01*
X135585000Y-53119872D01*
X135499110Y-52688075D01*
X135330631Y-52281331D01*
X135086038Y-51915271D01*
X134774729Y-51603962D01*
X134408669Y-51359369D01*
X134001925Y-51190890D01*
X133570128Y-51105000D01*
X133129872Y-51105000D01*
X132698075Y-51190890D01*
X132291331Y-51359369D01*
X131925271Y-51603962D01*
X131613962Y-51915271D01*
X131369369Y-52281331D01*
X131200890Y-52688075D01*
X131115000Y-53119872D01*
X103724674Y-53119872D01*
X103433804Y-52829003D01*
X103410001Y-52799999D01*
X103294276Y-52705026D01*
X103162247Y-52634454D01*
X103018986Y-52590997D01*
X102907333Y-52580000D01*
X102907322Y-52580000D01*
X102870000Y-52576324D01*
X102832678Y-52580000D01*
X89517087Y-52580000D01*
X89505812Y-52465518D01*
X89469502Y-52345820D01*
X89410537Y-52235506D01*
X89331185Y-52138815D01*
X89234494Y-52059463D01*
X89124180Y-52000498D01*
X89004482Y-51964188D01*
X88880000Y-51951928D01*
X86380000Y-51951928D01*
X86255518Y-51964188D01*
X86135820Y-52000498D01*
X86025506Y-52059463D01*
X85928815Y-52138815D01*
X85849463Y-52235506D01*
X85790498Y-52345820D01*
X85754188Y-52465518D01*
X85742913Y-52580000D01*
X85127322Y-52580000D01*
X85089999Y-52576324D01*
X85052676Y-52580000D01*
X85052667Y-52580000D01*
X84941014Y-52590997D01*
X84797753Y-52634454D01*
X84665723Y-52705026D01*
X84582083Y-52773668D01*
X84549999Y-52799999D01*
X84526201Y-52828997D01*
X79963978Y-57391221D01*
X79829850Y-57319528D01*
X79663254Y-57268992D01*
X79490000Y-57251928D01*
X77990000Y-57251928D01*
X77816746Y-57268992D01*
X77650150Y-57319528D01*
X77496614Y-57401595D01*
X77362038Y-57512038D01*
X77251595Y-57646614D01*
X77169528Y-57800150D01*
X77118992Y-57966746D01*
X77101928Y-58140000D01*
X77101928Y-61240000D01*
X77118992Y-61413254D01*
X77169528Y-61579850D01*
X77251595Y-61733386D01*
X77362038Y-61867962D01*
X77496614Y-61978405D01*
X77650150Y-62060472D01*
X77816746Y-62111008D01*
X77990000Y-62128072D01*
X79490000Y-62128072D01*
X79663254Y-62111008D01*
X79829850Y-62060472D01*
X79983386Y-61978405D01*
X80117962Y-61867962D01*
X80228405Y-61733386D01*
X80310472Y-61579850D01*
X80361008Y-61413254D01*
X80378072Y-61240000D01*
X80378072Y-59126729D01*
X85404802Y-54100000D01*
X85742913Y-54100000D01*
X85754188Y-54214482D01*
X85790498Y-54334180D01*
X85849463Y-54444494D01*
X85928815Y-54541185D01*
X86025506Y-54620537D01*
X86135820Y-54679502D01*
X86255518Y-54715812D01*
X86364874Y-54726582D01*
X86254939Y-54798972D01*
X86060855Y-54990460D01*
X85907858Y-55216132D01*
X85801827Y-55467316D01*
X85787682Y-55538815D01*
X85910344Y-55753000D01*
X87503000Y-55753000D01*
X87503000Y-55733000D01*
X87757000Y-55733000D01*
X87757000Y-55753000D01*
X89349656Y-55753000D01*
X89472318Y-55538815D01*
X89458173Y-55467316D01*
X89352142Y-55216132D01*
X89199145Y-54990460D01*
X89005061Y-54798972D01*
X88895126Y-54726582D01*
X89004482Y-54715812D01*
X89124180Y-54679502D01*
X89234494Y-54620537D01*
X89331185Y-54541185D01*
X89410537Y-54444494D01*
X89469502Y-54334180D01*
X89505812Y-54214482D01*
X89517087Y-54100000D01*
X102555199Y-54100000D01*
X103380000Y-54924802D01*
X103380001Y-59160555D01*
X102145259Y-57925813D01*
X102122238Y-57897762D01*
X102010320Y-57805913D01*
X101882633Y-57737663D01*
X101744085Y-57695635D01*
X101636105Y-57685000D01*
X101600000Y-57681444D01*
X101563895Y-57685000D01*
X89307569Y-57685000D01*
X89287157Y-57646812D01*
X89114081Y-57435919D01*
X88903188Y-57262843D01*
X88687422Y-57147514D01*
X88777349Y-57110972D01*
X89005061Y-56961028D01*
X89199145Y-56769540D01*
X89352142Y-56543868D01*
X89458173Y-56292684D01*
X89472318Y-56221185D01*
X89349656Y-56007000D01*
X87757000Y-56007000D01*
X87757000Y-56027000D01*
X87503000Y-56027000D01*
X87503000Y-56007000D01*
X85910344Y-56007000D01*
X85787682Y-56221185D01*
X85801827Y-56292684D01*
X85907858Y-56543868D01*
X86060855Y-56769540D01*
X86254939Y-56961028D01*
X86482651Y-57110972D01*
X86572578Y-57147514D01*
X86356812Y-57262843D01*
X86145919Y-57435919D01*
X85972843Y-57646812D01*
X85844236Y-57887419D01*
X85765040Y-58148493D01*
X85738299Y-58420000D01*
X85765040Y-58691507D01*
X85844236Y-58952581D01*
X85972843Y-59193188D01*
X86145919Y-59404081D01*
X86356812Y-59577157D01*
X86597419Y-59705764D01*
X86858493Y-59784960D01*
X87061963Y-59805000D01*
X88198037Y-59805000D01*
X88401507Y-59784960D01*
X88662581Y-59705764D01*
X88903188Y-59577157D01*
X89114081Y-59404081D01*
X89287157Y-59193188D01*
X89307569Y-59155000D01*
X101295554Y-59155000D01*
X108674746Y-66534193D01*
X108697762Y-66562238D01*
X108809680Y-66654087D01*
X108937367Y-66722337D01*
X109075915Y-66764365D01*
X109183895Y-66775000D01*
X109183904Y-66775000D01*
X109219999Y-66778555D01*
X109256094Y-66775000D01*
X113995554Y-66775000D01*
X117375000Y-70154447D01*
X117375001Y-73355552D01*
X116535554Y-74195000D01*
X114415748Y-74195000D01*
X114457932Y-74093158D01*
X114515000Y-73806260D01*
X114515000Y-73513740D01*
X114457932Y-73226842D01*
X114345990Y-72956589D01*
X114183475Y-72713368D01*
X113976632Y-72506525D01*
X113802240Y-72390000D01*
X113976632Y-72273475D01*
X114183475Y-72066632D01*
X114345990Y-71823411D01*
X114457932Y-71553158D01*
X114515000Y-71266260D01*
X114515000Y-70973740D01*
X114457932Y-70686842D01*
X114345990Y-70416589D01*
X114183475Y-70173368D01*
X114051620Y-70041513D01*
X114124180Y-70019502D01*
X114234494Y-69960537D01*
X114331185Y-69881185D01*
X114410537Y-69784494D01*
X114469502Y-69674180D01*
X114505812Y-69554482D01*
X114518072Y-69430000D01*
X114518072Y-67730000D01*
X114505812Y-67605518D01*
X114469502Y-67485820D01*
X114410537Y-67375506D01*
X114331185Y-67278815D01*
X114234494Y-67199463D01*
X114124180Y-67140498D01*
X114004482Y-67104188D01*
X113880000Y-67091928D01*
X112180000Y-67091928D01*
X112055518Y-67104188D01*
X111935820Y-67140498D01*
X111825506Y-67199463D01*
X111728815Y-67278815D01*
X111649463Y-67375506D01*
X111590498Y-67485820D01*
X111554188Y-67605518D01*
X111541928Y-67730000D01*
X111541928Y-67820000D01*
X106717323Y-67820000D01*
X106680000Y-67816324D01*
X106642677Y-67820000D01*
X106642667Y-67820000D01*
X106531014Y-67830997D01*
X106387753Y-67874454D01*
X106255723Y-67945026D01*
X106172083Y-68013668D01*
X106139999Y-68039999D01*
X106116201Y-68068997D01*
X101088998Y-73096201D01*
X101060000Y-73119999D01*
X101036202Y-73148997D01*
X101036201Y-73148998D01*
X100965026Y-73235724D01*
X100894454Y-73367754D01*
X100871023Y-73445000D01*
X100857222Y-73490498D01*
X100850998Y-73511015D01*
X100836324Y-73660000D01*
X100840001Y-73697333D01*
X100840000Y-83255198D01*
X99623804Y-82039003D01*
X99600001Y-82009999D01*
X99484276Y-81915026D01*
X99352247Y-81844454D01*
X99208986Y-81800997D01*
X99097333Y-81790000D01*
X99097322Y-81790000D01*
X99060000Y-81786324D01*
X99022678Y-81790000D01*
X94017325Y-81790000D01*
X93980000Y-81786324D01*
X93942675Y-81790000D01*
X93942667Y-81790000D01*
X93831014Y-81800997D01*
X93687753Y-81844454D01*
X93555724Y-81915026D01*
X93439999Y-82009999D01*
X93416201Y-82038997D01*
X89855199Y-85600000D01*
X88908178Y-85600000D01*
X88783475Y-85413368D01*
X88576632Y-85206525D01*
X88402240Y-85090000D01*
X88576632Y-84973475D01*
X88783475Y-84766632D01*
X88945990Y-84523411D01*
X89057932Y-84253158D01*
X89115000Y-83966260D01*
X89115000Y-83673740D01*
X89057932Y-83386842D01*
X88945990Y-83116589D01*
X88783475Y-82873368D01*
X88576632Y-82666525D01*
X88402240Y-82550000D01*
X88576632Y-82433475D01*
X88783475Y-82226632D01*
X88945990Y-81983411D01*
X89057932Y-81713158D01*
X89115000Y-81426260D01*
X89115000Y-81133740D01*
X89057932Y-80846842D01*
X88945990Y-80576589D01*
X88783475Y-80333368D01*
X88576632Y-80126525D01*
X88402240Y-80010000D01*
X88576632Y-79893475D01*
X88783475Y-79686632D01*
X88945990Y-79443411D01*
X89057932Y-79173158D01*
X89115000Y-78886260D01*
X89115000Y-78593740D01*
X89057932Y-78306842D01*
X88945990Y-78036589D01*
X88783475Y-77793368D01*
X88576632Y-77586525D01*
X88402240Y-77470000D01*
X88576632Y-77353475D01*
X88783475Y-77146632D01*
X88945990Y-76903411D01*
X89057932Y-76633158D01*
X89115000Y-76346260D01*
X89115000Y-76053740D01*
X89057932Y-75766842D01*
X88945990Y-75496589D01*
X88783475Y-75253368D01*
X88576632Y-75046525D01*
X88402240Y-74930000D01*
X88576632Y-74813475D01*
X88783475Y-74606632D01*
X88945990Y-74363411D01*
X89057932Y-74093158D01*
X89115000Y-73806260D01*
X89115000Y-73513740D01*
X89057932Y-73226842D01*
X88945990Y-72956589D01*
X88783475Y-72713368D01*
X88576632Y-72506525D01*
X88402240Y-72390000D01*
X88576632Y-72273475D01*
X88783475Y-72066632D01*
X88945990Y-71823411D01*
X89057932Y-71553158D01*
X89115000Y-71266260D01*
X89115000Y-70973740D01*
X89057932Y-70686842D01*
X88945990Y-70416589D01*
X88783475Y-70173368D01*
X88651620Y-70041513D01*
X88724180Y-70019502D01*
X88834494Y-69960537D01*
X88931185Y-69881185D01*
X89010537Y-69784494D01*
X89069502Y-69674180D01*
X89105812Y-69554482D01*
X89118072Y-69430000D01*
X89118072Y-67730000D01*
X89105812Y-67605518D01*
X89069502Y-67485820D01*
X89010537Y-67375506D01*
X88931185Y-67278815D01*
X88834494Y-67199463D01*
X88724180Y-67140498D01*
X88604482Y-67104188D01*
X88480000Y-67091928D01*
X86780000Y-67091928D01*
X86655518Y-67104188D01*
X86535820Y-67140498D01*
X86425506Y-67199463D01*
X86328815Y-67278815D01*
X86249463Y-67375506D01*
X86190498Y-67485820D01*
X86154188Y-67605518D01*
X86141928Y-67730000D01*
X86141928Y-69430000D01*
X86154188Y-69554482D01*
X86190498Y-69674180D01*
X86249463Y-69784494D01*
X86328815Y-69881185D01*
X86425506Y-69960537D01*
X86535820Y-70019502D01*
X86608380Y-70041513D01*
X86476525Y-70173368D01*
X86314010Y-70416589D01*
X86202068Y-70686842D01*
X86145000Y-70973740D01*
X86145000Y-71266260D01*
X86202068Y-71553158D01*
X86314010Y-71823411D01*
X86476525Y-72066632D01*
X86683368Y-72273475D01*
X86857760Y-72390000D01*
X86683368Y-72506525D01*
X86476525Y-72713368D01*
X86314010Y-72956589D01*
X86202068Y-73226842D01*
X86145000Y-73513740D01*
X86145000Y-73806260D01*
X86202068Y-74093158D01*
X86314010Y-74363411D01*
X86476525Y-74606632D01*
X86683368Y-74813475D01*
X86857760Y-74930000D01*
X86683368Y-75046525D01*
X86476525Y-75253368D01*
X86314010Y-75496589D01*
X86202068Y-75766842D01*
X86145000Y-76053740D01*
X86145000Y-76346260D01*
X86202068Y-76633158D01*
X86314010Y-76903411D01*
X86476525Y-77146632D01*
X86683368Y-77353475D01*
X86857760Y-77470000D01*
X86683368Y-77586525D01*
X86476525Y-77793368D01*
X86314010Y-78036589D01*
X86202068Y-78306842D01*
X86145000Y-78593740D01*
X86145000Y-78886260D01*
X86202068Y-79173158D01*
X86314010Y-79443411D01*
X86476525Y-79686632D01*
X86683368Y-79893475D01*
X86857760Y-80010000D01*
X86683368Y-80126525D01*
X86476525Y-80333368D01*
X86314010Y-80576589D01*
X86202068Y-80846842D01*
X86145000Y-81133740D01*
X86145000Y-81426260D01*
X86202068Y-81713158D01*
X86314010Y-81983411D01*
X86476525Y-82226632D01*
X86683368Y-82433475D01*
X86857760Y-82550000D01*
X86683368Y-82666525D01*
X86476525Y-82873368D01*
X86351822Y-83060000D01*
X85127333Y-83060000D01*
X85090000Y-83056323D01*
X85052667Y-83060000D01*
X84941014Y-83070997D01*
X84797753Y-83114454D01*
X84665724Y-83185026D01*
X84549999Y-83279999D01*
X84526201Y-83308997D01*
X82715000Y-85120198D01*
X82715000Y-84948665D01*
X82659853Y-84671426D01*
X82551680Y-84410273D01*
X82394637Y-84175241D01*
X82194759Y-83975363D01*
X81959727Y-83818320D01*
X81698574Y-83710147D01*
X81421335Y-83655000D01*
X81138665Y-83655000D01*
X80956114Y-83691312D01*
X80413784Y-83148983D01*
X80389981Y-83119979D01*
X80274256Y-83025006D01*
X80142227Y-82954434D01*
X79998966Y-82910977D01*
X79887313Y-82899980D01*
X79887302Y-82899980D01*
X79849980Y-82896304D01*
X79812658Y-82899980D01*
X76940541Y-82899980D01*
X76853320Y-82769445D01*
X76743095Y-82659220D01*
X76853320Y-82548995D01*
X77006205Y-82320187D01*
X77111514Y-82065950D01*
X77165200Y-81796052D01*
X77165200Y-81520868D01*
X77111514Y-81250970D01*
X77006205Y-80996733D01*
X76853320Y-80767925D01*
X76744365Y-80658970D01*
X76853320Y-80550015D01*
X77006205Y-80321207D01*
X77111514Y-80066970D01*
X77165200Y-79797072D01*
X77165200Y-79521888D01*
X77111514Y-79251990D01*
X77006205Y-78997753D01*
X76853320Y-78768945D01*
X76743095Y-78658720D01*
X76853320Y-78548495D01*
X77006205Y-78319687D01*
X77111514Y-78065450D01*
X77165200Y-77795552D01*
X77165200Y-77520368D01*
X77111514Y-77250470D01*
X77006205Y-76996233D01*
X76853320Y-76767425D01*
X76658735Y-76572840D01*
X76429927Y-76419955D01*
X76292748Y-76363133D01*
X75768200Y-75838585D01*
X75243652Y-76363133D01*
X75106473Y-76419955D01*
X74877665Y-76572840D01*
X74683080Y-76767425D01*
X74530195Y-76996233D01*
X74424886Y-77250470D01*
X74371200Y-77520368D01*
X74371200Y-77795552D01*
X74424886Y-78065450D01*
X74530195Y-78319687D01*
X74683080Y-78548495D01*
X74793305Y-78658720D01*
X74683080Y-78768945D01*
X74530195Y-78997753D01*
X74424886Y-79251990D01*
X74371200Y-79521888D01*
X74371200Y-79797072D01*
X74424886Y-80066970D01*
X74530195Y-80321207D01*
X74683080Y-80550015D01*
X74792035Y-80658970D01*
X74683080Y-80767925D01*
X74530195Y-80996733D01*
X74424886Y-81250970D01*
X74371200Y-81520868D01*
X74371200Y-81796052D01*
X74424886Y-82065950D01*
X74530195Y-82320187D01*
X74683080Y-82548995D01*
X74793305Y-82659220D01*
X74683080Y-82769445D01*
X74530195Y-82998253D01*
X74424886Y-83252490D01*
X74371200Y-83522388D01*
X74371200Y-83797572D01*
X74424886Y-84067470D01*
X74530195Y-84321707D01*
X74683080Y-84550515D01*
X74792035Y-84659470D01*
X74683080Y-84768425D01*
X74530195Y-84997233D01*
X74424886Y-85251470D01*
X74371200Y-85521368D01*
X74371200Y-85796552D01*
X74424886Y-86066450D01*
X74530195Y-86320687D01*
X74683080Y-86549495D01*
X74792035Y-86658450D01*
X74683080Y-86767405D01*
X74530195Y-86996213D01*
X74427553Y-87244011D01*
X64260000Y-77076459D01*
X64260000Y-75730997D01*
X74366290Y-75730997D01*
X74407278Y-76003113D01*
X74500564Y-76262003D01*
X74562544Y-76377960D01*
X74802635Y-76444940D01*
X75588595Y-75658980D01*
X75947805Y-75658980D01*
X76733765Y-76444940D01*
X76973856Y-76377960D01*
X77090956Y-76128932D01*
X77157223Y-75861845D01*
X77170110Y-75586963D01*
X77129122Y-75314847D01*
X77035836Y-75055957D01*
X76973856Y-74940000D01*
X76733765Y-74873020D01*
X75947805Y-75658980D01*
X75588595Y-75658980D01*
X74802635Y-74873020D01*
X74562544Y-74940000D01*
X74445444Y-75189028D01*
X74379177Y-75456115D01*
X74366290Y-75730997D01*
X64260000Y-75730997D01*
X64260000Y-74693415D01*
X74982240Y-74693415D01*
X75768200Y-75479375D01*
X76554160Y-74693415D01*
X76487180Y-74453324D01*
X76238152Y-74336224D01*
X75971065Y-74269957D01*
X75696183Y-74257070D01*
X75424067Y-74298058D01*
X75165177Y-74391344D01*
X75049220Y-74453324D01*
X74982240Y-74693415D01*
X64260000Y-74693415D01*
X64260000Y-65819872D01*
X77775000Y-65819872D01*
X77775000Y-66260128D01*
X77860890Y-66691925D01*
X78029369Y-67098669D01*
X78273962Y-67464729D01*
X78585271Y-67776038D01*
X78951331Y-68020631D01*
X79358075Y-68189110D01*
X79789872Y-68275000D01*
X80230128Y-68275000D01*
X80661925Y-68189110D01*
X81068669Y-68020631D01*
X81434729Y-67776038D01*
X81746038Y-67464729D01*
X81990631Y-67098669D01*
X82159110Y-66691925D01*
X82245000Y-66260128D01*
X82245000Y-65819872D01*
X82159110Y-65388075D01*
X81990631Y-64981331D01*
X81746038Y-64615271D01*
X81434729Y-64303962D01*
X81068669Y-64059369D01*
X80661925Y-63890890D01*
X80230128Y-63805000D01*
X79789872Y-63805000D01*
X79358075Y-63890890D01*
X78951331Y-64059369D01*
X78585271Y-64303962D01*
X78273962Y-64615271D01*
X78029369Y-64981331D01*
X77860890Y-65388075D01*
X77775000Y-65819872D01*
X64260000Y-65819872D01*
X64260000Y-60968178D01*
X64446632Y-60843475D01*
X64578487Y-60711620D01*
X64600498Y-60784180D01*
X64659463Y-60894494D01*
X64738815Y-60991185D01*
X64835506Y-61070537D01*
X64945820Y-61129502D01*
X65065518Y-61165812D01*
X65190000Y-61178072D01*
X66890000Y-61178072D01*
X67014482Y-61165812D01*
X67134180Y-61129502D01*
X67244494Y-61070537D01*
X67341185Y-60991185D01*
X67420537Y-60894494D01*
X67479502Y-60784180D01*
X67515812Y-60664482D01*
X67528072Y-60540000D01*
X67528072Y-59817000D01*
X72105000Y-59817000D01*
X72105000Y-60617000D01*
X72161193Y-60933532D01*
X72278058Y-61233020D01*
X72451105Y-61503954D01*
X72673683Y-61735922D01*
X72937239Y-61920010D01*
X73231645Y-62049144D01*
X73359566Y-62080124D01*
X73613000Y-61960777D01*
X73613000Y-59817000D01*
X73867000Y-59817000D01*
X73867000Y-61960777D01*
X74120434Y-62080124D01*
X74248355Y-62049144D01*
X74542761Y-61920010D01*
X74806317Y-61735922D01*
X75028895Y-61503954D01*
X75201942Y-61233020D01*
X75318807Y-60933532D01*
X75375000Y-60617000D01*
X75375000Y-59817000D01*
X73867000Y-59817000D01*
X73613000Y-59817000D01*
X72105000Y-59817000D01*
X67528072Y-59817000D01*
X67528072Y-58840000D01*
X67520489Y-58763000D01*
X72105000Y-58763000D01*
X72105000Y-59563000D01*
X73613000Y-59563000D01*
X73613000Y-57419223D01*
X73867000Y-57419223D01*
X73867000Y-59563000D01*
X75375000Y-59563000D01*
X75375000Y-58763000D01*
X75318807Y-58446468D01*
X75201942Y-58146980D01*
X75028895Y-57876046D01*
X74806317Y-57644078D01*
X74542761Y-57459990D01*
X74248355Y-57330856D01*
X74120434Y-57299876D01*
X73867000Y-57419223D01*
X73613000Y-57419223D01*
X73359566Y-57299876D01*
X73231645Y-57330856D01*
X72937239Y-57459990D01*
X72673683Y-57644078D01*
X72451105Y-57876046D01*
X72278058Y-58146980D01*
X72161193Y-58446468D01*
X72105000Y-58763000D01*
X67520489Y-58763000D01*
X67515812Y-58715518D01*
X67479502Y-58595820D01*
X67420537Y-58485506D01*
X67341185Y-58388815D01*
X67244494Y-58309463D01*
X67134180Y-58250498D01*
X67014482Y-58214188D01*
X66890000Y-58201928D01*
X65190000Y-58201928D01*
X65065518Y-58214188D01*
X64945820Y-58250498D01*
X64835506Y-58309463D01*
X64738815Y-58388815D01*
X64659463Y-58485506D01*
X64600498Y-58595820D01*
X64578487Y-58668380D01*
X64446632Y-58536525D01*
X64203411Y-58374010D01*
X63933158Y-58262068D01*
X63646260Y-58205000D01*
X63353740Y-58205000D01*
X63066842Y-58262068D01*
X62796589Y-58374010D01*
X62553368Y-58536525D01*
X62346525Y-58743368D01*
X62230000Y-58917760D01*
X62113475Y-58743368D01*
X61906632Y-58536525D01*
X61663411Y-58374010D01*
X61393158Y-58262068D01*
X61106260Y-58205000D01*
X60813740Y-58205000D01*
X60526842Y-58262068D01*
X60256589Y-58374010D01*
X60013368Y-58536525D01*
X59806525Y-58743368D01*
X59690000Y-58917760D01*
X59573475Y-58743368D01*
X59366632Y-58536525D01*
X59123411Y-58374010D01*
X58853158Y-58262068D01*
X58566260Y-58205000D01*
X58273740Y-58205000D01*
X57986842Y-58262068D01*
X57716589Y-58374010D01*
X57473368Y-58536525D01*
X57266525Y-58743368D01*
X57150000Y-58917760D01*
X57033475Y-58743368D01*
X56826632Y-58536525D01*
X56583411Y-58374010D01*
X56313158Y-58262068D01*
X56026260Y-58205000D01*
X55733740Y-58205000D01*
X55446842Y-58262068D01*
X55176589Y-58374010D01*
X54933368Y-58536525D01*
X54726525Y-58743368D01*
X54604805Y-58925534D01*
X54535178Y-58808645D01*
X54340269Y-58592412D01*
X54106920Y-58418359D01*
X53844099Y-58293175D01*
X53696890Y-58248524D01*
X53467000Y-58369845D01*
X53467000Y-59563000D01*
X53487000Y-59563000D01*
X53487000Y-59817000D01*
X53467000Y-59817000D01*
X53467000Y-61010155D01*
X53696890Y-61131476D01*
X53844099Y-61086825D01*
X54106920Y-60961641D01*
X54340269Y-60787588D01*
X54535178Y-60571355D01*
X54604805Y-60454466D01*
X54726525Y-60636632D01*
X54933368Y-60843475D01*
X55176589Y-61005990D01*
X55446842Y-61117932D01*
X55733740Y-61175000D01*
X56026260Y-61175000D01*
X56313158Y-61117932D01*
X56583411Y-61005990D01*
X56826632Y-60843475D01*
X57033475Y-60636632D01*
X57150000Y-60462240D01*
X57266525Y-60636632D01*
X57473368Y-60843475D01*
X57716589Y-61005990D01*
X57986842Y-61117932D01*
X58273740Y-61175000D01*
X58566260Y-61175000D01*
X58853158Y-61117932D01*
X59123411Y-61005990D01*
X59366632Y-60843475D01*
X59573475Y-60636632D01*
X59690000Y-60462240D01*
X59806525Y-60636632D01*
X60013368Y-60843475D01*
X60200001Y-60968179D01*
X60200000Y-76162667D01*
X60200000Y-76812918D01*
X60196324Y-76850240D01*
X60200000Y-76887562D01*
X60200000Y-76887572D01*
X60210997Y-76999225D01*
X60241267Y-77099014D01*
X60254454Y-77142486D01*
X60325026Y-77274516D01*
X60364871Y-77323066D01*
X60419999Y-77390241D01*
X60449003Y-77414044D01*
X74401828Y-91366870D01*
X74371200Y-91520848D01*
X74371200Y-91796032D01*
X74424886Y-92065930D01*
X74530195Y-92320167D01*
X74683080Y-92548975D01*
X74793305Y-92659200D01*
X74683080Y-92769425D01*
X74530195Y-92998233D01*
X74424886Y-93252470D01*
X74371200Y-93522368D01*
X74371200Y-93797552D01*
X74424886Y-94067450D01*
X74530195Y-94321687D01*
X74683080Y-94550495D01*
X74877665Y-94745080D01*
X75106473Y-94897965D01*
X75360710Y-95003274D01*
X75630608Y-95056960D01*
X75905792Y-95056960D01*
X76175690Y-95003274D01*
X76429927Y-94897965D01*
X76658735Y-94745080D01*
X76853320Y-94550495D01*
X76940541Y-94419960D01*
X80108756Y-94419960D01*
X80061957Y-94490000D01*
X80047322Y-94490000D01*
X80009999Y-94486324D01*
X79972676Y-94490000D01*
X79972667Y-94490000D01*
X79861014Y-94500997D01*
X79717753Y-94544454D01*
X79585724Y-94615026D01*
X79469999Y-94709999D01*
X79446201Y-94738997D01*
X78229003Y-95956196D01*
X78199999Y-95979999D01*
X78144871Y-96047174D01*
X78105026Y-96095724D01*
X78074984Y-96151928D01*
X78034454Y-96227754D01*
X77990997Y-96371015D01*
X77980000Y-96482668D01*
X77980000Y-96482678D01*
X77976324Y-96520000D01*
X77980000Y-96557323D01*
X77980001Y-100261687D01*
X77761495Y-100407688D01*
X77547688Y-100621495D01*
X77379701Y-100872905D01*
X77263989Y-101152257D01*
X77205000Y-101448816D01*
X77205000Y-101751184D01*
X77263989Y-102047743D01*
X77379701Y-102327095D01*
X77547688Y-102578505D01*
X77761495Y-102792312D01*
X78012905Y-102960299D01*
X78292257Y-103076011D01*
X78588816Y-103135000D01*
X78891184Y-103135000D01*
X79187743Y-103076011D01*
X79467095Y-102960299D01*
X79718505Y-102792312D01*
X79784944Y-102725873D01*
X79790498Y-102744180D01*
X79849463Y-102854494D01*
X79928815Y-102951185D01*
X80025506Y-103030537D01*
X80135820Y-103089502D01*
X80255518Y-103125812D01*
X80380000Y-103138072D01*
X80994250Y-103135000D01*
X81153000Y-102976250D01*
X81153000Y-101727000D01*
X81407000Y-101727000D01*
X81407000Y-102976250D01*
X81565750Y-103135000D01*
X82180000Y-103138072D01*
X82304482Y-103125812D01*
X82424180Y-103089502D01*
X82534494Y-103030537D01*
X82631185Y-102951185D01*
X82710537Y-102854494D01*
X82769502Y-102744180D01*
X82805812Y-102624482D01*
X82818072Y-102500000D01*
X82815000Y-101885750D01*
X82656250Y-101727000D01*
X81407000Y-101727000D01*
X81153000Y-101727000D01*
X81133000Y-101727000D01*
X81133000Y-101473000D01*
X81153000Y-101473000D01*
X81153000Y-100223750D01*
X81407000Y-100223750D01*
X81407000Y-101473000D01*
X82656250Y-101473000D01*
X82815000Y-101314250D01*
X82818072Y-100700000D01*
X82805812Y-100575518D01*
X82769502Y-100455820D01*
X82710537Y-100345506D01*
X82631185Y-100248815D01*
X82534494Y-100169463D01*
X82424180Y-100110498D01*
X82304482Y-100074188D01*
X82180000Y-100061928D01*
X81565750Y-100065000D01*
X81407000Y-100223750D01*
X81153000Y-100223750D01*
X80994250Y-100065000D01*
X80380000Y-100061928D01*
X80255518Y-100074188D01*
X80135820Y-100110498D01*
X80025506Y-100169463D01*
X79928815Y-100248815D01*
X79849463Y-100345506D01*
X79790498Y-100455820D01*
X79784944Y-100474127D01*
X79718505Y-100407688D01*
X79500000Y-100261687D01*
X79500000Y-96834801D01*
X80167703Y-96167099D01*
X80365241Y-96364637D01*
X80600273Y-96521680D01*
X80861426Y-96629853D01*
X81138665Y-96685000D01*
X81421335Y-96685000D01*
X81698574Y-96629853D01*
X81959727Y-96521680D01*
X82194759Y-96364637D01*
X82394637Y-96164759D01*
X82551680Y-95929727D01*
X82659853Y-95668574D01*
X82715000Y-95391335D01*
X82715000Y-95219802D01*
X83256200Y-95761002D01*
X83279999Y-95790001D01*
X83308997Y-95813799D01*
X83395723Y-95884974D01*
X83527751Y-95955545D01*
X83527753Y-95955546D01*
X83671014Y-95999003D01*
X83782667Y-96010000D01*
X83782676Y-96010000D01*
X83819999Y-96013676D01*
X83857322Y-96010000D01*
X86233897Y-96010000D01*
X86202068Y-96086842D01*
X86145000Y-96373740D01*
X86145000Y-96666260D01*
X86202068Y-96953158D01*
X86314010Y-97223411D01*
X86476525Y-97466632D01*
X86683368Y-97673475D01*
X86857760Y-97790000D01*
X86683368Y-97906525D01*
X86476525Y-98113368D01*
X86314010Y-98356589D01*
X86202068Y-98626842D01*
X86145000Y-98913740D01*
X86145000Y-99206260D01*
X86202068Y-99493158D01*
X86314010Y-99763411D01*
X86476525Y-100006632D01*
X86683368Y-100213475D01*
X86857760Y-100330000D01*
X86683368Y-100446525D01*
X86476525Y-100653368D01*
X86314010Y-100896589D01*
X86202068Y-101166842D01*
X86145000Y-101453740D01*
X86145000Y-101746260D01*
X86202068Y-102033158D01*
X86314010Y-102303411D01*
X86476525Y-102546632D01*
X86683368Y-102753475D01*
X86857760Y-102870000D01*
X86683368Y-102986525D01*
X86476525Y-103193368D01*
X86314010Y-103436589D01*
X86202068Y-103706842D01*
X86145000Y-103993740D01*
X86145000Y-104286260D01*
X86202068Y-104573158D01*
X86314010Y-104843411D01*
X86476525Y-105086632D01*
X86683368Y-105293475D01*
X86857760Y-105410000D01*
X86683368Y-105526525D01*
X86476525Y-105733368D01*
X86314010Y-105976589D01*
X86202068Y-106246842D01*
X86145000Y-106533740D01*
X86145000Y-106826260D01*
X86202068Y-107113158D01*
X86314010Y-107383411D01*
X86476525Y-107626632D01*
X86683368Y-107833475D01*
X86857760Y-107950000D01*
X86683368Y-108066525D01*
X86476525Y-108273368D01*
X86314010Y-108516589D01*
X86202068Y-108786842D01*
X86145000Y-109073740D01*
X86145000Y-109366260D01*
X86202068Y-109653158D01*
X86314010Y-109923411D01*
X86476525Y-110166632D01*
X86683368Y-110373475D01*
X86857760Y-110490000D01*
X86683368Y-110606525D01*
X86476525Y-110813368D01*
X86314010Y-111056589D01*
X86202068Y-111326842D01*
X86145000Y-111613740D01*
X86145000Y-111906260D01*
X86202068Y-112193158D01*
X86314010Y-112463411D01*
X86476525Y-112706632D01*
X86683368Y-112913475D01*
X86865534Y-113035195D01*
X86748645Y-113104822D01*
X86532412Y-113299731D01*
X86358359Y-113533080D01*
X86233175Y-113795901D01*
X86188524Y-113943110D01*
X86309845Y-114173000D01*
X87503000Y-114173000D01*
X87503000Y-114153000D01*
X87757000Y-114153000D01*
X87757000Y-114173000D01*
X88950155Y-114173000D01*
X89071476Y-113943110D01*
X89026825Y-113795901D01*
X88901641Y-113533080D01*
X88727588Y-113299731D01*
X88511355Y-113104822D01*
X88394466Y-113035195D01*
X88576632Y-112913475D01*
X88783475Y-112706632D01*
X88945990Y-112463411D01*
X89057932Y-112193158D01*
X89115000Y-111906260D01*
X89115000Y-111613740D01*
X89057932Y-111326842D01*
X88945990Y-111056589D01*
X88783475Y-110813368D01*
X88576632Y-110606525D01*
X88402240Y-110490000D01*
X88576632Y-110373475D01*
X88783475Y-110166632D01*
X88945990Y-109923411D01*
X89057932Y-109653158D01*
X89115000Y-109366260D01*
X89115000Y-109073740D01*
X89057932Y-108786842D01*
X88945990Y-108516589D01*
X88783475Y-108273368D01*
X88576632Y-108066525D01*
X88402240Y-107950000D01*
X88576632Y-107833475D01*
X88783475Y-107626632D01*
X88945990Y-107383411D01*
X89057932Y-107113158D01*
X89115000Y-106826260D01*
X89115000Y-106533740D01*
X89057932Y-106246842D01*
X88945990Y-105976589D01*
X88783475Y-105733368D01*
X88576632Y-105526525D01*
X88402240Y-105410000D01*
X88576632Y-105293475D01*
X88783475Y-105086632D01*
X88945990Y-104843411D01*
X89057932Y-104573158D01*
X89115000Y-104286260D01*
X89115000Y-103993740D01*
X89057932Y-103706842D01*
X88945990Y-103436589D01*
X88800628Y-103219039D01*
X94728096Y-103219039D01*
X94745633Y-103301818D01*
X94856285Y-103561646D01*
X95015500Y-103794895D01*
X95217161Y-103992601D01*
X95453517Y-104147166D01*
X95715486Y-104252650D01*
X95993000Y-104305000D01*
X96393000Y-104305000D01*
X96393000Y-102997000D01*
X96647000Y-102997000D01*
X96647000Y-104305000D01*
X97047000Y-104305000D01*
X97324514Y-104252650D01*
X97586483Y-104147166D01*
X97822839Y-103992601D01*
X98024500Y-103794895D01*
X98183715Y-103561646D01*
X98294367Y-103301818D01*
X98311904Y-103219039D01*
X98189915Y-102997000D01*
X96647000Y-102997000D01*
X96393000Y-102997000D01*
X94850085Y-102997000D01*
X94728096Y-103219039D01*
X88800628Y-103219039D01*
X88783475Y-103193368D01*
X88576632Y-102986525D01*
X88402240Y-102870000D01*
X88576632Y-102753475D01*
X88783475Y-102546632D01*
X88945990Y-102303411D01*
X89057932Y-102033158D01*
X89115000Y-101746260D01*
X89115000Y-101453740D01*
X89057932Y-101166842D01*
X88945990Y-100896589D01*
X88783475Y-100653368D01*
X88576632Y-100446525D01*
X88402240Y-100330000D01*
X88576632Y-100213475D01*
X88783475Y-100006632D01*
X88945990Y-99763411D01*
X89057932Y-99493158D01*
X89115000Y-99206260D01*
X89115000Y-98913740D01*
X89057932Y-98626842D01*
X88945990Y-98356589D01*
X88783475Y-98113368D01*
X88576632Y-97906525D01*
X88402240Y-97790000D01*
X88576632Y-97673475D01*
X88783475Y-97466632D01*
X88945990Y-97223411D01*
X89057932Y-96953158D01*
X89115000Y-96666260D01*
X89115000Y-96373740D01*
X89057932Y-96086842D01*
X89026103Y-96010000D01*
X91402678Y-96010000D01*
X91440000Y-96013676D01*
X91477322Y-96010000D01*
X91477333Y-96010000D01*
X91588986Y-95999003D01*
X91732247Y-95955546D01*
X91864276Y-95884974D01*
X91980001Y-95790001D01*
X92003804Y-95760997D01*
X94721527Y-93043274D01*
X94787818Y-93261808D01*
X94921068Y-93511101D01*
X95100392Y-93729608D01*
X95318899Y-93908932D01*
X95451858Y-93980000D01*
X95318899Y-94051068D01*
X95100392Y-94230392D01*
X94921068Y-94448899D01*
X94787818Y-94698192D01*
X94705764Y-94968691D01*
X94678057Y-95250000D01*
X94705764Y-95531309D01*
X94787818Y-95801808D01*
X94921068Y-96051101D01*
X95100392Y-96269608D01*
X95318899Y-96448932D01*
X95451858Y-96520000D01*
X95318899Y-96591068D01*
X95100392Y-96770392D01*
X94921068Y-96988899D01*
X94787818Y-97238192D01*
X94705764Y-97508691D01*
X94678057Y-97790000D01*
X94705764Y-98071309D01*
X94787818Y-98341808D01*
X94921068Y-98591101D01*
X95100392Y-98809608D01*
X95318899Y-98988932D01*
X95451858Y-99060000D01*
X95318899Y-99131068D01*
X95100392Y-99310392D01*
X94921068Y-99528899D01*
X94787818Y-99778192D01*
X94705764Y-100048691D01*
X94678057Y-100330000D01*
X94705764Y-100611309D01*
X94787818Y-100881808D01*
X94921068Y-101131101D01*
X95100392Y-101349608D01*
X95318899Y-101528932D01*
X95446741Y-101597265D01*
X95217161Y-101747399D01*
X95015500Y-101945105D01*
X94856285Y-102178354D01*
X94745633Y-102438182D01*
X94728096Y-102520961D01*
X94850085Y-102743000D01*
X96393000Y-102743000D01*
X96393000Y-102723000D01*
X96647000Y-102723000D01*
X96647000Y-102743000D01*
X98189915Y-102743000D01*
X98311904Y-102520961D01*
X98294367Y-102438182D01*
X98183715Y-102178354D01*
X98024500Y-101945105D01*
X97822839Y-101747399D01*
X97593259Y-101597265D01*
X97721101Y-101528932D01*
X97939608Y-101349608D01*
X98118932Y-101131101D01*
X98252182Y-100881808D01*
X98334236Y-100611309D01*
X98361943Y-100330000D01*
X98334236Y-100048691D01*
X98252182Y-99778192D01*
X98118932Y-99528899D01*
X97939608Y-99310392D01*
X97721101Y-99131068D01*
X97588142Y-99060000D01*
X97721101Y-98988932D01*
X97939608Y-98809608D01*
X98118932Y-98591101D01*
X98252182Y-98341808D01*
X98334236Y-98071309D01*
X98361943Y-97790000D01*
X98334236Y-97508691D01*
X98252182Y-97238192D01*
X98118932Y-96988899D01*
X97939608Y-96770392D01*
X97721101Y-96591068D01*
X97588142Y-96520000D01*
X97721101Y-96448932D01*
X97939608Y-96269608D01*
X98118932Y-96051101D01*
X98252182Y-95801808D01*
X98334236Y-95531309D01*
X98361943Y-95250000D01*
X98334236Y-94968691D01*
X98252182Y-94698192D01*
X98118932Y-94448899D01*
X97939608Y-94230392D01*
X97721101Y-94051068D01*
X97588142Y-93980000D01*
X97721101Y-93908932D01*
X97939608Y-93729608D01*
X98118932Y-93511101D01*
X98252182Y-93261808D01*
X98334236Y-92991309D01*
X98361943Y-92710000D01*
X98334236Y-92428691D01*
X98264864Y-92200000D01*
X99022678Y-92200000D01*
X99060000Y-92203676D01*
X99097322Y-92200000D01*
X99097333Y-92200000D01*
X99208986Y-92189003D01*
X99352247Y-92145546D01*
X99484276Y-92074974D01*
X99595000Y-91984105D01*
X99595001Y-99023885D01*
X99591444Y-99060000D01*
X99605635Y-99204085D01*
X99637884Y-99310392D01*
X99647664Y-99342633D01*
X99715914Y-99470320D01*
X99807763Y-99582238D01*
X99835807Y-99605253D01*
X102456907Y-102226353D01*
X102407818Y-102318192D01*
X102325764Y-102588691D01*
X102298057Y-102870000D01*
X102325764Y-103151309D01*
X102407818Y-103421808D01*
X102541068Y-103671101D01*
X102720392Y-103889608D01*
X102938899Y-104068932D01*
X103188192Y-104202182D01*
X103380001Y-104260366D01*
X103380001Y-105372668D01*
X103376324Y-105410000D01*
X103390998Y-105558985D01*
X103434454Y-105702246D01*
X103505026Y-105834276D01*
X103572361Y-105916323D01*
X103600000Y-105950001D01*
X103628998Y-105973799D01*
X111588790Y-113933592D01*
X111586204Y-113946598D01*
X106769803Y-109130197D01*
X106750557Y-109114403D01*
X106728601Y-109102667D01*
X106704776Y-109095440D01*
X106680000Y-109093000D01*
X90170000Y-109093000D01*
X90145224Y-109095440D01*
X90121399Y-109102667D01*
X90099443Y-109114403D01*
X90080197Y-109130197D01*
X90064403Y-109149443D01*
X90052667Y-109171399D01*
X90045440Y-109195224D01*
X90043000Y-109220000D01*
X90043000Y-115443000D01*
X88569242Y-115443000D01*
X88727588Y-115300269D01*
X88901641Y-115066920D01*
X89026825Y-114804099D01*
X89071476Y-114656890D01*
X88950155Y-114427000D01*
X87757000Y-114427000D01*
X87757000Y-114447000D01*
X87503000Y-114447000D01*
X87503000Y-114427000D01*
X86309845Y-114427000D01*
X86188524Y-114656890D01*
X86233175Y-114804099D01*
X86358359Y-115066920D01*
X86532412Y-115300269D01*
X86690758Y-115443000D01*
X57458080Y-115443000D01*
X57800548Y-115191088D01*
X58160849Y-114527118D01*
X58384694Y-113805615D01*
X58463480Y-113054305D01*
X58394178Y-112302062D01*
X58179452Y-111577792D01*
X57827555Y-110909330D01*
X57800548Y-110868912D01*
X57310881Y-110508724D01*
X54789605Y-113030000D01*
X54803748Y-113044143D01*
X54624143Y-113223748D01*
X54610000Y-113209605D01*
X54595858Y-113223748D01*
X54416253Y-113044143D01*
X54430395Y-113030000D01*
X51909119Y-110508724D01*
X51419452Y-110868912D01*
X51059151Y-111532882D01*
X50927000Y-111958835D01*
X50927000Y-110329119D01*
X52088724Y-110329119D01*
X54610000Y-112850395D01*
X57131276Y-110329119D01*
X56771088Y-109839452D01*
X56107118Y-109479151D01*
X55385615Y-109255306D01*
X54634305Y-109176520D01*
X53882062Y-109245822D01*
X53157792Y-109460548D01*
X52489330Y-109812445D01*
X52448912Y-109839452D01*
X52088724Y-110329119D01*
X50927000Y-110329119D01*
X50927000Y-75521388D01*
X52374800Y-75521388D01*
X52374800Y-75796572D01*
X52428486Y-76066470D01*
X52533795Y-76320707D01*
X52686680Y-76549515D01*
X52795635Y-76658470D01*
X52686680Y-76767425D01*
X52533795Y-76996233D01*
X52428486Y-77250470D01*
X52374800Y-77520368D01*
X52374800Y-77795552D01*
X52428486Y-78065450D01*
X52533795Y-78319687D01*
X52686680Y-78548495D01*
X52796905Y-78658720D01*
X52686680Y-78768945D01*
X52533795Y-78997753D01*
X52428486Y-79251990D01*
X52374800Y-79521888D01*
X52374800Y-79797072D01*
X52428486Y-80066970D01*
X52533795Y-80321207D01*
X52686680Y-80550015D01*
X52795635Y-80658970D01*
X52686680Y-80767925D01*
X52533795Y-80996733D01*
X52428486Y-81250970D01*
X52374800Y-81520868D01*
X52374800Y-81796052D01*
X52428486Y-82065950D01*
X52533795Y-82320187D01*
X52686680Y-82548995D01*
X52796905Y-82659220D01*
X52686680Y-82769445D01*
X52533795Y-82998253D01*
X52428486Y-83252490D01*
X52374800Y-83522388D01*
X52374800Y-83797572D01*
X52428486Y-84067470D01*
X52533795Y-84321707D01*
X52686680Y-84550515D01*
X52795635Y-84659470D01*
X52686680Y-84768425D01*
X52533795Y-84997233D01*
X52428486Y-85251470D01*
X52374800Y-85521368D01*
X52374800Y-85796552D01*
X52428486Y-86066450D01*
X52533795Y-86320687D01*
X52686680Y-86549495D01*
X52795635Y-86658450D01*
X52686680Y-86767405D01*
X52533795Y-86996213D01*
X52428486Y-87250450D01*
X52374800Y-87520348D01*
X52374800Y-87795532D01*
X52428486Y-88065430D01*
X52533795Y-88319667D01*
X52686680Y-88548475D01*
X52796905Y-88658700D01*
X52686680Y-88768925D01*
X52533795Y-88997733D01*
X52428486Y-89251970D01*
X52374800Y-89521868D01*
X52374800Y-89797052D01*
X52428486Y-90066950D01*
X52533795Y-90321187D01*
X52686680Y-90549995D01*
X52795635Y-90658950D01*
X52686680Y-90767905D01*
X52533795Y-90996713D01*
X52428486Y-91250950D01*
X52374800Y-91520848D01*
X52374800Y-91796032D01*
X52428486Y-92065930D01*
X52533795Y-92320167D01*
X52686680Y-92548975D01*
X52796905Y-92659200D01*
X52686680Y-92769425D01*
X52533795Y-92998233D01*
X52428486Y-93252470D01*
X52374800Y-93522368D01*
X52374800Y-93797552D01*
X52428486Y-94067450D01*
X52533795Y-94321687D01*
X52686680Y-94550495D01*
X52881265Y-94745080D01*
X53110073Y-94897965D01*
X53364310Y-95003274D01*
X53634208Y-95056960D01*
X53909392Y-95056960D01*
X54179290Y-95003274D01*
X54433527Y-94897965D01*
X54662335Y-94745080D01*
X54856920Y-94550495D01*
X55009805Y-94321687D01*
X55115114Y-94067450D01*
X55168800Y-93797552D01*
X55168800Y-93522368D01*
X55115114Y-93252470D01*
X55009805Y-92998233D01*
X54856920Y-92769425D01*
X54746695Y-92659200D01*
X54856920Y-92548975D01*
X55009805Y-92320167D01*
X55115114Y-92065930D01*
X55168800Y-91796032D01*
X55168800Y-91520848D01*
X55115114Y-91250950D01*
X55009805Y-90996713D01*
X54856920Y-90767905D01*
X54747965Y-90658950D01*
X54856920Y-90549995D01*
X55009805Y-90321187D01*
X55115114Y-90066950D01*
X55168800Y-89797052D01*
X55168800Y-89521868D01*
X55115114Y-89251970D01*
X55009805Y-88997733D01*
X54856920Y-88768925D01*
X54746695Y-88658700D01*
X54856920Y-88548475D01*
X55009805Y-88319667D01*
X55115114Y-88065430D01*
X55168800Y-87795532D01*
X55168800Y-87520348D01*
X55115114Y-87250450D01*
X55009805Y-86996213D01*
X54856920Y-86767405D01*
X54747965Y-86658450D01*
X54856920Y-86549495D01*
X55009805Y-86320687D01*
X55115114Y-86066450D01*
X55168800Y-85796552D01*
X55168800Y-85521368D01*
X55115114Y-85251470D01*
X55009805Y-84997233D01*
X54856920Y-84768425D01*
X54747965Y-84659470D01*
X54856920Y-84550515D01*
X54944141Y-84419980D01*
X60485179Y-84419980D01*
X62740000Y-86674802D01*
X62740001Y-108001956D01*
X62585241Y-108105363D01*
X62385363Y-108305241D01*
X62228320Y-108540273D01*
X62120147Y-108801426D01*
X62065000Y-109078665D01*
X62065000Y-109361335D01*
X62120147Y-109638574D01*
X62228320Y-109899727D01*
X62385363Y-110134759D01*
X62585241Y-110334637D01*
X62820273Y-110491680D01*
X63081426Y-110599853D01*
X63358665Y-110655000D01*
X63641335Y-110655000D01*
X63918574Y-110599853D01*
X64179727Y-110491680D01*
X64414759Y-110334637D01*
X64614637Y-110134759D01*
X64771680Y-109899727D01*
X64879853Y-109638574D01*
X64935000Y-109361335D01*
X64935000Y-109078665D01*
X72225000Y-109078665D01*
X72225000Y-109361335D01*
X72280147Y-109638574D01*
X72388320Y-109899727D01*
X72545363Y-110134759D01*
X72745241Y-110334637D01*
X72980273Y-110491680D01*
X73241426Y-110599853D01*
X73518665Y-110655000D01*
X73801335Y-110655000D01*
X74078574Y-110599853D01*
X74339727Y-110491680D01*
X74574759Y-110334637D01*
X74774637Y-110134759D01*
X74878043Y-109980000D01*
X77401687Y-109980000D01*
X77547688Y-110198505D01*
X77761495Y-110412312D01*
X78012905Y-110580299D01*
X78292257Y-110696011D01*
X78588816Y-110755000D01*
X78891184Y-110755000D01*
X79187743Y-110696011D01*
X79467095Y-110580299D01*
X79718505Y-110412312D01*
X79784944Y-110345873D01*
X79790498Y-110364180D01*
X79849463Y-110474494D01*
X79928815Y-110571185D01*
X80025506Y-110650537D01*
X80135820Y-110709502D01*
X80255518Y-110745812D01*
X80380000Y-110758072D01*
X80994250Y-110755000D01*
X81153000Y-110596250D01*
X81153000Y-109347000D01*
X81407000Y-109347000D01*
X81407000Y-110596250D01*
X81565750Y-110755000D01*
X82180000Y-110758072D01*
X82304482Y-110745812D01*
X82424180Y-110709502D01*
X82534494Y-110650537D01*
X82631185Y-110571185D01*
X82710537Y-110474494D01*
X82769502Y-110364180D01*
X82805812Y-110244482D01*
X82818072Y-110120000D01*
X82815000Y-109505750D01*
X82656250Y-109347000D01*
X81407000Y-109347000D01*
X81153000Y-109347000D01*
X81133000Y-109347000D01*
X81133000Y-109093000D01*
X81153000Y-109093000D01*
X81153000Y-107843750D01*
X81407000Y-107843750D01*
X81407000Y-109093000D01*
X82656250Y-109093000D01*
X82815000Y-108934250D01*
X82818072Y-108320000D01*
X82805812Y-108195518D01*
X82769502Y-108075820D01*
X82710537Y-107965506D01*
X82631185Y-107868815D01*
X82534494Y-107789463D01*
X82424180Y-107730498D01*
X82304482Y-107694188D01*
X82180000Y-107681928D01*
X81565750Y-107685000D01*
X81407000Y-107843750D01*
X81153000Y-107843750D01*
X80994250Y-107685000D01*
X80380000Y-107681928D01*
X80255518Y-107694188D01*
X80135820Y-107730498D01*
X80025506Y-107789463D01*
X79928815Y-107868815D01*
X79849463Y-107965506D01*
X79790498Y-108075820D01*
X79784944Y-108094127D01*
X79718505Y-108027688D01*
X79467095Y-107859701D01*
X79187743Y-107743989D01*
X78891184Y-107685000D01*
X78588816Y-107685000D01*
X78292257Y-107743989D01*
X78012905Y-107859701D01*
X77761495Y-108027688D01*
X77547688Y-108241495D01*
X77401687Y-108460000D01*
X74878043Y-108460000D01*
X74774637Y-108305241D01*
X74574759Y-108105363D01*
X74339727Y-107948320D01*
X74078574Y-107840147D01*
X73801335Y-107785000D01*
X73518665Y-107785000D01*
X73241426Y-107840147D01*
X72980273Y-107948320D01*
X72745241Y-108105363D01*
X72545363Y-108305241D01*
X72388320Y-108540273D01*
X72280147Y-108801426D01*
X72225000Y-109078665D01*
X64935000Y-109078665D01*
X64879853Y-108801426D01*
X64771680Y-108540273D01*
X64614637Y-108305241D01*
X64414759Y-108105363D01*
X64260000Y-108001957D01*
X64260000Y-86397323D01*
X64263676Y-86360000D01*
X64260000Y-86322677D01*
X64260000Y-86322667D01*
X64249003Y-86211014D01*
X64205546Y-86067753D01*
X64171875Y-86004759D01*
X64134974Y-85935723D01*
X64063799Y-85848997D01*
X64040001Y-85819999D01*
X64011003Y-85796201D01*
X61363784Y-83148983D01*
X61339981Y-83119979D01*
X61224256Y-83025006D01*
X61092227Y-82954434D01*
X60948966Y-82910977D01*
X60837313Y-82899980D01*
X60837302Y-82899980D01*
X60799980Y-82896304D01*
X60762658Y-82899980D01*
X54944141Y-82899980D01*
X54856920Y-82769445D01*
X54746695Y-82659220D01*
X54856920Y-82548995D01*
X55009805Y-82320187D01*
X55115114Y-82065950D01*
X55168800Y-81796052D01*
X55168800Y-81520868D01*
X55115114Y-81250970D01*
X55009805Y-80996733D01*
X54856920Y-80767925D01*
X54747965Y-80658970D01*
X54856920Y-80550015D01*
X55009805Y-80321207D01*
X55115114Y-80066970D01*
X55168800Y-79797072D01*
X55168800Y-79521888D01*
X55115114Y-79251990D01*
X55009805Y-78997753D01*
X54856920Y-78768945D01*
X54746695Y-78658720D01*
X54856920Y-78548495D01*
X55009805Y-78319687D01*
X55115114Y-78065450D01*
X55168800Y-77795552D01*
X55168800Y-77520368D01*
X55115114Y-77250470D01*
X55009805Y-76996233D01*
X54856920Y-76767425D01*
X54747965Y-76658470D01*
X54856920Y-76549515D01*
X55009805Y-76320707D01*
X55115114Y-76066470D01*
X55168800Y-75796572D01*
X55168800Y-75521388D01*
X55115114Y-75251490D01*
X55009805Y-74997253D01*
X54856920Y-74768445D01*
X54662335Y-74573860D01*
X54433527Y-74420975D01*
X54179290Y-74315666D01*
X53909392Y-74261980D01*
X53634208Y-74261980D01*
X53364310Y-74315666D01*
X53110073Y-74420975D01*
X52881265Y-74573860D01*
X52686680Y-74768445D01*
X52533795Y-74997253D01*
X52428486Y-75251490D01*
X52374800Y-75521388D01*
X50927000Y-75521388D01*
X50927000Y-60046891D01*
X51898519Y-60046891D01*
X51995843Y-60321252D01*
X52144822Y-60571355D01*
X52339731Y-60787588D01*
X52573080Y-60961641D01*
X52835901Y-61086825D01*
X52983110Y-61131476D01*
X53213000Y-61010155D01*
X53213000Y-59817000D01*
X52019186Y-59817000D01*
X51898519Y-60046891D01*
X50927000Y-60046891D01*
X50927000Y-59333109D01*
X51898519Y-59333109D01*
X52019186Y-59563000D01*
X53213000Y-59563000D01*
X53213000Y-58369845D01*
X52983110Y-58248524D01*
X52835901Y-58293175D01*
X52573080Y-58418359D01*
X52339731Y-58592412D01*
X52144822Y-58808645D01*
X51995843Y-59058748D01*
X51898519Y-59333109D01*
X50927000Y-59333109D01*
X50927000Y-49657000D01*
X135763000Y-49657000D01*
X135763000Y-115443000D01*
G37*
X135763000Y-115443000D02*
X126896447Y-115443000D01*
X127494197Y-114845250D01*
X127522237Y-114822238D01*
X127545250Y-114794197D01*
X127545253Y-114794194D01*
X127614086Y-114710321D01*
X127614087Y-114710320D01*
X127682337Y-114582633D01*
X127689435Y-114559233D01*
X127793088Y-114602168D01*
X128108967Y-114665000D01*
X128431033Y-114665000D01*
X128746912Y-114602168D01*
X129044463Y-114478918D01*
X129312252Y-114299987D01*
X129539987Y-114072252D01*
X129718918Y-113804463D01*
X129842168Y-113506912D01*
X129905000Y-113191033D01*
X129905000Y-112868967D01*
X129893246Y-112809872D01*
X131115000Y-112809872D01*
X131115000Y-113250128D01*
X131200890Y-113681925D01*
X131369369Y-114088669D01*
X131613962Y-114454729D01*
X131925271Y-114766038D01*
X132291331Y-115010631D01*
X132698075Y-115179110D01*
X133129872Y-115265000D01*
X133570128Y-115265000D01*
X134001925Y-115179110D01*
X134408669Y-115010631D01*
X134774729Y-114766038D01*
X135086038Y-114454729D01*
X135330631Y-114088669D01*
X135499110Y-113681925D01*
X135585000Y-113250128D01*
X135585000Y-112809872D01*
X135499110Y-112378075D01*
X135330631Y-111971331D01*
X135086038Y-111605271D01*
X134774729Y-111293962D01*
X134408669Y-111049369D01*
X134001925Y-110880890D01*
X133570128Y-110795000D01*
X133129872Y-110795000D01*
X132698075Y-110880890D01*
X132291331Y-111049369D01*
X131925271Y-111293962D01*
X131613962Y-111605271D01*
X131369369Y-111971331D01*
X131200890Y-112378075D01*
X131115000Y-112809872D01*
X129893246Y-112809872D01*
X129842168Y-112553088D01*
X129836177Y-112538624D01*
X131771013Y-110603789D01*
X131800010Y-110579992D01*
X131894983Y-110464267D01*
X131965555Y-110332238D01*
X132009012Y-110188977D01*
X132020009Y-110077324D01*
X132020009Y-110077315D01*
X132023685Y-110039992D01*
X132020009Y-110002669D01*
X132020009Y-58904511D01*
X132023685Y-58867188D01*
X132020009Y-58829865D01*
X132020009Y-58829856D01*
X132009012Y-58718203D01*
X131965555Y-58574942D01*
X131894983Y-58442913D01*
X131835018Y-58369845D01*
X131823808Y-58356185D01*
X131823804Y-58356181D01*
X131800010Y-58327188D01*
X131771017Y-58303394D01*
X127566624Y-54099003D01*
X127542821Y-54069999D01*
X127427096Y-53975026D01*
X127295067Y-53904454D01*
X127151806Y-53860997D01*
X127040153Y-53850000D01*
X127040142Y-53850000D01*
X127002820Y-53846324D01*
X126965498Y-53850000D01*
X115847323Y-53850000D01*
X115810000Y-53846324D01*
X115772677Y-53850000D01*
X115772667Y-53850000D01*
X115661014Y-53860997D01*
X115517753Y-53904454D01*
X115385723Y-53975026D01*
X115365132Y-53991925D01*
X115269999Y-54069999D01*
X115246201Y-54098997D01*
X111740780Y-57604418D01*
X111642752Y-57523969D01*
X111358715Y-57372148D01*
X111050516Y-57278657D01*
X110730000Y-57247089D01*
X110409485Y-57278657D01*
X110101286Y-57372148D01*
X109817249Y-57523969D01*
X109568287Y-57728286D01*
X109363970Y-57977248D01*
X109212149Y-58261285D01*
X109118658Y-58569484D01*
X109095000Y-58809678D01*
X109095000Y-60570321D01*
X109118657Y-60810515D01*
X109212148Y-61118714D01*
X109363969Y-61402751D01*
X109568286Y-61651714D01*
X109817248Y-61856031D01*
X110101285Y-62007852D01*
X110409484Y-62101343D01*
X110730000Y-62132911D01*
X111050515Y-62101343D01*
X111358714Y-62007852D01*
X111642751Y-61856031D01*
X111891714Y-61651714D01*
X112096031Y-61402752D01*
X112247852Y-61118715D01*
X112341343Y-60810516D01*
X112365000Y-60570322D01*
X112365000Y-59129801D01*
X116124802Y-55370000D01*
X118975198Y-55370000D01*
X116740780Y-57604418D01*
X116642752Y-57523969D01*
X116358715Y-57372148D01*
X116050516Y-57278657D01*
X115730000Y-57247089D01*
X115409485Y-57278657D01*
X115101286Y-57372148D01*
X114817249Y-57523969D01*
X114568287Y-57728286D01*
X114363970Y-57977248D01*
X114212149Y-58261285D01*
X114118658Y-58569484D01*
X114095000Y-58809678D01*
X114095000Y-60570321D01*
X114118657Y-60810515D01*
X114212148Y-61118714D01*
X114363969Y-61402751D01*
X114568286Y-61651714D01*
X114817248Y-61856031D01*
X115101285Y-62007852D01*
X115409484Y-62101343D01*
X115730000Y-62132911D01*
X116050515Y-62101343D01*
X116358714Y-62007852D01*
X116642751Y-61856031D01*
X116891714Y-61651714D01*
X117096031Y-61402752D01*
X117247852Y-61118715D01*
X117341343Y-60810516D01*
X117365000Y-60570322D01*
X117365000Y-59129801D01*
X119854802Y-56640000D01*
X122705198Y-56640000D01*
X121740780Y-57604418D01*
X121642752Y-57523969D01*
X121358715Y-57372148D01*
X121050516Y-57278657D01*
X120730000Y-57247089D01*
X120409485Y-57278657D01*
X120101286Y-57372148D01*
X119817249Y-57523969D01*
X119568287Y-57728286D01*
X119363970Y-57977248D01*
X119212149Y-58261285D01*
X119118658Y-58569484D01*
X119095000Y-58809678D01*
X119095000Y-60570321D01*
X119118657Y-60810515D01*
X119212148Y-61118714D01*
X119363969Y-61402751D01*
X119568286Y-61651714D01*
X119817248Y-61856031D01*
X120101285Y-62007852D01*
X120409484Y-62101343D01*
X120730000Y-62132911D01*
X121050515Y-62101343D01*
X121358714Y-62007852D01*
X121642751Y-61856031D01*
X121891714Y-61651714D01*
X122096031Y-61402752D01*
X122247852Y-61118715D01*
X122341343Y-60810516D01*
X122365000Y-60570322D01*
X122365000Y-59129801D01*
X124854802Y-56640000D01*
X126685199Y-56640000D01*
X128835002Y-58789804D01*
X128835001Y-85991928D01*
X127270000Y-85991928D01*
X127145518Y-86004188D01*
X127025820Y-86040498D01*
X126915506Y-86099463D01*
X126818815Y-86178815D01*
X126739463Y-86275506D01*
X126714809Y-86321630D01*
X126504463Y-86181082D01*
X126206912Y-86057832D01*
X125891033Y-85995000D01*
X125568967Y-85995000D01*
X125253088Y-86057832D01*
X124955537Y-86181082D01*
X124687748Y-86360013D01*
X124460013Y-86587748D01*
X124281082Y-86855537D01*
X124157832Y-87153088D01*
X124095000Y-87468967D01*
X124095000Y-87791033D01*
X124157832Y-88106912D01*
X124281082Y-88404463D01*
X124460013Y-88672252D01*
X124687748Y-88899987D01*
X124955537Y-89078918D01*
X124995001Y-89095264D01*
X124995001Y-90133885D01*
X124991444Y-90170000D01*
X125005635Y-90314085D01*
X125047262Y-90451309D01*
X125047664Y-90452633D01*
X125115914Y-90580320D01*
X125207763Y-90692238D01*
X125235808Y-90715254D01*
X125595554Y-91075000D01*
X125568967Y-91075000D01*
X125253088Y-91137832D01*
X124955537Y-91261082D01*
X124687748Y-91440013D01*
X124460013Y-91667748D01*
X124281082Y-91935537D01*
X124157832Y-92233088D01*
X124095000Y-92548967D01*
X124095000Y-92871033D01*
X124157832Y-93186912D01*
X124163823Y-93201375D01*
X120138998Y-97226201D01*
X120110000Y-97249999D01*
X120086202Y-97278997D01*
X120086201Y-97278998D01*
X120015026Y-97365724D01*
X119944454Y-97497754D01*
X119921023Y-97575000D01*
X119900999Y-97641013D01*
X119900998Y-97641015D01*
X119886324Y-97790000D01*
X119890001Y-97827332D01*
X119890000Y-112715197D01*
X119743545Y-112861653D01*
X119682168Y-112553088D01*
X119558918Y-112255537D01*
X119379987Y-111987748D01*
X119152252Y-111760013D01*
X118884463Y-111581082D01*
X118870000Y-111575091D01*
X118870000Y-109404909D01*
X118884463Y-109398918D01*
X119152252Y-109219987D01*
X119379987Y-108992252D01*
X119558918Y-108724463D01*
X119682168Y-108426912D01*
X119745000Y-108111033D01*
X119745000Y-107788967D01*
X119682168Y-107473088D01*
X119558918Y-107175537D01*
X119379987Y-106907748D01*
X119152252Y-106680013D01*
X118884463Y-106501082D01*
X118870000Y-106495091D01*
X118870000Y-104324909D01*
X118884463Y-104318918D01*
X119152252Y-104139987D01*
X119379987Y-103912252D01*
X119558918Y-103644463D01*
X119682168Y-103346912D01*
X119745000Y-103031033D01*
X119745000Y-102708967D01*
X119682168Y-102393088D01*
X119558918Y-102095537D01*
X119379987Y-101827748D01*
X119152252Y-101600013D01*
X118884463Y-101421082D01*
X118870000Y-101415091D01*
X118870000Y-99244909D01*
X118884463Y-99238918D01*
X119152252Y-99059987D01*
X119379987Y-98832252D01*
X119558918Y-98564463D01*
X119682168Y-98266912D01*
X119745000Y-97951033D01*
X119745000Y-97628967D01*
X119682168Y-97313088D01*
X119558918Y-97015537D01*
X119379987Y-96747748D01*
X119152252Y-96520013D01*
X118884463Y-96341082D01*
X118870000Y-96335091D01*
X118870000Y-94164909D01*
X118884463Y-94158918D01*
X119152252Y-93979987D01*
X119379987Y-93752252D01*
X119558918Y-93484463D01*
X119682168Y-93186912D01*
X119745000Y-92871033D01*
X119745000Y-92548967D01*
X119682168Y-92233088D01*
X119558918Y-91935537D01*
X119379987Y-91667748D01*
X119152252Y-91440013D01*
X118884463Y-91261082D01*
X118870000Y-91255091D01*
X118870000Y-89084909D01*
X118884463Y-89078918D01*
X119152252Y-88899987D01*
X119379987Y-88672252D01*
X119558918Y-88404463D01*
X119682168Y-88106912D01*
X119745000Y-87791033D01*
X119745000Y-87468967D01*
X119682168Y-87153088D01*
X119676177Y-87138624D01*
X122526003Y-84288799D01*
X122555000Y-84265002D01*
X122649973Y-84149277D01*
X122720545Y-84017248D01*
X122764002Y-83873987D01*
X122774999Y-83762334D01*
X122774999Y-83762333D01*
X122778676Y-83725001D01*
X122774999Y-83687668D01*
X122774999Y-80171544D01*
X123043740Y-80225000D01*
X123336260Y-80225000D01*
X123623158Y-80167932D01*
X123893411Y-80055990D01*
X124136632Y-79893475D01*
X124343475Y-79686632D01*
X124465195Y-79504466D01*
X124534822Y-79621355D01*
X124729731Y-79837588D01*
X124963080Y-80011641D01*
X125225901Y-80136825D01*
X125373110Y-80181476D01*
X125603000Y-80060155D01*
X125603000Y-78867000D01*
X125857000Y-78867000D01*
X125857000Y-80060155D01*
X126086890Y-80181476D01*
X126234099Y-80136825D01*
X126496920Y-80011641D01*
X126730269Y-79837588D01*
X126925178Y-79621355D01*
X127074157Y-79371252D01*
X127171481Y-79096891D01*
X127050814Y-78867000D01*
X125857000Y-78867000D01*
X125603000Y-78867000D01*
X125583000Y-78867000D01*
X125583000Y-78613000D01*
X125603000Y-78613000D01*
X125603000Y-77419845D01*
X125857000Y-77419845D01*
X125857000Y-78613000D01*
X127050814Y-78613000D01*
X127171481Y-78383109D01*
X127074157Y-78108748D01*
X126925178Y-77858645D01*
X126730269Y-77642412D01*
X126496920Y-77468359D01*
X126234099Y-77343175D01*
X126086890Y-77298524D01*
X125857000Y-77419845D01*
X125603000Y-77419845D01*
X125373110Y-77298524D01*
X125314999Y-77316150D01*
X125314999Y-76353850D01*
X125373110Y-76371476D01*
X125603000Y-76250155D01*
X125603000Y-75057000D01*
X125857000Y-75057000D01*
X125857000Y-76250155D01*
X126086890Y-76371476D01*
X126234099Y-76326825D01*
X126496920Y-76201641D01*
X126730269Y-76027588D01*
X126925178Y-75811355D01*
X127074157Y-75561252D01*
X127171481Y-75286891D01*
X127050814Y-75057000D01*
X125857000Y-75057000D01*
X125603000Y-75057000D01*
X125583000Y-75057000D01*
X125583000Y-74803000D01*
X125603000Y-74803000D01*
X125603000Y-73609845D01*
X125857000Y-73609845D01*
X125857000Y-74803000D01*
X127050814Y-74803000D01*
X127171481Y-74573109D01*
X127074157Y-74298748D01*
X126925178Y-74048645D01*
X126730269Y-73832412D01*
X126496920Y-73658359D01*
X126234099Y-73533175D01*
X126086890Y-73488524D01*
X125857000Y-73609845D01*
X125603000Y-73609845D01*
X125373110Y-73488524D01*
X125314999Y-73506150D01*
X125314999Y-62128072D01*
X126480000Y-62128072D01*
X126653254Y-62111008D01*
X126819850Y-62060472D01*
X126973386Y-61978405D01*
X127107962Y-61867962D01*
X127218405Y-61733386D01*
X127300472Y-61579850D01*
X127351008Y-61413254D01*
X127368072Y-61240000D01*
X127368072Y-58140000D01*
X127351008Y-57966746D01*
X127300472Y-57800150D01*
X127218405Y-57646614D01*
X127107962Y-57512038D01*
X126973386Y-57401595D01*
X126819850Y-57319528D01*
X126653254Y-57268992D01*
X126480000Y-57251928D01*
X124980000Y-57251928D01*
X124806746Y-57268992D01*
X124640150Y-57319528D01*
X124486614Y-57401595D01*
X124352038Y-57512038D01*
X124241595Y-57646614D01*
X124159528Y-57800150D01*
X124108992Y-57966746D01*
X124091928Y-58140000D01*
X124091928Y-60253271D01*
X124044002Y-60301197D01*
X124014998Y-60325000D01*
X123959870Y-60392175D01*
X123920025Y-60440725D01*
X123913102Y-60453677D01*
X123849453Y-60572755D01*
X123805996Y-60716016D01*
X123794999Y-60827669D01*
X123794999Y-60827679D01*
X123791323Y-60865001D01*
X123794999Y-60902323D01*
X123795000Y-73573247D01*
X123623158Y-73502068D01*
X123336260Y-73445000D01*
X123043740Y-73445000D01*
X122756842Y-73502068D01*
X122486589Y-73614010D01*
X122243368Y-73776525D01*
X122111513Y-73908380D01*
X122089502Y-73835820D01*
X122030537Y-73725506D01*
X121951185Y-73628815D01*
X121854494Y-73549463D01*
X121744180Y-73490498D01*
X121624482Y-73454188D01*
X121500000Y-73441928D01*
X121410000Y-73441928D01*
X121410000Y-66077322D01*
X121413676Y-66039999D01*
X121410000Y-66002676D01*
X121410000Y-66002667D01*
X121399003Y-65891014D01*
X121355546Y-65747753D01*
X121284974Y-65615724D01*
X121227594Y-65545806D01*
X121213799Y-65528996D01*
X121213795Y-65528992D01*
X121190001Y-65499999D01*
X121161009Y-65476206D01*
X118673804Y-62989003D01*
X118650001Y-62959999D01*
X118534276Y-62865026D01*
X118402247Y-62794454D01*
X118258986Y-62750997D01*
X118147333Y-62740000D01*
X118147322Y-62740000D01*
X118110000Y-62736324D01*
X118072678Y-62740000D01*
X108264802Y-62740000D01*
X104900000Y-59375199D01*
X104900000Y-54647322D01*
X104903676Y-54609999D01*
X104900000Y-54572676D01*
X104900000Y-54572667D01*
X104889003Y-54461014D01*
X104845546Y-54317753D01*
X104774974Y-54185724D01*
X104680001Y-54069999D01*
X104651003Y-54046201D01*
X103724674Y-53119872D01*
X131115000Y-53119872D01*
X131115000Y-53560128D01*
X131200890Y-53991925D01*
X131369369Y-54398669D01*
X131613962Y-54764729D01*
X131925271Y-55076038D01*
X132291331Y-55320631D01*
X132698075Y-55489110D01*
X133129872Y-55575000D01*
X133570128Y-55575000D01*
X134001925Y-55489110D01*
X134408669Y-55320631D01*
X134774729Y-55076038D01*
X135086038Y-54764729D01*
X135330631Y-54398669D01*
X135499110Y-53991925D01*
X135585000Y-53560128D01*
X135585000Y-53119872D01*
X135499110Y-52688075D01*
X135330631Y-52281331D01*
X135086038Y-51915271D01*
X134774729Y-51603962D01*
X134408669Y-51359369D01*
X134001925Y-51190890D01*
X133570128Y-51105000D01*
X133129872Y-51105000D01*
X132698075Y-51190890D01*
X132291331Y-51359369D01*
X131925271Y-51603962D01*
X131613962Y-51915271D01*
X131369369Y-52281331D01*
X131200890Y-52688075D01*
X131115000Y-53119872D01*
X103724674Y-53119872D01*
X103433804Y-52829003D01*
X103410001Y-52799999D01*
X103294276Y-52705026D01*
X103162247Y-52634454D01*
X103018986Y-52590997D01*
X102907333Y-52580000D01*
X102907322Y-52580000D01*
X102870000Y-52576324D01*
X102832678Y-52580000D01*
X89517087Y-52580000D01*
X89505812Y-52465518D01*
X89469502Y-52345820D01*
X89410537Y-52235506D01*
X89331185Y-52138815D01*
X89234494Y-52059463D01*
X89124180Y-52000498D01*
X89004482Y-51964188D01*
X88880000Y-51951928D01*
X86380000Y-51951928D01*
X86255518Y-51964188D01*
X86135820Y-52000498D01*
X86025506Y-52059463D01*
X85928815Y-52138815D01*
X85849463Y-52235506D01*
X85790498Y-52345820D01*
X85754188Y-52465518D01*
X85742913Y-52580000D01*
X85127322Y-52580000D01*
X85089999Y-52576324D01*
X85052676Y-52580000D01*
X85052667Y-52580000D01*
X84941014Y-52590997D01*
X84797753Y-52634454D01*
X84665723Y-52705026D01*
X84582083Y-52773668D01*
X84549999Y-52799999D01*
X84526201Y-52828997D01*
X79963978Y-57391221D01*
X79829850Y-57319528D01*
X79663254Y-57268992D01*
X79490000Y-57251928D01*
X77990000Y-57251928D01*
X77816746Y-57268992D01*
X77650150Y-57319528D01*
X77496614Y-57401595D01*
X77362038Y-57512038D01*
X77251595Y-57646614D01*
X77169528Y-57800150D01*
X77118992Y-57966746D01*
X77101928Y-58140000D01*
X77101928Y-61240000D01*
X77118992Y-61413254D01*
X77169528Y-61579850D01*
X77251595Y-61733386D01*
X77362038Y-61867962D01*
X77496614Y-61978405D01*
X77650150Y-62060472D01*
X77816746Y-62111008D01*
X77990000Y-62128072D01*
X79490000Y-62128072D01*
X79663254Y-62111008D01*
X79829850Y-62060472D01*
X79983386Y-61978405D01*
X80117962Y-61867962D01*
X80228405Y-61733386D01*
X80310472Y-61579850D01*
X80361008Y-61413254D01*
X80378072Y-61240000D01*
X80378072Y-59126729D01*
X85404802Y-54100000D01*
X85742913Y-54100000D01*
X85754188Y-54214482D01*
X85790498Y-54334180D01*
X85849463Y-54444494D01*
X85928815Y-54541185D01*
X86025506Y-54620537D01*
X86135820Y-54679502D01*
X86255518Y-54715812D01*
X86364874Y-54726582D01*
X86254939Y-54798972D01*
X86060855Y-54990460D01*
X85907858Y-55216132D01*
X85801827Y-55467316D01*
X85787682Y-55538815D01*
X85910344Y-55753000D01*
X87503000Y-55753000D01*
X87503000Y-55733000D01*
X87757000Y-55733000D01*
X87757000Y-55753000D01*
X89349656Y-55753000D01*
X89472318Y-55538815D01*
X89458173Y-55467316D01*
X89352142Y-55216132D01*
X89199145Y-54990460D01*
X89005061Y-54798972D01*
X88895126Y-54726582D01*
X89004482Y-54715812D01*
X89124180Y-54679502D01*
X89234494Y-54620537D01*
X89331185Y-54541185D01*
X89410537Y-54444494D01*
X89469502Y-54334180D01*
X89505812Y-54214482D01*
X89517087Y-54100000D01*
X102555199Y-54100000D01*
X103380000Y-54924802D01*
X103380001Y-59160555D01*
X102145259Y-57925813D01*
X102122238Y-57897762D01*
X102010320Y-57805913D01*
X101882633Y-57737663D01*
X101744085Y-57695635D01*
X101636105Y-57685000D01*
X101600000Y-57681444D01*
X101563895Y-57685000D01*
X89307569Y-57685000D01*
X89287157Y-57646812D01*
X89114081Y-57435919D01*
X88903188Y-57262843D01*
X88687422Y-57147514D01*
X88777349Y-57110972D01*
X89005061Y-56961028D01*
X89199145Y-56769540D01*
X89352142Y-56543868D01*
X89458173Y-56292684D01*
X89472318Y-56221185D01*
X89349656Y-56007000D01*
X87757000Y-56007000D01*
X87757000Y-56027000D01*
X87503000Y-56027000D01*
X87503000Y-56007000D01*
X85910344Y-56007000D01*
X85787682Y-56221185D01*
X85801827Y-56292684D01*
X85907858Y-56543868D01*
X86060855Y-56769540D01*
X86254939Y-56961028D01*
X86482651Y-57110972D01*
X86572578Y-57147514D01*
X86356812Y-57262843D01*
X86145919Y-57435919D01*
X85972843Y-57646812D01*
X85844236Y-57887419D01*
X85765040Y-58148493D01*
X85738299Y-58420000D01*
X85765040Y-58691507D01*
X85844236Y-58952581D01*
X85972843Y-59193188D01*
X86145919Y-59404081D01*
X86356812Y-59577157D01*
X86597419Y-59705764D01*
X86858493Y-59784960D01*
X87061963Y-59805000D01*
X88198037Y-59805000D01*
X88401507Y-59784960D01*
X88662581Y-59705764D01*
X88903188Y-59577157D01*
X89114081Y-59404081D01*
X89287157Y-59193188D01*
X89307569Y-59155000D01*
X101295554Y-59155000D01*
X108674746Y-66534193D01*
X108697762Y-66562238D01*
X108809680Y-66654087D01*
X108937367Y-66722337D01*
X109075915Y-66764365D01*
X109183895Y-66775000D01*
X109183904Y-66775000D01*
X109219999Y-66778555D01*
X109256094Y-66775000D01*
X113995554Y-66775000D01*
X117375000Y-70154447D01*
X117375001Y-73355552D01*
X116535554Y-74195000D01*
X114415748Y-74195000D01*
X114457932Y-74093158D01*
X114515000Y-73806260D01*
X114515000Y-73513740D01*
X114457932Y-73226842D01*
X114345990Y-72956589D01*
X114183475Y-72713368D01*
X113976632Y-72506525D01*
X113802240Y-72390000D01*
X113976632Y-72273475D01*
X114183475Y-72066632D01*
X114345990Y-71823411D01*
X114457932Y-71553158D01*
X114515000Y-71266260D01*
X114515000Y-70973740D01*
X114457932Y-70686842D01*
X114345990Y-70416589D01*
X114183475Y-70173368D01*
X114051620Y-70041513D01*
X114124180Y-70019502D01*
X114234494Y-69960537D01*
X114331185Y-69881185D01*
X114410537Y-69784494D01*
X114469502Y-69674180D01*
X114505812Y-69554482D01*
X114518072Y-69430000D01*
X114518072Y-67730000D01*
X114505812Y-67605518D01*
X114469502Y-67485820D01*
X114410537Y-67375506D01*
X114331185Y-67278815D01*
X114234494Y-67199463D01*
X114124180Y-67140498D01*
X114004482Y-67104188D01*
X113880000Y-67091928D01*
X112180000Y-67091928D01*
X112055518Y-67104188D01*
X111935820Y-67140498D01*
X111825506Y-67199463D01*
X111728815Y-67278815D01*
X111649463Y-67375506D01*
X111590498Y-67485820D01*
X111554188Y-67605518D01*
X111541928Y-67730000D01*
X111541928Y-67820000D01*
X106717323Y-67820000D01*
X106680000Y-67816324D01*
X106642677Y-67820000D01*
X106642667Y-67820000D01*
X106531014Y-67830997D01*
X106387753Y-67874454D01*
X106255723Y-67945026D01*
X106172083Y-68013668D01*
X106139999Y-68039999D01*
X106116201Y-68068997D01*
X101088998Y-73096201D01*
X101060000Y-73119999D01*
X101036202Y-73148997D01*
X101036201Y-73148998D01*
X100965026Y-73235724D01*
X100894454Y-73367754D01*
X100871023Y-73445000D01*
X100857222Y-73490498D01*
X100850998Y-73511015D01*
X100836324Y-73660000D01*
X100840001Y-73697333D01*
X100840000Y-83255198D01*
X99623804Y-82039003D01*
X99600001Y-82009999D01*
X99484276Y-81915026D01*
X99352247Y-81844454D01*
X99208986Y-81800997D01*
X99097333Y-81790000D01*
X99097322Y-81790000D01*
X99060000Y-81786324D01*
X99022678Y-81790000D01*
X94017325Y-81790000D01*
X93980000Y-81786324D01*
X93942675Y-81790000D01*
X93942667Y-81790000D01*
X93831014Y-81800997D01*
X93687753Y-81844454D01*
X93555724Y-81915026D01*
X93439999Y-82009999D01*
X93416201Y-82038997D01*
X89855199Y-85600000D01*
X88908178Y-85600000D01*
X88783475Y-85413368D01*
X88576632Y-85206525D01*
X88402240Y-85090000D01*
X88576632Y-84973475D01*
X88783475Y-84766632D01*
X88945990Y-84523411D01*
X89057932Y-84253158D01*
X89115000Y-83966260D01*
X89115000Y-83673740D01*
X89057932Y-83386842D01*
X88945990Y-83116589D01*
X88783475Y-82873368D01*
X88576632Y-82666525D01*
X88402240Y-82550000D01*
X88576632Y-82433475D01*
X88783475Y-82226632D01*
X88945990Y-81983411D01*
X89057932Y-81713158D01*
X89115000Y-81426260D01*
X89115000Y-81133740D01*
X89057932Y-80846842D01*
X88945990Y-80576589D01*
X88783475Y-80333368D01*
X88576632Y-80126525D01*
X88402240Y-80010000D01*
X88576632Y-79893475D01*
X88783475Y-79686632D01*
X88945990Y-79443411D01*
X89057932Y-79173158D01*
X89115000Y-78886260D01*
X89115000Y-78593740D01*
X89057932Y-78306842D01*
X88945990Y-78036589D01*
X88783475Y-77793368D01*
X88576632Y-77586525D01*
X88402240Y-77470000D01*
X88576632Y-77353475D01*
X88783475Y-77146632D01*
X88945990Y-76903411D01*
X89057932Y-76633158D01*
X89115000Y-76346260D01*
X89115000Y-76053740D01*
X89057932Y-75766842D01*
X88945990Y-75496589D01*
X88783475Y-75253368D01*
X88576632Y-75046525D01*
X88402240Y-74930000D01*
X88576632Y-74813475D01*
X88783475Y-74606632D01*
X88945990Y-74363411D01*
X89057932Y-74093158D01*
X89115000Y-73806260D01*
X89115000Y-73513740D01*
X89057932Y-73226842D01*
X88945990Y-72956589D01*
X88783475Y-72713368D01*
X88576632Y-72506525D01*
X88402240Y-72390000D01*
X88576632Y-72273475D01*
X88783475Y-72066632D01*
X88945990Y-71823411D01*
X89057932Y-71553158D01*
X89115000Y-71266260D01*
X89115000Y-70973740D01*
X89057932Y-70686842D01*
X88945990Y-70416589D01*
X88783475Y-70173368D01*
X88651620Y-70041513D01*
X88724180Y-70019502D01*
X88834494Y-69960537D01*
X88931185Y-69881185D01*
X89010537Y-69784494D01*
X89069502Y-69674180D01*
X89105812Y-69554482D01*
X89118072Y-69430000D01*
X89118072Y-67730000D01*
X89105812Y-67605518D01*
X89069502Y-67485820D01*
X89010537Y-67375506D01*
X88931185Y-67278815D01*
X88834494Y-67199463D01*
X88724180Y-67140498D01*
X88604482Y-67104188D01*
X88480000Y-67091928D01*
X86780000Y-67091928D01*
X86655518Y-67104188D01*
X86535820Y-67140498D01*
X86425506Y-67199463D01*
X86328815Y-67278815D01*
X86249463Y-67375506D01*
X86190498Y-67485820D01*
X86154188Y-67605518D01*
X86141928Y-67730000D01*
X86141928Y-69430000D01*
X86154188Y-69554482D01*
X86190498Y-69674180D01*
X86249463Y-69784494D01*
X86328815Y-69881185D01*
X86425506Y-69960537D01*
X86535820Y-70019502D01*
X86608380Y-70041513D01*
X86476525Y-70173368D01*
X86314010Y-70416589D01*
X86202068Y-70686842D01*
X86145000Y-70973740D01*
X86145000Y-71266260D01*
X86202068Y-71553158D01*
X86314010Y-71823411D01*
X86476525Y-72066632D01*
X86683368Y-72273475D01*
X86857760Y-72390000D01*
X86683368Y-72506525D01*
X86476525Y-72713368D01*
X86314010Y-72956589D01*
X86202068Y-73226842D01*
X86145000Y-73513740D01*
X86145000Y-73806260D01*
X86202068Y-74093158D01*
X86314010Y-74363411D01*
X86476525Y-74606632D01*
X86683368Y-74813475D01*
X86857760Y-74930000D01*
X86683368Y-75046525D01*
X86476525Y-75253368D01*
X86314010Y-75496589D01*
X86202068Y-75766842D01*
X86145000Y-76053740D01*
X86145000Y-76346260D01*
X86202068Y-76633158D01*
X86314010Y-76903411D01*
X86476525Y-77146632D01*
X86683368Y-77353475D01*
X86857760Y-77470000D01*
X86683368Y-77586525D01*
X86476525Y-77793368D01*
X86314010Y-78036589D01*
X86202068Y-78306842D01*
X86145000Y-78593740D01*
X86145000Y-78886260D01*
X86202068Y-79173158D01*
X86314010Y-79443411D01*
X86476525Y-79686632D01*
X86683368Y-79893475D01*
X86857760Y-80010000D01*
X86683368Y-80126525D01*
X86476525Y-80333368D01*
X86314010Y-80576589D01*
X86202068Y-80846842D01*
X86145000Y-81133740D01*
X86145000Y-81426260D01*
X86202068Y-81713158D01*
X86314010Y-81983411D01*
X86476525Y-82226632D01*
X86683368Y-82433475D01*
X86857760Y-82550000D01*
X86683368Y-82666525D01*
X86476525Y-82873368D01*
X86351822Y-83060000D01*
X85127333Y-83060000D01*
X85090000Y-83056323D01*
X85052667Y-83060000D01*
X84941014Y-83070997D01*
X84797753Y-83114454D01*
X84665724Y-83185026D01*
X84549999Y-83279999D01*
X84526201Y-83308997D01*
X82715000Y-85120198D01*
X82715000Y-84948665D01*
X82659853Y-84671426D01*
X82551680Y-84410273D01*
X82394637Y-84175241D01*
X82194759Y-83975363D01*
X81959727Y-83818320D01*
X81698574Y-83710147D01*
X81421335Y-83655000D01*
X81138665Y-83655000D01*
X80956114Y-83691312D01*
X80413784Y-83148983D01*
X80389981Y-83119979D01*
X80274256Y-83025006D01*
X80142227Y-82954434D01*
X79998966Y-82910977D01*
X79887313Y-82899980D01*
X79887302Y-82899980D01*
X79849980Y-82896304D01*
X79812658Y-82899980D01*
X76940541Y-82899980D01*
X76853320Y-82769445D01*
X76743095Y-82659220D01*
X76853320Y-82548995D01*
X77006205Y-82320187D01*
X77111514Y-82065950D01*
X77165200Y-81796052D01*
X77165200Y-81520868D01*
X77111514Y-81250970D01*
X77006205Y-80996733D01*
X76853320Y-80767925D01*
X76744365Y-80658970D01*
X76853320Y-80550015D01*
X77006205Y-80321207D01*
X77111514Y-80066970D01*
X77165200Y-79797072D01*
X77165200Y-79521888D01*
X77111514Y-79251990D01*
X77006205Y-78997753D01*
X76853320Y-78768945D01*
X76743095Y-78658720D01*
X76853320Y-78548495D01*
X77006205Y-78319687D01*
X77111514Y-78065450D01*
X77165200Y-77795552D01*
X77165200Y-77520368D01*
X77111514Y-77250470D01*
X77006205Y-76996233D01*
X76853320Y-76767425D01*
X76658735Y-76572840D01*
X76429927Y-76419955D01*
X76292748Y-76363133D01*
X75768200Y-75838585D01*
X75243652Y-76363133D01*
X75106473Y-76419955D01*
X74877665Y-76572840D01*
X74683080Y-76767425D01*
X74530195Y-76996233D01*
X74424886Y-77250470D01*
X74371200Y-77520368D01*
X74371200Y-77795552D01*
X74424886Y-78065450D01*
X74530195Y-78319687D01*
X74683080Y-78548495D01*
X74793305Y-78658720D01*
X74683080Y-78768945D01*
X74530195Y-78997753D01*
X74424886Y-79251990D01*
X74371200Y-79521888D01*
X74371200Y-79797072D01*
X74424886Y-80066970D01*
X74530195Y-80321207D01*
X74683080Y-80550015D01*
X74792035Y-80658970D01*
X74683080Y-80767925D01*
X74530195Y-80996733D01*
X74424886Y-81250970D01*
X74371200Y-81520868D01*
X74371200Y-81796052D01*
X74424886Y-82065950D01*
X74530195Y-82320187D01*
X74683080Y-82548995D01*
X74793305Y-82659220D01*
X74683080Y-82769445D01*
X74530195Y-82998253D01*
X74424886Y-83252490D01*
X74371200Y-83522388D01*
X74371200Y-83797572D01*
X74424886Y-84067470D01*
X74530195Y-84321707D01*
X74683080Y-84550515D01*
X74792035Y-84659470D01*
X74683080Y-84768425D01*
X74530195Y-84997233D01*
X74424886Y-85251470D01*
X74371200Y-85521368D01*
X74371200Y-85796552D01*
X74424886Y-86066450D01*
X74530195Y-86320687D01*
X74683080Y-86549495D01*
X74792035Y-86658450D01*
X74683080Y-86767405D01*
X74530195Y-86996213D01*
X74427553Y-87244011D01*
X64260000Y-77076459D01*
X64260000Y-75730997D01*
X74366290Y-75730997D01*
X74407278Y-76003113D01*
X74500564Y-76262003D01*
X74562544Y-76377960D01*
X74802635Y-76444940D01*
X75588595Y-75658980D01*
X75947805Y-75658980D01*
X76733765Y-76444940D01*
X76973856Y-76377960D01*
X77090956Y-76128932D01*
X77157223Y-75861845D01*
X77170110Y-75586963D01*
X77129122Y-75314847D01*
X77035836Y-75055957D01*
X76973856Y-74940000D01*
X76733765Y-74873020D01*
X75947805Y-75658980D01*
X75588595Y-75658980D01*
X74802635Y-74873020D01*
X74562544Y-74940000D01*
X74445444Y-75189028D01*
X74379177Y-75456115D01*
X74366290Y-75730997D01*
X64260000Y-75730997D01*
X64260000Y-74693415D01*
X74982240Y-74693415D01*
X75768200Y-75479375D01*
X76554160Y-74693415D01*
X76487180Y-74453324D01*
X76238152Y-74336224D01*
X75971065Y-74269957D01*
X75696183Y-74257070D01*
X75424067Y-74298058D01*
X75165177Y-74391344D01*
X75049220Y-74453324D01*
X74982240Y-74693415D01*
X64260000Y-74693415D01*
X64260000Y-65819872D01*
X77775000Y-65819872D01*
X77775000Y-66260128D01*
X77860890Y-66691925D01*
X78029369Y-67098669D01*
X78273962Y-67464729D01*
X78585271Y-67776038D01*
X78951331Y-68020631D01*
X79358075Y-68189110D01*
X79789872Y-68275000D01*
X80230128Y-68275000D01*
X80661925Y-68189110D01*
X81068669Y-68020631D01*
X81434729Y-67776038D01*
X81746038Y-67464729D01*
X81990631Y-67098669D01*
X82159110Y-66691925D01*
X82245000Y-66260128D01*
X82245000Y-65819872D01*
X82159110Y-65388075D01*
X81990631Y-64981331D01*
X81746038Y-64615271D01*
X81434729Y-64303962D01*
X81068669Y-64059369D01*
X80661925Y-63890890D01*
X80230128Y-63805000D01*
X79789872Y-63805000D01*
X79358075Y-63890890D01*
X78951331Y-64059369D01*
X78585271Y-64303962D01*
X78273962Y-64615271D01*
X78029369Y-64981331D01*
X77860890Y-65388075D01*
X77775000Y-65819872D01*
X64260000Y-65819872D01*
X64260000Y-60968178D01*
X64446632Y-60843475D01*
X64578487Y-60711620D01*
X64600498Y-60784180D01*
X64659463Y-60894494D01*
X64738815Y-60991185D01*
X64835506Y-61070537D01*
X64945820Y-61129502D01*
X65065518Y-61165812D01*
X65190000Y-61178072D01*
X66890000Y-61178072D01*
X67014482Y-61165812D01*
X67134180Y-61129502D01*
X67244494Y-61070537D01*
X67341185Y-60991185D01*
X67420537Y-60894494D01*
X67479502Y-60784180D01*
X67515812Y-60664482D01*
X67528072Y-60540000D01*
X67528072Y-59817000D01*
X72105000Y-59817000D01*
X72105000Y-60617000D01*
X72161193Y-60933532D01*
X72278058Y-61233020D01*
X72451105Y-61503954D01*
X72673683Y-61735922D01*
X72937239Y-61920010D01*
X73231645Y-62049144D01*
X73359566Y-62080124D01*
X73613000Y-61960777D01*
X73613000Y-59817000D01*
X73867000Y-59817000D01*
X73867000Y-61960777D01*
X74120434Y-62080124D01*
X74248355Y-62049144D01*
X74542761Y-61920010D01*
X74806317Y-61735922D01*
X75028895Y-61503954D01*
X75201942Y-61233020D01*
X75318807Y-60933532D01*
X75375000Y-60617000D01*
X75375000Y-59817000D01*
X73867000Y-59817000D01*
X73613000Y-59817000D01*
X72105000Y-59817000D01*
X67528072Y-59817000D01*
X67528072Y-58840000D01*
X67520489Y-58763000D01*
X72105000Y-58763000D01*
X72105000Y-59563000D01*
X73613000Y-59563000D01*
X73613000Y-57419223D01*
X73867000Y-57419223D01*
X73867000Y-59563000D01*
X75375000Y-59563000D01*
X75375000Y-58763000D01*
X75318807Y-58446468D01*
X75201942Y-58146980D01*
X75028895Y-57876046D01*
X74806317Y-57644078D01*
X74542761Y-57459990D01*
X74248355Y-57330856D01*
X74120434Y-57299876D01*
X73867000Y-57419223D01*
X73613000Y-57419223D01*
X73359566Y-57299876D01*
X73231645Y-57330856D01*
X72937239Y-57459990D01*
X72673683Y-57644078D01*
X72451105Y-57876046D01*
X72278058Y-58146980D01*
X72161193Y-58446468D01*
X72105000Y-58763000D01*
X67520489Y-58763000D01*
X67515812Y-58715518D01*
X67479502Y-58595820D01*
X67420537Y-58485506D01*
X67341185Y-58388815D01*
X67244494Y-58309463D01*
X67134180Y-58250498D01*
X67014482Y-58214188D01*
X66890000Y-58201928D01*
X65190000Y-58201928D01*
X65065518Y-58214188D01*
X64945820Y-58250498D01*
X64835506Y-58309463D01*
X64738815Y-58388815D01*
X64659463Y-58485506D01*
X64600498Y-58595820D01*
X64578487Y-58668380D01*
X64446632Y-58536525D01*
X64203411Y-58374010D01*
X63933158Y-58262068D01*
X63646260Y-58205000D01*
X63353740Y-58205000D01*
X63066842Y-58262068D01*
X62796589Y-58374010D01*
X62553368Y-58536525D01*
X62346525Y-58743368D01*
X62230000Y-58917760D01*
X62113475Y-58743368D01*
X61906632Y-58536525D01*
X61663411Y-58374010D01*
X61393158Y-58262068D01*
X61106260Y-58205000D01*
X60813740Y-58205000D01*
X60526842Y-58262068D01*
X60256589Y-58374010D01*
X60013368Y-58536525D01*
X59806525Y-58743368D01*
X59690000Y-58917760D01*
X59573475Y-58743368D01*
X59366632Y-58536525D01*
X59123411Y-58374010D01*
X58853158Y-58262068D01*
X58566260Y-58205000D01*
X58273740Y-58205000D01*
X57986842Y-58262068D01*
X57716589Y-58374010D01*
X57473368Y-58536525D01*
X57266525Y-58743368D01*
X57150000Y-58917760D01*
X57033475Y-58743368D01*
X56826632Y-58536525D01*
X56583411Y-58374010D01*
X56313158Y-58262068D01*
X56026260Y-58205000D01*
X55733740Y-58205000D01*
X55446842Y-58262068D01*
X55176589Y-58374010D01*
X54933368Y-58536525D01*
X54726525Y-58743368D01*
X54604805Y-58925534D01*
X54535178Y-58808645D01*
X54340269Y-58592412D01*
X54106920Y-58418359D01*
X53844099Y-58293175D01*
X53696890Y-58248524D01*
X53467000Y-58369845D01*
X53467000Y-59563000D01*
X53487000Y-59563000D01*
X53487000Y-59817000D01*
X53467000Y-59817000D01*
X53467000Y-61010155D01*
X53696890Y-61131476D01*
X53844099Y-61086825D01*
X54106920Y-60961641D01*
X54340269Y-60787588D01*
X54535178Y-60571355D01*
X54604805Y-60454466D01*
X54726525Y-60636632D01*
X54933368Y-60843475D01*
X55176589Y-61005990D01*
X55446842Y-61117932D01*
X55733740Y-61175000D01*
X56026260Y-61175000D01*
X56313158Y-61117932D01*
X56583411Y-61005990D01*
X56826632Y-60843475D01*
X57033475Y-60636632D01*
X57150000Y-60462240D01*
X57266525Y-60636632D01*
X57473368Y-60843475D01*
X57716589Y-61005990D01*
X57986842Y-61117932D01*
X58273740Y-61175000D01*
X58566260Y-61175000D01*
X58853158Y-61117932D01*
X59123411Y-61005990D01*
X59366632Y-60843475D01*
X59573475Y-60636632D01*
X59690000Y-60462240D01*
X59806525Y-60636632D01*
X60013368Y-60843475D01*
X60200001Y-60968179D01*
X60200000Y-76162667D01*
X60200000Y-76812918D01*
X60196324Y-76850240D01*
X60200000Y-76887562D01*
X60200000Y-76887572D01*
X60210997Y-76999225D01*
X60241267Y-77099014D01*
X60254454Y-77142486D01*
X60325026Y-77274516D01*
X60364871Y-77323066D01*
X60419999Y-77390241D01*
X60449003Y-77414044D01*
X74401828Y-91366870D01*
X74371200Y-91520848D01*
X74371200Y-91796032D01*
X74424886Y-92065930D01*
X74530195Y-92320167D01*
X74683080Y-92548975D01*
X74793305Y-92659200D01*
X74683080Y-92769425D01*
X74530195Y-92998233D01*
X74424886Y-93252470D01*
X74371200Y-93522368D01*
X74371200Y-93797552D01*
X74424886Y-94067450D01*
X74530195Y-94321687D01*
X74683080Y-94550495D01*
X74877665Y-94745080D01*
X75106473Y-94897965D01*
X75360710Y-95003274D01*
X75630608Y-95056960D01*
X75905792Y-95056960D01*
X76175690Y-95003274D01*
X76429927Y-94897965D01*
X76658735Y-94745080D01*
X76853320Y-94550495D01*
X76940541Y-94419960D01*
X80108756Y-94419960D01*
X80061957Y-94490000D01*
X80047322Y-94490000D01*
X80009999Y-94486324D01*
X79972676Y-94490000D01*
X79972667Y-94490000D01*
X79861014Y-94500997D01*
X79717753Y-94544454D01*
X79585724Y-94615026D01*
X79469999Y-94709999D01*
X79446201Y-94738997D01*
X78229003Y-95956196D01*
X78199999Y-95979999D01*
X78144871Y-96047174D01*
X78105026Y-96095724D01*
X78074984Y-96151928D01*
X78034454Y-96227754D01*
X77990997Y-96371015D01*
X77980000Y-96482668D01*
X77980000Y-96482678D01*
X77976324Y-96520000D01*
X77980000Y-96557323D01*
X77980001Y-100261687D01*
X77761495Y-100407688D01*
X77547688Y-100621495D01*
X77379701Y-100872905D01*
X77263989Y-101152257D01*
X77205000Y-101448816D01*
X77205000Y-101751184D01*
X77263989Y-102047743D01*
X77379701Y-102327095D01*
X77547688Y-102578505D01*
X77761495Y-102792312D01*
X78012905Y-102960299D01*
X78292257Y-103076011D01*
X78588816Y-103135000D01*
X78891184Y-103135000D01*
X79187743Y-103076011D01*
X79467095Y-102960299D01*
X79718505Y-102792312D01*
X79784944Y-102725873D01*
X79790498Y-102744180D01*
X79849463Y-102854494D01*
X79928815Y-102951185D01*
X80025506Y-103030537D01*
X80135820Y-103089502D01*
X80255518Y-103125812D01*
X80380000Y-103138072D01*
X80994250Y-103135000D01*
X81153000Y-102976250D01*
X81153000Y-101727000D01*
X81407000Y-101727000D01*
X81407000Y-102976250D01*
X81565750Y-103135000D01*
X82180000Y-103138072D01*
X82304482Y-103125812D01*
X82424180Y-103089502D01*
X82534494Y-103030537D01*
X82631185Y-102951185D01*
X82710537Y-102854494D01*
X82769502Y-102744180D01*
X82805812Y-102624482D01*
X82818072Y-102500000D01*
X82815000Y-101885750D01*
X82656250Y-101727000D01*
X81407000Y-101727000D01*
X81153000Y-101727000D01*
X81133000Y-101727000D01*
X81133000Y-101473000D01*
X81153000Y-101473000D01*
X81153000Y-100223750D01*
X81407000Y-100223750D01*
X81407000Y-101473000D01*
X82656250Y-101473000D01*
X82815000Y-101314250D01*
X82818072Y-100700000D01*
X82805812Y-100575518D01*
X82769502Y-100455820D01*
X82710537Y-100345506D01*
X82631185Y-100248815D01*
X82534494Y-100169463D01*
X82424180Y-100110498D01*
X82304482Y-100074188D01*
X82180000Y-100061928D01*
X81565750Y-100065000D01*
X81407000Y-100223750D01*
X81153000Y-100223750D01*
X80994250Y-100065000D01*
X80380000Y-100061928D01*
X80255518Y-100074188D01*
X80135820Y-100110498D01*
X80025506Y-100169463D01*
X79928815Y-100248815D01*
X79849463Y-100345506D01*
X79790498Y-100455820D01*
X79784944Y-100474127D01*
X79718505Y-100407688D01*
X79500000Y-100261687D01*
X79500000Y-96834801D01*
X80167703Y-96167099D01*
X80365241Y-96364637D01*
X80600273Y-96521680D01*
X80861426Y-96629853D01*
X81138665Y-96685000D01*
X81421335Y-96685000D01*
X81698574Y-96629853D01*
X81959727Y-96521680D01*
X82194759Y-96364637D01*
X82394637Y-96164759D01*
X82551680Y-95929727D01*
X82659853Y-95668574D01*
X82715000Y-95391335D01*
X82715000Y-95219802D01*
X83256200Y-95761002D01*
X83279999Y-95790001D01*
X83308997Y-95813799D01*
X83395723Y-95884974D01*
X83527751Y-95955545D01*
X83527753Y-95955546D01*
X83671014Y-95999003D01*
X83782667Y-96010000D01*
X83782676Y-96010000D01*
X83819999Y-96013676D01*
X83857322Y-96010000D01*
X86233897Y-96010000D01*
X86202068Y-96086842D01*
X86145000Y-96373740D01*
X86145000Y-96666260D01*
X86202068Y-96953158D01*
X86314010Y-97223411D01*
X86476525Y-97466632D01*
X86683368Y-97673475D01*
X86857760Y-97790000D01*
X86683368Y-97906525D01*
X86476525Y-98113368D01*
X86314010Y-98356589D01*
X86202068Y-98626842D01*
X86145000Y-98913740D01*
X86145000Y-99206260D01*
X86202068Y-99493158D01*
X86314010Y-99763411D01*
X86476525Y-100006632D01*
X86683368Y-100213475D01*
X86857760Y-100330000D01*
X86683368Y-100446525D01*
X86476525Y-100653368D01*
X86314010Y-100896589D01*
X86202068Y-101166842D01*
X86145000Y-101453740D01*
X86145000Y-101746260D01*
X86202068Y-102033158D01*
X86314010Y-102303411D01*
X86476525Y-102546632D01*
X86683368Y-102753475D01*
X86857760Y-102870000D01*
X86683368Y-102986525D01*
X86476525Y-103193368D01*
X86314010Y-103436589D01*
X86202068Y-103706842D01*
X86145000Y-103993740D01*
X86145000Y-104286260D01*
X86202068Y-104573158D01*
X86314010Y-104843411D01*
X86476525Y-105086632D01*
X86683368Y-105293475D01*
X86857760Y-105410000D01*
X86683368Y-105526525D01*
X86476525Y-105733368D01*
X86314010Y-105976589D01*
X86202068Y-106246842D01*
X86145000Y-106533740D01*
X86145000Y-106826260D01*
X86202068Y-107113158D01*
X86314010Y-107383411D01*
X86476525Y-107626632D01*
X86683368Y-107833475D01*
X86857760Y-107950000D01*
X86683368Y-108066525D01*
X86476525Y-108273368D01*
X86314010Y-108516589D01*
X86202068Y-108786842D01*
X86145000Y-109073740D01*
X86145000Y-109366260D01*
X86202068Y-109653158D01*
X86314010Y-109923411D01*
X86476525Y-110166632D01*
X86683368Y-110373475D01*
X86857760Y-110490000D01*
X86683368Y-110606525D01*
X86476525Y-110813368D01*
X86314010Y-111056589D01*
X86202068Y-111326842D01*
X86145000Y-111613740D01*
X86145000Y-111906260D01*
X86202068Y-112193158D01*
X86314010Y-112463411D01*
X86476525Y-112706632D01*
X86683368Y-112913475D01*
X86865534Y-113035195D01*
X86748645Y-113104822D01*
X86532412Y-113299731D01*
X86358359Y-113533080D01*
X86233175Y-113795901D01*
X86188524Y-113943110D01*
X86309845Y-114173000D01*
X87503000Y-114173000D01*
X87503000Y-114153000D01*
X87757000Y-114153000D01*
X87757000Y-114173000D01*
X88950155Y-114173000D01*
X89071476Y-113943110D01*
X89026825Y-113795901D01*
X88901641Y-113533080D01*
X88727588Y-113299731D01*
X88511355Y-113104822D01*
X88394466Y-113035195D01*
X88576632Y-112913475D01*
X88783475Y-112706632D01*
X88945990Y-112463411D01*
X89057932Y-112193158D01*
X89115000Y-111906260D01*
X89115000Y-111613740D01*
X89057932Y-111326842D01*
X88945990Y-111056589D01*
X88783475Y-110813368D01*
X88576632Y-110606525D01*
X88402240Y-110490000D01*
X88576632Y-110373475D01*
X88783475Y-110166632D01*
X88945990Y-109923411D01*
X89057932Y-109653158D01*
X89115000Y-109366260D01*
X89115000Y-109073740D01*
X89057932Y-108786842D01*
X88945990Y-108516589D01*
X88783475Y-108273368D01*
X88576632Y-108066525D01*
X88402240Y-107950000D01*
X88576632Y-107833475D01*
X88783475Y-107626632D01*
X88945990Y-107383411D01*
X89057932Y-107113158D01*
X89115000Y-106826260D01*
X89115000Y-106533740D01*
X89057932Y-106246842D01*
X88945990Y-105976589D01*
X88783475Y-105733368D01*
X88576632Y-105526525D01*
X88402240Y-105410000D01*
X88576632Y-105293475D01*
X88783475Y-105086632D01*
X88945990Y-104843411D01*
X89057932Y-104573158D01*
X89115000Y-104286260D01*
X89115000Y-103993740D01*
X89057932Y-103706842D01*
X88945990Y-103436589D01*
X88800628Y-103219039D01*
X94728096Y-103219039D01*
X94745633Y-103301818D01*
X94856285Y-103561646D01*
X95015500Y-103794895D01*
X95217161Y-103992601D01*
X95453517Y-104147166D01*
X95715486Y-104252650D01*
X95993000Y-104305000D01*
X96393000Y-104305000D01*
X96393000Y-102997000D01*
X96647000Y-102997000D01*
X96647000Y-104305000D01*
X97047000Y-104305000D01*
X97324514Y-104252650D01*
X97586483Y-104147166D01*
X97822839Y-103992601D01*
X98024500Y-103794895D01*
X98183715Y-103561646D01*
X98294367Y-103301818D01*
X98311904Y-103219039D01*
X98189915Y-102997000D01*
X96647000Y-102997000D01*
X96393000Y-102997000D01*
X94850085Y-102997000D01*
X94728096Y-103219039D01*
X88800628Y-103219039D01*
X88783475Y-103193368D01*
X88576632Y-102986525D01*
X88402240Y-102870000D01*
X88576632Y-102753475D01*
X88783475Y-102546632D01*
X88945990Y-102303411D01*
X89057932Y-102033158D01*
X89115000Y-101746260D01*
X89115000Y-101453740D01*
X89057932Y-101166842D01*
X88945990Y-100896589D01*
X88783475Y-100653368D01*
X88576632Y-100446525D01*
X88402240Y-100330000D01*
X88576632Y-100213475D01*
X88783475Y-100006632D01*
X88945990Y-99763411D01*
X89057932Y-99493158D01*
X89115000Y-99206260D01*
X89115000Y-98913740D01*
X89057932Y-98626842D01*
X88945990Y-98356589D01*
X88783475Y-98113368D01*
X88576632Y-97906525D01*
X88402240Y-97790000D01*
X88576632Y-97673475D01*
X88783475Y-97466632D01*
X88945990Y-97223411D01*
X89057932Y-96953158D01*
X89115000Y-96666260D01*
X89115000Y-96373740D01*
X89057932Y-96086842D01*
X89026103Y-96010000D01*
X91402678Y-96010000D01*
X91440000Y-96013676D01*
X91477322Y-96010000D01*
X91477333Y-96010000D01*
X91588986Y-95999003D01*
X91732247Y-95955546D01*
X91864276Y-95884974D01*
X91980001Y-95790001D01*
X92003804Y-95760997D01*
X94721527Y-93043274D01*
X94787818Y-93261808D01*
X94921068Y-93511101D01*
X95100392Y-93729608D01*
X95318899Y-93908932D01*
X95451858Y-93980000D01*
X95318899Y-94051068D01*
X95100392Y-94230392D01*
X94921068Y-94448899D01*
X94787818Y-94698192D01*
X94705764Y-94968691D01*
X94678057Y-95250000D01*
X94705764Y-95531309D01*
X94787818Y-95801808D01*
X94921068Y-96051101D01*
X95100392Y-96269608D01*
X95318899Y-96448932D01*
X95451858Y-96520000D01*
X95318899Y-96591068D01*
X95100392Y-96770392D01*
X94921068Y-96988899D01*
X94787818Y-97238192D01*
X94705764Y-97508691D01*
X94678057Y-97790000D01*
X94705764Y-98071309D01*
X94787818Y-98341808D01*
X94921068Y-98591101D01*
X95100392Y-98809608D01*
X95318899Y-98988932D01*
X95451858Y-99060000D01*
X95318899Y-99131068D01*
X95100392Y-99310392D01*
X94921068Y-99528899D01*
X94787818Y-99778192D01*
X94705764Y-100048691D01*
X94678057Y-100330000D01*
X94705764Y-100611309D01*
X94787818Y-100881808D01*
X94921068Y-101131101D01*
X95100392Y-101349608D01*
X95318899Y-101528932D01*
X95446741Y-101597265D01*
X95217161Y-101747399D01*
X95015500Y-101945105D01*
X94856285Y-102178354D01*
X94745633Y-102438182D01*
X94728096Y-102520961D01*
X94850085Y-102743000D01*
X96393000Y-102743000D01*
X96393000Y-102723000D01*
X96647000Y-102723000D01*
X96647000Y-102743000D01*
X98189915Y-102743000D01*
X98311904Y-102520961D01*
X98294367Y-102438182D01*
X98183715Y-102178354D01*
X98024500Y-101945105D01*
X97822839Y-101747399D01*
X97593259Y-101597265D01*
X97721101Y-101528932D01*
X97939608Y-101349608D01*
X98118932Y-101131101D01*
X98252182Y-100881808D01*
X98334236Y-100611309D01*
X98361943Y-100330000D01*
X98334236Y-100048691D01*
X98252182Y-99778192D01*
X98118932Y-99528899D01*
X97939608Y-99310392D01*
X97721101Y-99131068D01*
X97588142Y-99060000D01*
X97721101Y-98988932D01*
X97939608Y-98809608D01*
X98118932Y-98591101D01*
X98252182Y-98341808D01*
X98334236Y-98071309D01*
X98361943Y-97790000D01*
X98334236Y-97508691D01*
X98252182Y-97238192D01*
X98118932Y-96988899D01*
X97939608Y-96770392D01*
X97721101Y-96591068D01*
X97588142Y-96520000D01*
X97721101Y-96448932D01*
X97939608Y-96269608D01*
X98118932Y-96051101D01*
X98252182Y-95801808D01*
X98334236Y-95531309D01*
X98361943Y-95250000D01*
X98334236Y-94968691D01*
X98252182Y-94698192D01*
X98118932Y-94448899D01*
X97939608Y-94230392D01*
X97721101Y-94051068D01*
X97588142Y-93980000D01*
X97721101Y-93908932D01*
X97939608Y-93729608D01*
X98118932Y-93511101D01*
X98252182Y-93261808D01*
X98334236Y-92991309D01*
X98361943Y-92710000D01*
X98334236Y-92428691D01*
X98264864Y-92200000D01*
X99022678Y-92200000D01*
X99060000Y-92203676D01*
X99097322Y-92200000D01*
X99097333Y-92200000D01*
X99208986Y-92189003D01*
X99352247Y-92145546D01*
X99484276Y-92074974D01*
X99595000Y-91984105D01*
X99595001Y-99023885D01*
X99591444Y-99060000D01*
X99605635Y-99204085D01*
X99637884Y-99310392D01*
X99647664Y-99342633D01*
X99715914Y-99470320D01*
X99807763Y-99582238D01*
X99835807Y-99605253D01*
X102456907Y-102226353D01*
X102407818Y-102318192D01*
X102325764Y-102588691D01*
X102298057Y-102870000D01*
X102325764Y-103151309D01*
X102407818Y-103421808D01*
X102541068Y-103671101D01*
X102720392Y-103889608D01*
X102938899Y-104068932D01*
X103188192Y-104202182D01*
X103380001Y-104260366D01*
X103380001Y-105372668D01*
X103376324Y-105410000D01*
X103390998Y-105558985D01*
X103434454Y-105702246D01*
X103505026Y-105834276D01*
X103572361Y-105916323D01*
X103600000Y-105950001D01*
X103628998Y-105973799D01*
X111588790Y-113933592D01*
X111586204Y-113946598D01*
X106769803Y-109130197D01*
X106750557Y-109114403D01*
X106728601Y-109102667D01*
X106704776Y-109095440D01*
X106680000Y-109093000D01*
X90170000Y-109093000D01*
X90145224Y-109095440D01*
X90121399Y-109102667D01*
X90099443Y-109114403D01*
X90080197Y-109130197D01*
X90064403Y-109149443D01*
X90052667Y-109171399D01*
X90045440Y-109195224D01*
X90043000Y-109220000D01*
X90043000Y-115443000D01*
X88569242Y-115443000D01*
X88727588Y-115300269D01*
X88901641Y-115066920D01*
X89026825Y-114804099D01*
X89071476Y-114656890D01*
X88950155Y-114427000D01*
X87757000Y-114427000D01*
X87757000Y-114447000D01*
X87503000Y-114447000D01*
X87503000Y-114427000D01*
X86309845Y-114427000D01*
X86188524Y-114656890D01*
X86233175Y-114804099D01*
X86358359Y-115066920D01*
X86532412Y-115300269D01*
X86690758Y-115443000D01*
X57458080Y-115443000D01*
X57800548Y-115191088D01*
X58160849Y-114527118D01*
X58384694Y-113805615D01*
X58463480Y-113054305D01*
X58394178Y-112302062D01*
X58179452Y-111577792D01*
X57827555Y-110909330D01*
X57800548Y-110868912D01*
X57310881Y-110508724D01*
X54789605Y-113030000D01*
X54803748Y-113044143D01*
X54624143Y-113223748D01*
X54610000Y-113209605D01*
X54595858Y-113223748D01*
X54416253Y-113044143D01*
X54430395Y-113030000D01*
X51909119Y-110508724D01*
X51419452Y-110868912D01*
X51059151Y-111532882D01*
X50927000Y-111958835D01*
X50927000Y-110329119D01*
X52088724Y-110329119D01*
X54610000Y-112850395D01*
X57131276Y-110329119D01*
X56771088Y-109839452D01*
X56107118Y-109479151D01*
X55385615Y-109255306D01*
X54634305Y-109176520D01*
X53882062Y-109245822D01*
X53157792Y-109460548D01*
X52489330Y-109812445D01*
X52448912Y-109839452D01*
X52088724Y-110329119D01*
X50927000Y-110329119D01*
X50927000Y-75521388D01*
X52374800Y-75521388D01*
X52374800Y-75796572D01*
X52428486Y-76066470D01*
X52533795Y-76320707D01*
X52686680Y-76549515D01*
X52795635Y-76658470D01*
X52686680Y-76767425D01*
X52533795Y-76996233D01*
X52428486Y-77250470D01*
X52374800Y-77520368D01*
X52374800Y-77795552D01*
X52428486Y-78065450D01*
X52533795Y-78319687D01*
X52686680Y-78548495D01*
X52796905Y-78658720D01*
X52686680Y-78768945D01*
X52533795Y-78997753D01*
X52428486Y-79251990D01*
X52374800Y-79521888D01*
X52374800Y-79797072D01*
X52428486Y-80066970D01*
X52533795Y-80321207D01*
X52686680Y-80550015D01*
X52795635Y-80658970D01*
X52686680Y-80767925D01*
X52533795Y-80996733D01*
X52428486Y-81250970D01*
X52374800Y-81520868D01*
X52374800Y-81796052D01*
X52428486Y-82065950D01*
X52533795Y-82320187D01*
X52686680Y-82548995D01*
X52796905Y-82659220D01*
X52686680Y-82769445D01*
X52533795Y-82998253D01*
X52428486Y-83252490D01*
X52374800Y-83522388D01*
X52374800Y-83797572D01*
X52428486Y-84067470D01*
X52533795Y-84321707D01*
X52686680Y-84550515D01*
X52795635Y-84659470D01*
X52686680Y-84768425D01*
X52533795Y-84997233D01*
X52428486Y-85251470D01*
X52374800Y-85521368D01*
X52374800Y-85796552D01*
X52428486Y-86066450D01*
X52533795Y-86320687D01*
X52686680Y-86549495D01*
X52795635Y-86658450D01*
X52686680Y-86767405D01*
X52533795Y-86996213D01*
X52428486Y-87250450D01*
X52374800Y-87520348D01*
X52374800Y-87795532D01*
X52428486Y-88065430D01*
X52533795Y-88319667D01*
X52686680Y-88548475D01*
X52796905Y-88658700D01*
X52686680Y-88768925D01*
X52533795Y-88997733D01*
X52428486Y-89251970D01*
X52374800Y-89521868D01*
X52374800Y-89797052D01*
X52428486Y-90066950D01*
X52533795Y-90321187D01*
X52686680Y-90549995D01*
X52795635Y-90658950D01*
X52686680Y-90767905D01*
X52533795Y-90996713D01*
X52428486Y-91250950D01*
X52374800Y-91520848D01*
X52374800Y-91796032D01*
X52428486Y-92065930D01*
X52533795Y-92320167D01*
X52686680Y-92548975D01*
X52796905Y-92659200D01*
X52686680Y-92769425D01*
X52533795Y-92998233D01*
X52428486Y-93252470D01*
X52374800Y-93522368D01*
X52374800Y-93797552D01*
X52428486Y-94067450D01*
X52533795Y-94321687D01*
X52686680Y-94550495D01*
X52881265Y-94745080D01*
X53110073Y-94897965D01*
X53364310Y-95003274D01*
X53634208Y-95056960D01*
X53909392Y-95056960D01*
X54179290Y-95003274D01*
X54433527Y-94897965D01*
X54662335Y-94745080D01*
X54856920Y-94550495D01*
X55009805Y-94321687D01*
X55115114Y-94067450D01*
X55168800Y-93797552D01*
X55168800Y-93522368D01*
X55115114Y-93252470D01*
X55009805Y-92998233D01*
X54856920Y-92769425D01*
X54746695Y-92659200D01*
X54856920Y-92548975D01*
X55009805Y-92320167D01*
X55115114Y-92065930D01*
X55168800Y-91796032D01*
X55168800Y-91520848D01*
X55115114Y-91250950D01*
X55009805Y-90996713D01*
X54856920Y-90767905D01*
X54747965Y-90658950D01*
X54856920Y-90549995D01*
X55009805Y-90321187D01*
X55115114Y-90066950D01*
X55168800Y-89797052D01*
X55168800Y-89521868D01*
X55115114Y-89251970D01*
X55009805Y-88997733D01*
X54856920Y-88768925D01*
X54746695Y-88658700D01*
X54856920Y-88548475D01*
X55009805Y-88319667D01*
X55115114Y-88065430D01*
X55168800Y-87795532D01*
X55168800Y-87520348D01*
X55115114Y-87250450D01*
X55009805Y-86996213D01*
X54856920Y-86767405D01*
X54747965Y-86658450D01*
X54856920Y-86549495D01*
X55009805Y-86320687D01*
X55115114Y-86066450D01*
X55168800Y-85796552D01*
X55168800Y-85521368D01*
X55115114Y-85251470D01*
X55009805Y-84997233D01*
X54856920Y-84768425D01*
X54747965Y-84659470D01*
X54856920Y-84550515D01*
X54944141Y-84419980D01*
X60485179Y-84419980D01*
X62740000Y-86674802D01*
X62740001Y-108001956D01*
X62585241Y-108105363D01*
X62385363Y-108305241D01*
X62228320Y-108540273D01*
X62120147Y-108801426D01*
X62065000Y-109078665D01*
X62065000Y-109361335D01*
X62120147Y-109638574D01*
X62228320Y-109899727D01*
X62385363Y-110134759D01*
X62585241Y-110334637D01*
X62820273Y-110491680D01*
X63081426Y-110599853D01*
X63358665Y-110655000D01*
X63641335Y-110655000D01*
X63918574Y-110599853D01*
X64179727Y-110491680D01*
X64414759Y-110334637D01*
X64614637Y-110134759D01*
X64771680Y-109899727D01*
X64879853Y-109638574D01*
X64935000Y-109361335D01*
X64935000Y-109078665D01*
X72225000Y-109078665D01*
X72225000Y-109361335D01*
X72280147Y-109638574D01*
X72388320Y-109899727D01*
X72545363Y-110134759D01*
X72745241Y-110334637D01*
X72980273Y-110491680D01*
X73241426Y-110599853D01*
X73518665Y-110655000D01*
X73801335Y-110655000D01*
X74078574Y-110599853D01*
X74339727Y-110491680D01*
X74574759Y-110334637D01*
X74774637Y-110134759D01*
X74878043Y-109980000D01*
X77401687Y-109980000D01*
X77547688Y-110198505D01*
X77761495Y-110412312D01*
X78012905Y-110580299D01*
X78292257Y-110696011D01*
X78588816Y-110755000D01*
X78891184Y-110755000D01*
X79187743Y-110696011D01*
X79467095Y-110580299D01*
X79718505Y-110412312D01*
X79784944Y-110345873D01*
X79790498Y-110364180D01*
X79849463Y-110474494D01*
X79928815Y-110571185D01*
X80025506Y-110650537D01*
X80135820Y-110709502D01*
X80255518Y-110745812D01*
X80380000Y-110758072D01*
X80994250Y-110755000D01*
X81153000Y-110596250D01*
X81153000Y-109347000D01*
X81407000Y-109347000D01*
X81407000Y-110596250D01*
X81565750Y-110755000D01*
X82180000Y-110758072D01*
X82304482Y-110745812D01*
X82424180Y-110709502D01*
X82534494Y-110650537D01*
X82631185Y-110571185D01*
X82710537Y-110474494D01*
X82769502Y-110364180D01*
X82805812Y-110244482D01*
X82818072Y-110120000D01*
X82815000Y-109505750D01*
X82656250Y-109347000D01*
X81407000Y-109347000D01*
X81153000Y-109347000D01*
X81133000Y-109347000D01*
X81133000Y-109093000D01*
X81153000Y-109093000D01*
X81153000Y-107843750D01*
X81407000Y-107843750D01*
X81407000Y-109093000D01*
X82656250Y-109093000D01*
X82815000Y-108934250D01*
X82818072Y-108320000D01*
X82805812Y-108195518D01*
X82769502Y-108075820D01*
X82710537Y-107965506D01*
X82631185Y-107868815D01*
X82534494Y-107789463D01*
X82424180Y-107730498D01*
X82304482Y-107694188D01*
X82180000Y-107681928D01*
X81565750Y-107685000D01*
X81407000Y-107843750D01*
X81153000Y-107843750D01*
X80994250Y-107685000D01*
X80380000Y-107681928D01*
X80255518Y-107694188D01*
X80135820Y-107730498D01*
X80025506Y-107789463D01*
X79928815Y-107868815D01*
X79849463Y-107965506D01*
X79790498Y-108075820D01*
X79784944Y-108094127D01*
X79718505Y-108027688D01*
X79467095Y-107859701D01*
X79187743Y-107743989D01*
X78891184Y-107685000D01*
X78588816Y-107685000D01*
X78292257Y-107743989D01*
X78012905Y-107859701D01*
X77761495Y-108027688D01*
X77547688Y-108241495D01*
X77401687Y-108460000D01*
X74878043Y-108460000D01*
X74774637Y-108305241D01*
X74574759Y-108105363D01*
X74339727Y-107948320D01*
X74078574Y-107840147D01*
X73801335Y-107785000D01*
X73518665Y-107785000D01*
X73241426Y-107840147D01*
X72980273Y-107948320D01*
X72745241Y-108105363D01*
X72545363Y-108305241D01*
X72388320Y-108540273D01*
X72280147Y-108801426D01*
X72225000Y-109078665D01*
X64935000Y-109078665D01*
X64879853Y-108801426D01*
X64771680Y-108540273D01*
X64614637Y-108305241D01*
X64414759Y-108105363D01*
X64260000Y-108001957D01*
X64260000Y-86397323D01*
X64263676Y-86360000D01*
X64260000Y-86322677D01*
X64260000Y-86322667D01*
X64249003Y-86211014D01*
X64205546Y-86067753D01*
X64171875Y-86004759D01*
X64134974Y-85935723D01*
X64063799Y-85848997D01*
X64040001Y-85819999D01*
X64011003Y-85796201D01*
X61363784Y-83148983D01*
X61339981Y-83119979D01*
X61224256Y-83025006D01*
X61092227Y-82954434D01*
X60948966Y-82910977D01*
X60837313Y-82899980D01*
X60837302Y-82899980D01*
X60799980Y-82896304D01*
X60762658Y-82899980D01*
X54944141Y-82899980D01*
X54856920Y-82769445D01*
X54746695Y-82659220D01*
X54856920Y-82548995D01*
X55009805Y-82320187D01*
X55115114Y-82065950D01*
X55168800Y-81796052D01*
X55168800Y-81520868D01*
X55115114Y-81250970D01*
X55009805Y-80996733D01*
X54856920Y-80767925D01*
X54747965Y-80658970D01*
X54856920Y-80550015D01*
X55009805Y-80321207D01*
X55115114Y-80066970D01*
X55168800Y-79797072D01*
X55168800Y-79521888D01*
X55115114Y-79251990D01*
X55009805Y-78997753D01*
X54856920Y-78768945D01*
X54746695Y-78658720D01*
X54856920Y-78548495D01*
X55009805Y-78319687D01*
X55115114Y-78065450D01*
X55168800Y-77795552D01*
X55168800Y-77520368D01*
X55115114Y-77250470D01*
X55009805Y-76996233D01*
X54856920Y-76767425D01*
X54747965Y-76658470D01*
X54856920Y-76549515D01*
X55009805Y-76320707D01*
X55115114Y-76066470D01*
X55168800Y-75796572D01*
X55168800Y-75521388D01*
X55115114Y-75251490D01*
X55009805Y-74997253D01*
X54856920Y-74768445D01*
X54662335Y-74573860D01*
X54433527Y-74420975D01*
X54179290Y-74315666D01*
X53909392Y-74261980D01*
X53634208Y-74261980D01*
X53364310Y-74315666D01*
X53110073Y-74420975D01*
X52881265Y-74573860D01*
X52686680Y-74768445D01*
X52533795Y-74997253D01*
X52428486Y-75251490D01*
X52374800Y-75521388D01*
X50927000Y-75521388D01*
X50927000Y-60046891D01*
X51898519Y-60046891D01*
X51995843Y-60321252D01*
X52144822Y-60571355D01*
X52339731Y-60787588D01*
X52573080Y-60961641D01*
X52835901Y-61086825D01*
X52983110Y-61131476D01*
X53213000Y-61010155D01*
X53213000Y-59817000D01*
X52019186Y-59817000D01*
X51898519Y-60046891D01*
X50927000Y-60046891D01*
X50927000Y-59333109D01*
X51898519Y-59333109D01*
X52019186Y-59563000D01*
X53213000Y-59563000D01*
X53213000Y-58369845D01*
X52983110Y-58248524D01*
X52835901Y-58293175D01*
X52573080Y-58418359D01*
X52339731Y-58592412D01*
X52144822Y-58808645D01*
X51995843Y-59058748D01*
X51898519Y-59333109D01*
X50927000Y-59333109D01*
X50927000Y-49657000D01*
X135763000Y-49657000D01*
X135763000Y-115443000D01*
M02*
