%TF.GenerationSoftware,KiCad,Pcbnew,(5.1.6)-1*%
%TF.CreationDate,2021-03-23T21:23:30+01:00*%
%TF.ProjectId,RiderDetection,52696465-7244-4657-9465-6374696f6e2e,rev?*%
%TF.SameCoordinates,Original*%
%TF.FileFunction,Soldermask,Top*%
%TF.FilePolarity,Negative*%
%FSLAX46Y46*%
G04 Gerber Fmt 4.6, Leading zero omitted, Abs format (unit mm)*
G04 Created by KiCad (PCBNEW (5.1.6)-1) date 2021-03-23 21:23:30*
%MOMM*%
%LPD*%
G01*
G04 APERTURE LIST*
%ADD10C,1.727200*%
%ADD11C,3.300000*%
%ADD12C,0.900000*%
%ADD13C,6.500000*%
%ADD14C,2.100000*%
%ADD15R,2.100000X2.100000*%
%ADD16O,2.600000X1.600000*%
%ADD17R,2.600000X1.600000*%
%ADD18O,2.500000X1.700000*%
%ADD19R,2.500000X1.700000*%
%ADD20O,2.100000X3.700000*%
%ADD21O,1.700000X1.700000*%
%ADD22C,1.700000*%
%ADD23O,1.800000X1.800000*%
%ADD24R,1.800000X1.800000*%
%ADD25C,1.900000*%
%ADD26R,1.900000X1.900000*%
G04 APERTURE END LIST*
D10*
%TO.C,JP1*%
X53771800Y-93659960D03*
X53771800Y-91658440D03*
X53771800Y-89659460D03*
X53771800Y-87657940D03*
X53771800Y-85658960D03*
X53771800Y-83659980D03*
X53771800Y-81658460D03*
X53771800Y-79659480D03*
X53771800Y-77657960D03*
X53771800Y-75658980D03*
X75768200Y-75658980D03*
X75768200Y-77657960D03*
X75768200Y-79659480D03*
X75768200Y-81658460D03*
X75768200Y-83659980D03*
X75768200Y-85658960D03*
X75768200Y-87657940D03*
X75768200Y-89659460D03*
X75768200Y-91658440D03*
X75768200Y-93659960D03*
%TD*%
D11*
%TO.C,H4*%
X53975000Y-66675000D03*
%TD*%
D12*
%TO.C,H3*%
X56307056Y-111332944D03*
X54610000Y-110630000D03*
X52912944Y-111332944D03*
X52210000Y-113030000D03*
X52912944Y-114727056D03*
X54610000Y-115430000D03*
X56307056Y-114727056D03*
X57010000Y-113030000D03*
D13*
X54610000Y-113030000D03*
%TD*%
D11*
%TO.C,H2*%
X133350000Y-53340000D03*
%TD*%
%TO.C,H1*%
X133350000Y-113030000D03*
%TD*%
D14*
%TO.C,K3*%
X118110000Y-87630000D03*
X118110000Y-92710000D03*
X125730000Y-87630000D03*
D15*
X128270000Y-87630000D03*
D14*
X125730000Y-92710000D03*
X128270000Y-92710000D03*
%TD*%
%TO.C,K2*%
X118110000Y-97790000D03*
X118110000Y-102870000D03*
X125730000Y-97790000D03*
D15*
X128270000Y-97790000D03*
D14*
X125730000Y-102870000D03*
X128270000Y-102870000D03*
%TD*%
%TO.C,K1*%
X118110000Y-107950000D03*
X118110000Y-113030000D03*
X125730000Y-107950000D03*
D15*
X128270000Y-107950000D03*
D14*
X125730000Y-113030000D03*
X128270000Y-113030000D03*
%TD*%
D16*
%TO.C,U2*%
X87630000Y-58420000D03*
X87630000Y-55880000D03*
D17*
X87630000Y-53340000D03*
%TD*%
D18*
%TO.C,U1*%
X104140000Y-85090000D03*
X96520000Y-102870000D03*
X104140000Y-87630000D03*
X96520000Y-100330000D03*
X104140000Y-90170000D03*
X96520000Y-97790000D03*
X104140000Y-92710000D03*
X96520000Y-95250000D03*
X104140000Y-95250000D03*
X96520000Y-92710000D03*
X104140000Y-97790000D03*
X96520000Y-90170000D03*
X104140000Y-100330000D03*
X96520000Y-87630000D03*
X104140000Y-102870000D03*
D19*
X96520000Y-85090000D03*
%TD*%
D20*
%TO.C,STARTLIGHT0*%
X110730000Y-59690000D03*
X115730000Y-59690000D03*
X120730000Y-59690000D03*
G36*
G01*
X126780000Y-58102500D02*
X126780000Y-61277500D01*
G75*
G02*
X126517500Y-61540000I-262500J0D01*
G01*
X124942500Y-61540000D01*
G75*
G02*
X124680000Y-61277500I0J262500D01*
G01*
X124680000Y-58102500D01*
G75*
G02*
X124942500Y-57840000I262500J0D01*
G01*
X126517500Y-57840000D01*
G75*
G02*
X126780000Y-58102500I0J-262500D01*
G01*
G37*
%TD*%
D21*
%TO.C,R2*%
X63500000Y-109220000D03*
D22*
X73660000Y-109220000D03*
%TD*%
D21*
%TO.C,R1*%
X81280000Y-95250000D03*
D22*
X81280000Y-85090000D03*
%TD*%
D20*
%TO.C,PWR0*%
X73740000Y-59690000D03*
G36*
G01*
X79790000Y-58102500D02*
X79790000Y-61277500D01*
G75*
G02*
X79527500Y-61540000I-262500J0D01*
G01*
X77952500Y-61540000D01*
G75*
G02*
X77690000Y-61277500I0J262500D01*
G01*
X77690000Y-58102500D01*
G75*
G02*
X77952500Y-57840000I262500J0D01*
G01*
X79527500Y-57840000D01*
G75*
G02*
X79790000Y-58102500I0J-262500D01*
G01*
G37*
%TD*%
D23*
%TO.C,J5*%
X125730000Y-78740000D03*
X123190000Y-78740000D03*
D24*
X120650000Y-78740000D03*
%TD*%
D23*
%TO.C,J4*%
X125730000Y-74930000D03*
X123190000Y-74930000D03*
D24*
X120650000Y-74930000D03*
%TD*%
D23*
%TO.C,J3*%
X53340000Y-59690000D03*
X55880000Y-59690000D03*
X58420000Y-59690000D03*
X60960000Y-59690000D03*
X63500000Y-59690000D03*
D24*
X66040000Y-59690000D03*
%TD*%
D23*
%TO.C,J2*%
X111760000Y-68580000D03*
X111760000Y-71120000D03*
X111760000Y-73660000D03*
X111760000Y-76200000D03*
X111760000Y-78740000D03*
X111760000Y-81280000D03*
X111760000Y-83820000D03*
X111760000Y-86360000D03*
X111760000Y-88900000D03*
X111760000Y-91440000D03*
X111760000Y-93980000D03*
X111760000Y-96520000D03*
X111760000Y-99060000D03*
X111760000Y-101600000D03*
X111760000Y-104140000D03*
X111760000Y-106680000D03*
X111760000Y-109220000D03*
X111760000Y-111760000D03*
D24*
X111760000Y-114300000D03*
%TD*%
D23*
%TO.C,J1*%
X86360000Y-114300000D03*
X86360000Y-111760000D03*
X86360000Y-109220000D03*
X86360000Y-106680000D03*
X86360000Y-104140000D03*
X86360000Y-101600000D03*
X86360000Y-99060000D03*
X86360000Y-96520000D03*
X86360000Y-93980000D03*
X86360000Y-91440000D03*
X86360000Y-88900000D03*
X86360000Y-86360000D03*
X86360000Y-83820000D03*
X86360000Y-81280000D03*
X86360000Y-78740000D03*
X86360000Y-76200000D03*
X86360000Y-73660000D03*
X86360000Y-71120000D03*
D24*
X86360000Y-68580000D03*
%TD*%
D25*
%TO.C,D2*%
X78740000Y-109220000D03*
D26*
X81280000Y-109220000D03*
%TD*%
D25*
%TO.C,D1*%
X78740000Y-101600000D03*
D26*
X81280000Y-101600000D03*
%TD*%
M02*
