M48
; DRILL file {KiCad (5.1.6)-1} date 03/23/21 21:23:47
; FORMAT={-:-/ absolute / inch / decimal}
; #@! TF.CreationDate,2021-03-23T21:23:47+01:00
; #@! TF.GenerationSoftware,Kicad,Pcbnew,(5.1.6)-1
; #@! TF.FileFunction,Plated,1,2,PTH
FMAT,2
INCH
T1C0.0197
T2C0.0314
T3C0.0315
T4C0.0354
T5C0.0394
T6C0.0551
T7C0.1260
%
G90
G05
T1
X2.0555Y-4.45
X2.0832Y-4.3832
X2.0832Y-4.5168
X2.15Y-4.3555
X2.15Y-4.5445
X2.2168Y-4.3832
X2.2168Y-4.5168
X2.2445Y-4.45
T2
X2.117Y-2.9787
X2.117Y-3.0574
X2.117Y-3.1362
X2.117Y-3.2149
X2.117Y-3.2937
X2.117Y-3.3724
X2.117Y-3.4511
X2.117Y-3.5299
X2.117Y-3.6086
X2.117Y-3.6874
X2.983Y-2.9787
X2.983Y-3.0574
X2.983Y-3.1362
X2.983Y-3.2149
X2.983Y-3.2937
X2.983Y-3.3724
X2.983Y-3.4511
X2.983Y-3.5299
X2.983Y-3.6086
X2.983Y-3.6874
T3
X3.2Y-3.35
X3.2Y-3.75
X2.5Y-4.3
X2.9Y-4.3
X3.8Y-3.35
X3.8Y-3.45
X3.8Y-3.55
X3.8Y-3.65
X3.8Y-3.75
X3.8Y-3.85
X3.8Y-3.95
X3.8Y-4.05
X4.1Y-3.35
X4.1Y-3.45
X4.1Y-3.55
X4.1Y-3.65
X4.1Y-3.75
X4.1Y-3.85
X4.1Y-3.95
X4.1Y-4.05
T4
X3.1Y-4.3
X3.2Y-4.3
X3.1Y-4.0
X3.2Y-4.0
T5
X4.4Y-2.7
X4.4Y-2.8
X4.4Y-2.9
X4.4Y-3.0
X4.4Y-3.1
X4.4Y-3.2
X4.4Y-3.3
X4.4Y-3.4
X4.4Y-3.5
X4.4Y-3.6
X4.4Y-3.7
X4.4Y-3.8
X4.4Y-3.9
X4.4Y-4.0
X4.4Y-4.1
X4.4Y-4.2
X4.4Y-4.3
X4.4Y-4.4
X4.4Y-4.5
X4.75Y-3.1
X4.85Y-3.1
X4.95Y-3.1
X2.1Y-2.35
X2.2Y-2.35
X2.3Y-2.35
X2.4Y-2.35
X2.5Y-2.35
X2.6Y-2.35
X3.4Y-2.7
X3.4Y-2.8
X3.4Y-2.9
X3.4Y-3.0
X3.4Y-3.1
X3.4Y-3.2
X3.4Y-3.3
X3.4Y-3.4
X3.4Y-3.5
X3.4Y-3.6
X3.4Y-3.7
X3.4Y-3.8
X3.4Y-3.9
X3.4Y-4.0
X3.4Y-4.1
X3.4Y-4.2
X3.4Y-4.3
X3.4Y-4.4
X3.4Y-4.5
X4.75Y-2.95
X4.85Y-2.95
X4.95Y-2.95
X4.65Y-3.45
X4.65Y-3.65
X4.95Y-3.45
X4.95Y-3.65
X5.05Y-3.45
X5.05Y-3.65
X4.65Y-4.25
X4.65Y-4.45
X4.95Y-4.25
X4.95Y-4.45
X5.05Y-4.25
X5.05Y-4.45
X4.65Y-3.85
X4.65Y-4.05
X4.95Y-3.85
X4.95Y-4.05
X5.05Y-3.85
X5.05Y-4.05
X3.45Y-2.1
X3.45Y-2.2
X3.45Y-2.3
T6
X4.3594Y-2.35
X4.5563Y-2.35
X4.7531Y-2.35
X4.95Y-2.35
X2.9031Y-2.35
X3.1Y-2.35
T7
X2.15Y-4.45
T0
M30
