G04 #@! TF.GenerationSoftware,KiCad,Pcbnew,(5.1.6)-1*
G04 #@! TF.CreationDate,2021-02-22T20:56:30+01:00*
G04 #@! TF.ProjectId,RiderDetection,52696465-7244-4657-9465-6374696f6e2e,rev?*
G04 #@! TF.SameCoordinates,Original*
G04 #@! TF.FileFunction,Legend,Top*
G04 #@! TF.FilePolarity,Positive*
%FSLAX46Y46*%
G04 Gerber Fmt 4.6, Leading zero omitted, Abs format (unit mm)*
G04 Created by KiCad (PCBNEW (5.1.6)-1) date 2021-02-22 20:56:30*
%MOMM*%
%LPD*%
G01*
G04 APERTURE LIST*
%ADD10C,0.150000*%
%ADD11C,0.203200*%
%ADD12C,0.120000*%
%ADD13C,0.127000*%
%ADD14C,0.152400*%
G04 APERTURE END LIST*
D10*
X123547142Y-83335714D02*
X123594761Y-83383333D01*
X123642380Y-83526190D01*
X123642380Y-83621428D01*
X123594761Y-83764285D01*
X123499523Y-83859523D01*
X123404285Y-83907142D01*
X123213809Y-83954761D01*
X123070952Y-83954761D01*
X122880476Y-83907142D01*
X122785238Y-83859523D01*
X122690000Y-83764285D01*
X122642380Y-83621428D01*
X122642380Y-83526190D01*
X122690000Y-83383333D01*
X122737619Y-83335714D01*
X122642380Y-82716666D02*
X122642380Y-82526190D01*
X122690000Y-82430952D01*
X122785238Y-82335714D01*
X122975714Y-82288095D01*
X123309047Y-82288095D01*
X123499523Y-82335714D01*
X123594761Y-82430952D01*
X123642380Y-82526190D01*
X123642380Y-82716666D01*
X123594761Y-82811904D01*
X123499523Y-82907142D01*
X123309047Y-82954761D01*
X122975714Y-82954761D01*
X122785238Y-82907142D01*
X122690000Y-82811904D01*
X122642380Y-82716666D01*
X123642380Y-81859523D02*
X122642380Y-81859523D01*
X123356666Y-81526190D01*
X122642380Y-81192857D01*
X123642380Y-81192857D01*
X123547142Y-72762857D02*
X123594761Y-72810476D01*
X123642380Y-72953333D01*
X123642380Y-73048571D01*
X123594761Y-73191428D01*
X123499523Y-73286666D01*
X123404285Y-73334285D01*
X123213809Y-73381904D01*
X123070952Y-73381904D01*
X122880476Y-73334285D01*
X122785238Y-73286666D01*
X122690000Y-73191428D01*
X122642380Y-73048571D01*
X122642380Y-72953333D01*
X122690000Y-72810476D01*
X122737619Y-72762857D01*
X122642380Y-72143809D02*
X122642380Y-71953333D01*
X122690000Y-71858095D01*
X122785238Y-71762857D01*
X122975714Y-71715238D01*
X123309047Y-71715238D01*
X123499523Y-71762857D01*
X123594761Y-71858095D01*
X123642380Y-71953333D01*
X123642380Y-72143809D01*
X123594761Y-72239047D01*
X123499523Y-72334285D01*
X123309047Y-72381904D01*
X122975714Y-72381904D01*
X122785238Y-72334285D01*
X122690000Y-72239047D01*
X122642380Y-72143809D01*
X123642380Y-70810476D02*
X123642380Y-71286666D01*
X122642380Y-71286666D01*
X122642380Y-70286666D02*
X122642380Y-70096190D01*
X122690000Y-70000952D01*
X122785238Y-69905714D01*
X122975714Y-69858095D01*
X123309047Y-69858095D01*
X123499523Y-69905714D01*
X123594761Y-70000952D01*
X123642380Y-70096190D01*
X123642380Y-70286666D01*
X123594761Y-70381904D01*
X123499523Y-70477142D01*
X123309047Y-70524761D01*
X122975714Y-70524761D01*
X122785238Y-70477142D01*
X122690000Y-70381904D01*
X122642380Y-70286666D01*
X123642380Y-68858095D02*
X123166190Y-69191428D01*
X123642380Y-69429523D02*
X122642380Y-69429523D01*
X122642380Y-69048571D01*
X122690000Y-68953333D01*
X122737619Y-68905714D01*
X122832857Y-68858095D01*
X122975714Y-68858095D01*
X123070952Y-68905714D01*
X123118571Y-68953333D01*
X123166190Y-69048571D01*
X123166190Y-69429523D01*
X125230000Y-71881904D02*
X125182380Y-71977142D01*
X125182380Y-72120000D01*
X125230000Y-72262857D01*
X125325238Y-72358095D01*
X125420476Y-72405714D01*
X125610952Y-72453333D01*
X125753809Y-72453333D01*
X125944285Y-72405714D01*
X126039523Y-72358095D01*
X126134761Y-72262857D01*
X126182380Y-72120000D01*
X126182380Y-72024761D01*
X126134761Y-71881904D01*
X126087142Y-71834285D01*
X125753809Y-71834285D01*
X125753809Y-72024761D01*
X126182380Y-71405714D02*
X125182380Y-71405714D01*
X126182380Y-70834285D01*
X125182380Y-70834285D01*
X126182380Y-70358095D02*
X125182380Y-70358095D01*
X125182380Y-70120000D01*
X125230000Y-69977142D01*
X125325238Y-69881904D01*
X125420476Y-69834285D01*
X125610952Y-69786666D01*
X125753809Y-69786666D01*
X125944285Y-69834285D01*
X126039523Y-69881904D01*
X126134761Y-69977142D01*
X126182380Y-70120000D01*
X126182380Y-70358095D01*
X120721428Y-72881904D02*
X120721428Y-72120000D01*
X121102380Y-72500952D02*
X120340476Y-72500952D01*
X121102380Y-71120000D02*
X121102380Y-71691428D01*
X121102380Y-71405714D02*
X120102380Y-71405714D01*
X120245238Y-71500952D01*
X120340476Y-71596190D01*
X120388095Y-71691428D01*
X120197619Y-70739047D02*
X120150000Y-70691428D01*
X120102380Y-70596190D01*
X120102380Y-70358095D01*
X120150000Y-70262857D01*
X120197619Y-70215238D01*
X120292857Y-70167619D01*
X120388095Y-70167619D01*
X120530952Y-70215238D01*
X121102380Y-70786666D01*
X121102380Y-70167619D01*
X120102380Y-69881904D02*
X121102380Y-69548571D01*
X120102380Y-69215238D01*
X126214285Y-63857142D02*
X126166666Y-63904761D01*
X126023809Y-63952380D01*
X125928571Y-63952380D01*
X125785714Y-63904761D01*
X125690476Y-63809523D01*
X125642857Y-63714285D01*
X125595238Y-63523809D01*
X125595238Y-63380952D01*
X125642857Y-63190476D01*
X125690476Y-63095238D01*
X125785714Y-63000000D01*
X125928571Y-62952380D01*
X126023809Y-62952380D01*
X126166666Y-63000000D01*
X126214285Y-63047619D01*
X126833333Y-62952380D02*
X127023809Y-62952380D01*
X127119047Y-63000000D01*
X127214285Y-63095238D01*
X127261904Y-63285714D01*
X127261904Y-63619047D01*
X127214285Y-63809523D01*
X127119047Y-63904761D01*
X127023809Y-63952380D01*
X126833333Y-63952380D01*
X126738095Y-63904761D01*
X126642857Y-63809523D01*
X126595238Y-63619047D01*
X126595238Y-63285714D01*
X126642857Y-63095238D01*
X126738095Y-63000000D01*
X126833333Y-62952380D01*
X127690476Y-63952380D02*
X127690476Y-62952380D01*
X128023809Y-63666666D01*
X128357142Y-62952380D01*
X128357142Y-63952380D01*
X120253333Y-63000000D02*
X120158095Y-62952380D01*
X120015238Y-62952380D01*
X119872380Y-63000000D01*
X119777142Y-63095238D01*
X119729523Y-63190476D01*
X119681904Y-63380952D01*
X119681904Y-63523809D01*
X119729523Y-63714285D01*
X119777142Y-63809523D01*
X119872380Y-63904761D01*
X120015238Y-63952380D01*
X120110476Y-63952380D01*
X120253333Y-63904761D01*
X120300952Y-63857142D01*
X120300952Y-63523809D01*
X120110476Y-63523809D01*
X121300952Y-63952380D02*
X120967619Y-63476190D01*
X120729523Y-63952380D02*
X120729523Y-62952380D01*
X121110476Y-62952380D01*
X121205714Y-63000000D01*
X121253333Y-63047619D01*
X121300952Y-63142857D01*
X121300952Y-63285714D01*
X121253333Y-63380952D01*
X121205714Y-63428571D01*
X121110476Y-63476190D01*
X120729523Y-63476190D01*
X121729523Y-63428571D02*
X122062857Y-63428571D01*
X122205714Y-63952380D02*
X121729523Y-63952380D01*
X121729523Y-62952380D01*
X122205714Y-62952380D01*
X122634285Y-63428571D02*
X122967619Y-63428571D01*
X123110476Y-63952380D02*
X122634285Y-63952380D01*
X122634285Y-62952380D01*
X123110476Y-62952380D01*
X123539047Y-63952380D02*
X123539047Y-62952380D01*
X124110476Y-63952380D01*
X124110476Y-62952380D01*
X113212857Y-63476190D02*
X113212857Y-63952380D01*
X112879523Y-62952380D02*
X113212857Y-63476190D01*
X113546190Y-62952380D01*
X113879523Y-63428571D02*
X114212857Y-63428571D01*
X114355714Y-63952380D02*
X113879523Y-63952380D01*
X113879523Y-62952380D01*
X114355714Y-62952380D01*
X115260476Y-63952380D02*
X114784285Y-63952380D01*
X114784285Y-62952380D01*
X116070000Y-63952380D02*
X115593809Y-63952380D01*
X115593809Y-62952380D01*
X116593809Y-62952380D02*
X116784285Y-62952380D01*
X116879523Y-63000000D01*
X116974761Y-63095238D01*
X117022380Y-63285714D01*
X117022380Y-63619047D01*
X116974761Y-63809523D01*
X116879523Y-63904761D01*
X116784285Y-63952380D01*
X116593809Y-63952380D01*
X116498571Y-63904761D01*
X116403333Y-63809523D01*
X116355714Y-63619047D01*
X116355714Y-63285714D01*
X116403333Y-63095238D01*
X116498571Y-63000000D01*
X116593809Y-62952380D01*
X117355714Y-62952380D02*
X117593809Y-63952380D01*
X117784285Y-63238095D01*
X117974761Y-63952380D01*
X118212857Y-62952380D01*
X109847142Y-63952380D02*
X109513809Y-63476190D01*
X109275714Y-63952380D02*
X109275714Y-62952380D01*
X109656666Y-62952380D01*
X109751904Y-63000000D01*
X109799523Y-63047619D01*
X109847142Y-63142857D01*
X109847142Y-63285714D01*
X109799523Y-63380952D01*
X109751904Y-63428571D01*
X109656666Y-63476190D01*
X109275714Y-63476190D01*
X110275714Y-63428571D02*
X110609047Y-63428571D01*
X110751904Y-63952380D02*
X110275714Y-63952380D01*
X110275714Y-62952380D01*
X110751904Y-62952380D01*
X111180476Y-63952380D02*
X111180476Y-62952380D01*
X111418571Y-62952380D01*
X111561428Y-63000000D01*
X111656666Y-63095238D01*
X111704285Y-63190476D01*
X111751904Y-63380952D01*
X111751904Y-63523809D01*
X111704285Y-63714285D01*
X111656666Y-63809523D01*
X111561428Y-63904761D01*
X111418571Y-63952380D01*
X111180476Y-63952380D01*
X73279047Y-63571428D02*
X74040952Y-63571428D01*
X76978095Y-63571428D02*
X77740000Y-63571428D01*
X77359047Y-63952380D02*
X77359047Y-63190476D01*
X78740000Y-63952380D02*
X78168571Y-63952380D01*
X78454285Y-63952380D02*
X78454285Y-62952380D01*
X78359047Y-63095238D01*
X78263809Y-63190476D01*
X78168571Y-63238095D01*
X79120952Y-63047619D02*
X79168571Y-63000000D01*
X79263809Y-62952380D01*
X79501904Y-62952380D01*
X79597142Y-63000000D01*
X79644761Y-63047619D01*
X79692380Y-63142857D01*
X79692380Y-63238095D01*
X79644761Y-63380952D01*
X79073333Y-63952380D01*
X79692380Y-63952380D01*
X79978095Y-62952380D02*
X80311428Y-63952380D01*
X80644761Y-62952380D01*
X64603333Y-62682380D02*
X64270000Y-62206190D01*
X64031904Y-62682380D02*
X64031904Y-61682380D01*
X64412857Y-61682380D01*
X64508095Y-61730000D01*
X64555714Y-61777619D01*
X64603333Y-61872857D01*
X64603333Y-62015714D01*
X64555714Y-62110952D01*
X64508095Y-62158571D01*
X64412857Y-62206190D01*
X64031904Y-62206190D01*
X64936666Y-61682380D02*
X65603333Y-62682380D01*
X65603333Y-61682380D02*
X64936666Y-62682380D01*
X58928095Y-61682380D02*
X59499523Y-61682380D01*
X59213809Y-62682380D02*
X59213809Y-61682380D01*
X59737619Y-61682380D02*
X60404285Y-62682380D01*
X60404285Y-61682380D02*
X59737619Y-62682380D01*
X134247380Y-98105714D02*
X133247380Y-98105714D01*
X133961666Y-97772380D01*
X133247380Y-97439047D01*
X134247380Y-97439047D01*
X134247380Y-96820000D02*
X134199761Y-96915238D01*
X134152142Y-96962857D01*
X134056904Y-97010476D01*
X133771190Y-97010476D01*
X133675952Y-96962857D01*
X133628333Y-96915238D01*
X133580714Y-96820000D01*
X133580714Y-96677142D01*
X133628333Y-96581904D01*
X133675952Y-96534285D01*
X133771190Y-96486666D01*
X134056904Y-96486666D01*
X134152142Y-96534285D01*
X134199761Y-96581904D01*
X134247380Y-96677142D01*
X134247380Y-96820000D01*
X133580714Y-96200952D02*
X133580714Y-95820000D01*
X133247380Y-96058095D02*
X134104523Y-96058095D01*
X134199761Y-96010476D01*
X134247380Y-95915238D01*
X134247380Y-95820000D01*
X134247380Y-95343809D02*
X134199761Y-95439047D01*
X134152142Y-95486666D01*
X134056904Y-95534285D01*
X133771190Y-95534285D01*
X133675952Y-95486666D01*
X133628333Y-95439047D01*
X133580714Y-95343809D01*
X133580714Y-95200952D01*
X133628333Y-95105714D01*
X133675952Y-95058095D01*
X133771190Y-95010476D01*
X134056904Y-95010476D01*
X134152142Y-95058095D01*
X134199761Y-95105714D01*
X134247380Y-95200952D01*
X134247380Y-95343809D01*
X133295000Y-94058095D02*
X133247380Y-94153333D01*
X133247380Y-94296190D01*
X133295000Y-94439047D01*
X133390238Y-94534285D01*
X133485476Y-94581904D01*
X133675952Y-94629523D01*
X133818809Y-94629523D01*
X134009285Y-94581904D01*
X134104523Y-94534285D01*
X134199761Y-94439047D01*
X134247380Y-94296190D01*
X134247380Y-94200952D01*
X134199761Y-94058095D01*
X134152142Y-94010476D01*
X133818809Y-94010476D01*
X133818809Y-94200952D01*
X133580714Y-93677142D02*
X134247380Y-93439047D01*
X133580714Y-93200952D02*
X134247380Y-93439047D01*
X134485476Y-93534285D01*
X134533095Y-93581904D01*
X134580714Y-93677142D01*
X134247380Y-92820000D02*
X133580714Y-92820000D01*
X133675952Y-92820000D02*
X133628333Y-92772380D01*
X133580714Y-92677142D01*
X133580714Y-92534285D01*
X133628333Y-92439047D01*
X133723571Y-92391428D01*
X134247380Y-92391428D01*
X133723571Y-92391428D02*
X133628333Y-92343809D01*
X133580714Y-92248571D01*
X133580714Y-92105714D01*
X133628333Y-92010476D01*
X133723571Y-91962857D01*
X134247380Y-91962857D01*
X134247380Y-91486666D02*
X133247380Y-91486666D01*
X133866428Y-91391428D02*
X134247380Y-91105714D01*
X133580714Y-91105714D02*
X133961666Y-91486666D01*
X134247380Y-90677142D02*
X133247380Y-90677142D01*
X134247380Y-90248571D02*
X133723571Y-90248571D01*
X133628333Y-90296190D01*
X133580714Y-90391428D01*
X133580714Y-90534285D01*
X133628333Y-90629523D01*
X133675952Y-90677142D01*
X134247380Y-89343809D02*
X133723571Y-89343809D01*
X133628333Y-89391428D01*
X133580714Y-89486666D01*
X133580714Y-89677142D01*
X133628333Y-89772380D01*
X134199761Y-89343809D02*
X134247380Y-89439047D01*
X134247380Y-89677142D01*
X134199761Y-89772380D01*
X134104523Y-89820000D01*
X134009285Y-89820000D01*
X133914047Y-89772380D01*
X133866428Y-89677142D01*
X133866428Y-89439047D01*
X133818809Y-89343809D01*
X133580714Y-88867619D02*
X134247380Y-88867619D01*
X133675952Y-88867619D02*
X133628333Y-88820000D01*
X133580714Y-88724761D01*
X133580714Y-88581904D01*
X133628333Y-88486666D01*
X133723571Y-88439047D01*
X134247380Y-88439047D01*
X134247380Y-87534285D02*
X133723571Y-87534285D01*
X133628333Y-87581904D01*
X133580714Y-87677142D01*
X133580714Y-87867619D01*
X133628333Y-87962857D01*
X134199761Y-87534285D02*
X134247380Y-87629523D01*
X134247380Y-87867619D01*
X134199761Y-87962857D01*
X134104523Y-88010476D01*
X134009285Y-88010476D01*
X133914047Y-87962857D01*
X133866428Y-87867619D01*
X133866428Y-87629523D01*
X133818809Y-87534285D01*
X133723571Y-86724761D02*
X133771190Y-86581904D01*
X133818809Y-86534285D01*
X133914047Y-86486666D01*
X134056904Y-86486666D01*
X134152142Y-86534285D01*
X134199761Y-86581904D01*
X134247380Y-86677142D01*
X134247380Y-87058095D01*
X133247380Y-87058095D01*
X133247380Y-86724761D01*
X133295000Y-86629523D01*
X133342619Y-86581904D01*
X133437857Y-86534285D01*
X133533095Y-86534285D01*
X133628333Y-86581904D01*
X133675952Y-86629523D01*
X133723571Y-86724761D01*
X133723571Y-87058095D01*
X134247380Y-85915238D02*
X134199761Y-86010476D01*
X134104523Y-86058095D01*
X133247380Y-86058095D01*
X133580714Y-85105714D02*
X134247380Y-85105714D01*
X133580714Y-85534285D02*
X134104523Y-85534285D01*
X134199761Y-85486666D01*
X134247380Y-85391428D01*
X134247380Y-85248571D01*
X134199761Y-85153333D01*
X134152142Y-85105714D01*
X134199761Y-84248571D02*
X134247380Y-84343809D01*
X134247380Y-84534285D01*
X134199761Y-84629523D01*
X134104523Y-84677142D01*
X133723571Y-84677142D01*
X133628333Y-84629523D01*
X133580714Y-84534285D01*
X133580714Y-84343809D01*
X133628333Y-84248571D01*
X133723571Y-84200952D01*
X133818809Y-84200952D01*
X133914047Y-84677142D01*
X133580714Y-83915238D02*
X133580714Y-83534285D01*
X133247380Y-83772380D02*
X134104523Y-83772380D01*
X134199761Y-83724761D01*
X134247380Y-83629523D01*
X134247380Y-83534285D01*
X134247380Y-83058095D02*
X134199761Y-83153333D01*
X134152142Y-83200952D01*
X134056904Y-83248571D01*
X133771190Y-83248571D01*
X133675952Y-83200952D01*
X133628333Y-83153333D01*
X133580714Y-83058095D01*
X133580714Y-82915238D01*
X133628333Y-82820000D01*
X133675952Y-82772380D01*
X133771190Y-82724761D01*
X134056904Y-82724761D01*
X134152142Y-82772380D01*
X134199761Y-82820000D01*
X134247380Y-82915238D01*
X134247380Y-83058095D01*
X134247380Y-82153333D02*
X134199761Y-82248571D01*
X134152142Y-82296190D01*
X134056904Y-82343809D01*
X133771190Y-82343809D01*
X133675952Y-82296190D01*
X133628333Y-82248571D01*
X133580714Y-82153333D01*
X133580714Y-82010476D01*
X133628333Y-81915238D01*
X133675952Y-81867619D01*
X133771190Y-81820000D01*
X134056904Y-81820000D01*
X134152142Y-81867619D01*
X134199761Y-81915238D01*
X134247380Y-82010476D01*
X134247380Y-82153333D01*
X133580714Y-81534285D02*
X133580714Y-81153333D01*
X133247380Y-81391428D02*
X134104523Y-81391428D01*
X134199761Y-81343809D01*
X134247380Y-81248571D01*
X134247380Y-81153333D01*
X134247380Y-80820000D02*
X133247380Y-80820000D01*
X134247380Y-80391428D02*
X133723571Y-80391428D01*
X133628333Y-80439047D01*
X133580714Y-80534285D01*
X133580714Y-80677142D01*
X133628333Y-80772380D01*
X133675952Y-80820000D01*
X134247380Y-79343809D02*
X133771190Y-79677142D01*
X134247380Y-79915238D02*
X133247380Y-79915238D01*
X133247380Y-79534285D01*
X133295000Y-79439047D01*
X133342619Y-79391428D01*
X133437857Y-79343809D01*
X133580714Y-79343809D01*
X133675952Y-79391428D01*
X133723571Y-79439047D01*
X133771190Y-79534285D01*
X133771190Y-79915238D01*
X134247380Y-78915238D02*
X133580714Y-78915238D01*
X133247380Y-78915238D02*
X133295000Y-78962857D01*
X133342619Y-78915238D01*
X133295000Y-78867619D01*
X133247380Y-78915238D01*
X133342619Y-78915238D01*
X134247380Y-78010476D02*
X133247380Y-78010476D01*
X134199761Y-78010476D02*
X134247380Y-78105714D01*
X134247380Y-78296190D01*
X134199761Y-78391428D01*
X134152142Y-78439047D01*
X134056904Y-78486666D01*
X133771190Y-78486666D01*
X133675952Y-78439047D01*
X133628333Y-78391428D01*
X133580714Y-78296190D01*
X133580714Y-78105714D01*
X133628333Y-78010476D01*
X134199761Y-77153333D02*
X134247380Y-77248571D01*
X134247380Y-77439047D01*
X134199761Y-77534285D01*
X134104523Y-77581904D01*
X133723571Y-77581904D01*
X133628333Y-77534285D01*
X133580714Y-77439047D01*
X133580714Y-77248571D01*
X133628333Y-77153333D01*
X133723571Y-77105714D01*
X133818809Y-77105714D01*
X133914047Y-77581904D01*
X134247380Y-76677142D02*
X133580714Y-76677142D01*
X133771190Y-76677142D02*
X133675952Y-76629523D01*
X133628333Y-76581904D01*
X133580714Y-76486666D01*
X133580714Y-76391428D01*
X134247380Y-76058095D02*
X133247380Y-76058095D01*
X133247380Y-75820000D01*
X133295000Y-75677142D01*
X133390238Y-75581904D01*
X133485476Y-75534285D01*
X133675952Y-75486666D01*
X133818809Y-75486666D01*
X134009285Y-75534285D01*
X134104523Y-75581904D01*
X134199761Y-75677142D01*
X134247380Y-75820000D01*
X134247380Y-76058095D01*
X134199761Y-74677142D02*
X134247380Y-74772380D01*
X134247380Y-74962857D01*
X134199761Y-75058095D01*
X134104523Y-75105714D01*
X133723571Y-75105714D01*
X133628333Y-75058095D01*
X133580714Y-74962857D01*
X133580714Y-74772380D01*
X133628333Y-74677142D01*
X133723571Y-74629523D01*
X133818809Y-74629523D01*
X133914047Y-75105714D01*
X133580714Y-74343809D02*
X133580714Y-73962857D01*
X133247380Y-74200952D02*
X134104523Y-74200952D01*
X134199761Y-74153333D01*
X134247380Y-74058095D01*
X134247380Y-73962857D01*
X134199761Y-73248571D02*
X134247380Y-73343809D01*
X134247380Y-73534285D01*
X134199761Y-73629523D01*
X134104523Y-73677142D01*
X133723571Y-73677142D01*
X133628333Y-73629523D01*
X133580714Y-73534285D01*
X133580714Y-73343809D01*
X133628333Y-73248571D01*
X133723571Y-73200952D01*
X133818809Y-73200952D01*
X133914047Y-73677142D01*
X134199761Y-72343809D02*
X134247380Y-72439047D01*
X134247380Y-72629523D01*
X134199761Y-72724761D01*
X134152142Y-72772380D01*
X134056904Y-72820000D01*
X133771190Y-72820000D01*
X133675952Y-72772380D01*
X133628333Y-72724761D01*
X133580714Y-72629523D01*
X133580714Y-72439047D01*
X133628333Y-72343809D01*
X133580714Y-72058095D02*
X133580714Y-71677142D01*
X133247380Y-71915238D02*
X134104523Y-71915238D01*
X134199761Y-71867619D01*
X134247380Y-71772380D01*
X134247380Y-71677142D01*
X134247380Y-71343809D02*
X133580714Y-71343809D01*
X133247380Y-71343809D02*
X133295000Y-71391428D01*
X133342619Y-71343809D01*
X133295000Y-71296190D01*
X133247380Y-71343809D01*
X133342619Y-71343809D01*
X134247380Y-70724761D02*
X134199761Y-70820000D01*
X134152142Y-70867619D01*
X134056904Y-70915238D01*
X133771190Y-70915238D01*
X133675952Y-70867619D01*
X133628333Y-70820000D01*
X133580714Y-70724761D01*
X133580714Y-70581904D01*
X133628333Y-70486666D01*
X133675952Y-70439047D01*
X133771190Y-70391428D01*
X134056904Y-70391428D01*
X134152142Y-70439047D01*
X134199761Y-70486666D01*
X134247380Y-70581904D01*
X134247380Y-70724761D01*
X133580714Y-69962857D02*
X134247380Y-69962857D01*
X133675952Y-69962857D02*
X133628333Y-69915238D01*
X133580714Y-69820000D01*
X133580714Y-69677142D01*
X133628333Y-69581904D01*
X133723571Y-69534285D01*
X134247380Y-69534285D01*
X135897380Y-105320000D02*
X134897380Y-105320000D01*
X135897380Y-104891428D02*
X135373571Y-104891428D01*
X135278333Y-104939047D01*
X135230714Y-105034285D01*
X135230714Y-105177142D01*
X135278333Y-105272380D01*
X135325952Y-105320000D01*
X135230714Y-104558095D02*
X135230714Y-104177142D01*
X134897380Y-104415238D02*
X135754523Y-104415238D01*
X135849761Y-104367619D01*
X135897380Y-104272380D01*
X135897380Y-104177142D01*
X135230714Y-103986666D02*
X135230714Y-103605714D01*
X134897380Y-103843809D02*
X135754523Y-103843809D01*
X135849761Y-103796190D01*
X135897380Y-103700952D01*
X135897380Y-103605714D01*
X135230714Y-103272380D02*
X136230714Y-103272380D01*
X135278333Y-103272380D02*
X135230714Y-103177142D01*
X135230714Y-102986666D01*
X135278333Y-102891428D01*
X135325952Y-102843809D01*
X135421190Y-102796190D01*
X135706904Y-102796190D01*
X135802142Y-102843809D01*
X135849761Y-102891428D01*
X135897380Y-102986666D01*
X135897380Y-103177142D01*
X135849761Y-103272380D01*
X135849761Y-102415238D02*
X135897380Y-102320000D01*
X135897380Y-102129523D01*
X135849761Y-102034285D01*
X135754523Y-101986666D01*
X135706904Y-101986666D01*
X135611666Y-102034285D01*
X135564047Y-102129523D01*
X135564047Y-102272380D01*
X135516428Y-102367619D01*
X135421190Y-102415238D01*
X135373571Y-102415238D01*
X135278333Y-102367619D01*
X135230714Y-102272380D01*
X135230714Y-102129523D01*
X135278333Y-102034285D01*
X135802142Y-101558095D02*
X135849761Y-101510476D01*
X135897380Y-101558095D01*
X135849761Y-101605714D01*
X135802142Y-101558095D01*
X135897380Y-101558095D01*
X135278333Y-101558095D02*
X135325952Y-101510476D01*
X135373571Y-101558095D01*
X135325952Y-101605714D01*
X135278333Y-101558095D01*
X135373571Y-101558095D01*
X134849761Y-100367619D02*
X136135476Y-101224761D01*
X134849761Y-99320000D02*
X136135476Y-100177142D01*
X135230714Y-98558095D02*
X136040238Y-98558095D01*
X136135476Y-98605714D01*
X136183095Y-98653333D01*
X136230714Y-98748571D01*
X136230714Y-98891428D01*
X136183095Y-98986666D01*
X135849761Y-98558095D02*
X135897380Y-98653333D01*
X135897380Y-98843809D01*
X135849761Y-98939047D01*
X135802142Y-98986666D01*
X135706904Y-99034285D01*
X135421190Y-99034285D01*
X135325952Y-98986666D01*
X135278333Y-98939047D01*
X135230714Y-98843809D01*
X135230714Y-98653333D01*
X135278333Y-98558095D01*
X135897380Y-98081904D02*
X135230714Y-98081904D01*
X134897380Y-98081904D02*
X134945000Y-98129523D01*
X134992619Y-98081904D01*
X134945000Y-98034285D01*
X134897380Y-98081904D01*
X134992619Y-98081904D01*
X135230714Y-97748571D02*
X135230714Y-97367619D01*
X134897380Y-97605714D02*
X135754523Y-97605714D01*
X135849761Y-97558095D01*
X135897380Y-97462857D01*
X135897380Y-97367619D01*
X135897380Y-97034285D02*
X134897380Y-97034285D01*
X135897380Y-96605714D02*
X135373571Y-96605714D01*
X135278333Y-96653333D01*
X135230714Y-96748571D01*
X135230714Y-96891428D01*
X135278333Y-96986666D01*
X135325952Y-97034285D01*
X135230714Y-95700952D02*
X135897380Y-95700952D01*
X135230714Y-96129523D02*
X135754523Y-96129523D01*
X135849761Y-96081904D01*
X135897380Y-95986666D01*
X135897380Y-95843809D01*
X135849761Y-95748571D01*
X135802142Y-95700952D01*
X135897380Y-95224761D02*
X134897380Y-95224761D01*
X135278333Y-95224761D02*
X135230714Y-95129523D01*
X135230714Y-94939047D01*
X135278333Y-94843809D01*
X135325952Y-94796190D01*
X135421190Y-94748571D01*
X135706904Y-94748571D01*
X135802142Y-94796190D01*
X135849761Y-94843809D01*
X135897380Y-94939047D01*
X135897380Y-95129523D01*
X135849761Y-95224761D01*
X135802142Y-94320000D02*
X135849761Y-94272380D01*
X135897380Y-94320000D01*
X135849761Y-94367619D01*
X135802142Y-94320000D01*
X135897380Y-94320000D01*
X135849761Y-93415238D02*
X135897380Y-93510476D01*
X135897380Y-93700952D01*
X135849761Y-93796190D01*
X135802142Y-93843809D01*
X135706904Y-93891428D01*
X135421190Y-93891428D01*
X135325952Y-93843809D01*
X135278333Y-93796190D01*
X135230714Y-93700952D01*
X135230714Y-93510476D01*
X135278333Y-93415238D01*
X135897380Y-92843809D02*
X135849761Y-92939047D01*
X135802142Y-92986666D01*
X135706904Y-93034285D01*
X135421190Y-93034285D01*
X135325952Y-92986666D01*
X135278333Y-92939047D01*
X135230714Y-92843809D01*
X135230714Y-92700952D01*
X135278333Y-92605714D01*
X135325952Y-92558095D01*
X135421190Y-92510476D01*
X135706904Y-92510476D01*
X135802142Y-92558095D01*
X135849761Y-92605714D01*
X135897380Y-92700952D01*
X135897380Y-92843809D01*
X135897380Y-92081904D02*
X135230714Y-92081904D01*
X135325952Y-92081904D02*
X135278333Y-92034285D01*
X135230714Y-91939047D01*
X135230714Y-91796190D01*
X135278333Y-91700952D01*
X135373571Y-91653333D01*
X135897380Y-91653333D01*
X135373571Y-91653333D02*
X135278333Y-91605714D01*
X135230714Y-91510476D01*
X135230714Y-91367619D01*
X135278333Y-91272380D01*
X135373571Y-91224761D01*
X135897380Y-91224761D01*
X134849761Y-90034285D02*
X136135476Y-90891428D01*
X135897380Y-89700952D02*
X134897380Y-89700952D01*
X135278333Y-89700952D02*
X135230714Y-89605714D01*
X135230714Y-89415238D01*
X135278333Y-89320000D01*
X135325952Y-89272380D01*
X135421190Y-89224761D01*
X135706904Y-89224761D01*
X135802142Y-89272380D01*
X135849761Y-89320000D01*
X135897380Y-89415238D01*
X135897380Y-89605714D01*
X135849761Y-89700952D01*
X135897380Y-88653333D02*
X135849761Y-88748571D01*
X135802142Y-88796190D01*
X135706904Y-88843809D01*
X135421190Y-88843809D01*
X135325952Y-88796190D01*
X135278333Y-88748571D01*
X135230714Y-88653333D01*
X135230714Y-88510476D01*
X135278333Y-88415238D01*
X135325952Y-88367619D01*
X135421190Y-88320000D01*
X135706904Y-88320000D01*
X135802142Y-88367619D01*
X135849761Y-88415238D01*
X135897380Y-88510476D01*
X135897380Y-88653333D01*
X135897380Y-87748571D02*
X135849761Y-87843809D01*
X135802142Y-87891428D01*
X135706904Y-87939047D01*
X135421190Y-87939047D01*
X135325952Y-87891428D01*
X135278333Y-87843809D01*
X135230714Y-87748571D01*
X135230714Y-87605714D01*
X135278333Y-87510476D01*
X135325952Y-87462857D01*
X135421190Y-87415238D01*
X135706904Y-87415238D01*
X135802142Y-87462857D01*
X135849761Y-87510476D01*
X135897380Y-87605714D01*
X135897380Y-87748571D01*
X135230714Y-86986666D02*
X135897380Y-86986666D01*
X135325952Y-86986666D02*
X135278333Y-86939047D01*
X135230714Y-86843809D01*
X135230714Y-86700952D01*
X135278333Y-86605714D01*
X135373571Y-86558095D01*
X135897380Y-86558095D01*
X135849761Y-86129523D02*
X135897380Y-86034285D01*
X135897380Y-85843809D01*
X135849761Y-85748571D01*
X135754523Y-85700952D01*
X135706904Y-85700952D01*
X135611666Y-85748571D01*
X135564047Y-85843809D01*
X135564047Y-85986666D01*
X135516428Y-86081904D01*
X135421190Y-86129523D01*
X135373571Y-86129523D01*
X135278333Y-86081904D01*
X135230714Y-85986666D01*
X135230714Y-85843809D01*
X135278333Y-85748571D01*
X134897380Y-84843809D02*
X134897380Y-85034285D01*
X134945000Y-85129523D01*
X134992619Y-85177142D01*
X135135476Y-85272380D01*
X135325952Y-85320000D01*
X135706904Y-85320000D01*
X135802142Y-85272380D01*
X135849761Y-85224761D01*
X135897380Y-85129523D01*
X135897380Y-84939047D01*
X135849761Y-84843809D01*
X135802142Y-84796190D01*
X135706904Y-84748571D01*
X135468809Y-84748571D01*
X135373571Y-84796190D01*
X135325952Y-84843809D01*
X135278333Y-84939047D01*
X135278333Y-85129523D01*
X135325952Y-85224761D01*
X135373571Y-85272380D01*
X135468809Y-85320000D01*
X134897380Y-84129523D02*
X134897380Y-84034285D01*
X134945000Y-83939047D01*
X134992619Y-83891428D01*
X135087857Y-83843809D01*
X135278333Y-83796190D01*
X135516428Y-83796190D01*
X135706904Y-83843809D01*
X135802142Y-83891428D01*
X135849761Y-83939047D01*
X135897380Y-84034285D01*
X135897380Y-84129523D01*
X135849761Y-84224761D01*
X135802142Y-84272380D01*
X135706904Y-84320000D01*
X135516428Y-84367619D01*
X135278333Y-84367619D01*
X135087857Y-84320000D01*
X134992619Y-84272380D01*
X134945000Y-84224761D01*
X134897380Y-84129523D01*
X134897380Y-82891428D02*
X134897380Y-83367619D01*
X135373571Y-83415238D01*
X135325952Y-83367619D01*
X135278333Y-83272380D01*
X135278333Y-83034285D01*
X135325952Y-82939047D01*
X135373571Y-82891428D01*
X135468809Y-82843809D01*
X135706904Y-82843809D01*
X135802142Y-82891428D01*
X135849761Y-82939047D01*
X135897380Y-83034285D01*
X135897380Y-83272380D01*
X135849761Y-83367619D01*
X135802142Y-83415238D01*
X134849761Y-81700952D02*
X136135476Y-82558095D01*
X135897380Y-81367619D02*
X134897380Y-81367619D01*
X135611666Y-81034285D01*
X134897380Y-80700952D01*
X135897380Y-80700952D01*
X135897380Y-80081904D02*
X135849761Y-80177142D01*
X135802142Y-80224761D01*
X135706904Y-80272380D01*
X135421190Y-80272380D01*
X135325952Y-80224761D01*
X135278333Y-80177142D01*
X135230714Y-80081904D01*
X135230714Y-79939047D01*
X135278333Y-79843809D01*
X135325952Y-79796190D01*
X135421190Y-79748571D01*
X135706904Y-79748571D01*
X135802142Y-79796190D01*
X135849761Y-79843809D01*
X135897380Y-79939047D01*
X135897380Y-80081904D01*
X135230714Y-79462857D02*
X135230714Y-79081904D01*
X134897380Y-79320000D02*
X135754523Y-79320000D01*
X135849761Y-79272380D01*
X135897380Y-79177142D01*
X135897380Y-79081904D01*
X135897380Y-78605714D02*
X135849761Y-78700952D01*
X135802142Y-78748571D01*
X135706904Y-78796190D01*
X135421190Y-78796190D01*
X135325952Y-78748571D01*
X135278333Y-78700952D01*
X135230714Y-78605714D01*
X135230714Y-78462857D01*
X135278333Y-78367619D01*
X135325952Y-78320000D01*
X135421190Y-78272380D01*
X135706904Y-78272380D01*
X135802142Y-78320000D01*
X135849761Y-78367619D01*
X135897380Y-78462857D01*
X135897380Y-78605714D01*
X134945000Y-77320000D02*
X134897380Y-77415238D01*
X134897380Y-77558095D01*
X134945000Y-77700952D01*
X135040238Y-77796190D01*
X135135476Y-77843809D01*
X135325952Y-77891428D01*
X135468809Y-77891428D01*
X135659285Y-77843809D01*
X135754523Y-77796190D01*
X135849761Y-77700952D01*
X135897380Y-77558095D01*
X135897380Y-77462857D01*
X135849761Y-77320000D01*
X135802142Y-77272380D01*
X135468809Y-77272380D01*
X135468809Y-77462857D01*
X135230714Y-76939047D02*
X135897380Y-76700952D01*
X135230714Y-76462857D02*
X135897380Y-76700952D01*
X136135476Y-76796190D01*
X136183095Y-76843809D01*
X136230714Y-76939047D01*
X135897380Y-76081904D02*
X135230714Y-76081904D01*
X135325952Y-76081904D02*
X135278333Y-76034285D01*
X135230714Y-75939047D01*
X135230714Y-75796190D01*
X135278333Y-75700952D01*
X135373571Y-75653333D01*
X135897380Y-75653333D01*
X135373571Y-75653333D02*
X135278333Y-75605714D01*
X135230714Y-75510476D01*
X135230714Y-75367619D01*
X135278333Y-75272380D01*
X135373571Y-75224761D01*
X135897380Y-75224761D01*
X135897380Y-74748571D02*
X134897380Y-74748571D01*
X135516428Y-74653333D02*
X135897380Y-74367619D01*
X135230714Y-74367619D02*
X135611666Y-74748571D01*
X135897380Y-73939047D02*
X134897380Y-73939047D01*
X135897380Y-73510476D02*
X135373571Y-73510476D01*
X135278333Y-73558095D01*
X135230714Y-73653333D01*
X135230714Y-73796190D01*
X135278333Y-73891428D01*
X135325952Y-73939047D01*
X135897380Y-72605714D02*
X135373571Y-72605714D01*
X135278333Y-72653333D01*
X135230714Y-72748571D01*
X135230714Y-72939047D01*
X135278333Y-73034285D01*
X135849761Y-72605714D02*
X135897380Y-72700952D01*
X135897380Y-72939047D01*
X135849761Y-73034285D01*
X135754523Y-73081904D01*
X135659285Y-73081904D01*
X135564047Y-73034285D01*
X135516428Y-72939047D01*
X135516428Y-72700952D01*
X135468809Y-72605714D01*
X135230714Y-72129523D02*
X135897380Y-72129523D01*
X135325952Y-72129523D02*
X135278333Y-72081904D01*
X135230714Y-71986666D01*
X135230714Y-71843809D01*
X135278333Y-71748571D01*
X135373571Y-71700952D01*
X135897380Y-71700952D01*
X135897380Y-70796190D02*
X135373571Y-70796190D01*
X135278333Y-70843809D01*
X135230714Y-70939047D01*
X135230714Y-71129523D01*
X135278333Y-71224761D01*
X135849761Y-70796190D02*
X135897380Y-70891428D01*
X135897380Y-71129523D01*
X135849761Y-71224761D01*
X135754523Y-71272380D01*
X135659285Y-71272380D01*
X135564047Y-71224761D01*
X135516428Y-71129523D01*
X135516428Y-70891428D01*
X135468809Y-70796190D01*
X135897380Y-69748571D02*
X135421190Y-70081904D01*
X135897380Y-70320000D02*
X134897380Y-70320000D01*
X134897380Y-69939047D01*
X134945000Y-69843809D01*
X134992619Y-69796190D01*
X135087857Y-69748571D01*
X135230714Y-69748571D01*
X135325952Y-69796190D01*
X135373571Y-69843809D01*
X135421190Y-69939047D01*
X135421190Y-70320000D01*
X135897380Y-68891428D02*
X135373571Y-68891428D01*
X135278333Y-68939047D01*
X135230714Y-69034285D01*
X135230714Y-69224761D01*
X135278333Y-69320000D01*
X135849761Y-68891428D02*
X135897380Y-68986666D01*
X135897380Y-69224761D01*
X135849761Y-69320000D01*
X135754523Y-69367619D01*
X135659285Y-69367619D01*
X135564047Y-69320000D01*
X135516428Y-69224761D01*
X135516428Y-68986666D01*
X135468809Y-68891428D01*
X135849761Y-67986666D02*
X135897380Y-68081904D01*
X135897380Y-68272380D01*
X135849761Y-68367619D01*
X135802142Y-68415238D01*
X135706904Y-68462857D01*
X135421190Y-68462857D01*
X135325952Y-68415238D01*
X135278333Y-68367619D01*
X135230714Y-68272380D01*
X135230714Y-68081904D01*
X135278333Y-67986666D01*
X135849761Y-67177142D02*
X135897380Y-67272380D01*
X135897380Y-67462857D01*
X135849761Y-67558095D01*
X135754523Y-67605714D01*
X135373571Y-67605714D01*
X135278333Y-67558095D01*
X135230714Y-67462857D01*
X135230714Y-67272380D01*
X135278333Y-67177142D01*
X135373571Y-67129523D01*
X135468809Y-67129523D01*
X135564047Y-67605714D01*
X134897380Y-66843809D02*
X134897380Y-66272380D01*
X135897380Y-66558095D02*
X134897380Y-66558095D01*
X135897380Y-65939047D02*
X135230714Y-65939047D01*
X134897380Y-65939047D02*
X134945000Y-65986666D01*
X134992619Y-65939047D01*
X134945000Y-65891428D01*
X134897380Y-65939047D01*
X134992619Y-65939047D01*
X135897380Y-65462857D02*
X135230714Y-65462857D01*
X135325952Y-65462857D02*
X135278333Y-65415238D01*
X135230714Y-65320000D01*
X135230714Y-65177142D01*
X135278333Y-65081904D01*
X135373571Y-65034285D01*
X135897380Y-65034285D01*
X135373571Y-65034285D02*
X135278333Y-64986666D01*
X135230714Y-64891428D01*
X135230714Y-64748571D01*
X135278333Y-64653333D01*
X135373571Y-64605714D01*
X135897380Y-64605714D01*
X135897380Y-64129523D02*
X135230714Y-64129523D01*
X134897380Y-64129523D02*
X134945000Y-64177142D01*
X134992619Y-64129523D01*
X134945000Y-64081904D01*
X134897380Y-64129523D01*
X134992619Y-64129523D01*
X135230714Y-63653333D02*
X135897380Y-63653333D01*
X135325952Y-63653333D02*
X135278333Y-63605714D01*
X135230714Y-63510476D01*
X135230714Y-63367619D01*
X135278333Y-63272380D01*
X135373571Y-63224761D01*
X135897380Y-63224761D01*
X135230714Y-62320000D02*
X136040238Y-62320000D01*
X136135476Y-62367619D01*
X136183095Y-62415238D01*
X136230714Y-62510476D01*
X136230714Y-62653333D01*
X136183095Y-62748571D01*
X135849761Y-62320000D02*
X135897380Y-62415238D01*
X135897380Y-62605714D01*
X135849761Y-62700952D01*
X135802142Y-62748571D01*
X135706904Y-62796190D01*
X135421190Y-62796190D01*
X135325952Y-62748571D01*
X135278333Y-62700952D01*
X135230714Y-62605714D01*
X135230714Y-62415238D01*
X135278333Y-62320000D01*
D11*
X74518520Y-94909640D02*
X74518520Y-74409300D01*
X77017880Y-74409300D02*
X74518520Y-74409300D01*
X77017880Y-94909640D02*
X77017880Y-74409300D01*
X74518520Y-94909640D02*
X77017880Y-94909640D01*
X55021480Y-94909640D02*
X55021480Y-74409300D01*
X52522120Y-74409300D02*
X55021480Y-74409300D01*
X52522120Y-94909640D02*
X52522120Y-74409300D01*
X55021480Y-94909640D02*
X52522120Y-94909640D01*
D12*
X124460000Y-90957000D02*
X123444000Y-90957000D01*
X123444000Y-89052000D02*
X123444000Y-90957000D01*
X124460000Y-89052000D02*
X123444000Y-89052000D01*
X124460000Y-90957000D02*
X124460000Y-89052000D01*
X123952000Y-91592000D02*
X123952000Y-90957000D01*
X124587000Y-91592000D02*
X123952000Y-91592000D01*
X123952000Y-88392000D02*
X123952000Y-89052000D01*
X124587000Y-88392000D02*
X123952000Y-88392000D01*
X124460000Y-90576000D02*
X123444000Y-89941000D01*
X129570000Y-86230000D02*
X129570000Y-94030000D01*
X129570000Y-94030000D02*
X116870000Y-94030000D01*
X116870000Y-94030000D02*
X116870000Y-86230000D01*
X116870000Y-86230000D02*
X129570000Y-86230000D01*
X127670000Y-86030000D02*
X129770000Y-86030000D01*
X129770000Y-86030000D02*
X129770000Y-88230000D01*
X124460000Y-101117000D02*
X123444000Y-101117000D01*
X123444000Y-99212000D02*
X123444000Y-101117000D01*
X124460000Y-99212000D02*
X123444000Y-99212000D01*
X124460000Y-101117000D02*
X124460000Y-99212000D01*
X123952000Y-101752000D02*
X123952000Y-101117000D01*
X124587000Y-101752000D02*
X123952000Y-101752000D01*
X123952000Y-98552000D02*
X123952000Y-99212000D01*
X124587000Y-98552000D02*
X123952000Y-98552000D01*
X124460000Y-100736000D02*
X123444000Y-100101000D01*
X129570000Y-96390000D02*
X129570000Y-104190000D01*
X129570000Y-104190000D02*
X116870000Y-104190000D01*
X116870000Y-104190000D02*
X116870000Y-96390000D01*
X116870000Y-96390000D02*
X129570000Y-96390000D01*
X127670000Y-96190000D02*
X129770000Y-96190000D01*
X129770000Y-96190000D02*
X129770000Y-98390000D01*
X124460000Y-111277000D02*
X123444000Y-111277000D01*
X123444000Y-109372000D02*
X123444000Y-111277000D01*
X124460000Y-109372000D02*
X123444000Y-109372000D01*
X124460000Y-111277000D02*
X124460000Y-109372000D01*
X123952000Y-111912000D02*
X123952000Y-111277000D01*
X124587000Y-111912000D02*
X123952000Y-111912000D01*
X123952000Y-108712000D02*
X123952000Y-109372000D01*
X124587000Y-108712000D02*
X123952000Y-108712000D01*
X124460000Y-110896000D02*
X123444000Y-110261000D01*
X129570000Y-106550000D02*
X129570000Y-114350000D01*
X129570000Y-114350000D02*
X116870000Y-114350000D01*
X116870000Y-114350000D02*
X116870000Y-106550000D01*
X116870000Y-106550000D02*
X129570000Y-106550000D01*
X127670000Y-106350000D02*
X129770000Y-106350000D01*
X129770000Y-106350000D02*
X129770000Y-108550000D01*
X85180000Y-49590000D02*
X85180000Y-51920000D01*
X87630000Y-49590000D02*
X85180000Y-49590000D01*
X85510000Y-61860000D02*
X85510000Y-49920000D01*
X93360000Y-61860000D02*
X85510000Y-61860000D01*
X93360000Y-49920000D02*
X93360000Y-61860000D01*
X85510000Y-49920000D02*
X93360000Y-49920000D01*
X99330000Y-83760000D02*
X98080000Y-83760000D01*
X98080000Y-83760000D02*
X98080000Y-104200000D01*
X98080000Y-104200000D02*
X102580000Y-104200000D01*
X102580000Y-104200000D02*
X102580000Y-83760000D01*
X102580000Y-83760000D02*
X101330000Y-83760000D01*
X95080000Y-83700000D02*
X95080000Y-104260000D01*
X95080000Y-104260000D02*
X105580000Y-104260000D01*
X105580000Y-104260000D02*
X105580000Y-83700000D01*
X105580000Y-83700000D02*
X95080000Y-83700000D01*
X101330000Y-83760000D02*
G75*
G02*
X99330000Y-83760000I-1000000J0D01*
G01*
X129340000Y-61800000D02*
X129340000Y-49580000D01*
X129340000Y-49580000D02*
X107120000Y-49580000D01*
X107120000Y-49580000D02*
X107120000Y-61800000D01*
X107120000Y-61800000D02*
X129340000Y-61800000D01*
X129340000Y-51080000D02*
X129340000Y-52880000D01*
X129340000Y-52880000D02*
X107120000Y-52880000D01*
X107120000Y-52880000D02*
X107120000Y-51080000D01*
X107120000Y-51080000D02*
X129340000Y-51080000D01*
X126730000Y-49580000D02*
X124730000Y-49580000D01*
X124730000Y-49580000D02*
X124980000Y-51080000D01*
X124980000Y-51080000D02*
X126480000Y-51080000D01*
X126480000Y-51080000D02*
X126730000Y-49580000D01*
X121730000Y-49580000D02*
X119730000Y-49580000D01*
X119730000Y-49580000D02*
X119980000Y-51080000D01*
X119980000Y-51080000D02*
X121480000Y-51080000D01*
X121480000Y-51080000D02*
X121730000Y-49580000D01*
X116730000Y-49580000D02*
X114730000Y-49580000D01*
X114730000Y-49580000D02*
X114980000Y-51080000D01*
X114980000Y-51080000D02*
X116480000Y-51080000D01*
X116480000Y-51080000D02*
X116730000Y-49580000D01*
X111730000Y-49580000D02*
X109730000Y-49580000D01*
X109730000Y-49580000D02*
X109980000Y-51080000D01*
X109980000Y-51080000D02*
X111480000Y-51080000D01*
X111480000Y-51080000D02*
X111730000Y-49580000D01*
X125430000Y-62600000D02*
X125730000Y-62000000D01*
X125730000Y-62000000D02*
X126030000Y-62600000D01*
X126030000Y-62600000D02*
X125430000Y-62600000D01*
X71850000Y-110590000D02*
X71850000Y-107850000D01*
X71850000Y-107850000D02*
X65310000Y-107850000D01*
X65310000Y-107850000D02*
X65310000Y-110590000D01*
X65310000Y-110590000D02*
X71850000Y-110590000D01*
X72620000Y-109220000D02*
X71850000Y-109220000D01*
X64540000Y-109220000D02*
X65310000Y-109220000D01*
X82650000Y-86900000D02*
X79910000Y-86900000D01*
X79910000Y-86900000D02*
X79910000Y-93440000D01*
X79910000Y-93440000D02*
X82650000Y-93440000D01*
X82650000Y-93440000D02*
X82650000Y-86900000D01*
X81280000Y-86130000D02*
X81280000Y-86900000D01*
X81280000Y-94210000D02*
X81280000Y-93440000D01*
X82350000Y-61800000D02*
X82350000Y-49580000D01*
X82350000Y-49580000D02*
X70130000Y-49580000D01*
X70130000Y-49580000D02*
X70130000Y-61800000D01*
X70130000Y-61800000D02*
X82350000Y-61800000D01*
X82350000Y-51080000D02*
X82350000Y-52880000D01*
X82350000Y-52880000D02*
X70130000Y-52880000D01*
X70130000Y-52880000D02*
X70130000Y-51080000D01*
X70130000Y-51080000D02*
X82350000Y-51080000D01*
X79740000Y-49580000D02*
X77740000Y-49580000D01*
X77740000Y-49580000D02*
X77990000Y-51080000D01*
X77990000Y-51080000D02*
X79490000Y-51080000D01*
X79490000Y-51080000D02*
X79740000Y-49580000D01*
X74740000Y-49580000D02*
X72740000Y-49580000D01*
X72740000Y-49580000D02*
X72990000Y-51080000D01*
X72990000Y-51080000D02*
X74490000Y-51080000D01*
X74490000Y-51080000D02*
X74740000Y-49580000D01*
X78440000Y-62600000D02*
X78740000Y-62000000D01*
X78740000Y-62000000D02*
X79040000Y-62600000D01*
X79040000Y-62600000D02*
X78440000Y-62600000D01*
X127060000Y-76260000D02*
X127060000Y-73600000D01*
X121920000Y-76260000D02*
X127060000Y-76260000D01*
X121920000Y-73600000D02*
X127060000Y-73600000D01*
X121920000Y-76260000D02*
X121920000Y-73600000D01*
X120650000Y-76260000D02*
X119320000Y-76260000D01*
X119320000Y-76260000D02*
X119320000Y-74930000D01*
X127060000Y-80070000D02*
X127060000Y-77410000D01*
X121920000Y-80070000D02*
X127060000Y-80070000D01*
X121920000Y-77410000D02*
X127060000Y-77410000D01*
X121920000Y-80070000D02*
X121920000Y-77410000D01*
X120650000Y-80070000D02*
X119320000Y-80070000D01*
X119320000Y-80070000D02*
X119320000Y-78740000D01*
X67250000Y-49600000D02*
X67250000Y-58230000D01*
X67131905Y-49600000D02*
X67131905Y-58230000D01*
X67013810Y-49600000D02*
X67013810Y-58230000D01*
X66895715Y-49600000D02*
X66895715Y-58230000D01*
X66777620Y-49600000D02*
X66777620Y-58230000D01*
X66659525Y-49600000D02*
X66659525Y-58230000D01*
X66541430Y-49600000D02*
X66541430Y-58230000D01*
X66423335Y-49600000D02*
X66423335Y-58230000D01*
X66305240Y-49600000D02*
X66305240Y-58230000D01*
X66187145Y-49600000D02*
X66187145Y-58230000D01*
X66069050Y-49600000D02*
X66069050Y-58230000D01*
X65950955Y-49600000D02*
X65950955Y-58230000D01*
X65832860Y-49600000D02*
X65832860Y-58230000D01*
X65714765Y-49600000D02*
X65714765Y-58230000D01*
X65596670Y-49600000D02*
X65596670Y-58230000D01*
X65478575Y-49600000D02*
X65478575Y-58230000D01*
X65360480Y-49600000D02*
X65360480Y-58230000D01*
X65242385Y-49600000D02*
X65242385Y-58230000D01*
X65124290Y-49600000D02*
X65124290Y-58230000D01*
X65006195Y-49600000D02*
X65006195Y-58230000D01*
X64888100Y-49600000D02*
X64888100Y-58230000D01*
X66400000Y-58230000D02*
X66400000Y-58580000D01*
X65680000Y-58230000D02*
X65680000Y-58580000D01*
X63860000Y-58230000D02*
X63860000Y-58640000D01*
X63140000Y-58230000D02*
X63140000Y-58640000D01*
X61320000Y-58230000D02*
X61320000Y-58640000D01*
X60600000Y-58230000D02*
X60600000Y-58640000D01*
X58780000Y-58230000D02*
X58780000Y-58640000D01*
X58060000Y-58230000D02*
X58060000Y-58640000D01*
X56240000Y-58230000D02*
X56240000Y-58640000D01*
X55520000Y-58230000D02*
X55520000Y-58640000D01*
X53700000Y-58230000D02*
X53700000Y-58640000D01*
X52980000Y-58230000D02*
X52980000Y-58640000D01*
X64770000Y-49600000D02*
X64770000Y-58230000D01*
X62230000Y-49600000D02*
X62230000Y-58230000D01*
X59690000Y-49600000D02*
X59690000Y-58230000D01*
X57150000Y-49600000D02*
X57150000Y-58230000D01*
X54610000Y-49600000D02*
X54610000Y-58230000D01*
X67370000Y-49600000D02*
X67370000Y-58230000D01*
X67370000Y-58230000D02*
X52010000Y-58230000D01*
X52010000Y-49600000D02*
X52010000Y-58230000D01*
X67370000Y-49600000D02*
X52010000Y-49600000D01*
X67370000Y-60800000D02*
X66040000Y-60800000D01*
X67370000Y-59690000D02*
X67370000Y-60800000D01*
X111700000Y-69850000D02*
X114360000Y-69850000D01*
X111700000Y-69850000D02*
X111700000Y-115630000D01*
X111700000Y-115630000D02*
X114360000Y-115630000D01*
X114360000Y-69850000D02*
X114360000Y-115630000D01*
X114360000Y-67250000D02*
X114360000Y-68580000D01*
X113030000Y-67250000D02*
X114360000Y-67250000D01*
X86300000Y-69850000D02*
X88960000Y-69850000D01*
X86300000Y-69850000D02*
X86300000Y-115630000D01*
X86300000Y-115630000D02*
X88960000Y-115630000D01*
X88960000Y-69850000D02*
X88960000Y-115630000D01*
X88960000Y-67250000D02*
X88960000Y-68580000D01*
X87630000Y-67250000D02*
X88960000Y-67250000D01*
X81570000Y-110456000D02*
X81570000Y-110300000D01*
X81570000Y-108140000D02*
X81570000Y-107984000D01*
X78968870Y-108140163D02*
G75*
G02*
X81050961Y-108140000I1041130J-1079837D01*
G01*
X78968870Y-110299837D02*
G75*
G03*
X81050961Y-110300000I1041130J1079837D01*
G01*
X78337665Y-108141392D02*
G75*
G02*
X81570000Y-107984484I1672335J-1078608D01*
G01*
X78337665Y-110298608D02*
G75*
G03*
X81570000Y-110455516I1672335J1078608D01*
G01*
X81570000Y-102836000D02*
X81570000Y-102680000D01*
X81570000Y-100520000D02*
X81570000Y-100364000D01*
X78968870Y-100520163D02*
G75*
G02*
X81050961Y-100520000I1041130J-1079837D01*
G01*
X78968870Y-102679837D02*
G75*
G03*
X81050961Y-102680000I1041130J1079837D01*
G01*
X78337665Y-100521392D02*
G75*
G02*
X81570000Y-100364484I1672335J-1078608D01*
G01*
X78337665Y-102678608D02*
G75*
G03*
X81570000Y-102835516I1672335J1078608D01*
G01*
D13*
X55372000Y-69516171D02*
X55372000Y-69951600D01*
X55342971Y-70038685D01*
X55284914Y-70096742D01*
X55197828Y-70125771D01*
X55139771Y-70125771D01*
X55662285Y-70125771D02*
X55662285Y-69516171D01*
X55894514Y-69516171D01*
X55952571Y-69545200D01*
X55981600Y-69574228D01*
X56010628Y-69632285D01*
X56010628Y-69719371D01*
X55981600Y-69777428D01*
X55952571Y-69806457D01*
X55894514Y-69835485D01*
X55662285Y-69835485D01*
X56591200Y-70125771D02*
X56242857Y-70125771D01*
X56417028Y-70125771D02*
X56417028Y-69516171D01*
X56358971Y-69603257D01*
X56300914Y-69661314D01*
X56242857Y-69690342D01*
D14*
X74051885Y-94627579D02*
X73471314Y-94627579D01*
X73761600Y-94627579D02*
X73761600Y-93611579D01*
X73664838Y-93756721D01*
X73568076Y-93853483D01*
X73471314Y-93901864D01*
D10*
X79248095Y-62292380D02*
X79248095Y-61292380D01*
X79248095Y-61768571D02*
X79819523Y-61768571D01*
X79819523Y-62292380D02*
X79819523Y-61292380D01*
X80724285Y-61625714D02*
X80724285Y-62292380D01*
X80486190Y-61244761D02*
X80248095Y-61959047D01*
X80867142Y-61959047D01*
X53848095Y-109282380D02*
X53848095Y-108282380D01*
X53848095Y-108758571D02*
X54419523Y-108758571D01*
X54419523Y-109282380D02*
X54419523Y-108282380D01*
X54800476Y-108282380D02*
X55419523Y-108282380D01*
X55086190Y-108663333D01*
X55229047Y-108663333D01*
X55324285Y-108710952D01*
X55371904Y-108758571D01*
X55419523Y-108853809D01*
X55419523Y-109091904D01*
X55371904Y-109187142D01*
X55324285Y-109234761D01*
X55229047Y-109282380D01*
X54943333Y-109282380D01*
X54848095Y-109234761D01*
X54800476Y-109187142D01*
X132588095Y-49592380D02*
X132588095Y-48592380D01*
X132588095Y-49068571D02*
X133159523Y-49068571D01*
X133159523Y-49592380D02*
X133159523Y-48592380D01*
X133588095Y-48687619D02*
X133635714Y-48640000D01*
X133730952Y-48592380D01*
X133969047Y-48592380D01*
X134064285Y-48640000D01*
X134111904Y-48687619D01*
X134159523Y-48782857D01*
X134159523Y-48878095D01*
X134111904Y-49020952D01*
X133540476Y-49592380D01*
X134159523Y-49592380D01*
X132588095Y-109282380D02*
X132588095Y-108282380D01*
X132588095Y-108758571D02*
X133159523Y-108758571D01*
X133159523Y-109282380D02*
X133159523Y-108282380D01*
X134159523Y-109282380D02*
X133588095Y-109282380D01*
X133873809Y-109282380D02*
X133873809Y-108282380D01*
X133778571Y-108425238D01*
X133683333Y-108520476D01*
X133588095Y-108568095D01*
X130922380Y-90868095D02*
X129922380Y-90868095D01*
X130922380Y-90296666D02*
X130350952Y-90725238D01*
X129922380Y-90296666D02*
X130493809Y-90868095D01*
X129922380Y-89963333D02*
X129922380Y-89344285D01*
X130303333Y-89677619D01*
X130303333Y-89534761D01*
X130350952Y-89439523D01*
X130398571Y-89391904D01*
X130493809Y-89344285D01*
X130731904Y-89344285D01*
X130827142Y-89391904D01*
X130874761Y-89439523D01*
X130922380Y-89534761D01*
X130922380Y-89820476D01*
X130874761Y-89915714D01*
X130827142Y-89963333D01*
X130922380Y-101028095D02*
X129922380Y-101028095D01*
X130922380Y-100456666D02*
X130350952Y-100885238D01*
X129922380Y-100456666D02*
X130493809Y-101028095D01*
X130017619Y-100075714D02*
X129970000Y-100028095D01*
X129922380Y-99932857D01*
X129922380Y-99694761D01*
X129970000Y-99599523D01*
X130017619Y-99551904D01*
X130112857Y-99504285D01*
X130208095Y-99504285D01*
X130350952Y-99551904D01*
X130922380Y-100123333D01*
X130922380Y-99504285D01*
X130922380Y-111188095D02*
X129922380Y-111188095D01*
X130922380Y-110616666D02*
X130350952Y-111045238D01*
X129922380Y-110616666D02*
X130493809Y-111188095D01*
X130922380Y-109664285D02*
X130922380Y-110235714D01*
X130922380Y-109950000D02*
X129922380Y-109950000D01*
X130065238Y-110045238D01*
X130160476Y-110140476D01*
X130208095Y-110235714D01*
X93792380Y-52601904D02*
X94601904Y-52601904D01*
X94697142Y-52554285D01*
X94744761Y-52506666D01*
X94792380Y-52411428D01*
X94792380Y-52220952D01*
X94744761Y-52125714D01*
X94697142Y-52078095D01*
X94601904Y-52030476D01*
X93792380Y-52030476D01*
X93887619Y-51601904D02*
X93840000Y-51554285D01*
X93792380Y-51459047D01*
X93792380Y-51220952D01*
X93840000Y-51125714D01*
X93887619Y-51078095D01*
X93982857Y-51030476D01*
X94078095Y-51030476D01*
X94220952Y-51078095D01*
X94792380Y-51649523D01*
X94792380Y-51030476D01*
X99568095Y-82212380D02*
X99568095Y-83021904D01*
X99615714Y-83117142D01*
X99663333Y-83164761D01*
X99758571Y-83212380D01*
X99949047Y-83212380D01*
X100044285Y-83164761D01*
X100091904Y-83117142D01*
X100139523Y-83021904D01*
X100139523Y-82212380D01*
X101139523Y-83212380D02*
X100568095Y-83212380D01*
X100853809Y-83212380D02*
X100853809Y-82212380D01*
X100758571Y-82355238D01*
X100663333Y-82450476D01*
X100568095Y-82498095D01*
X68413333Y-112042380D02*
X68080000Y-111566190D01*
X67841904Y-112042380D02*
X67841904Y-111042380D01*
X68222857Y-111042380D01*
X68318095Y-111090000D01*
X68365714Y-111137619D01*
X68413333Y-111232857D01*
X68413333Y-111375714D01*
X68365714Y-111470952D01*
X68318095Y-111518571D01*
X68222857Y-111566190D01*
X67841904Y-111566190D01*
X68794285Y-111137619D02*
X68841904Y-111090000D01*
X68937142Y-111042380D01*
X69175238Y-111042380D01*
X69270476Y-111090000D01*
X69318095Y-111137619D01*
X69365714Y-111232857D01*
X69365714Y-111328095D01*
X69318095Y-111470952D01*
X68746666Y-112042380D01*
X69365714Y-112042380D01*
X84102380Y-90336666D02*
X83626190Y-90670000D01*
X84102380Y-90908095D02*
X83102380Y-90908095D01*
X83102380Y-90527142D01*
X83150000Y-90431904D01*
X83197619Y-90384285D01*
X83292857Y-90336666D01*
X83435714Y-90336666D01*
X83530952Y-90384285D01*
X83578571Y-90431904D01*
X83626190Y-90527142D01*
X83626190Y-90908095D01*
X84102380Y-89384285D02*
X84102380Y-89955714D01*
X84102380Y-89670000D02*
X83102380Y-89670000D01*
X83245238Y-89765238D01*
X83340476Y-89860476D01*
X83388095Y-89955714D01*
X117772380Y-75263333D02*
X118486666Y-75263333D01*
X118629523Y-75310952D01*
X118724761Y-75406190D01*
X118772380Y-75549047D01*
X118772380Y-75644285D01*
X117772380Y-74310952D02*
X117772380Y-74787142D01*
X118248571Y-74834761D01*
X118200952Y-74787142D01*
X118153333Y-74691904D01*
X118153333Y-74453809D01*
X118200952Y-74358571D01*
X118248571Y-74310952D01*
X118343809Y-74263333D01*
X118581904Y-74263333D01*
X118677142Y-74310952D01*
X118724761Y-74358571D01*
X118772380Y-74453809D01*
X118772380Y-74691904D01*
X118724761Y-74787142D01*
X118677142Y-74834761D01*
X117772380Y-79073333D02*
X118486666Y-79073333D01*
X118629523Y-79120952D01*
X118724761Y-79216190D01*
X118772380Y-79359047D01*
X118772380Y-79454285D01*
X118105714Y-78168571D02*
X118772380Y-78168571D01*
X117724761Y-78406666D02*
X118439047Y-78644761D01*
X118439047Y-78025714D01*
X68262380Y-55643333D02*
X68976666Y-55643333D01*
X69119523Y-55690952D01*
X69214761Y-55786190D01*
X69262380Y-55929047D01*
X69262380Y-56024285D01*
X68262380Y-55262380D02*
X68262380Y-54643333D01*
X68643333Y-54976666D01*
X68643333Y-54833809D01*
X68690952Y-54738571D01*
X68738571Y-54690952D01*
X68833809Y-54643333D01*
X69071904Y-54643333D01*
X69167142Y-54690952D01*
X69214761Y-54738571D01*
X69262380Y-54833809D01*
X69262380Y-55119523D01*
X69214761Y-55214761D01*
X69167142Y-55262380D01*
X112696666Y-65262380D02*
X112696666Y-65976666D01*
X112649047Y-66119523D01*
X112553809Y-66214761D01*
X112410952Y-66262380D01*
X112315714Y-66262380D01*
X113125238Y-65357619D02*
X113172857Y-65310000D01*
X113268095Y-65262380D01*
X113506190Y-65262380D01*
X113601428Y-65310000D01*
X113649047Y-65357619D01*
X113696666Y-65452857D01*
X113696666Y-65548095D01*
X113649047Y-65690952D01*
X113077619Y-66262380D01*
X113696666Y-66262380D01*
X87296666Y-65262380D02*
X87296666Y-65976666D01*
X87249047Y-66119523D01*
X87153809Y-66214761D01*
X87010952Y-66262380D01*
X86915714Y-66262380D01*
X88296666Y-66262380D02*
X87725238Y-66262380D01*
X88010952Y-66262380D02*
X88010952Y-65262380D01*
X87915714Y-65405238D01*
X87820476Y-65500476D01*
X87725238Y-65548095D01*
X79271904Y-112632380D02*
X79271904Y-111632380D01*
X79510000Y-111632380D01*
X79652857Y-111680000D01*
X79748095Y-111775238D01*
X79795714Y-111870476D01*
X79843333Y-112060952D01*
X79843333Y-112203809D01*
X79795714Y-112394285D01*
X79748095Y-112489523D01*
X79652857Y-112584761D01*
X79510000Y-112632380D01*
X79271904Y-112632380D01*
X80224285Y-111727619D02*
X80271904Y-111680000D01*
X80367142Y-111632380D01*
X80605238Y-111632380D01*
X80700476Y-111680000D01*
X80748095Y-111727619D01*
X80795714Y-111822857D01*
X80795714Y-111918095D01*
X80748095Y-112060952D01*
X80176666Y-112632380D01*
X80795714Y-112632380D01*
X79271904Y-105012380D02*
X79271904Y-104012380D01*
X79510000Y-104012380D01*
X79652857Y-104060000D01*
X79748095Y-104155238D01*
X79795714Y-104250476D01*
X79843333Y-104440952D01*
X79843333Y-104583809D01*
X79795714Y-104774285D01*
X79748095Y-104869523D01*
X79652857Y-104964761D01*
X79510000Y-105012380D01*
X79271904Y-105012380D01*
X80795714Y-105012380D02*
X80224285Y-105012380D01*
X80510000Y-105012380D02*
X80510000Y-104012380D01*
X80414761Y-104155238D01*
X80319523Y-104250476D01*
X80224285Y-104298095D01*
M02*
