%TF.GenerationSoftware,KiCad,Pcbnew,(5.1.6)-1*%
%TF.CreationDate,2021-03-23T21:23:30+01:00*%
%TF.ProjectId,RiderDetection,52696465-7244-4657-9465-6374696f6e2e,rev?*%
%TF.SameCoordinates,Original*%
%TF.FileFunction,Copper,L1,Top*%
%TF.FilePolarity,Positive*%
%FSLAX46Y46*%
G04 Gerber Fmt 4.6, Leading zero omitted, Abs format (unit mm)*
G04 Created by KiCad (PCBNEW (5.1.6)-1) date 2021-03-23 21:23:30*
%MOMM*%
%LPD*%
G01*
G04 APERTURE LIST*
%TA.AperFunction,ComponentPad*%
%ADD10C,1.524000*%
%TD*%
%TA.AperFunction,ComponentPad*%
%ADD11C,0.800000*%
%TD*%
%TA.AperFunction,ComponentPad*%
%ADD12C,6.400000*%
%TD*%
%TA.AperFunction,ComponentPad*%
%ADD13C,2.000000*%
%TD*%
%TA.AperFunction,ComponentPad*%
%ADD14R,2.000000X2.000000*%
%TD*%
%TA.AperFunction,ComponentPad*%
%ADD15O,2.500000X1.500000*%
%TD*%
%TA.AperFunction,ComponentPad*%
%ADD16R,2.500000X1.500000*%
%TD*%
%TA.AperFunction,ComponentPad*%
%ADD17O,2.400000X1.600000*%
%TD*%
%TA.AperFunction,ComponentPad*%
%ADD18R,2.400000X1.600000*%
%TD*%
%TA.AperFunction,ComponentPad*%
%ADD19O,2.000000X3.600000*%
%TD*%
%TA.AperFunction,ComponentPad*%
%ADD20O,1.600000X1.600000*%
%TD*%
%TA.AperFunction,ComponentPad*%
%ADD21C,1.600000*%
%TD*%
%TA.AperFunction,ComponentPad*%
%ADD22O,1.700000X1.700000*%
%TD*%
%TA.AperFunction,ComponentPad*%
%ADD23R,1.700000X1.700000*%
%TD*%
%TA.AperFunction,ComponentPad*%
%ADD24C,1.800000*%
%TD*%
%TA.AperFunction,ComponentPad*%
%ADD25R,1.800000X1.800000*%
%TD*%
G04 APERTURE END LIST*
D10*
%TO.P,JP1,20*%
%TO.N,Net-(JP1-Pad20)*%
X53771800Y-93659960D03*
%TO.P,JP1,19*%
%TO.N,Net-(JP1-Pad19)*%
X53771800Y-91658440D03*
%TO.P,JP1,18*%
%TO.N,Net-(JP1-Pad18)*%
X53771800Y-89659460D03*
%TO.P,JP1,17*%
%TO.N,Net-(JP1-Pad17)*%
X53771800Y-87657940D03*
%TO.P,JP1,16*%
%TO.N,Net-(JP1-Pad16)*%
X53771800Y-85658960D03*
%TO.P,JP1,15*%
%TO.N,Net-(JP1-Pad15)*%
X53771800Y-83659980D03*
%TO.P,JP1,14*%
%TO.N,Net-(JP1-Pad14)*%
X53771800Y-81658460D03*
%TO.P,JP1,13*%
%TO.N,Net-(JP1-Pad13)*%
X53771800Y-79659480D03*
%TO.P,JP1,12*%
%TO.N,Net-(JP1-Pad12)*%
X53771800Y-77657960D03*
%TO.P,JP1,11*%
%TO.N,Net-(JP1-Pad11)*%
X53771800Y-75658980D03*
%TO.P,JP1,10*%
%TO.N,GND*%
X75768200Y-75658980D03*
%TO.P,JP1,9*%
%TO.N,Net-(JP1-Pad9)*%
X75768200Y-77657960D03*
%TO.P,JP1,8*%
%TO.N,Net-(JP1-Pad8)*%
X75768200Y-79659480D03*
%TO.P,JP1,7*%
%TO.N,Net-(JP1-Pad7)*%
X75768200Y-81658460D03*
%TO.P,JP1,6*%
%TO.N,Net-(JP1-Pad6)*%
X75768200Y-83659980D03*
%TO.P,JP1,5*%
%TO.N,Net-(JP1-Pad5)*%
X75768200Y-85658960D03*
%TO.P,JP1,4*%
%TO.N,Net-(JP1-Pad4)*%
X75768200Y-87657940D03*
%TO.P,JP1,3*%
%TO.N,RXD*%
X75768200Y-89659460D03*
%TO.P,JP1,2*%
%TO.N,TXD*%
X75768200Y-91658440D03*
%TO.P,JP1,1*%
%TO.N,+3V3*%
X75768200Y-93659960D03*
%TD*%
D11*
%TO.P,H3,1*%
%TO.N,GND*%
X56307056Y-111332944D03*
X54610000Y-110630000D03*
X52912944Y-111332944D03*
X52210000Y-113030000D03*
X52912944Y-114727056D03*
X54610000Y-115430000D03*
X56307056Y-114727056D03*
X57010000Y-113030000D03*
D12*
X54610000Y-113030000D03*
%TD*%
D13*
%TO.P,K3,5*%
%TO.N,START_COLOR_COM*%
X118110000Y-87630000D03*
%TO.P,K3,6*%
X118110000Y-92710000D03*
%TO.P,K3,2*%
%TO.N,+5V*%
X125730000Y-87630000D03*
D14*
%TO.P,K3,1*%
%TO.N,Net-(K3-Pad1)*%
X128270000Y-87630000D03*
D13*
%TO.P,K3,9*%
%TO.N,Net-(K3-Pad9)*%
X125730000Y-92710000D03*
%TO.P,K3,10*%
%TO.N,COL_GRN*%
X128270000Y-92710000D03*
%TD*%
%TO.P,K2,5*%
%TO.N,START_COLOR_COM*%
X118110000Y-97790000D03*
%TO.P,K2,6*%
X118110000Y-102870000D03*
%TO.P,K2,2*%
%TO.N,+5V*%
X125730000Y-97790000D03*
D14*
%TO.P,K2,1*%
%TO.N,Net-(K2-Pad1)*%
X128270000Y-97790000D03*
D13*
%TO.P,K2,9*%
%TO.N,Net-(K2-Pad9)*%
X125730000Y-102870000D03*
%TO.P,K2,10*%
%TO.N,COL_YW*%
X128270000Y-102870000D03*
%TD*%
%TO.P,K1,5*%
%TO.N,START_COLOR_COM*%
X118110000Y-107950000D03*
%TO.P,K1,6*%
X118110000Y-113030000D03*
%TO.P,K1,2*%
%TO.N,+5V*%
X125730000Y-107950000D03*
D14*
%TO.P,K1,1*%
%TO.N,Net-(K1-Pad1)*%
X128270000Y-107950000D03*
D13*
%TO.P,K1,9*%
%TO.N,Net-(K1-Pad9)*%
X125730000Y-113030000D03*
%TO.P,K1,10*%
%TO.N,COL_RD*%
X128270000Y-113030000D03*
%TD*%
D15*
%TO.P,U2,3*%
%TO.N,+5V*%
X87630000Y-58420000D03*
%TO.P,U2,2*%
%TO.N,GND*%
X87630000Y-55880000D03*
D16*
%TO.P,U2,1*%
%TO.N,+12V*%
X87630000Y-53340000D03*
%TD*%
D17*
%TO.P,U1,16*%
%TO.N,Net-(K3-Pad9)*%
X104140000Y-85090000D03*
%TO.P,U1,8*%
%TO.N,GND*%
X96520000Y-102870000D03*
%TO.P,U1,15*%
%TO.N,Net-(K2-Pad9)*%
X104140000Y-87630000D03*
%TO.P,U1,7*%
%TO.N,Net-(U1-Pad7)*%
X96520000Y-100330000D03*
%TO.P,U1,14*%
%TO.N,Net-(K1-Pad9)*%
X104140000Y-90170000D03*
%TO.P,U1,6*%
%TO.N,Net-(U1-Pad6)*%
X96520000Y-97790000D03*
%TO.P,U1,13*%
%TO.N,Net-(U1-Pad13)*%
X104140000Y-92710000D03*
%TO.P,U1,5*%
%TO.N,Net-(U1-Pad5)*%
X96520000Y-95250000D03*
%TO.P,U1,12*%
%TO.N,Net-(U1-Pad12)*%
X104140000Y-95250000D03*
%TO.P,U1,4*%
%TO.N,Net-(U1-Pad4)*%
X96520000Y-92710000D03*
%TO.P,U1,11*%
%TO.N,Net-(U1-Pad11)*%
X104140000Y-97790000D03*
%TO.P,U1,3*%
%TO.N,Net-(J1-Pad8)*%
X96520000Y-90170000D03*
%TO.P,U1,10*%
%TO.N,Net-(U1-Pad10)*%
X104140000Y-100330000D03*
%TO.P,U1,2*%
%TO.N,Net-(J1-Pad9)*%
X96520000Y-87630000D03*
%TO.P,U1,9*%
%TO.N,+5V*%
X104140000Y-102870000D03*
D18*
%TO.P,U1,1*%
%TO.N,Net-(J1-Pad11)*%
X96520000Y-85090000D03*
%TD*%
D19*
%TO.P,STARTLIGHT0,4*%
%TO.N,COL_RD*%
X110730000Y-59690000D03*
%TO.P,STARTLIGHT0,3*%
%TO.N,COL_YW*%
X115730000Y-59690000D03*
%TO.P,STARTLIGHT0,2*%
%TO.N,COL_GRN*%
X120730000Y-59690000D03*
%TO.P,STARTLIGHT0,1*%
%TO.N,START_COM*%
%TA.AperFunction,ComponentPad*%
G36*
G01*
X126730000Y-58140000D02*
X126730000Y-61240000D01*
G75*
G02*
X126480000Y-61490000I-250000J0D01*
G01*
X124980000Y-61490000D01*
G75*
G02*
X124730000Y-61240000I0J250000D01*
G01*
X124730000Y-58140000D01*
G75*
G02*
X124980000Y-57890000I250000J0D01*
G01*
X126480000Y-57890000D01*
G75*
G02*
X126730000Y-58140000I0J-250000D01*
G01*
G37*
%TD.AperFunction*%
%TD*%
D20*
%TO.P,R2,2*%
%TO.N,Net-(JP1-Pad15)*%
X63500000Y-109220000D03*
D21*
%TO.P,R2,1*%
%TO.N,Net-(D2-Pad2)*%
X73660000Y-109220000D03*
%TD*%
D20*
%TO.P,R1,2*%
%TO.N,Net-(D1-Pad2)*%
X81280000Y-95250000D03*
D21*
%TO.P,R1,1*%
%TO.N,Net-(JP1-Pad6)*%
X81280000Y-85090000D03*
%TD*%
D19*
%TO.P,PWR0,2*%
%TO.N,GND*%
X73740000Y-59690000D03*
%TO.P,PWR0,1*%
%TO.N,+12V*%
%TA.AperFunction,ComponentPad*%
G36*
G01*
X79740000Y-58140000D02*
X79740000Y-61240000D01*
G75*
G02*
X79490000Y-61490000I-250000J0D01*
G01*
X77990000Y-61490000D01*
G75*
G02*
X77740000Y-61240000I0J250000D01*
G01*
X77740000Y-58140000D01*
G75*
G02*
X77990000Y-57890000I250000J0D01*
G01*
X79490000Y-57890000D01*
G75*
G02*
X79740000Y-58140000I0J-250000D01*
G01*
G37*
%TD.AperFunction*%
%TD*%
D22*
%TO.P,J5,3*%
%TO.N,GND*%
X125730000Y-78740000D03*
%TO.P,J5,2*%
%TO.N,START_COLOR_COM*%
X123190000Y-78740000D03*
D23*
%TO.P,J5,1*%
%TO.N,+12V*%
X120650000Y-78740000D03*
%TD*%
D22*
%TO.P,J4,3*%
%TO.N,GND*%
X125730000Y-74930000D03*
%TO.P,J4,2*%
%TO.N,START_COM*%
X123190000Y-74930000D03*
D23*
%TO.P,J4,1*%
%TO.N,+12V*%
X120650000Y-74930000D03*
%TD*%
D22*
%TO.P,J3,6*%
%TO.N,GND*%
X53340000Y-59690000D03*
%TO.P,J3,5*%
%TO.N,Net-(J3-Pad5)*%
X55880000Y-59690000D03*
%TO.P,J3,4*%
%TO.N,Net-(J3-Pad4)*%
X58420000Y-59690000D03*
%TO.P,J3,3*%
%TO.N,TXD*%
X60960000Y-59690000D03*
%TO.P,J3,2*%
%TO.N,RXD*%
X63500000Y-59690000D03*
D23*
%TO.P,J3,1*%
%TO.N,Net-(J3-Pad1)*%
X66040000Y-59690000D03*
%TD*%
D22*
%TO.P,J2,19*%
%TO.N,+5V*%
X111760000Y-68580000D03*
%TO.P,J2,18*%
%TO.N,Net-(J2-Pad18)*%
X111760000Y-71120000D03*
%TO.P,J2,17*%
%TO.N,Net-(J2-Pad17)*%
X111760000Y-73660000D03*
%TO.P,J2,16*%
%TO.N,Net-(J2-Pad16)*%
X111760000Y-76200000D03*
%TO.P,J2,15*%
%TO.N,Net-(J2-Pad15)*%
X111760000Y-78740000D03*
%TO.P,J2,14*%
%TO.N,Net-(J2-Pad14)*%
X111760000Y-81280000D03*
%TO.P,J2,13*%
%TO.N,Net-(J2-Pad13)*%
X111760000Y-83820000D03*
%TO.P,J2,12*%
%TO.N,Net-(J2-Pad12)*%
X111760000Y-86360000D03*
%TO.P,J2,11*%
%TO.N,Net-(J2-Pad11)*%
X111760000Y-88900000D03*
%TO.P,J2,10*%
%TO.N,Net-(J2-Pad10)*%
X111760000Y-91440000D03*
%TO.P,J2,9*%
%TO.N,Net-(J2-Pad9)*%
X111760000Y-93980000D03*
%TO.P,J2,8*%
%TO.N,Net-(J2-Pad8)*%
X111760000Y-96520000D03*
%TO.P,J2,7*%
%TO.N,Net-(J2-Pad7)*%
X111760000Y-99060000D03*
%TO.P,J2,6*%
%TO.N,Net-(J2-Pad6)*%
X111760000Y-101600000D03*
%TO.P,J2,5*%
%TO.N,Net-(J2-Pad5)*%
X111760000Y-104140000D03*
%TO.P,J2,4*%
%TO.N,Net-(J2-Pad4)*%
X111760000Y-106680000D03*
%TO.P,J2,3*%
%TO.N,Net-(J2-Pad3)*%
X111760000Y-109220000D03*
%TO.P,J2,2*%
%TO.N,Net-(J2-Pad2)*%
X111760000Y-111760000D03*
D23*
%TO.P,J2,1*%
%TO.N,+3V3*%
X111760000Y-114300000D03*
%TD*%
D22*
%TO.P,J1,19*%
%TO.N,GND*%
X86360000Y-114300000D03*
%TO.P,J1,18*%
%TO.N,Net-(J1-Pad18)*%
X86360000Y-111760000D03*
%TO.P,J1,17*%
%TO.N,Net-(J1-Pad17)*%
X86360000Y-109220000D03*
%TO.P,J1,16*%
%TO.N,Net-(J1-Pad16)*%
X86360000Y-106680000D03*
%TO.P,J1,15*%
%TO.N,Net-(J1-Pad15)*%
X86360000Y-104140000D03*
%TO.P,J1,14*%
%TO.N,Net-(J1-Pad14)*%
X86360000Y-101600000D03*
%TO.P,J1,13*%
%TO.N,Net-(J1-Pad13)*%
X86360000Y-99060000D03*
%TO.P,J1,12*%
%TO.N,Net-(J1-Pad12)*%
X86360000Y-96520000D03*
%TO.P,J1,11*%
%TO.N,Net-(J1-Pad11)*%
X86360000Y-93980000D03*
%TO.P,J1,10*%
%TO.N,TXD*%
X86360000Y-91440000D03*
%TO.P,J1,9*%
%TO.N,Net-(J1-Pad9)*%
X86360000Y-88900000D03*
%TO.P,J1,8*%
%TO.N,Net-(J1-Pad8)*%
X86360000Y-86360000D03*
%TO.P,J1,7*%
%TO.N,RXD*%
X86360000Y-83820000D03*
%TO.P,J1,6*%
%TO.N,Net-(J1-Pad6)*%
X86360000Y-81280000D03*
%TO.P,J1,5*%
%TO.N,Net-(J1-Pad5)*%
X86360000Y-78740000D03*
%TO.P,J1,4*%
%TO.N,Net-(J1-Pad4)*%
X86360000Y-76200000D03*
%TO.P,J1,3*%
%TO.N,Net-(J1-Pad3)*%
X86360000Y-73660000D03*
%TO.P,J1,2*%
%TO.N,Net-(J1-Pad2)*%
X86360000Y-71120000D03*
D23*
%TO.P,J1,1*%
%TO.N,Net-(J1-Pad1)*%
X86360000Y-68580000D03*
%TD*%
D24*
%TO.P,D2,2*%
%TO.N,Net-(D2-Pad2)*%
X78740000Y-109220000D03*
D25*
%TO.P,D2,1*%
%TO.N,GND*%
X81280000Y-109220000D03*
%TD*%
D24*
%TO.P,D1,2*%
%TO.N,Net-(D1-Pad2)*%
X78740000Y-101600000D03*
D25*
%TO.P,D1,1*%
%TO.N,GND*%
X81280000Y-101600000D03*
%TD*%
M02*
