M48
; DRILL file {KiCad (5.1.6)-1} date 03/23/21 21:19:07
; FORMAT={-:-/ absolute / inch / decimal}
; #@! TF.CreationDate,2021-03-23T21:19:07+01:00
; #@! TF.GenerationSoftware,Kicad,Pcbnew,(5.1.6)-1
; #@! TF.FileFunction,Plated,1,2,PTH
FMAT,2
INCH
T1C0.0157
T2C0.0173
T3C0.0197
T4C0.0315
T5C0.0335
T6C0.0354
T7C0.0394
T8C0.0430
T9C0.0512
T10C0.0520
T11C0.0531
T12C0.0551
T13C0.0630
T14C0.1260
%
G90
G05
T1
X1.75Y-3.35
X1.75Y-3.35
X2.65Y-1.9
X3.85Y-2.85
X3.9Y-1.15
X4.5Y-2.7
X4.85Y-1.4
T2
X1.7606Y-1.4856
X1.7606Y-1.5368
X1.8Y-1.46
X1.8Y-1.5112
X1.8Y-1.5624
T3
X4.9555Y-3.4
X4.9832Y-3.3332
X4.9832Y-3.4668
X5.05Y-3.3055
X5.05Y-3.4945
X5.1168Y-3.3332
X5.1168Y-3.4668
X5.1445Y-3.4
X1.4555Y-3.4
X1.4832Y-3.3332
X1.4832Y-3.4668
X1.55Y-3.3055
X1.55Y-3.4945
X1.6168Y-3.3332
X1.6168Y-3.4668
X1.6445Y-3.4
X1.4555Y-1.25
X1.4832Y-1.1832
X1.4832Y-1.3168
X1.55Y-1.1555
X1.55Y-1.3445
X1.6168Y-1.1832
X1.6168Y-1.3168
X1.6445Y-1.25
X4.9555Y-1.25
X4.9832Y-1.1832
X4.9832Y-1.3168
X5.05Y-1.1555
X5.05Y-1.3445
X5.1168Y-1.1832
X5.1168Y-1.3168
X5.1445Y-1.25
T4
X2.35Y-2.3
X2.75Y-2.3
X4.5Y-3.2
X4.9Y-3.2
X2.5Y-2.85
X2.9Y-2.85
X4.35Y-2.6
X4.35Y-3.0
X4.5Y-2.6
X4.5Y-3.0
X3.0Y-2.2
X3.4Y-2.2
X4.0Y-1.4
X4.0Y-1.5
X4.3Y-1.4
X4.3Y-1.5
X3.9Y-1.7
X4.0969Y-1.7
X3.7Y-1.9
X3.7Y-2.3
X4.5Y-3.35
X4.5Y-3.45
X4.8Y-3.35
X4.8Y-3.45
X1.75Y-2.3
X2.15Y-2.3
X4.1Y-3.45
X4.2969Y-3.45
X2.04Y-1.4031
X2.04Y-1.6
X3.35Y-3.4
X3.75Y-3.4
X3.9Y-3.25
X4.3Y-3.25
X3.56Y-1.25
X3.96Y-1.25
X4.15Y-1.2
X4.55Y-1.2
T5
X2.4472Y-1.3531
X2.5472Y-1.3531
X2.6472Y-1.3531
T6
X3.6Y-3.1
X3.7Y-3.1
X3.6Y-1.55
X3.7Y-1.55
T7
X1.6Y-2.65
X1.7Y-2.65
X1.8Y-2.65
X1.9Y-2.65
X2.0Y-2.65
X2.1Y-2.65
X2.2Y-2.65
X2.3Y-2.65
X2.4Y-2.65
X2.5Y-2.65
X2.6Y-2.65
X2.7Y-2.65
X2.8Y-2.65
X2.9Y-2.65
X3.0Y-2.65
X3.1Y-2.65
X3.2Y-2.65
X3.3Y-2.65
X3.4Y-2.65
X3.5Y-2.65
X1.9Y-1.85
X2.0Y-1.85
X2.1Y-1.85
X1.6Y-2.05
X1.7Y-2.05
X1.8Y-2.05
X1.9Y-2.05
X2.0Y-2.05
X2.1Y-2.05
X2.2Y-2.05
X2.3Y-2.05
X2.4Y-2.05
X2.5Y-2.05
X2.6Y-2.05
X2.7Y-2.05
X2.8Y-2.05
X2.9Y-2.05
X3.0Y-2.05
X3.1Y-2.05
X3.2Y-2.05
X3.3Y-2.05
X3.4Y-2.05
X3.5Y-2.05
X1.55Y-3.0
X1.65Y-3.0
X1.75Y-3.0
X1.85Y-3.0
X1.95Y-3.0
X3.1719Y-3.0219
X3.1719Y-3.1219
X3.1719Y-3.2219
X2.2Y-3.0
X2.2Y-3.1
X2.2Y-3.2
X2.2Y-3.3
X3.3549Y-3.0219
X3.3549Y-3.1219
X3.3549Y-3.2219
X3.2Y-1.7
X3.2Y-1.8
X2.45Y-3.4
X2.55Y-3.4
X2.65Y-3.4
X2.75Y-3.4
X2.85Y-3.4
X2.95Y-3.4
X2.4Y-1.75
X2.5Y-1.75
X2.6Y-1.75
X2.7Y-1.75
X2.8Y-1.75
X3.35Y-1.7
X3.35Y-1.8
X2.95Y-1.55
X2.95Y-1.65
X2.95Y-1.75
X2.95Y-1.85
X4.6Y-1.4531
X4.6Y-1.65
T8
X4.1Y-2.7044
X4.1Y-2.7852
X4.1Y-2.866
X4.1Y-2.9468
X4.1Y-3.0276
T9
X3.9819Y-1.95
X4.1Y-1.95
T10
X4.95Y-2.55
X4.95Y-2.7469
X4.95Y-2.9437
X4.95Y-1.9
X4.95Y-2.0969
X4.95Y-2.2937
T11
X1.7913Y-1.3704
X1.7913Y-1.6519
T12
X3.1431Y-1.37
X3.34Y-1.37
T13
X4.35Y-1.8
X4.35Y-2.4
T14
X1.55Y-1.25
X5.05Y-1.25
X5.05Y-3.4
X1.55Y-3.4
T0
M30
