G04 #@! TF.GenerationSoftware,KiCad,Pcbnew,(5.1.6)-1*
G04 #@! TF.CreationDate,2020-06-13T23:13:18+02:00*
G04 #@! TF.ProjectId,MotoGymkhanaRaceTiming,4d6f746f-4779-46d6-9b68-616e61526163,rev?*
G04 #@! TF.SameCoordinates,Original*
G04 #@! TF.FileFunction,Soldermask,Bot*
G04 #@! TF.FilePolarity,Negative*
%FSLAX46Y46*%
G04 Gerber Fmt 4.6, Leading zero omitted, Abs format (unit mm)*
G04 Created by KiCad (PCBNEW (5.1.6)-1) date 2020-06-13 23:13:18*
%MOMM*%
%LPD*%
G01*
G04 APERTURE LIST*
%ADD10O,1.800000X1.800000*%
%ADD11R,1.800000X1.800000*%
%ADD12O,4.060000X2.080000*%
%ADD13R,4.060000X2.080000*%
%ADD14C,0.900000*%
%ADD15C,6.500000*%
%ADD16C,1.700000*%
%ADD17R,1.700000X1.700000*%
%ADD18C,2.100000*%
%ADD19R,2.100000X2.100000*%
%ADD20O,1.700000X1.700000*%
%ADD21C,1.700200*%
%ADD22C,2.700000*%
%ADD23C,1.950000*%
%ADD24C,0.940000*%
%ADD25R,0.940000X0.940000*%
%ADD26C,1.900000*%
%ADD27R,1.900000X1.900000*%
%ADD28O,3.300000X3.300000*%
%ADD29R,3.300000X3.300000*%
G04 APERTURE END LIST*
D10*
X128270000Y-109220000D03*
X130810000Y-109220000D03*
X133350000Y-109220000D03*
X135890000Y-109220000D03*
X138430000Y-109220000D03*
D11*
X140970000Y-109220000D03*
D10*
X140970000Y-72390000D03*
X140970000Y-74930000D03*
X140970000Y-77470000D03*
D11*
X140970000Y-80010000D03*
D12*
X191770000Y-91280000D03*
X191770000Y-86280000D03*
D13*
X191770000Y-81280000D03*
D12*
X191770000Y-107790000D03*
X191770000Y-102790000D03*
D13*
X191770000Y-97790000D03*
D10*
X121920000Y-109220000D03*
X121920000Y-111760000D03*
X121920000Y-114300000D03*
D11*
X121920000Y-116840000D03*
D10*
X105410000Y-109220000D03*
X107950000Y-109220000D03*
X110490000Y-109220000D03*
X113030000Y-109220000D03*
D11*
X115570000Y-109220000D03*
D10*
X137160000Y-77470000D03*
X134620000Y-77470000D03*
X132080000Y-77470000D03*
X129540000Y-77470000D03*
D11*
X127000000Y-77470000D03*
D14*
X107107056Y-63072944D03*
X105410000Y-62370000D03*
X103712944Y-63072944D03*
X103010000Y-64770000D03*
X103712944Y-66467056D03*
X105410000Y-67170000D03*
X107107056Y-66467056D03*
X107810000Y-64770000D03*
D15*
X105410000Y-64770000D03*
D16*
X120650000Y-68660000D03*
D17*
X120650000Y-73660000D03*
D14*
X107107056Y-117682944D03*
X105410000Y-116980000D03*
X103712944Y-117682944D03*
X103010000Y-119380000D03*
X103712944Y-121077056D03*
X105410000Y-121780000D03*
X107107056Y-121077056D03*
X107810000Y-119380000D03*
D15*
X105410000Y-119380000D03*
D14*
X196007056Y-117682944D03*
X194310000Y-116980000D03*
X192612944Y-117682944D03*
X191910000Y-119380000D03*
X192612944Y-121077056D03*
X194310000Y-121780000D03*
X196007056Y-121077056D03*
X196710000Y-119380000D03*
D15*
X194310000Y-119380000D03*
D14*
X196007056Y-63072944D03*
X194310000Y-62370000D03*
X192612944Y-63072944D03*
X191910000Y-64770000D03*
X192612944Y-66467056D03*
X194310000Y-67170000D03*
X196007056Y-66467056D03*
X196710000Y-64770000D03*
D15*
X194310000Y-64770000D03*
D18*
X182880000Y-69930000D03*
D19*
X182880000Y-74930000D03*
D20*
X181610000Y-63500000D03*
D16*
X171450000Y-63500000D03*
D10*
X146605001Y-114855001D03*
X146605001Y-112315001D03*
D11*
X146605001Y-109775001D03*
D21*
X170180000Y-101712800D03*
X170180000Y-103764600D03*
X170180000Y-105816400D03*
X170180000Y-107868200D03*
X170180000Y-109920000D03*
D22*
X167180000Y-82550000D03*
X170180000Y-82550000D03*
D16*
X170100000Y-76200000D03*
X165100000Y-76200000D03*
X175180000Y-120650000D03*
X170180000Y-120650000D03*
D20*
X160020000Y-91440000D03*
D16*
X160020000Y-81280000D03*
D20*
X152400000Y-88900000D03*
D16*
X142240000Y-88900000D03*
D20*
X180340000Y-109220000D03*
D16*
X180340000Y-99060000D03*
D20*
X176530000Y-99060000D03*
D16*
X176530000Y-109220000D03*
D10*
X151130000Y-78740000D03*
D11*
X151130000Y-76200000D03*
D10*
X147320000Y-78740000D03*
D11*
X147320000Y-76200000D03*
D10*
X114300000Y-80010000D03*
X116840000Y-80010000D03*
D11*
X119380000Y-80010000D03*
D10*
X151255001Y-114855001D03*
X151255001Y-112315001D03*
D11*
X151255001Y-109775001D03*
D20*
X187960000Y-118110000D03*
X180340000Y-120650000D03*
X187960000Y-120650000D03*
D17*
X180340000Y-118110000D03*
D20*
X175260000Y-68580000D03*
X167640000Y-71120000D03*
X175260000Y-71120000D03*
D17*
X167640000Y-68580000D03*
D20*
X139700000Y-115570000D03*
D16*
X129540000Y-115570000D03*
D20*
X110490000Y-91440000D03*
D16*
X120650000Y-91440000D03*
D20*
X135890000Y-91440000D03*
D16*
X125730000Y-91440000D03*
D20*
X180340000Y-114300000D03*
D16*
X190500000Y-114300000D03*
D20*
X165100000Y-115570000D03*
D16*
X175260000Y-115570000D03*
D20*
X151130000Y-119380000D03*
D16*
X161290000Y-119380000D03*
X163830000Y-64770000D03*
D20*
X153670000Y-64770000D03*
D23*
X111540000Y-74725000D03*
X111540000Y-67575000D03*
D24*
X111760000Y-72450000D03*
X110760000Y-71800000D03*
X111760000Y-71150000D03*
X110760000Y-70500000D03*
D25*
X111760000Y-69850000D03*
D10*
X106680000Y-85090000D03*
X109220000Y-85090000D03*
X111760000Y-85090000D03*
X114300000Y-85090000D03*
X116840000Y-85090000D03*
X119380000Y-85090000D03*
X121920000Y-85090000D03*
X124460000Y-85090000D03*
X127000000Y-85090000D03*
X129540000Y-85090000D03*
X132080000Y-85090000D03*
X134620000Y-85090000D03*
X137160000Y-85090000D03*
X139700000Y-85090000D03*
X142240000Y-85090000D03*
X144780000Y-85090000D03*
X147320000Y-85090000D03*
X149860000Y-85090000D03*
X152400000Y-85090000D03*
D11*
X154940000Y-85090000D03*
D10*
X154940000Y-100330000D03*
X152400000Y-100330000D03*
X149860000Y-100330000D03*
X147320000Y-100330000D03*
X144780000Y-100330000D03*
X142240000Y-100330000D03*
X139700000Y-100330000D03*
X137160000Y-100330000D03*
X134620000Y-100330000D03*
X132080000Y-100330000D03*
X129540000Y-100330000D03*
X127000000Y-100330000D03*
X124460000Y-100330000D03*
X121920000Y-100330000D03*
X119380000Y-100330000D03*
X116840000Y-100330000D03*
X114300000Y-100330000D03*
X111760000Y-100330000D03*
X109220000Y-100330000D03*
D11*
X106680000Y-100330000D03*
D26*
X160020000Y-72390000D03*
D27*
X157480000Y-72390000D03*
D26*
X158750000Y-110490000D03*
D27*
X156210000Y-110490000D03*
D28*
X176530000Y-78740000D03*
D29*
X176530000Y-93980000D03*
M02*
