G04 #@! TF.GenerationSoftware,KiCad,Pcbnew,(5.1.6)-1*
G04 #@! TF.CreationDate,2021-03-23T21:18:41+01:00*
G04 #@! TF.ProjectId,MotoGymkhanaRaceTiming,4d6f746f-4779-46d6-9b68-616e61526163,2*
G04 #@! TF.SameCoordinates,Original*
G04 #@! TF.FileFunction,Soldermask,Bot*
G04 #@! TF.FilePolarity,Negative*
%FSLAX46Y46*%
G04 Gerber Fmt 4.6, Leading zero omitted, Abs format (unit mm)*
G04 Created by KiCad (PCBNEW (5.1.6)-1) date 2021-03-23 21:18:41*
%MOMM*%
%LPD*%
G01*
G04 APERTURE LIST*
%ADD10C,1.450000*%
%ADD11O,2.100000X3.700000*%
%ADD12O,1.800000X1.800000*%
%ADD13R,1.800000X1.800000*%
%ADD14O,4.060000X2.080000*%
%ADD15R,4.060000X2.080000*%
%ADD16C,0.900000*%
%ADD17C,6.500000*%
%ADD18C,1.700000*%
%ADD19R,1.700000X1.700000*%
%ADD20C,2.100000*%
%ADD21R,2.100000X2.100000*%
%ADD22O,1.700000X1.700000*%
%ADD23C,1.700200*%
%ADD24C,2.700000*%
%ADD25C,1.950000*%
%ADD26C,0.940000*%
%ADD27R,0.940000X0.940000*%
%ADD28C,1.900000*%
%ADD29R,1.900000X1.900000*%
%ADD30O,3.300000X3.300000*%
%ADD31R,3.300000X3.300000*%
G04 APERTURE END LIST*
D10*
X62158000Y-34370000D03*
X64698000Y-34370000D03*
X67238000Y-34370000D03*
D11*
X79836000Y-34798000D03*
G36*
G01*
X85886000Y-33210500D02*
X85886000Y-36385500D01*
G75*
G02*
X85623500Y-36648000I-262500J0D01*
G01*
X84048500Y-36648000D01*
G75*
G02*
X83786000Y-36385500I0J262500D01*
G01*
X83786000Y-33210500D01*
G75*
G02*
X84048500Y-32948000I262500J0D01*
G01*
X85623500Y-32948000D01*
G75*
G02*
X85886000Y-33210500I0J-262500D01*
G01*
G37*
D12*
X62230000Y-86360000D03*
X64770000Y-86360000D03*
X67310000Y-86360000D03*
X69850000Y-86360000D03*
X72390000Y-86360000D03*
D13*
X74930000Y-86360000D03*
D12*
X74930000Y-39370000D03*
X74930000Y-41910000D03*
X74930000Y-44450000D03*
D13*
X74930000Y-46990000D03*
D14*
X125730000Y-58260000D03*
X125730000Y-53260000D03*
D15*
X125730000Y-48260000D03*
D14*
X125730000Y-74770000D03*
X125730000Y-69770000D03*
D15*
X125730000Y-64770000D03*
D12*
X55880000Y-76200000D03*
X55880000Y-78740000D03*
X55880000Y-81280000D03*
D13*
X55880000Y-83820000D03*
D12*
X39370000Y-76200000D03*
X41910000Y-76200000D03*
X44450000Y-76200000D03*
X46990000Y-76200000D03*
D13*
X49530000Y-76200000D03*
D12*
X71120000Y-44450000D03*
X68580000Y-44450000D03*
X66040000Y-44450000D03*
X63500000Y-44450000D03*
D13*
X60960000Y-44450000D03*
D16*
X41067056Y-30052944D03*
X39370000Y-29350000D03*
X37672944Y-30052944D03*
X36970000Y-31750000D03*
X37672944Y-33447056D03*
X39370000Y-34150000D03*
X41067056Y-33447056D03*
X41770000Y-31750000D03*
D17*
X39370000Y-31750000D03*
D18*
X51816000Y-35640000D03*
D19*
X51816000Y-40640000D03*
D16*
X41067056Y-84662944D03*
X39370000Y-83960000D03*
X37672944Y-84662944D03*
X36970000Y-86360000D03*
X37672944Y-88057056D03*
X39370000Y-88760000D03*
X41067056Y-88057056D03*
X41770000Y-86360000D03*
D17*
X39370000Y-86360000D03*
D16*
X129967056Y-84662944D03*
X128270000Y-83960000D03*
X126572944Y-84662944D03*
X125870000Y-86360000D03*
X126572944Y-88057056D03*
X128270000Y-88760000D03*
X129967056Y-88057056D03*
X130670000Y-86360000D03*
D17*
X128270000Y-86360000D03*
D16*
X129967056Y-30052944D03*
X128270000Y-29350000D03*
X126572944Y-30052944D03*
X125870000Y-31750000D03*
X126572944Y-33447056D03*
X128270000Y-34150000D03*
X129967056Y-33447056D03*
X130670000Y-31750000D03*
D17*
X128270000Y-31750000D03*
D20*
X116840000Y-36910000D03*
D21*
X116840000Y-41910000D03*
D22*
X115570000Y-30480000D03*
D18*
X105410000Y-30480000D03*
D12*
X80565001Y-81835001D03*
X80565001Y-79295001D03*
D13*
X80565001Y-76755001D03*
D23*
X104140000Y-68692800D03*
X104140000Y-70744600D03*
X104140000Y-72796400D03*
X104140000Y-74848200D03*
X104140000Y-76900000D03*
D24*
X101140000Y-49530000D03*
X104140000Y-49530000D03*
D18*
X104060000Y-43180000D03*
X99060000Y-43180000D03*
X109140000Y-87630000D03*
X104140000Y-87630000D03*
D22*
X93980000Y-58420000D03*
D18*
X93980000Y-48260000D03*
D22*
X86360000Y-55880000D03*
D18*
X76200000Y-55880000D03*
D22*
X114300000Y-76200000D03*
D18*
X114300000Y-66040000D03*
D22*
X110490000Y-66040000D03*
D18*
X110490000Y-76200000D03*
D12*
X85090000Y-45720000D03*
D13*
X85090000Y-43180000D03*
D12*
X81280000Y-45720000D03*
D13*
X81280000Y-43180000D03*
D12*
X48260000Y-46990000D03*
X50800000Y-46990000D03*
D13*
X53340000Y-46990000D03*
D12*
X85215001Y-81835001D03*
X85215001Y-79295001D03*
D13*
X85215001Y-76755001D03*
D22*
X121920000Y-85090000D03*
X114300000Y-87630000D03*
X121920000Y-87630000D03*
D19*
X114300000Y-85090000D03*
D22*
X109220000Y-35560000D03*
X101600000Y-38100000D03*
X109220000Y-38100000D03*
D19*
X101600000Y-35560000D03*
D22*
X73660000Y-72390000D03*
D18*
X63500000Y-72390000D03*
D22*
X44450000Y-58420000D03*
D18*
X54610000Y-58420000D03*
D22*
X69850000Y-58420000D03*
D18*
X59690000Y-58420000D03*
D22*
X114300000Y-81280000D03*
D18*
X124460000Y-81280000D03*
D22*
X99060000Y-82550000D03*
D18*
X109220000Y-82550000D03*
D22*
X85090000Y-86360000D03*
D18*
X95250000Y-86360000D03*
X100584000Y-31750000D03*
D22*
X90424000Y-31750000D03*
D25*
X45500000Y-41959000D03*
X45500000Y-34809000D03*
D26*
X45720000Y-39684000D03*
X44720000Y-39034000D03*
X45720000Y-38384000D03*
X44720000Y-37734000D03*
D27*
X45720000Y-37084000D03*
D12*
X40640000Y-52070000D03*
X43180000Y-52070000D03*
X45720000Y-52070000D03*
X48260000Y-52070000D03*
X50800000Y-52070000D03*
X53340000Y-52070000D03*
X55880000Y-52070000D03*
X58420000Y-52070000D03*
X60960000Y-52070000D03*
X63500000Y-52070000D03*
X66040000Y-52070000D03*
X68580000Y-52070000D03*
X71120000Y-52070000D03*
X73660000Y-52070000D03*
X76200000Y-52070000D03*
X78740000Y-52070000D03*
X81280000Y-52070000D03*
X83820000Y-52070000D03*
X86360000Y-52070000D03*
D13*
X88900000Y-52070000D03*
D12*
X88900000Y-67310000D03*
X86360000Y-67310000D03*
X83820000Y-67310000D03*
X81280000Y-67310000D03*
X78740000Y-67310000D03*
X76200000Y-67310000D03*
X73660000Y-67310000D03*
X71120000Y-67310000D03*
X68580000Y-67310000D03*
X66040000Y-67310000D03*
X63500000Y-67310000D03*
X60960000Y-67310000D03*
X58420000Y-67310000D03*
X55880000Y-67310000D03*
X53340000Y-67310000D03*
X50800000Y-67310000D03*
X48260000Y-67310000D03*
X45720000Y-67310000D03*
X43180000Y-67310000D03*
D13*
X40640000Y-67310000D03*
D28*
X93980000Y-39370000D03*
D29*
X91440000Y-39370000D03*
D28*
X93980000Y-78740000D03*
D29*
X91440000Y-78740000D03*
D30*
X110490000Y-45720000D03*
D31*
X110490000Y-60960000D03*
M02*
