G04 #@! TF.GenerationSoftware,KiCad,Pcbnew,(5.1.6)-1*
G04 #@! TF.CreationDate,2020-06-13T23:13:18+02:00*
G04 #@! TF.ProjectId,MotoGymkhanaRaceTiming,4d6f746f-4779-46d6-9b68-616e61526163,rev?*
G04 #@! TF.SameCoordinates,Original*
G04 #@! TF.FileFunction,Legend,Top*
G04 #@! TF.FilePolarity,Positive*
%FSLAX46Y46*%
G04 Gerber Fmt 4.6, Leading zero omitted, Abs format (unit mm)*
G04 Created by KiCad (PCBNEW (5.1.6)-1) date 2020-06-13 23:13:18*
%MOMM*%
%LPD*%
G01*
G04 APERTURE LIST*
%ADD10C,0.150000*%
%ADD11C,0.120000*%
%ADD12C,0.152400*%
G04 APERTURE END LIST*
D10*
X126366190Y-120277380D02*
X126366190Y-119277380D01*
X126699523Y-119991666D01*
X127032857Y-119277380D01*
X127032857Y-120277380D01*
X127651904Y-120277380D02*
X127556666Y-120229761D01*
X127509047Y-120182142D01*
X127461428Y-120086904D01*
X127461428Y-119801190D01*
X127509047Y-119705952D01*
X127556666Y-119658333D01*
X127651904Y-119610714D01*
X127794761Y-119610714D01*
X127890000Y-119658333D01*
X127937619Y-119705952D01*
X127985238Y-119801190D01*
X127985238Y-120086904D01*
X127937619Y-120182142D01*
X127890000Y-120229761D01*
X127794761Y-120277380D01*
X127651904Y-120277380D01*
X128270952Y-119610714D02*
X128651904Y-119610714D01*
X128413809Y-119277380D02*
X128413809Y-120134523D01*
X128461428Y-120229761D01*
X128556666Y-120277380D01*
X128651904Y-120277380D01*
X129128095Y-120277380D02*
X129032857Y-120229761D01*
X128985238Y-120182142D01*
X128937619Y-120086904D01*
X128937619Y-119801190D01*
X128985238Y-119705952D01*
X129032857Y-119658333D01*
X129128095Y-119610714D01*
X129270952Y-119610714D01*
X129366190Y-119658333D01*
X129413809Y-119705952D01*
X129461428Y-119801190D01*
X129461428Y-120086904D01*
X129413809Y-120182142D01*
X129366190Y-120229761D01*
X129270952Y-120277380D01*
X129128095Y-120277380D01*
X130413809Y-119325000D02*
X130318571Y-119277380D01*
X130175714Y-119277380D01*
X130032857Y-119325000D01*
X129937619Y-119420238D01*
X129890000Y-119515476D01*
X129842380Y-119705952D01*
X129842380Y-119848809D01*
X129890000Y-120039285D01*
X129937619Y-120134523D01*
X130032857Y-120229761D01*
X130175714Y-120277380D01*
X130270952Y-120277380D01*
X130413809Y-120229761D01*
X130461428Y-120182142D01*
X130461428Y-119848809D01*
X130270952Y-119848809D01*
X130794761Y-119610714D02*
X131032857Y-120277380D01*
X131270952Y-119610714D02*
X131032857Y-120277380D01*
X130937619Y-120515476D01*
X130890000Y-120563095D01*
X130794761Y-120610714D01*
X131651904Y-120277380D02*
X131651904Y-119610714D01*
X131651904Y-119705952D02*
X131699523Y-119658333D01*
X131794761Y-119610714D01*
X131937619Y-119610714D01*
X132032857Y-119658333D01*
X132080476Y-119753571D01*
X132080476Y-120277380D01*
X132080476Y-119753571D02*
X132128095Y-119658333D01*
X132223333Y-119610714D01*
X132366190Y-119610714D01*
X132461428Y-119658333D01*
X132509047Y-119753571D01*
X132509047Y-120277380D01*
X132985238Y-120277380D02*
X132985238Y-119277380D01*
X133080476Y-119896428D02*
X133366190Y-120277380D01*
X133366190Y-119610714D02*
X132985238Y-119991666D01*
X133794761Y-120277380D02*
X133794761Y-119277380D01*
X134223333Y-120277380D02*
X134223333Y-119753571D01*
X134175714Y-119658333D01*
X134080476Y-119610714D01*
X133937619Y-119610714D01*
X133842380Y-119658333D01*
X133794761Y-119705952D01*
X135128095Y-120277380D02*
X135128095Y-119753571D01*
X135080476Y-119658333D01*
X134985238Y-119610714D01*
X134794761Y-119610714D01*
X134699523Y-119658333D01*
X135128095Y-120229761D02*
X135032857Y-120277380D01*
X134794761Y-120277380D01*
X134699523Y-120229761D01*
X134651904Y-120134523D01*
X134651904Y-120039285D01*
X134699523Y-119944047D01*
X134794761Y-119896428D01*
X135032857Y-119896428D01*
X135128095Y-119848809D01*
X135604285Y-119610714D02*
X135604285Y-120277380D01*
X135604285Y-119705952D02*
X135651904Y-119658333D01*
X135747142Y-119610714D01*
X135890000Y-119610714D01*
X135985238Y-119658333D01*
X136032857Y-119753571D01*
X136032857Y-120277380D01*
X136937619Y-120277380D02*
X136937619Y-119753571D01*
X136890000Y-119658333D01*
X136794761Y-119610714D01*
X136604285Y-119610714D01*
X136509047Y-119658333D01*
X136937619Y-120229761D02*
X136842380Y-120277380D01*
X136604285Y-120277380D01*
X136509047Y-120229761D01*
X136461428Y-120134523D01*
X136461428Y-120039285D01*
X136509047Y-119944047D01*
X136604285Y-119896428D01*
X136842380Y-119896428D01*
X136937619Y-119848809D01*
X137985238Y-120277380D02*
X137651904Y-119801190D01*
X137413809Y-120277380D02*
X137413809Y-119277380D01*
X137794761Y-119277380D01*
X137890000Y-119325000D01*
X137937619Y-119372619D01*
X137985238Y-119467857D01*
X137985238Y-119610714D01*
X137937619Y-119705952D01*
X137890000Y-119753571D01*
X137794761Y-119801190D01*
X137413809Y-119801190D01*
X138842380Y-120277380D02*
X138842380Y-119753571D01*
X138794761Y-119658333D01*
X138699523Y-119610714D01*
X138509047Y-119610714D01*
X138413809Y-119658333D01*
X138842380Y-120229761D02*
X138747142Y-120277380D01*
X138509047Y-120277380D01*
X138413809Y-120229761D01*
X138366190Y-120134523D01*
X138366190Y-120039285D01*
X138413809Y-119944047D01*
X138509047Y-119896428D01*
X138747142Y-119896428D01*
X138842380Y-119848809D01*
X139747142Y-120229761D02*
X139651904Y-120277380D01*
X139461428Y-120277380D01*
X139366190Y-120229761D01*
X139318571Y-120182142D01*
X139270952Y-120086904D01*
X139270952Y-119801190D01*
X139318571Y-119705952D01*
X139366190Y-119658333D01*
X139461428Y-119610714D01*
X139651904Y-119610714D01*
X139747142Y-119658333D01*
X140556666Y-120229761D02*
X140461428Y-120277380D01*
X140270952Y-120277380D01*
X140175714Y-120229761D01*
X140128095Y-120134523D01*
X140128095Y-119753571D01*
X140175714Y-119658333D01*
X140270952Y-119610714D01*
X140461428Y-119610714D01*
X140556666Y-119658333D01*
X140604285Y-119753571D01*
X140604285Y-119848809D01*
X140128095Y-119944047D01*
X140890000Y-119277380D02*
X141461428Y-119277380D01*
X141175714Y-120277380D02*
X141175714Y-119277380D01*
X141794761Y-120277380D02*
X141794761Y-119610714D01*
X141794761Y-119277380D02*
X141747142Y-119325000D01*
X141794761Y-119372619D01*
X141842380Y-119325000D01*
X141794761Y-119277380D01*
X141794761Y-119372619D01*
X142270952Y-120277380D02*
X142270952Y-119610714D01*
X142270952Y-119705952D02*
X142318571Y-119658333D01*
X142413809Y-119610714D01*
X142556666Y-119610714D01*
X142651904Y-119658333D01*
X142699523Y-119753571D01*
X142699523Y-120277380D01*
X142699523Y-119753571D02*
X142747142Y-119658333D01*
X142842380Y-119610714D01*
X142985238Y-119610714D01*
X143080476Y-119658333D01*
X143128095Y-119753571D01*
X143128095Y-120277380D01*
X143604285Y-120277380D02*
X143604285Y-119610714D01*
X143604285Y-119277380D02*
X143556666Y-119325000D01*
X143604285Y-119372619D01*
X143651904Y-119325000D01*
X143604285Y-119277380D01*
X143604285Y-119372619D01*
X144080476Y-119610714D02*
X144080476Y-120277380D01*
X144080476Y-119705952D02*
X144128095Y-119658333D01*
X144223333Y-119610714D01*
X144366190Y-119610714D01*
X144461428Y-119658333D01*
X144509047Y-119753571D01*
X144509047Y-120277380D01*
X145413809Y-119610714D02*
X145413809Y-120420238D01*
X145366190Y-120515476D01*
X145318571Y-120563095D01*
X145223333Y-120610714D01*
X145080476Y-120610714D01*
X144985238Y-120563095D01*
X145413809Y-120229761D02*
X145318571Y-120277380D01*
X145128095Y-120277380D01*
X145032857Y-120229761D01*
X144985238Y-120182142D01*
X144937619Y-120086904D01*
X144937619Y-119801190D01*
X144985238Y-119705952D01*
X145032857Y-119658333D01*
X145128095Y-119610714D01*
X145318571Y-119610714D01*
X145413809Y-119658333D01*
X117985238Y-121260714D02*
X117985238Y-122070238D01*
X117937619Y-122165476D01*
X117890000Y-122213095D01*
X117794761Y-122260714D01*
X117651904Y-122260714D01*
X117556666Y-122213095D01*
X117985238Y-121879761D02*
X117890000Y-121927380D01*
X117699523Y-121927380D01*
X117604285Y-121879761D01*
X117556666Y-121832142D01*
X117509047Y-121736904D01*
X117509047Y-121451190D01*
X117556666Y-121355952D01*
X117604285Y-121308333D01*
X117699523Y-121260714D01*
X117890000Y-121260714D01*
X117985238Y-121308333D01*
X118461428Y-121927380D02*
X118461428Y-121260714D01*
X118461428Y-120927380D02*
X118413809Y-120975000D01*
X118461428Y-121022619D01*
X118509047Y-120975000D01*
X118461428Y-120927380D01*
X118461428Y-121022619D01*
X118794761Y-121260714D02*
X119175714Y-121260714D01*
X118937619Y-120927380D02*
X118937619Y-121784523D01*
X118985238Y-121879761D01*
X119080476Y-121927380D01*
X119175714Y-121927380D01*
X119509047Y-121927380D02*
X119509047Y-120927380D01*
X119937619Y-121927380D02*
X119937619Y-121403571D01*
X119890000Y-121308333D01*
X119794761Y-121260714D01*
X119651904Y-121260714D01*
X119556666Y-121308333D01*
X119509047Y-121355952D01*
X120842380Y-121260714D02*
X120842380Y-121927380D01*
X120413809Y-121260714D02*
X120413809Y-121784523D01*
X120461428Y-121879761D01*
X120556666Y-121927380D01*
X120699523Y-121927380D01*
X120794761Y-121879761D01*
X120842380Y-121832142D01*
X121318571Y-121927380D02*
X121318571Y-120927380D01*
X121318571Y-121308333D02*
X121413809Y-121260714D01*
X121604285Y-121260714D01*
X121699523Y-121308333D01*
X121747142Y-121355952D01*
X121794761Y-121451190D01*
X121794761Y-121736904D01*
X121747142Y-121832142D01*
X121699523Y-121879761D01*
X121604285Y-121927380D01*
X121413809Y-121927380D01*
X121318571Y-121879761D01*
X122223333Y-121832142D02*
X122270952Y-121879761D01*
X122223333Y-121927380D01*
X122175714Y-121879761D01*
X122223333Y-121832142D01*
X122223333Y-121927380D01*
X123128095Y-121879761D02*
X123032857Y-121927380D01*
X122842380Y-121927380D01*
X122747142Y-121879761D01*
X122699523Y-121832142D01*
X122651904Y-121736904D01*
X122651904Y-121451190D01*
X122699523Y-121355952D01*
X122747142Y-121308333D01*
X122842380Y-121260714D01*
X123032857Y-121260714D01*
X123128095Y-121308333D01*
X123699523Y-121927380D02*
X123604285Y-121879761D01*
X123556666Y-121832142D01*
X123509047Y-121736904D01*
X123509047Y-121451190D01*
X123556666Y-121355952D01*
X123604285Y-121308333D01*
X123699523Y-121260714D01*
X123842380Y-121260714D01*
X123937619Y-121308333D01*
X123985238Y-121355952D01*
X124032857Y-121451190D01*
X124032857Y-121736904D01*
X123985238Y-121832142D01*
X123937619Y-121879761D01*
X123842380Y-121927380D01*
X123699523Y-121927380D01*
X124461428Y-121927380D02*
X124461428Y-121260714D01*
X124461428Y-121355952D02*
X124509047Y-121308333D01*
X124604285Y-121260714D01*
X124747142Y-121260714D01*
X124842380Y-121308333D01*
X124890000Y-121403571D01*
X124890000Y-121927380D01*
X124890000Y-121403571D02*
X124937619Y-121308333D01*
X125032857Y-121260714D01*
X125175714Y-121260714D01*
X125270952Y-121308333D01*
X125318571Y-121403571D01*
X125318571Y-121927380D01*
X126509047Y-120879761D02*
X125651904Y-122165476D01*
X126842380Y-121927380D02*
X126842380Y-120927380D01*
X126842380Y-121308333D02*
X126937619Y-121260714D01*
X127128095Y-121260714D01*
X127223333Y-121308333D01*
X127270952Y-121355952D01*
X127318571Y-121451190D01*
X127318571Y-121736904D01*
X127270952Y-121832142D01*
X127223333Y-121879761D01*
X127128095Y-121927380D01*
X126937619Y-121927380D01*
X126842380Y-121879761D01*
X127890000Y-121927380D02*
X127794761Y-121879761D01*
X127747142Y-121832142D01*
X127699523Y-121736904D01*
X127699523Y-121451190D01*
X127747142Y-121355952D01*
X127794761Y-121308333D01*
X127890000Y-121260714D01*
X128032857Y-121260714D01*
X128128095Y-121308333D01*
X128175714Y-121355952D01*
X128223333Y-121451190D01*
X128223333Y-121736904D01*
X128175714Y-121832142D01*
X128128095Y-121879761D01*
X128032857Y-121927380D01*
X127890000Y-121927380D01*
X128794761Y-121927380D02*
X128699523Y-121879761D01*
X128651904Y-121832142D01*
X128604285Y-121736904D01*
X128604285Y-121451190D01*
X128651904Y-121355952D01*
X128699523Y-121308333D01*
X128794761Y-121260714D01*
X128937619Y-121260714D01*
X129032857Y-121308333D01*
X129080476Y-121355952D01*
X129128095Y-121451190D01*
X129128095Y-121736904D01*
X129080476Y-121832142D01*
X129032857Y-121879761D01*
X128937619Y-121927380D01*
X128794761Y-121927380D01*
X129556666Y-121260714D02*
X129556666Y-121927380D01*
X129556666Y-121355952D02*
X129604285Y-121308333D01*
X129699523Y-121260714D01*
X129842380Y-121260714D01*
X129937619Y-121308333D01*
X129985238Y-121403571D01*
X129985238Y-121927380D01*
X130413809Y-121879761D02*
X130509047Y-121927380D01*
X130699523Y-121927380D01*
X130794761Y-121879761D01*
X130842380Y-121784523D01*
X130842380Y-121736904D01*
X130794761Y-121641666D01*
X130699523Y-121594047D01*
X130556666Y-121594047D01*
X130461428Y-121546428D01*
X130413809Y-121451190D01*
X130413809Y-121403571D01*
X130461428Y-121308333D01*
X130556666Y-121260714D01*
X130699523Y-121260714D01*
X130794761Y-121308333D01*
X131699523Y-120927380D02*
X131509047Y-120927380D01*
X131413809Y-120975000D01*
X131366190Y-121022619D01*
X131270952Y-121165476D01*
X131223333Y-121355952D01*
X131223333Y-121736904D01*
X131270952Y-121832142D01*
X131318571Y-121879761D01*
X131413809Y-121927380D01*
X131604285Y-121927380D01*
X131699523Y-121879761D01*
X131747142Y-121832142D01*
X131794761Y-121736904D01*
X131794761Y-121498809D01*
X131747142Y-121403571D01*
X131699523Y-121355952D01*
X131604285Y-121308333D01*
X131413809Y-121308333D01*
X131318571Y-121355952D01*
X131270952Y-121403571D01*
X131223333Y-121498809D01*
X132413809Y-120927380D02*
X132509047Y-120927380D01*
X132604285Y-120975000D01*
X132651904Y-121022619D01*
X132699523Y-121117857D01*
X132747142Y-121308333D01*
X132747142Y-121546428D01*
X132699523Y-121736904D01*
X132651904Y-121832142D01*
X132604285Y-121879761D01*
X132509047Y-121927380D01*
X132413809Y-121927380D01*
X132318571Y-121879761D01*
X132270952Y-121832142D01*
X132223333Y-121736904D01*
X132175714Y-121546428D01*
X132175714Y-121308333D01*
X132223333Y-121117857D01*
X132270952Y-121022619D01*
X132318571Y-120975000D01*
X132413809Y-120927380D01*
X133651904Y-120927380D02*
X133175714Y-120927380D01*
X133128095Y-121403571D01*
X133175714Y-121355952D01*
X133270952Y-121308333D01*
X133509047Y-121308333D01*
X133604285Y-121355952D01*
X133651904Y-121403571D01*
X133699523Y-121498809D01*
X133699523Y-121736904D01*
X133651904Y-121832142D01*
X133604285Y-121879761D01*
X133509047Y-121927380D01*
X133270952Y-121927380D01*
X133175714Y-121879761D01*
X133128095Y-121832142D01*
X134842380Y-120879761D02*
X133985238Y-122165476D01*
X135175714Y-121927380D02*
X135175714Y-120927380D01*
X135509047Y-121641666D01*
X135842380Y-120927380D01*
X135842380Y-121927380D01*
X136461428Y-121927380D02*
X136366190Y-121879761D01*
X136318571Y-121832142D01*
X136270952Y-121736904D01*
X136270952Y-121451190D01*
X136318571Y-121355952D01*
X136366190Y-121308333D01*
X136461428Y-121260714D01*
X136604285Y-121260714D01*
X136699523Y-121308333D01*
X136747142Y-121355952D01*
X136794761Y-121451190D01*
X136794761Y-121736904D01*
X136747142Y-121832142D01*
X136699523Y-121879761D01*
X136604285Y-121927380D01*
X136461428Y-121927380D01*
X137080476Y-121260714D02*
X137461428Y-121260714D01*
X137223333Y-120927380D02*
X137223333Y-121784523D01*
X137270952Y-121879761D01*
X137366190Y-121927380D01*
X137461428Y-121927380D01*
X137937619Y-121927380D02*
X137842380Y-121879761D01*
X137794761Y-121832142D01*
X137747142Y-121736904D01*
X137747142Y-121451190D01*
X137794761Y-121355952D01*
X137842380Y-121308333D01*
X137937619Y-121260714D01*
X138080476Y-121260714D01*
X138175714Y-121308333D01*
X138223333Y-121355952D01*
X138270952Y-121451190D01*
X138270952Y-121736904D01*
X138223333Y-121832142D01*
X138175714Y-121879761D01*
X138080476Y-121927380D01*
X137937619Y-121927380D01*
X139223333Y-120975000D02*
X139128095Y-120927380D01*
X138985238Y-120927380D01*
X138842380Y-120975000D01*
X138747142Y-121070238D01*
X138699523Y-121165476D01*
X138651904Y-121355952D01*
X138651904Y-121498809D01*
X138699523Y-121689285D01*
X138747142Y-121784523D01*
X138842380Y-121879761D01*
X138985238Y-121927380D01*
X139080476Y-121927380D01*
X139223333Y-121879761D01*
X139270952Y-121832142D01*
X139270952Y-121498809D01*
X139080476Y-121498809D01*
X139604285Y-121260714D02*
X139842380Y-121927380D01*
X140080476Y-121260714D02*
X139842380Y-121927380D01*
X139747142Y-122165476D01*
X139699523Y-122213095D01*
X139604285Y-122260714D01*
X140461428Y-121927380D02*
X140461428Y-121260714D01*
X140461428Y-121355952D02*
X140509047Y-121308333D01*
X140604285Y-121260714D01*
X140747142Y-121260714D01*
X140842380Y-121308333D01*
X140890000Y-121403571D01*
X140890000Y-121927380D01*
X140890000Y-121403571D02*
X140937619Y-121308333D01*
X141032857Y-121260714D01*
X141175714Y-121260714D01*
X141270952Y-121308333D01*
X141318571Y-121403571D01*
X141318571Y-121927380D01*
X141794761Y-121927380D02*
X141794761Y-120927380D01*
X141890000Y-121546428D02*
X142175714Y-121927380D01*
X142175714Y-121260714D02*
X141794761Y-121641666D01*
X142604285Y-121927380D02*
X142604285Y-120927380D01*
X143032857Y-121927380D02*
X143032857Y-121403571D01*
X142985238Y-121308333D01*
X142890000Y-121260714D01*
X142747142Y-121260714D01*
X142651904Y-121308333D01*
X142604285Y-121355952D01*
X143937619Y-121927380D02*
X143937619Y-121403571D01*
X143890000Y-121308333D01*
X143794761Y-121260714D01*
X143604285Y-121260714D01*
X143509047Y-121308333D01*
X143937619Y-121879761D02*
X143842380Y-121927380D01*
X143604285Y-121927380D01*
X143509047Y-121879761D01*
X143461428Y-121784523D01*
X143461428Y-121689285D01*
X143509047Y-121594047D01*
X143604285Y-121546428D01*
X143842380Y-121546428D01*
X143937619Y-121498809D01*
X144413809Y-121260714D02*
X144413809Y-121927380D01*
X144413809Y-121355952D02*
X144461428Y-121308333D01*
X144556666Y-121260714D01*
X144699523Y-121260714D01*
X144794761Y-121308333D01*
X144842380Y-121403571D01*
X144842380Y-121927380D01*
X145747142Y-121927380D02*
X145747142Y-121403571D01*
X145699523Y-121308333D01*
X145604285Y-121260714D01*
X145413809Y-121260714D01*
X145318571Y-121308333D01*
X145747142Y-121879761D02*
X145651904Y-121927380D01*
X145413809Y-121927380D01*
X145318571Y-121879761D01*
X145270952Y-121784523D01*
X145270952Y-121689285D01*
X145318571Y-121594047D01*
X145413809Y-121546428D01*
X145651904Y-121546428D01*
X145747142Y-121498809D01*
X146794761Y-121927380D02*
X146461428Y-121451190D01*
X146223333Y-121927380D02*
X146223333Y-120927380D01*
X146604285Y-120927380D01*
X146699523Y-120975000D01*
X146747142Y-121022619D01*
X146794761Y-121117857D01*
X146794761Y-121260714D01*
X146747142Y-121355952D01*
X146699523Y-121403571D01*
X146604285Y-121451190D01*
X146223333Y-121451190D01*
X147651904Y-121927380D02*
X147651904Y-121403571D01*
X147604285Y-121308333D01*
X147509047Y-121260714D01*
X147318571Y-121260714D01*
X147223333Y-121308333D01*
X147651904Y-121879761D02*
X147556666Y-121927380D01*
X147318571Y-121927380D01*
X147223333Y-121879761D01*
X147175714Y-121784523D01*
X147175714Y-121689285D01*
X147223333Y-121594047D01*
X147318571Y-121546428D01*
X147556666Y-121546428D01*
X147651904Y-121498809D01*
X148556666Y-121879761D02*
X148461428Y-121927380D01*
X148270952Y-121927380D01*
X148175714Y-121879761D01*
X148128095Y-121832142D01*
X148080476Y-121736904D01*
X148080476Y-121451190D01*
X148128095Y-121355952D01*
X148175714Y-121308333D01*
X148270952Y-121260714D01*
X148461428Y-121260714D01*
X148556666Y-121308333D01*
X149366190Y-121879761D02*
X149270952Y-121927380D01*
X149080476Y-121927380D01*
X148985238Y-121879761D01*
X148937619Y-121784523D01*
X148937619Y-121403571D01*
X148985238Y-121308333D01*
X149080476Y-121260714D01*
X149270952Y-121260714D01*
X149366190Y-121308333D01*
X149413809Y-121403571D01*
X149413809Y-121498809D01*
X148937619Y-121594047D01*
X149699523Y-120927380D02*
X150270952Y-120927380D01*
X149985238Y-121927380D02*
X149985238Y-120927380D01*
X150604285Y-121927380D02*
X150604285Y-121260714D01*
X150604285Y-120927380D02*
X150556666Y-120975000D01*
X150604285Y-121022619D01*
X150651904Y-120975000D01*
X150604285Y-120927380D01*
X150604285Y-121022619D01*
X151080476Y-121927380D02*
X151080476Y-121260714D01*
X151080476Y-121355952D02*
X151128095Y-121308333D01*
X151223333Y-121260714D01*
X151366190Y-121260714D01*
X151461428Y-121308333D01*
X151509047Y-121403571D01*
X151509047Y-121927380D01*
X151509047Y-121403571D02*
X151556666Y-121308333D01*
X151651904Y-121260714D01*
X151794761Y-121260714D01*
X151890000Y-121308333D01*
X151937619Y-121403571D01*
X151937619Y-121927380D01*
X152413809Y-121927380D02*
X152413809Y-121260714D01*
X152413809Y-120927380D02*
X152366190Y-120975000D01*
X152413809Y-121022619D01*
X152461428Y-120975000D01*
X152413809Y-120927380D01*
X152413809Y-121022619D01*
X152890000Y-121260714D02*
X152890000Y-121927380D01*
X152890000Y-121355952D02*
X152937619Y-121308333D01*
X153032857Y-121260714D01*
X153175714Y-121260714D01*
X153270952Y-121308333D01*
X153318571Y-121403571D01*
X153318571Y-121927380D01*
X154223333Y-121260714D02*
X154223333Y-122070238D01*
X154175714Y-122165476D01*
X154128095Y-122213095D01*
X154032857Y-122260714D01*
X153890000Y-122260714D01*
X153794761Y-122213095D01*
X154223333Y-121879761D02*
X154128095Y-121927380D01*
X153937619Y-121927380D01*
X153842380Y-121879761D01*
X153794761Y-121832142D01*
X153747142Y-121736904D01*
X153747142Y-121451190D01*
X153794761Y-121355952D01*
X153842380Y-121308333D01*
X153937619Y-121260714D01*
X154128095Y-121260714D01*
X154223333Y-121308333D01*
D11*
X142300000Y-109220000D02*
X142300000Y-110550000D01*
X142300000Y-110550000D02*
X140970000Y-110550000D01*
X139700000Y-110550000D02*
X126940000Y-110550000D01*
X126940000Y-107890000D02*
X126940000Y-110550000D01*
X139700000Y-107890000D02*
X126940000Y-107890000D01*
X139700000Y-107890000D02*
X139700000Y-110550000D01*
X142300000Y-71060000D02*
X139640000Y-71060000D01*
X142300000Y-78740000D02*
X142300000Y-71060000D01*
X139640000Y-78740000D02*
X139640000Y-71060000D01*
X142300000Y-78740000D02*
X139640000Y-78740000D01*
X142300000Y-80010000D02*
X142300000Y-81340000D01*
X142300000Y-81340000D02*
X140970000Y-81340000D01*
X198070000Y-94530000D02*
X198070000Y-78630000D01*
X193020000Y-94530000D02*
X198070000Y-94530000D01*
X193270000Y-94030000D02*
X193020000Y-94530000D01*
X187870000Y-94030000D02*
X193270000Y-94030000D01*
X188120000Y-94530000D02*
X187870000Y-94030000D01*
X186120000Y-94530000D02*
X188120000Y-94530000D01*
X186420000Y-94030000D02*
X186120000Y-94530000D01*
X185470000Y-94030000D02*
X186420000Y-94030000D01*
X185470000Y-78630000D02*
X185470000Y-94030000D01*
X198070000Y-78630000D02*
X185470000Y-78630000D01*
X198070000Y-111040000D02*
X198070000Y-95140000D01*
X193020000Y-111040000D02*
X198070000Y-111040000D01*
X193270000Y-110540000D02*
X193020000Y-111040000D01*
X187870000Y-110540000D02*
X193270000Y-110540000D01*
X188120000Y-111040000D02*
X187870000Y-110540000D01*
X186120000Y-111040000D02*
X188120000Y-111040000D01*
X186420000Y-110540000D02*
X186120000Y-111040000D01*
X185470000Y-110540000D02*
X186420000Y-110540000D01*
X185470000Y-95140000D02*
X185470000Y-110540000D01*
X198070000Y-95140000D02*
X185470000Y-95140000D01*
X123250000Y-107890000D02*
X120590000Y-107890000D01*
X123250000Y-115570000D02*
X123250000Y-107890000D01*
X120590000Y-115570000D02*
X120590000Y-107890000D01*
X123250000Y-115570000D02*
X120590000Y-115570000D01*
X123250000Y-116840000D02*
X123250000Y-118170000D01*
X123250000Y-118170000D02*
X121920000Y-118170000D01*
X104080000Y-107890000D02*
X104080000Y-110550000D01*
X114300000Y-107890000D02*
X104080000Y-107890000D01*
X114300000Y-110550000D02*
X104080000Y-110550000D01*
X114300000Y-107890000D02*
X114300000Y-110550000D01*
X115570000Y-107890000D02*
X116900000Y-107890000D01*
X116900000Y-107890000D02*
X116900000Y-109220000D01*
X138490000Y-78800000D02*
X138490000Y-76140000D01*
X128270000Y-78800000D02*
X138490000Y-78800000D01*
X128270000Y-76140000D02*
X138490000Y-76140000D01*
X128270000Y-78800000D02*
X128270000Y-76140000D01*
X127000000Y-78800000D02*
X125670000Y-78800000D01*
X125670000Y-78800000D02*
X125670000Y-77470000D01*
X117935000Y-75169698D02*
X118735000Y-75169698D01*
X118335000Y-75569698D02*
X118335000Y-74769698D01*
X120117000Y-67079000D02*
X121183000Y-67079000D01*
X119882000Y-67119000D02*
X121418000Y-67119000D01*
X119702000Y-67159000D02*
X121598000Y-67159000D01*
X119552000Y-67199000D02*
X121748000Y-67199000D01*
X119421000Y-67239000D02*
X121879000Y-67239000D01*
X119304000Y-67279000D02*
X121996000Y-67279000D01*
X119197000Y-67319000D02*
X122103000Y-67319000D01*
X119098000Y-67359000D02*
X122202000Y-67359000D01*
X119005000Y-67399000D02*
X122295000Y-67399000D01*
X118919000Y-67439000D02*
X122381000Y-67439000D01*
X118837000Y-67479000D02*
X122463000Y-67479000D01*
X118760000Y-67519000D02*
X122540000Y-67519000D01*
X118686000Y-67559000D02*
X122614000Y-67559000D01*
X118616000Y-67599000D02*
X122684000Y-67599000D01*
X121690000Y-67639000D02*
X122752000Y-67639000D01*
X118548000Y-67639000D02*
X119610000Y-67639000D01*
X121690000Y-67679000D02*
X122816000Y-67679000D01*
X118484000Y-67679000D02*
X119610000Y-67679000D01*
X121690000Y-67719000D02*
X122878000Y-67719000D01*
X118422000Y-67719000D02*
X119610000Y-67719000D01*
X121690000Y-67759000D02*
X122937000Y-67759000D01*
X118363000Y-67759000D02*
X119610000Y-67759000D01*
X121690000Y-67799000D02*
X122995000Y-67799000D01*
X118305000Y-67799000D02*
X119610000Y-67799000D01*
X121690000Y-67839000D02*
X123050000Y-67839000D01*
X118250000Y-67839000D02*
X119610000Y-67839000D01*
X121690000Y-67879000D02*
X123104000Y-67879000D01*
X118196000Y-67879000D02*
X119610000Y-67879000D01*
X121690000Y-67919000D02*
X123155000Y-67919000D01*
X118145000Y-67919000D02*
X119610000Y-67919000D01*
X121690000Y-67959000D02*
X123206000Y-67959000D01*
X118094000Y-67959000D02*
X119610000Y-67959000D01*
X121690000Y-67999000D02*
X123254000Y-67999000D01*
X118046000Y-67999000D02*
X119610000Y-67999000D01*
X121690000Y-68039000D02*
X123301000Y-68039000D01*
X117999000Y-68039000D02*
X119610000Y-68039000D01*
X121690000Y-68079000D02*
X123347000Y-68079000D01*
X117953000Y-68079000D02*
X119610000Y-68079000D01*
X121690000Y-68119000D02*
X123391000Y-68119000D01*
X117909000Y-68119000D02*
X119610000Y-68119000D01*
X121690000Y-68159000D02*
X123434000Y-68159000D01*
X117866000Y-68159000D02*
X119610000Y-68159000D01*
X121690000Y-68199000D02*
X123476000Y-68199000D01*
X117824000Y-68199000D02*
X119610000Y-68199000D01*
X121690000Y-68239000D02*
X123517000Y-68239000D01*
X117783000Y-68239000D02*
X119610000Y-68239000D01*
X121690000Y-68279000D02*
X123557000Y-68279000D01*
X117743000Y-68279000D02*
X119610000Y-68279000D01*
X121690000Y-68319000D02*
X123595000Y-68319000D01*
X117705000Y-68319000D02*
X119610000Y-68319000D01*
X121690000Y-68359000D02*
X123633000Y-68359000D01*
X117667000Y-68359000D02*
X119610000Y-68359000D01*
X121690000Y-68399000D02*
X123669000Y-68399000D01*
X117631000Y-68399000D02*
X119610000Y-68399000D01*
X121690000Y-68439000D02*
X123705000Y-68439000D01*
X117595000Y-68439000D02*
X119610000Y-68439000D01*
X121690000Y-68479000D02*
X123740000Y-68479000D01*
X117560000Y-68479000D02*
X119610000Y-68479000D01*
X121690000Y-68519000D02*
X123774000Y-68519000D01*
X117526000Y-68519000D02*
X119610000Y-68519000D01*
X121690000Y-68559000D02*
X123806000Y-68559000D01*
X117494000Y-68559000D02*
X119610000Y-68559000D01*
X121690000Y-68599000D02*
X123839000Y-68599000D01*
X117461000Y-68599000D02*
X119610000Y-68599000D01*
X121690000Y-68639000D02*
X123870000Y-68639000D01*
X117430000Y-68639000D02*
X119610000Y-68639000D01*
X121690000Y-68679000D02*
X123900000Y-68679000D01*
X117400000Y-68679000D02*
X119610000Y-68679000D01*
X121690000Y-68719000D02*
X123930000Y-68719000D01*
X117370000Y-68719000D02*
X119610000Y-68719000D01*
X121690000Y-68759000D02*
X123959000Y-68759000D01*
X117341000Y-68759000D02*
X119610000Y-68759000D01*
X121690000Y-68799000D02*
X123988000Y-68799000D01*
X117312000Y-68799000D02*
X119610000Y-68799000D01*
X121690000Y-68839000D02*
X124015000Y-68839000D01*
X117285000Y-68839000D02*
X119610000Y-68839000D01*
X121690000Y-68879000D02*
X124042000Y-68879000D01*
X117258000Y-68879000D02*
X119610000Y-68879000D01*
X121690000Y-68919000D02*
X124068000Y-68919000D01*
X117232000Y-68919000D02*
X119610000Y-68919000D01*
X121690000Y-68959000D02*
X124094000Y-68959000D01*
X117206000Y-68959000D02*
X119610000Y-68959000D01*
X121690000Y-68999000D02*
X124119000Y-68999000D01*
X117181000Y-68999000D02*
X119610000Y-68999000D01*
X121690000Y-69039000D02*
X124143000Y-69039000D01*
X117157000Y-69039000D02*
X119610000Y-69039000D01*
X121690000Y-69079000D02*
X124167000Y-69079000D01*
X117133000Y-69079000D02*
X119610000Y-69079000D01*
X121690000Y-69119000D02*
X124190000Y-69119000D01*
X117110000Y-69119000D02*
X119610000Y-69119000D01*
X121690000Y-69159000D02*
X124212000Y-69159000D01*
X117088000Y-69159000D02*
X119610000Y-69159000D01*
X121690000Y-69199000D02*
X124234000Y-69199000D01*
X117066000Y-69199000D02*
X119610000Y-69199000D01*
X121690000Y-69239000D02*
X124256000Y-69239000D01*
X117044000Y-69239000D02*
X119610000Y-69239000D01*
X121690000Y-69279000D02*
X124277000Y-69279000D01*
X117023000Y-69279000D02*
X119610000Y-69279000D01*
X121690000Y-69319000D02*
X124297000Y-69319000D01*
X117003000Y-69319000D02*
X119610000Y-69319000D01*
X121690000Y-69359000D02*
X124316000Y-69359000D01*
X116984000Y-69359000D02*
X119610000Y-69359000D01*
X121690000Y-69399000D02*
X124336000Y-69399000D01*
X116964000Y-69399000D02*
X119610000Y-69399000D01*
X121690000Y-69439000D02*
X124354000Y-69439000D01*
X116946000Y-69439000D02*
X119610000Y-69439000D01*
X121690000Y-69479000D02*
X124372000Y-69479000D01*
X116928000Y-69479000D02*
X119610000Y-69479000D01*
X121690000Y-69519000D02*
X124390000Y-69519000D01*
X116910000Y-69519000D02*
X119610000Y-69519000D01*
X121690000Y-69559000D02*
X124407000Y-69559000D01*
X116893000Y-69559000D02*
X119610000Y-69559000D01*
X121690000Y-69599000D02*
X124424000Y-69599000D01*
X116876000Y-69599000D02*
X119610000Y-69599000D01*
X121690000Y-69639000D02*
X124440000Y-69639000D01*
X116860000Y-69639000D02*
X119610000Y-69639000D01*
X121690000Y-69679000D02*
X124455000Y-69679000D01*
X116845000Y-69679000D02*
X119610000Y-69679000D01*
X116829000Y-69719000D02*
X124471000Y-69719000D01*
X116815000Y-69759000D02*
X124485000Y-69759000D01*
X116800000Y-69799000D02*
X124500000Y-69799000D01*
X116787000Y-69839000D02*
X124513000Y-69839000D01*
X116773000Y-69879000D02*
X124527000Y-69879000D01*
X116761000Y-69919000D02*
X124539000Y-69919000D01*
X116748000Y-69959000D02*
X124552000Y-69959000D01*
X116736000Y-69999000D02*
X124564000Y-69999000D01*
X116725000Y-70039000D02*
X124575000Y-70039000D01*
X116714000Y-70079000D02*
X124586000Y-70079000D01*
X116703000Y-70119000D02*
X124597000Y-70119000D01*
X116693000Y-70159000D02*
X124607000Y-70159000D01*
X116683000Y-70199000D02*
X124617000Y-70199000D01*
X116674000Y-70239000D02*
X124626000Y-70239000D01*
X116665000Y-70279000D02*
X124635000Y-70279000D01*
X116656000Y-70319000D02*
X124644000Y-70319000D01*
X116648000Y-70359000D02*
X124652000Y-70359000D01*
X116640000Y-70399000D02*
X124660000Y-70399000D01*
X116633000Y-70439000D02*
X124667000Y-70439000D01*
X116626000Y-70480000D02*
X124674000Y-70480000D01*
X116620000Y-70520000D02*
X124680000Y-70520000D01*
X116613000Y-70560000D02*
X124687000Y-70560000D01*
X116608000Y-70600000D02*
X124692000Y-70600000D01*
X116602000Y-70640000D02*
X124698000Y-70640000D01*
X116598000Y-70680000D02*
X124702000Y-70680000D01*
X116593000Y-70720000D02*
X124707000Y-70720000D01*
X116589000Y-70760000D02*
X124711000Y-70760000D01*
X116585000Y-70800000D02*
X124715000Y-70800000D01*
X116582000Y-70840000D02*
X124718000Y-70840000D01*
X116579000Y-70880000D02*
X124721000Y-70880000D01*
X116576000Y-70920000D02*
X124724000Y-70920000D01*
X116574000Y-70960000D02*
X124726000Y-70960000D01*
X116573000Y-71000000D02*
X124727000Y-71000000D01*
X116571000Y-71040000D02*
X124729000Y-71040000D01*
X116570000Y-71080000D02*
X124730000Y-71080000D01*
X116570000Y-71120000D02*
X124730000Y-71120000D01*
X116570000Y-71160000D02*
X124730000Y-71160000D01*
X124770000Y-71160000D02*
G75*
G03*
X124770000Y-71160000I-4120000J0D01*
G01*
X179505000Y-77409646D02*
X180505000Y-77409646D01*
X180005000Y-77909646D02*
X180005000Y-76909646D01*
X182281000Y-67349000D02*
X183479000Y-67349000D01*
X182018000Y-67389000D02*
X183742000Y-67389000D01*
X181818000Y-67429000D02*
X183942000Y-67429000D01*
X181650000Y-67469000D02*
X184110000Y-67469000D01*
X181502000Y-67509000D02*
X184258000Y-67509000D01*
X181370000Y-67549000D02*
X184390000Y-67549000D01*
X181250000Y-67589000D02*
X184510000Y-67589000D01*
X181138000Y-67629000D02*
X184622000Y-67629000D01*
X181034000Y-67669000D02*
X184726000Y-67669000D01*
X180936000Y-67709000D02*
X184824000Y-67709000D01*
X180843000Y-67749000D02*
X184917000Y-67749000D01*
X180755000Y-67789000D02*
X185005000Y-67789000D01*
X180671000Y-67829000D02*
X185089000Y-67829000D01*
X180591000Y-67869000D02*
X185169000Y-67869000D01*
X180515000Y-67909000D02*
X185245000Y-67909000D01*
X180441000Y-67949000D02*
X185319000Y-67949000D01*
X180370000Y-67989000D02*
X185390000Y-67989000D01*
X180301000Y-68029000D02*
X185459000Y-68029000D01*
X180235000Y-68069000D02*
X185525000Y-68069000D01*
X180171000Y-68109000D02*
X185589000Y-68109000D01*
X180110000Y-68149000D02*
X185650000Y-68149000D01*
X180050000Y-68189000D02*
X185710000Y-68189000D01*
X179991000Y-68229000D02*
X185769000Y-68229000D01*
X179935000Y-68269000D02*
X185825000Y-68269000D01*
X179880000Y-68309000D02*
X185880000Y-68309000D01*
X179826000Y-68349000D02*
X185934000Y-68349000D01*
X179774000Y-68389000D02*
X185986000Y-68389000D01*
X179724000Y-68429000D02*
X186036000Y-68429000D01*
X179674000Y-68469000D02*
X186086000Y-68469000D01*
X179626000Y-68509000D02*
X186134000Y-68509000D01*
X179579000Y-68549000D02*
X186181000Y-68549000D01*
X179533000Y-68589000D02*
X186227000Y-68589000D01*
X179488000Y-68629000D02*
X186272000Y-68629000D01*
X179444000Y-68669000D02*
X186316000Y-68669000D01*
X184121000Y-68709000D02*
X186358000Y-68709000D01*
X179402000Y-68709000D02*
X181639000Y-68709000D01*
X184121000Y-68749000D02*
X186400000Y-68749000D01*
X179360000Y-68749000D02*
X181639000Y-68749000D01*
X184121000Y-68789000D02*
X186441000Y-68789000D01*
X179319000Y-68789000D02*
X181639000Y-68789000D01*
X184121000Y-68829000D02*
X186481000Y-68829000D01*
X179279000Y-68829000D02*
X181639000Y-68829000D01*
X184121000Y-68869000D02*
X186520000Y-68869000D01*
X179240000Y-68869000D02*
X181639000Y-68869000D01*
X184121000Y-68909000D02*
X186559000Y-68909000D01*
X179201000Y-68909000D02*
X181639000Y-68909000D01*
X184121000Y-68949000D02*
X186596000Y-68949000D01*
X179164000Y-68949000D02*
X181639000Y-68949000D01*
X184121000Y-68989000D02*
X186633000Y-68989000D01*
X179127000Y-68989000D02*
X181639000Y-68989000D01*
X184121000Y-69029000D02*
X186669000Y-69029000D01*
X179091000Y-69029000D02*
X181639000Y-69029000D01*
X184121000Y-69069000D02*
X186704000Y-69069000D01*
X179056000Y-69069000D02*
X181639000Y-69069000D01*
X184121000Y-69109000D02*
X186738000Y-69109000D01*
X179022000Y-69109000D02*
X181639000Y-69109000D01*
X184121000Y-69149000D02*
X186772000Y-69149000D01*
X178988000Y-69149000D02*
X181639000Y-69149000D01*
X184121000Y-69189000D02*
X186805000Y-69189000D01*
X178955000Y-69189000D02*
X181639000Y-69189000D01*
X184121000Y-69229000D02*
X186837000Y-69229000D01*
X178923000Y-69229000D02*
X181639000Y-69229000D01*
X184121000Y-69269000D02*
X186869000Y-69269000D01*
X178891000Y-69269000D02*
X181639000Y-69269000D01*
X184121000Y-69309000D02*
X186900000Y-69309000D01*
X178860000Y-69309000D02*
X181639000Y-69309000D01*
X184121000Y-69349000D02*
X186930000Y-69349000D01*
X178830000Y-69349000D02*
X181639000Y-69349000D01*
X184121000Y-69389000D02*
X186960000Y-69389000D01*
X178800000Y-69389000D02*
X181639000Y-69389000D01*
X184121000Y-69429000D02*
X186990000Y-69429000D01*
X178770000Y-69429000D02*
X181639000Y-69429000D01*
X184121000Y-69469000D02*
X187018000Y-69469000D01*
X178742000Y-69469000D02*
X181639000Y-69469000D01*
X184121000Y-69509000D02*
X187046000Y-69509000D01*
X178714000Y-69509000D02*
X181639000Y-69509000D01*
X184121000Y-69549000D02*
X187074000Y-69549000D01*
X178686000Y-69549000D02*
X181639000Y-69549000D01*
X184121000Y-69589000D02*
X187101000Y-69589000D01*
X178659000Y-69589000D02*
X181639000Y-69589000D01*
X184121000Y-69629000D02*
X187127000Y-69629000D01*
X178633000Y-69629000D02*
X181639000Y-69629000D01*
X184121000Y-69669000D02*
X187153000Y-69669000D01*
X178607000Y-69669000D02*
X181639000Y-69669000D01*
X184121000Y-69709000D02*
X187178000Y-69709000D01*
X178582000Y-69709000D02*
X181639000Y-69709000D01*
X184121000Y-69749000D02*
X187203000Y-69749000D01*
X178557000Y-69749000D02*
X181639000Y-69749000D01*
X184121000Y-69789000D02*
X187227000Y-69789000D01*
X178533000Y-69789000D02*
X181639000Y-69789000D01*
X184121000Y-69829000D02*
X187251000Y-69829000D01*
X178509000Y-69829000D02*
X181639000Y-69829000D01*
X184121000Y-69869000D02*
X187275000Y-69869000D01*
X178485000Y-69869000D02*
X181639000Y-69869000D01*
X184121000Y-69909000D02*
X187297000Y-69909000D01*
X178463000Y-69909000D02*
X181639000Y-69909000D01*
X184121000Y-69949000D02*
X187320000Y-69949000D01*
X178440000Y-69949000D02*
X181639000Y-69949000D01*
X184121000Y-69989000D02*
X187342000Y-69989000D01*
X178418000Y-69989000D02*
X181639000Y-69989000D01*
X184121000Y-70029000D02*
X187363000Y-70029000D01*
X178397000Y-70029000D02*
X181639000Y-70029000D01*
X184121000Y-70069000D02*
X187384000Y-70069000D01*
X178376000Y-70069000D02*
X181639000Y-70069000D01*
X184121000Y-70109000D02*
X187405000Y-70109000D01*
X178355000Y-70109000D02*
X181639000Y-70109000D01*
X184121000Y-70149000D02*
X187425000Y-70149000D01*
X178335000Y-70149000D02*
X181639000Y-70149000D01*
X184121000Y-70189000D02*
X187444000Y-70189000D01*
X178316000Y-70189000D02*
X181639000Y-70189000D01*
X184121000Y-70229000D02*
X187464000Y-70229000D01*
X178296000Y-70229000D02*
X181639000Y-70229000D01*
X184121000Y-70269000D02*
X187483000Y-70269000D01*
X178277000Y-70269000D02*
X181639000Y-70269000D01*
X184121000Y-70309000D02*
X187501000Y-70309000D01*
X178259000Y-70309000D02*
X181639000Y-70309000D01*
X184121000Y-70349000D02*
X187519000Y-70349000D01*
X178241000Y-70349000D02*
X181639000Y-70349000D01*
X184121000Y-70389000D02*
X187537000Y-70389000D01*
X178223000Y-70389000D02*
X181639000Y-70389000D01*
X184121000Y-70429000D02*
X187554000Y-70429000D01*
X178206000Y-70429000D02*
X181639000Y-70429000D01*
X184121000Y-70469000D02*
X187570000Y-70469000D01*
X178190000Y-70469000D02*
X181639000Y-70469000D01*
X184121000Y-70509000D02*
X187587000Y-70509000D01*
X178173000Y-70509000D02*
X181639000Y-70509000D01*
X184121000Y-70549000D02*
X187603000Y-70549000D01*
X178157000Y-70549000D02*
X181639000Y-70549000D01*
X184121000Y-70589000D02*
X187618000Y-70589000D01*
X178142000Y-70589000D02*
X181639000Y-70589000D01*
X184121000Y-70629000D02*
X187634000Y-70629000D01*
X178126000Y-70629000D02*
X181639000Y-70629000D01*
X184121000Y-70669000D02*
X187648000Y-70669000D01*
X178112000Y-70669000D02*
X181639000Y-70669000D01*
X184121000Y-70709000D02*
X187663000Y-70709000D01*
X178097000Y-70709000D02*
X181639000Y-70709000D01*
X184121000Y-70749000D02*
X187677000Y-70749000D01*
X178083000Y-70749000D02*
X181639000Y-70749000D01*
X184121000Y-70789000D02*
X187691000Y-70789000D01*
X178069000Y-70789000D02*
X181639000Y-70789000D01*
X184121000Y-70829000D02*
X187704000Y-70829000D01*
X178056000Y-70829000D02*
X181639000Y-70829000D01*
X184121000Y-70869000D02*
X187717000Y-70869000D01*
X178043000Y-70869000D02*
X181639000Y-70869000D01*
X184121000Y-70909000D02*
X187730000Y-70909000D01*
X178030000Y-70909000D02*
X181639000Y-70909000D01*
X184121000Y-70949000D02*
X187742000Y-70949000D01*
X178018000Y-70949000D02*
X181639000Y-70949000D01*
X184121000Y-70989000D02*
X187754000Y-70989000D01*
X178006000Y-70989000D02*
X181639000Y-70989000D01*
X184121000Y-71029000D02*
X187765000Y-71029000D01*
X177995000Y-71029000D02*
X181639000Y-71029000D01*
X184121000Y-71069000D02*
X187777000Y-71069000D01*
X177983000Y-71069000D02*
X181639000Y-71069000D01*
X184121000Y-71109000D02*
X187787000Y-71109000D01*
X177973000Y-71109000D02*
X181639000Y-71109000D01*
X184121000Y-71149000D02*
X187798000Y-71149000D01*
X177962000Y-71149000D02*
X181639000Y-71149000D01*
X177952000Y-71189000D02*
X187808000Y-71189000D01*
X177942000Y-71229000D02*
X187818000Y-71229000D01*
X177933000Y-71269000D02*
X187827000Y-71269000D01*
X177924000Y-71309000D02*
X187836000Y-71309000D01*
X177915000Y-71349000D02*
X187845000Y-71349000D01*
X177906000Y-71389000D02*
X187854000Y-71389000D01*
X177898000Y-71429000D02*
X187862000Y-71429000D01*
X177890000Y-71469000D02*
X187870000Y-71469000D01*
X177883000Y-71509000D02*
X187877000Y-71509000D01*
X177876000Y-71549000D02*
X187884000Y-71549000D01*
X177869000Y-71589000D02*
X187891000Y-71589000D01*
X177862000Y-71629000D02*
X187898000Y-71629000D01*
X177856000Y-71669000D02*
X187904000Y-71669000D01*
X177850000Y-71709000D02*
X187910000Y-71709000D01*
X177845000Y-71750000D02*
X187915000Y-71750000D01*
X177840000Y-71790000D02*
X187920000Y-71790000D01*
X177835000Y-71830000D02*
X187925000Y-71830000D01*
X177830000Y-71870000D02*
X187930000Y-71870000D01*
X177826000Y-71910000D02*
X187934000Y-71910000D01*
X177822000Y-71950000D02*
X187938000Y-71950000D01*
X177818000Y-71990000D02*
X187942000Y-71990000D01*
X177815000Y-72030000D02*
X187945000Y-72030000D01*
X177812000Y-72070000D02*
X187948000Y-72070000D01*
X177810000Y-72110000D02*
X187950000Y-72110000D01*
X177807000Y-72150000D02*
X187953000Y-72150000D01*
X177805000Y-72190000D02*
X187955000Y-72190000D01*
X177803000Y-72230000D02*
X187957000Y-72230000D01*
X177802000Y-72270000D02*
X187958000Y-72270000D01*
X177801000Y-72310000D02*
X187959000Y-72310000D01*
X177800000Y-72350000D02*
X187960000Y-72350000D01*
X177800000Y-72390000D02*
X187960000Y-72390000D01*
X177800000Y-72430000D02*
X187960000Y-72430000D01*
X188000000Y-72430000D02*
G75*
G03*
X188000000Y-72430000I-5120000J0D01*
G01*
X173260000Y-62130000D02*
X173260000Y-64870000D01*
X173260000Y-64870000D02*
X179800000Y-64870000D01*
X179800000Y-64870000D02*
X179800000Y-62130000D01*
X179800000Y-62130000D02*
X173260000Y-62130000D01*
X172490000Y-63500000D02*
X173260000Y-63500000D01*
X180570000Y-63500000D02*
X179800000Y-63500000D01*
X145275001Y-116185001D02*
X147935001Y-116185001D01*
X145275001Y-111045001D02*
X145275001Y-116185001D01*
X147935001Y-111045001D02*
X147935001Y-116185001D01*
X145275001Y-111045001D02*
X147935001Y-111045001D01*
X145275001Y-109775001D02*
X145275001Y-108445001D01*
X145275001Y-108445001D02*
X146605001Y-108445001D01*
D12*
X172148500Y-111213900D02*
X172148500Y-100418900D01*
X172148500Y-100418900D02*
X167195500Y-100418900D01*
X167195500Y-100418900D02*
X167195500Y-111213900D01*
X167195500Y-111213900D02*
X172148500Y-111213900D01*
X170383200Y-112991900D02*
G75*
G03*
X170383200Y-112991900I-203200J0D01*
G01*
D11*
X172300000Y-82550000D02*
G75*
G03*
X172300000Y-82550000I-3620000J0D01*
G01*
X170070000Y-77255000D02*
X170070000Y-77570000D01*
X170070000Y-74830000D02*
X170070000Y-75145000D01*
X165130000Y-77255000D02*
X165130000Y-77570000D01*
X165130000Y-74830000D02*
X165130000Y-75145000D01*
X165130000Y-77570000D02*
X170070000Y-77570000D01*
X165130000Y-74830000D02*
X170070000Y-74830000D01*
X175150000Y-121705000D02*
X175150000Y-122020000D01*
X175150000Y-119280000D02*
X175150000Y-119595000D01*
X170210000Y-121705000D02*
X170210000Y-122020000D01*
X170210000Y-119280000D02*
X170210000Y-119595000D01*
X170210000Y-122020000D02*
X175150000Y-122020000D01*
X170210000Y-119280000D02*
X175150000Y-119280000D01*
X160020000Y-90400000D02*
X160020000Y-89630000D01*
X160020000Y-82320000D02*
X160020000Y-83090000D01*
X161390000Y-89630000D02*
X161390000Y-83090000D01*
X158650000Y-89630000D02*
X161390000Y-89630000D01*
X158650000Y-83090000D02*
X158650000Y-89630000D01*
X161390000Y-83090000D02*
X158650000Y-83090000D01*
X151360000Y-88900000D02*
X150590000Y-88900000D01*
X143280000Y-88900000D02*
X144050000Y-88900000D01*
X150590000Y-87530000D02*
X144050000Y-87530000D01*
X150590000Y-90270000D02*
X150590000Y-87530000D01*
X144050000Y-90270000D02*
X150590000Y-90270000D01*
X144050000Y-87530000D02*
X144050000Y-90270000D01*
X180340000Y-108180000D02*
X180340000Y-107410000D01*
X180340000Y-100100000D02*
X180340000Y-100870000D01*
X181710000Y-107410000D02*
X181710000Y-100870000D01*
X178970000Y-107410000D02*
X181710000Y-107410000D01*
X178970000Y-100870000D02*
X178970000Y-107410000D01*
X181710000Y-100870000D02*
X178970000Y-100870000D01*
X176530000Y-100100000D02*
X176530000Y-100870000D01*
X176530000Y-108180000D02*
X176530000Y-107410000D01*
X175160000Y-100870000D02*
X175160000Y-107410000D01*
X177900000Y-100870000D02*
X175160000Y-100870000D01*
X177900000Y-107410000D02*
X177900000Y-100870000D01*
X175160000Y-107410000D02*
X177900000Y-107410000D01*
X149800000Y-74870000D02*
X151130000Y-74870000D01*
X149800000Y-76200000D02*
X149800000Y-74870000D01*
X149800000Y-77470000D02*
X152460000Y-77470000D01*
X152460000Y-77470000D02*
X152460000Y-80070000D01*
X149800000Y-77470000D02*
X149800000Y-80070000D01*
X149800000Y-80070000D02*
X152460000Y-80070000D01*
X145990000Y-74870000D02*
X147320000Y-74870000D01*
X145990000Y-76200000D02*
X145990000Y-74870000D01*
X145990000Y-77470000D02*
X148650000Y-77470000D01*
X148650000Y-77470000D02*
X148650000Y-80070000D01*
X145990000Y-77470000D02*
X145990000Y-80070000D01*
X145990000Y-80070000D02*
X148650000Y-80070000D01*
X112970000Y-78680000D02*
X112970000Y-81340000D01*
X118110000Y-78680000D02*
X112970000Y-78680000D01*
X118110000Y-81340000D02*
X112970000Y-81340000D01*
X118110000Y-78680000D02*
X118110000Y-81340000D01*
X119380000Y-78680000D02*
X120710000Y-78680000D01*
X120710000Y-78680000D02*
X120710000Y-80010000D01*
X149925001Y-116185001D02*
X152585001Y-116185001D01*
X149925001Y-111045001D02*
X149925001Y-116185001D01*
X152585001Y-111045001D02*
X152585001Y-116185001D01*
X149925001Y-111045001D02*
X152585001Y-111045001D01*
X149925001Y-109775001D02*
X149925001Y-108445001D01*
X149925001Y-108445001D02*
X151255001Y-108445001D01*
X183150000Y-116780000D02*
X181500000Y-116780000D01*
X181500000Y-116780000D02*
X181500000Y-121980000D01*
X181500000Y-121980000D02*
X186800000Y-121980000D01*
X186800000Y-121980000D02*
X186800000Y-116780000D01*
X186800000Y-116780000D02*
X185150000Y-116780000D01*
X185150000Y-116780000D02*
G75*
G02*
X183150000Y-116780000I-1000000J0D01*
G01*
X170450000Y-67250000D02*
X168800000Y-67250000D01*
X168800000Y-67250000D02*
X168800000Y-72450000D01*
X168800000Y-72450000D02*
X174100000Y-72450000D01*
X174100000Y-72450000D02*
X174100000Y-67250000D01*
X174100000Y-67250000D02*
X172450000Y-67250000D01*
X172450000Y-67250000D02*
G75*
G02*
X170450000Y-67250000I-1000000J0D01*
G01*
X131350000Y-114200000D02*
X131350000Y-116940000D01*
X131350000Y-116940000D02*
X137890000Y-116940000D01*
X137890000Y-116940000D02*
X137890000Y-114200000D01*
X137890000Y-114200000D02*
X131350000Y-114200000D01*
X130580000Y-115570000D02*
X131350000Y-115570000D01*
X138660000Y-115570000D02*
X137890000Y-115570000D01*
X118840000Y-92810000D02*
X118840000Y-90070000D01*
X118840000Y-90070000D02*
X112300000Y-90070000D01*
X112300000Y-90070000D02*
X112300000Y-92810000D01*
X112300000Y-92810000D02*
X118840000Y-92810000D01*
X119610000Y-91440000D02*
X118840000Y-91440000D01*
X111530000Y-91440000D02*
X112300000Y-91440000D01*
X127540000Y-90070000D02*
X127540000Y-92810000D01*
X127540000Y-92810000D02*
X134080000Y-92810000D01*
X134080000Y-92810000D02*
X134080000Y-90070000D01*
X134080000Y-90070000D02*
X127540000Y-90070000D01*
X126770000Y-91440000D02*
X127540000Y-91440000D01*
X134850000Y-91440000D02*
X134080000Y-91440000D01*
X188690000Y-115670000D02*
X188690000Y-112930000D01*
X188690000Y-112930000D02*
X182150000Y-112930000D01*
X182150000Y-112930000D02*
X182150000Y-115670000D01*
X182150000Y-115670000D02*
X188690000Y-115670000D01*
X189460000Y-114300000D02*
X188690000Y-114300000D01*
X181380000Y-114300000D02*
X182150000Y-114300000D01*
X173450000Y-116940000D02*
X173450000Y-114200000D01*
X173450000Y-114200000D02*
X166910000Y-114200000D01*
X166910000Y-114200000D02*
X166910000Y-116940000D01*
X166910000Y-116940000D02*
X173450000Y-116940000D01*
X174220000Y-115570000D02*
X173450000Y-115570000D01*
X166140000Y-115570000D02*
X166910000Y-115570000D01*
X159480000Y-120750000D02*
X159480000Y-118010000D01*
X159480000Y-118010000D02*
X152940000Y-118010000D01*
X152940000Y-118010000D02*
X152940000Y-120750000D01*
X152940000Y-120750000D02*
X159480000Y-120750000D01*
X160250000Y-119380000D02*
X159480000Y-119380000D01*
X152170000Y-119380000D02*
X152940000Y-119380000D01*
X154710000Y-64770000D02*
X155480000Y-64770000D01*
X162790000Y-64770000D02*
X162020000Y-64770000D01*
X155480000Y-66140000D02*
X162020000Y-66140000D01*
X155480000Y-63400000D02*
X155480000Y-66140000D01*
X162020000Y-63400000D02*
X155480000Y-63400000D01*
X162020000Y-66140000D02*
X162020000Y-63400000D01*
D10*
X112665000Y-67000000D02*
X113140000Y-67000000D01*
X113140000Y-67000000D02*
X113140000Y-75300000D01*
X113140000Y-75300000D02*
X112665000Y-75300000D01*
X110415000Y-67000000D02*
X109940000Y-67000000D01*
X109940000Y-67000000D02*
X109940000Y-75300000D01*
X109940000Y-75300000D02*
X110415000Y-75300000D01*
X113440000Y-68850000D02*
X113440000Y-70850000D01*
D11*
X153670000Y-83760000D02*
X153670000Y-86420000D01*
X153670000Y-83760000D02*
X105350000Y-83760000D01*
X105350000Y-83760000D02*
X105350000Y-86420000D01*
X153670000Y-86420000D02*
X105350000Y-86420000D01*
X156270000Y-86420000D02*
X154940000Y-86420000D01*
X156270000Y-85090000D02*
X156270000Y-86420000D01*
X107950000Y-101660000D02*
X107950000Y-99000000D01*
X107950000Y-101660000D02*
X156270000Y-101660000D01*
X156270000Y-101660000D02*
X156270000Y-99000000D01*
X107950000Y-99000000D02*
X156270000Y-99000000D01*
X105350000Y-99000000D02*
X106680000Y-99000000D01*
X105350000Y-100330000D02*
X105350000Y-99000000D01*
X161250000Y-72390000D02*
G75*
G03*
X161250000Y-72390000I-2500000J0D01*
G01*
X156190000Y-70845000D02*
X156190000Y-73935000D01*
X161740000Y-72389538D02*
G75*
G02*
X156190000Y-73934830I-2990000J-462D01*
G01*
X161740000Y-72390462D02*
G75*
G03*
X156190000Y-70845170I-2990000J462D01*
G01*
X159980000Y-110490000D02*
G75*
G03*
X159980000Y-110490000I-2500000J0D01*
G01*
X154920000Y-108945000D02*
X154920000Y-112035000D01*
X160470000Y-110489538D02*
G75*
G02*
X154920000Y-112034830I-2990000J-462D01*
G01*
X160470000Y-110490462D02*
G75*
G03*
X154920000Y-108945170I-2990000J462D01*
G01*
X173810000Y-91230000D02*
X179250000Y-91230000D01*
X179250000Y-91230000D02*
X179250000Y-81490000D01*
X179250000Y-81490000D02*
X173810000Y-81490000D01*
X173810000Y-81490000D02*
X173810000Y-91230000D01*
X176530000Y-92140000D02*
X176530000Y-91230000D01*
X176530000Y-80580000D02*
X176530000Y-81490000D01*
X173810000Y-89685000D02*
X179250000Y-89685000D01*
X173810000Y-89565000D02*
X179250000Y-89565000D01*
X173810000Y-89805000D02*
X179250000Y-89805000D01*
D10*
X144192380Y-110267619D02*
X143716190Y-110600952D01*
X144192380Y-110839047D02*
X143192380Y-110839047D01*
X143192380Y-110458095D01*
X143240000Y-110362857D01*
X143287619Y-110315238D01*
X143382857Y-110267619D01*
X143525714Y-110267619D01*
X143620952Y-110315238D01*
X143668571Y-110362857D01*
X143716190Y-110458095D01*
X143716190Y-110839047D01*
X143192380Y-109981904D02*
X143192380Y-109410476D01*
X144192380Y-109696190D02*
X143192380Y-109696190D01*
X144097142Y-108505714D02*
X144144761Y-108553333D01*
X144192380Y-108696190D01*
X144192380Y-108791428D01*
X144144761Y-108934285D01*
X144049523Y-109029523D01*
X143954285Y-109077142D01*
X143763809Y-109124761D01*
X143620952Y-109124761D01*
X143430476Y-109077142D01*
X143335238Y-109029523D01*
X143240000Y-108934285D01*
X143192380Y-108791428D01*
X143192380Y-108696190D01*
X143240000Y-108553333D01*
X143287619Y-108505714D01*
X144192380Y-107553333D02*
X144192380Y-108124761D01*
X144192380Y-107839047D02*
X143192380Y-107839047D01*
X143335238Y-107934285D01*
X143430476Y-108029523D01*
X143478095Y-108124761D01*
X127770000Y-106171904D02*
X127722380Y-106267142D01*
X127722380Y-106410000D01*
X127770000Y-106552857D01*
X127865238Y-106648095D01*
X127960476Y-106695714D01*
X128150952Y-106743333D01*
X128293809Y-106743333D01*
X128484285Y-106695714D01*
X128579523Y-106648095D01*
X128674761Y-106552857D01*
X128722380Y-106410000D01*
X128722380Y-106314761D01*
X128674761Y-106171904D01*
X128627142Y-106124285D01*
X128293809Y-106124285D01*
X128293809Y-106314761D01*
X128722380Y-105695714D02*
X127722380Y-105695714D01*
X128722380Y-105124285D01*
X127722380Y-105124285D01*
X128722380Y-104648095D02*
X127722380Y-104648095D01*
X127722380Y-104410000D01*
X127770000Y-104267142D01*
X127865238Y-104171904D01*
X127960476Y-104124285D01*
X128150952Y-104076666D01*
X128293809Y-104076666D01*
X128484285Y-104124285D01*
X128579523Y-104171904D01*
X128674761Y-104267142D01*
X128722380Y-104410000D01*
X128722380Y-104648095D01*
X130262380Y-106743333D02*
X131262380Y-106410000D01*
X130262380Y-106076666D01*
X131167142Y-105171904D02*
X131214761Y-105219523D01*
X131262380Y-105362380D01*
X131262380Y-105457619D01*
X131214761Y-105600476D01*
X131119523Y-105695714D01*
X131024285Y-105743333D01*
X130833809Y-105790952D01*
X130690952Y-105790952D01*
X130500476Y-105743333D01*
X130405238Y-105695714D01*
X130310000Y-105600476D01*
X130262380Y-105457619D01*
X130262380Y-105362380D01*
X130310000Y-105219523D01*
X130357619Y-105171904D01*
X131167142Y-104171904D02*
X131214761Y-104219523D01*
X131262380Y-104362380D01*
X131262380Y-104457619D01*
X131214761Y-104600476D01*
X131119523Y-104695714D01*
X131024285Y-104743333D01*
X130833809Y-104790952D01*
X130690952Y-104790952D01*
X130500476Y-104743333D01*
X130405238Y-104695714D01*
X130310000Y-104600476D01*
X130262380Y-104457619D01*
X130262380Y-104362380D01*
X130310000Y-104219523D01*
X130357619Y-104171904D01*
X133754761Y-106624285D02*
X133802380Y-106481428D01*
X133802380Y-106243333D01*
X133754761Y-106148095D01*
X133707142Y-106100476D01*
X133611904Y-106052857D01*
X133516666Y-106052857D01*
X133421428Y-106100476D01*
X133373809Y-106148095D01*
X133326190Y-106243333D01*
X133278571Y-106433809D01*
X133230952Y-106529047D01*
X133183333Y-106576666D01*
X133088095Y-106624285D01*
X132992857Y-106624285D01*
X132897619Y-106576666D01*
X132850000Y-106529047D01*
X132802380Y-106433809D01*
X132802380Y-106195714D01*
X132850000Y-106052857D01*
X133802380Y-105624285D02*
X132802380Y-105624285D01*
X132802380Y-105386190D01*
X132850000Y-105243333D01*
X132945238Y-105148095D01*
X133040476Y-105100476D01*
X133230952Y-105052857D01*
X133373809Y-105052857D01*
X133564285Y-105100476D01*
X133659523Y-105148095D01*
X133754761Y-105243333D01*
X133802380Y-105386190D01*
X133802380Y-105624285D01*
X133516666Y-104671904D02*
X133516666Y-104195714D01*
X133802380Y-104767142D02*
X132802380Y-104433809D01*
X133802380Y-104100476D01*
X136294761Y-106600476D02*
X136342380Y-106457619D01*
X136342380Y-106219523D01*
X136294761Y-106124285D01*
X136247142Y-106076666D01*
X136151904Y-106029047D01*
X136056666Y-106029047D01*
X135961428Y-106076666D01*
X135913809Y-106124285D01*
X135866190Y-106219523D01*
X135818571Y-106410000D01*
X135770952Y-106505238D01*
X135723333Y-106552857D01*
X135628095Y-106600476D01*
X135532857Y-106600476D01*
X135437619Y-106552857D01*
X135390000Y-106505238D01*
X135342380Y-106410000D01*
X135342380Y-106171904D01*
X135390000Y-106029047D01*
X136247142Y-105029047D02*
X136294761Y-105076666D01*
X136342380Y-105219523D01*
X136342380Y-105314761D01*
X136294761Y-105457619D01*
X136199523Y-105552857D01*
X136104285Y-105600476D01*
X135913809Y-105648095D01*
X135770952Y-105648095D01*
X135580476Y-105600476D01*
X135485238Y-105552857D01*
X135390000Y-105457619D01*
X135342380Y-105314761D01*
X135342380Y-105219523D01*
X135390000Y-105076666D01*
X135437619Y-105029047D01*
X136342380Y-104124285D02*
X136342380Y-104600476D01*
X135342380Y-104600476D01*
X138834761Y-106790952D02*
X138882380Y-106648095D01*
X138882380Y-106410000D01*
X138834761Y-106314761D01*
X138787142Y-106267142D01*
X138691904Y-106219523D01*
X138596666Y-106219523D01*
X138501428Y-106267142D01*
X138453809Y-106314761D01*
X138406190Y-106410000D01*
X138358571Y-106600476D01*
X138310952Y-106695714D01*
X138263333Y-106743333D01*
X138168095Y-106790952D01*
X138072857Y-106790952D01*
X137977619Y-106743333D01*
X137930000Y-106695714D01*
X137882380Y-106600476D01*
X137882380Y-106362380D01*
X137930000Y-106219523D01*
X138977619Y-105124285D02*
X138930000Y-105219523D01*
X138834761Y-105314761D01*
X138691904Y-105457619D01*
X138644285Y-105552857D01*
X138644285Y-105648095D01*
X138882380Y-105600476D02*
X138834761Y-105695714D01*
X138739523Y-105790952D01*
X138549047Y-105838571D01*
X138215714Y-105838571D01*
X138025238Y-105790952D01*
X137930000Y-105695714D01*
X137882380Y-105600476D01*
X137882380Y-105410000D01*
X137930000Y-105314761D01*
X138025238Y-105219523D01*
X138215714Y-105171904D01*
X138549047Y-105171904D01*
X138739523Y-105219523D01*
X138834761Y-105314761D01*
X138882380Y-105410000D01*
X138882380Y-105600476D01*
X137882380Y-104838571D02*
X138882380Y-104600476D01*
X138168095Y-104410000D01*
X138882380Y-104219523D01*
X137882380Y-103981428D01*
X141422380Y-106195714D02*
X140422380Y-106195714D01*
X141422380Y-105624285D01*
X140422380Y-105624285D01*
X141327142Y-104576666D02*
X141374761Y-104624285D01*
X141422380Y-104767142D01*
X141422380Y-104862380D01*
X141374761Y-105005238D01*
X141279523Y-105100476D01*
X141184285Y-105148095D01*
X140993809Y-105195714D01*
X140850952Y-105195714D01*
X140660476Y-105148095D01*
X140565238Y-105100476D01*
X140470000Y-105005238D01*
X140422380Y-104862380D01*
X140422380Y-104767142D01*
X140470000Y-104624285D01*
X140517619Y-104576666D01*
X137628571Y-68032380D02*
X137628571Y-68841904D01*
X137676190Y-68937142D01*
X137723809Y-68984761D01*
X137819047Y-69032380D01*
X138009523Y-69032380D01*
X138104761Y-68984761D01*
X138152380Y-68937142D01*
X138200000Y-68841904D01*
X138200000Y-68032380D01*
X138628571Y-68746666D02*
X139104761Y-68746666D01*
X138533333Y-69032380D02*
X138866666Y-68032380D01*
X139200000Y-69032380D01*
X140104761Y-69032380D02*
X139771428Y-68556190D01*
X139533333Y-69032380D02*
X139533333Y-68032380D01*
X139914285Y-68032380D01*
X140009523Y-68080000D01*
X140057142Y-68127619D01*
X140104761Y-68222857D01*
X140104761Y-68365714D01*
X140057142Y-68460952D01*
X140009523Y-68508571D01*
X139914285Y-68556190D01*
X139533333Y-68556190D01*
X140390476Y-68032380D02*
X140961904Y-68032380D01*
X140676190Y-69032380D02*
X140676190Y-68032380D01*
X141247619Y-68127619D02*
X141295238Y-68080000D01*
X141390476Y-68032380D01*
X141628571Y-68032380D01*
X141723809Y-68080000D01*
X141771428Y-68127619D01*
X141819047Y-68222857D01*
X141819047Y-68318095D01*
X141771428Y-68460952D01*
X141200000Y-69032380D01*
X141819047Y-69032380D01*
X142962380Y-78231904D02*
X142962380Y-77660476D01*
X143962380Y-77946190D02*
X142962380Y-77946190D01*
X142962380Y-77422380D02*
X143962380Y-76755714D01*
X142962380Y-76755714D02*
X143962380Y-77422380D01*
X143962380Y-75096666D02*
X143486190Y-75430000D01*
X143962380Y-75668095D02*
X142962380Y-75668095D01*
X142962380Y-75287142D01*
X143010000Y-75191904D01*
X143057619Y-75144285D01*
X143152857Y-75096666D01*
X143295714Y-75096666D01*
X143390952Y-75144285D01*
X143438571Y-75191904D01*
X143486190Y-75287142D01*
X143486190Y-75668095D01*
X142962380Y-74763333D02*
X143962380Y-74096666D01*
X142962380Y-74096666D02*
X143962380Y-74763333D01*
X143010000Y-80771904D02*
X142962380Y-80867142D01*
X142962380Y-81010000D01*
X143010000Y-81152857D01*
X143105238Y-81248095D01*
X143200476Y-81295714D01*
X143390952Y-81343333D01*
X143533809Y-81343333D01*
X143724285Y-81295714D01*
X143819523Y-81248095D01*
X143914761Y-81152857D01*
X143962380Y-81010000D01*
X143962380Y-80914761D01*
X143914761Y-80771904D01*
X143867142Y-80724285D01*
X143533809Y-80724285D01*
X143533809Y-80914761D01*
X143962380Y-80295714D02*
X142962380Y-80295714D01*
X143962380Y-79724285D01*
X142962380Y-79724285D01*
X143962380Y-79248095D02*
X142962380Y-79248095D01*
X142962380Y-79010000D01*
X143010000Y-78867142D01*
X143105238Y-78771904D01*
X143200476Y-78724285D01*
X143390952Y-78676666D01*
X143533809Y-78676666D01*
X143724285Y-78724285D01*
X143819523Y-78771904D01*
X143914761Y-78867142D01*
X143962380Y-79010000D01*
X143962380Y-79248095D01*
X142962380Y-72453333D02*
X143962380Y-72120000D01*
X142962380Y-71786666D01*
X143867142Y-70881904D02*
X143914761Y-70929523D01*
X143962380Y-71072380D01*
X143962380Y-71167619D01*
X143914761Y-71310476D01*
X143819523Y-71405714D01*
X143724285Y-71453333D01*
X143533809Y-71500952D01*
X143390952Y-71500952D01*
X143200476Y-71453333D01*
X143105238Y-71405714D01*
X143010000Y-71310476D01*
X142962380Y-71167619D01*
X142962380Y-71072380D01*
X143010000Y-70929523D01*
X143057619Y-70881904D01*
X143867142Y-69881904D02*
X143914761Y-69929523D01*
X143962380Y-70072380D01*
X143962380Y-70167619D01*
X143914761Y-70310476D01*
X143819523Y-70405714D01*
X143724285Y-70453333D01*
X143533809Y-70500952D01*
X143390952Y-70500952D01*
X143200476Y-70453333D01*
X143105238Y-70405714D01*
X143010000Y-70310476D01*
X142962380Y-70167619D01*
X142962380Y-70072380D01*
X143010000Y-69929523D01*
X143057619Y-69881904D01*
X187008095Y-77874761D02*
X187150952Y-77922380D01*
X187389047Y-77922380D01*
X187484285Y-77874761D01*
X187531904Y-77827142D01*
X187579523Y-77731904D01*
X187579523Y-77636666D01*
X187531904Y-77541428D01*
X187484285Y-77493809D01*
X187389047Y-77446190D01*
X187198571Y-77398571D01*
X187103333Y-77350952D01*
X187055714Y-77303333D01*
X187008095Y-77208095D01*
X187008095Y-77112857D01*
X187055714Y-77017619D01*
X187103333Y-76970000D01*
X187198571Y-76922380D01*
X187436666Y-76922380D01*
X187579523Y-76970000D01*
X188008095Y-77398571D02*
X188341428Y-77398571D01*
X188484285Y-77922380D02*
X188008095Y-77922380D01*
X188008095Y-76922380D01*
X188484285Y-76922380D01*
X188912857Y-77922380D02*
X188912857Y-76922380D01*
X189484285Y-77922380D01*
X189484285Y-76922380D01*
X189912857Y-77874761D02*
X190055714Y-77922380D01*
X190293809Y-77922380D01*
X190389047Y-77874761D01*
X190436666Y-77827142D01*
X190484285Y-77731904D01*
X190484285Y-77636666D01*
X190436666Y-77541428D01*
X190389047Y-77493809D01*
X190293809Y-77446190D01*
X190103333Y-77398571D01*
X190008095Y-77350952D01*
X189960476Y-77303333D01*
X189912857Y-77208095D01*
X189912857Y-77112857D01*
X189960476Y-77017619D01*
X190008095Y-76970000D01*
X190103333Y-76922380D01*
X190341428Y-76922380D01*
X190484285Y-76970000D01*
X190674761Y-78017619D02*
X191436666Y-78017619D01*
X191627142Y-77874761D02*
X191770000Y-77922380D01*
X192008095Y-77922380D01*
X192103333Y-77874761D01*
X192150952Y-77827142D01*
X192198571Y-77731904D01*
X192198571Y-77636666D01*
X192150952Y-77541428D01*
X192103333Y-77493809D01*
X192008095Y-77446190D01*
X191817619Y-77398571D01*
X191722380Y-77350952D01*
X191674761Y-77303333D01*
X191627142Y-77208095D01*
X191627142Y-77112857D01*
X191674761Y-77017619D01*
X191722380Y-76970000D01*
X191817619Y-76922380D01*
X192055714Y-76922380D01*
X192198571Y-76970000D01*
X192484285Y-76922380D02*
X193055714Y-76922380D01*
X192770000Y-77922380D02*
X192770000Y-76922380D01*
X193341428Y-77636666D02*
X193817619Y-77636666D01*
X193246190Y-77922380D02*
X193579523Y-76922380D01*
X193912857Y-77922380D01*
X194817619Y-77922380D02*
X194484285Y-77446190D01*
X194246190Y-77922380D02*
X194246190Y-76922380D01*
X194627142Y-76922380D01*
X194722380Y-76970000D01*
X194770000Y-77017619D01*
X194817619Y-77112857D01*
X194817619Y-77255714D01*
X194770000Y-77350952D01*
X194722380Y-77398571D01*
X194627142Y-77446190D01*
X194246190Y-77446190D01*
X195103333Y-76922380D02*
X195674761Y-76922380D01*
X195389047Y-77922380D02*
X195389047Y-76922380D01*
X196531904Y-77922380D02*
X195960476Y-77922380D01*
X196246190Y-77922380D02*
X196246190Y-76922380D01*
X196150952Y-77065238D01*
X196055714Y-77160476D01*
X195960476Y-77208095D01*
X183284761Y-82303809D02*
X183332380Y-82160952D01*
X183332380Y-81922857D01*
X183284761Y-81827619D01*
X183237142Y-81780000D01*
X183141904Y-81732380D01*
X183046666Y-81732380D01*
X182951428Y-81780000D01*
X182903809Y-81827619D01*
X182856190Y-81922857D01*
X182808571Y-82113333D01*
X182760952Y-82208571D01*
X182713333Y-82256190D01*
X182618095Y-82303809D01*
X182522857Y-82303809D01*
X182427619Y-82256190D01*
X182380000Y-82208571D01*
X182332380Y-82113333D01*
X182332380Y-81875238D01*
X182380000Y-81732380D01*
X183332380Y-81303809D02*
X182332380Y-81303809D01*
X182380000Y-80303809D02*
X182332380Y-80399047D01*
X182332380Y-80541904D01*
X182380000Y-80684761D01*
X182475238Y-80780000D01*
X182570476Y-80827619D01*
X182760952Y-80875238D01*
X182903809Y-80875238D01*
X183094285Y-80827619D01*
X183189523Y-80780000D01*
X183284761Y-80684761D01*
X183332380Y-80541904D01*
X183332380Y-80446666D01*
X183284761Y-80303809D01*
X183237142Y-80256190D01*
X182903809Y-80256190D01*
X182903809Y-80446666D01*
X182951428Y-93201904D02*
X182951428Y-92440000D01*
X183332380Y-92820952D02*
X182570476Y-92820952D01*
X183332380Y-91440000D02*
X183332380Y-92011428D01*
X183332380Y-91725714D02*
X182332380Y-91725714D01*
X182475238Y-91820952D01*
X182570476Y-91916190D01*
X182618095Y-92011428D01*
X182427619Y-91059047D02*
X182380000Y-91011428D01*
X182332380Y-90916190D01*
X182332380Y-90678095D01*
X182380000Y-90582857D01*
X182427619Y-90535238D01*
X182522857Y-90487619D01*
X182618095Y-90487619D01*
X182760952Y-90535238D01*
X183332380Y-91106666D01*
X183332380Y-90487619D01*
X182332380Y-90201904D02*
X183332380Y-89868571D01*
X182332380Y-89535238D01*
X182380000Y-87121904D02*
X182332380Y-87217142D01*
X182332380Y-87360000D01*
X182380000Y-87502857D01*
X182475238Y-87598095D01*
X182570476Y-87645714D01*
X182760952Y-87693333D01*
X182903809Y-87693333D01*
X183094285Y-87645714D01*
X183189523Y-87598095D01*
X183284761Y-87502857D01*
X183332380Y-87360000D01*
X183332380Y-87264761D01*
X183284761Y-87121904D01*
X183237142Y-87074285D01*
X182903809Y-87074285D01*
X182903809Y-87264761D01*
X183332380Y-86645714D02*
X182332380Y-86645714D01*
X183332380Y-86074285D01*
X182332380Y-86074285D01*
X183332380Y-85598095D02*
X182332380Y-85598095D01*
X182332380Y-85360000D01*
X182380000Y-85217142D01*
X182475238Y-85121904D01*
X182570476Y-85074285D01*
X182760952Y-85026666D01*
X182903809Y-85026666D01*
X183094285Y-85074285D01*
X183189523Y-85121904D01*
X183284761Y-85217142D01*
X183332380Y-85360000D01*
X183332380Y-85598095D01*
X187984285Y-112164761D02*
X188127142Y-112212380D01*
X188365238Y-112212380D01*
X188460476Y-112164761D01*
X188508095Y-112117142D01*
X188555714Y-112021904D01*
X188555714Y-111926666D01*
X188508095Y-111831428D01*
X188460476Y-111783809D01*
X188365238Y-111736190D01*
X188174761Y-111688571D01*
X188079523Y-111640952D01*
X188031904Y-111593333D01*
X187984285Y-111498095D01*
X187984285Y-111402857D01*
X188031904Y-111307619D01*
X188079523Y-111260000D01*
X188174761Y-111212380D01*
X188412857Y-111212380D01*
X188555714Y-111260000D01*
X188984285Y-111688571D02*
X189317619Y-111688571D01*
X189460476Y-112212380D02*
X188984285Y-112212380D01*
X188984285Y-111212380D01*
X189460476Y-111212380D01*
X189889047Y-112212380D02*
X189889047Y-111212380D01*
X190460476Y-112212380D01*
X190460476Y-111212380D01*
X190889047Y-112164761D02*
X191031904Y-112212380D01*
X191270000Y-112212380D01*
X191365238Y-112164761D01*
X191412857Y-112117142D01*
X191460476Y-112021904D01*
X191460476Y-111926666D01*
X191412857Y-111831428D01*
X191365238Y-111783809D01*
X191270000Y-111736190D01*
X191079523Y-111688571D01*
X190984285Y-111640952D01*
X190936666Y-111593333D01*
X190889047Y-111498095D01*
X190889047Y-111402857D01*
X190936666Y-111307619D01*
X190984285Y-111260000D01*
X191079523Y-111212380D01*
X191317619Y-111212380D01*
X191460476Y-111260000D01*
X191650952Y-112307619D02*
X192412857Y-112307619D01*
X192984285Y-111688571D02*
X192650952Y-111688571D01*
X192650952Y-112212380D02*
X192650952Y-111212380D01*
X193127142Y-111212380D01*
X193508095Y-112212380D02*
X193508095Y-111212380D01*
X193984285Y-112212380D02*
X193984285Y-111212380D01*
X194555714Y-112212380D01*
X194555714Y-111212380D01*
X195555714Y-112212380D02*
X194984285Y-112212380D01*
X195270000Y-112212380D02*
X195270000Y-111212380D01*
X195174761Y-111355238D01*
X195079523Y-111450476D01*
X194984285Y-111498095D01*
X183284761Y-98813809D02*
X183332380Y-98670952D01*
X183332380Y-98432857D01*
X183284761Y-98337619D01*
X183237142Y-98290000D01*
X183141904Y-98242380D01*
X183046666Y-98242380D01*
X182951428Y-98290000D01*
X182903809Y-98337619D01*
X182856190Y-98432857D01*
X182808571Y-98623333D01*
X182760952Y-98718571D01*
X182713333Y-98766190D01*
X182618095Y-98813809D01*
X182522857Y-98813809D01*
X182427619Y-98766190D01*
X182380000Y-98718571D01*
X182332380Y-98623333D01*
X182332380Y-98385238D01*
X182380000Y-98242380D01*
X183332380Y-97813809D02*
X182332380Y-97813809D01*
X182380000Y-96813809D02*
X182332380Y-96909047D01*
X182332380Y-97051904D01*
X182380000Y-97194761D01*
X182475238Y-97290000D01*
X182570476Y-97337619D01*
X182760952Y-97385238D01*
X182903809Y-97385238D01*
X183094285Y-97337619D01*
X183189523Y-97290000D01*
X183284761Y-97194761D01*
X183332380Y-97051904D01*
X183332380Y-96956666D01*
X183284761Y-96813809D01*
X183237142Y-96766190D01*
X182903809Y-96766190D01*
X182903809Y-96956666D01*
X182951428Y-109711904D02*
X182951428Y-108950000D01*
X183332380Y-109330952D02*
X182570476Y-109330952D01*
X183332380Y-107950000D02*
X183332380Y-108521428D01*
X183332380Y-108235714D02*
X182332380Y-108235714D01*
X182475238Y-108330952D01*
X182570476Y-108426190D01*
X182618095Y-108521428D01*
X182427619Y-107569047D02*
X182380000Y-107521428D01*
X182332380Y-107426190D01*
X182332380Y-107188095D01*
X182380000Y-107092857D01*
X182427619Y-107045238D01*
X182522857Y-106997619D01*
X182618095Y-106997619D01*
X182760952Y-107045238D01*
X183332380Y-107616666D01*
X183332380Y-106997619D01*
X182332380Y-106711904D02*
X183332380Y-106378571D01*
X182332380Y-106045238D01*
X182380000Y-103631904D02*
X182332380Y-103727142D01*
X182332380Y-103870000D01*
X182380000Y-104012857D01*
X182475238Y-104108095D01*
X182570476Y-104155714D01*
X182760952Y-104203333D01*
X182903809Y-104203333D01*
X183094285Y-104155714D01*
X183189523Y-104108095D01*
X183284761Y-104012857D01*
X183332380Y-103870000D01*
X183332380Y-103774761D01*
X183284761Y-103631904D01*
X183237142Y-103584285D01*
X182903809Y-103584285D01*
X182903809Y-103774761D01*
X183332380Y-103155714D02*
X182332380Y-103155714D01*
X183332380Y-102584285D01*
X182332380Y-102584285D01*
X183332380Y-102108095D02*
X182332380Y-102108095D01*
X182332380Y-101870000D01*
X182380000Y-101727142D01*
X182475238Y-101631904D01*
X182570476Y-101584285D01*
X182760952Y-101536666D01*
X182903809Y-101536666D01*
X183094285Y-101584285D01*
X183189523Y-101631904D01*
X183284761Y-101727142D01*
X183332380Y-101870000D01*
X183332380Y-102108095D01*
X119848571Y-118622380D02*
X119848571Y-119431904D01*
X119896190Y-119527142D01*
X119943809Y-119574761D01*
X120039047Y-119622380D01*
X120229523Y-119622380D01*
X120324761Y-119574761D01*
X120372380Y-119527142D01*
X120420000Y-119431904D01*
X120420000Y-118622380D01*
X120848571Y-119336666D02*
X121324761Y-119336666D01*
X120753333Y-119622380D02*
X121086666Y-118622380D01*
X121420000Y-119622380D01*
X122324761Y-119622380D02*
X121991428Y-119146190D01*
X121753333Y-119622380D02*
X121753333Y-118622380D01*
X122134285Y-118622380D01*
X122229523Y-118670000D01*
X122277142Y-118717619D01*
X122324761Y-118812857D01*
X122324761Y-118955714D01*
X122277142Y-119050952D01*
X122229523Y-119098571D01*
X122134285Y-119146190D01*
X121753333Y-119146190D01*
X122610476Y-118622380D02*
X123181904Y-118622380D01*
X122896190Y-119622380D02*
X122896190Y-118622380D01*
X124039047Y-119622380D02*
X123467619Y-119622380D01*
X123753333Y-119622380D02*
X123753333Y-118622380D01*
X123658095Y-118765238D01*
X123562857Y-118860476D01*
X123467619Y-118908095D01*
X117562380Y-115061904D02*
X117562380Y-114490476D01*
X118562380Y-114776190D02*
X117562380Y-114776190D01*
X117562380Y-114252380D02*
X118562380Y-113585714D01*
X117562380Y-113585714D02*
X118562380Y-114252380D01*
X118562380Y-111926666D02*
X118086190Y-112260000D01*
X118562380Y-112498095D02*
X117562380Y-112498095D01*
X117562380Y-112117142D01*
X117610000Y-112021904D01*
X117657619Y-111974285D01*
X117752857Y-111926666D01*
X117895714Y-111926666D01*
X117990952Y-111974285D01*
X118038571Y-112021904D01*
X118086190Y-112117142D01*
X118086190Y-112498095D01*
X117562380Y-111593333D02*
X118562380Y-110926666D01*
X117562380Y-110926666D02*
X118562380Y-111593333D01*
X117610000Y-118871904D02*
X117562380Y-118967142D01*
X117562380Y-119110000D01*
X117610000Y-119252857D01*
X117705238Y-119348095D01*
X117800476Y-119395714D01*
X117990952Y-119443333D01*
X118133809Y-119443333D01*
X118324285Y-119395714D01*
X118419523Y-119348095D01*
X118514761Y-119252857D01*
X118562380Y-119110000D01*
X118562380Y-119014761D01*
X118514761Y-118871904D01*
X118467142Y-118824285D01*
X118133809Y-118824285D01*
X118133809Y-119014761D01*
X118562380Y-118395714D02*
X117562380Y-118395714D01*
X118562380Y-117824285D01*
X117562380Y-117824285D01*
X118562380Y-117348095D02*
X117562380Y-117348095D01*
X117562380Y-117110000D01*
X117610000Y-116967142D01*
X117705238Y-116871904D01*
X117800476Y-116824285D01*
X117990952Y-116776666D01*
X118133809Y-116776666D01*
X118324285Y-116824285D01*
X118419523Y-116871904D01*
X118514761Y-116967142D01*
X118562380Y-117110000D01*
X118562380Y-117348095D01*
X117562380Y-109283333D02*
X118562380Y-108950000D01*
X117562380Y-108616666D01*
X118467142Y-107711904D02*
X118514761Y-107759523D01*
X118562380Y-107902380D01*
X118562380Y-107997619D01*
X118514761Y-108140476D01*
X118419523Y-108235714D01*
X118324285Y-108283333D01*
X118133809Y-108330952D01*
X117990952Y-108330952D01*
X117800476Y-108283333D01*
X117705238Y-108235714D01*
X117610000Y-108140476D01*
X117562380Y-107997619D01*
X117562380Y-107902380D01*
X117610000Y-107759523D01*
X117657619Y-107711904D01*
X118467142Y-106711904D02*
X118514761Y-106759523D01*
X118562380Y-106902380D01*
X118562380Y-106997619D01*
X118514761Y-107140476D01*
X118419523Y-107235714D01*
X118324285Y-107283333D01*
X118133809Y-107330952D01*
X117990952Y-107330952D01*
X117800476Y-107283333D01*
X117705238Y-107235714D01*
X117610000Y-107140476D01*
X117562380Y-106997619D01*
X117562380Y-106902380D01*
X117610000Y-106759523D01*
X117657619Y-106711904D01*
X106751904Y-107132380D02*
X106751904Y-106132380D01*
X106990000Y-106132380D01*
X107132857Y-106180000D01*
X107228095Y-106275238D01*
X107275714Y-106370476D01*
X107323333Y-106560952D01*
X107323333Y-106703809D01*
X107275714Y-106894285D01*
X107228095Y-106989523D01*
X107132857Y-107084761D01*
X106990000Y-107132380D01*
X106751904Y-107132380D01*
X107751904Y-107132380D02*
X107751904Y-106465714D01*
X107751904Y-106132380D02*
X107704285Y-106180000D01*
X107751904Y-106227619D01*
X107799523Y-106180000D01*
X107751904Y-106132380D01*
X107751904Y-106227619D01*
X108180476Y-107084761D02*
X108275714Y-107132380D01*
X108466190Y-107132380D01*
X108561428Y-107084761D01*
X108609047Y-106989523D01*
X108609047Y-106941904D01*
X108561428Y-106846666D01*
X108466190Y-106799047D01*
X108323333Y-106799047D01*
X108228095Y-106751428D01*
X108180476Y-106656190D01*
X108180476Y-106608571D01*
X108228095Y-106513333D01*
X108323333Y-106465714D01*
X108466190Y-106465714D01*
X108561428Y-106513333D01*
X109037619Y-106465714D02*
X109037619Y-107465714D01*
X109037619Y-106513333D02*
X109132857Y-106465714D01*
X109323333Y-106465714D01*
X109418571Y-106513333D01*
X109466190Y-106560952D01*
X109513809Y-106656190D01*
X109513809Y-106941904D01*
X109466190Y-107037142D01*
X109418571Y-107084761D01*
X109323333Y-107132380D01*
X109132857Y-107132380D01*
X109037619Y-107084761D01*
X109704285Y-107227619D02*
X110466190Y-107227619D01*
X111180476Y-107132380D02*
X110704285Y-107132380D01*
X110704285Y-106132380D01*
X111513809Y-107132380D02*
X111513809Y-106465714D01*
X111513809Y-106132380D02*
X111466190Y-106180000D01*
X111513809Y-106227619D01*
X111561428Y-106180000D01*
X111513809Y-106132380D01*
X111513809Y-106227619D01*
X111990000Y-106465714D02*
X111990000Y-107132380D01*
X111990000Y-106560952D02*
X112037619Y-106513333D01*
X112132857Y-106465714D01*
X112275714Y-106465714D01*
X112370952Y-106513333D01*
X112418571Y-106608571D01*
X112418571Y-107132380D01*
X113275714Y-107084761D02*
X113180476Y-107132380D01*
X112990000Y-107132380D01*
X112894761Y-107084761D01*
X112847142Y-106989523D01*
X112847142Y-106608571D01*
X112894761Y-106513333D01*
X112990000Y-106465714D01*
X113180476Y-106465714D01*
X113275714Y-106513333D01*
X113323333Y-106608571D01*
X113323333Y-106703809D01*
X112847142Y-106799047D01*
X114275714Y-107132380D02*
X113704285Y-107132380D01*
X113990000Y-107132380D02*
X113990000Y-106132380D01*
X113894761Y-106275238D01*
X113799523Y-106370476D01*
X113704285Y-106418095D01*
X115927142Y-113625238D02*
X115974761Y-113672857D01*
X116022380Y-113815714D01*
X116022380Y-113910952D01*
X115974761Y-114053809D01*
X115879523Y-114149047D01*
X115784285Y-114196666D01*
X115593809Y-114244285D01*
X115450952Y-114244285D01*
X115260476Y-114196666D01*
X115165238Y-114149047D01*
X115070000Y-114053809D01*
X115022380Y-113910952D01*
X115022380Y-113815714D01*
X115070000Y-113672857D01*
X115117619Y-113625238D01*
X116022380Y-112720476D02*
X116022380Y-113196666D01*
X115022380Y-113196666D01*
X116022380Y-112387142D02*
X115022380Y-112387142D01*
X116022380Y-111815714D02*
X115450952Y-112244285D01*
X115022380Y-111815714D02*
X115593809Y-112387142D01*
X113387142Y-113196666D02*
X113434761Y-113244285D01*
X113482380Y-113387142D01*
X113482380Y-113482380D01*
X113434761Y-113625238D01*
X113339523Y-113720476D01*
X113244285Y-113768095D01*
X113053809Y-113815714D01*
X112910952Y-113815714D01*
X112720476Y-113768095D01*
X112625238Y-113720476D01*
X112530000Y-113625238D01*
X112482380Y-113482380D01*
X112482380Y-113387142D01*
X112530000Y-113244285D01*
X112577619Y-113196666D01*
X113434761Y-112815714D02*
X113482380Y-112672857D01*
X113482380Y-112434761D01*
X113434761Y-112339523D01*
X113387142Y-112291904D01*
X113291904Y-112244285D01*
X113196666Y-112244285D01*
X113101428Y-112291904D01*
X113053809Y-112339523D01*
X113006190Y-112434761D01*
X112958571Y-112625238D01*
X112910952Y-112720476D01*
X112863333Y-112768095D01*
X112768095Y-112815714D01*
X112672857Y-112815714D01*
X112577619Y-112768095D01*
X112530000Y-112720476D01*
X112482380Y-112625238D01*
X112482380Y-112387142D01*
X112530000Y-112244285D01*
X110942380Y-114601428D02*
X109942380Y-114601428D01*
X110656666Y-114268095D01*
X109942380Y-113934761D01*
X110942380Y-113934761D01*
X109942380Y-113268095D02*
X109942380Y-113077619D01*
X109990000Y-112982380D01*
X110085238Y-112887142D01*
X110275714Y-112839523D01*
X110609047Y-112839523D01*
X110799523Y-112887142D01*
X110894761Y-112982380D01*
X110942380Y-113077619D01*
X110942380Y-113268095D01*
X110894761Y-113363333D01*
X110799523Y-113458571D01*
X110609047Y-113506190D01*
X110275714Y-113506190D01*
X110085238Y-113458571D01*
X109990000Y-113363333D01*
X109942380Y-113268095D01*
X110894761Y-112458571D02*
X110942380Y-112315714D01*
X110942380Y-112077619D01*
X110894761Y-111982380D01*
X110847142Y-111934761D01*
X110751904Y-111887142D01*
X110656666Y-111887142D01*
X110561428Y-111934761D01*
X110513809Y-111982380D01*
X110466190Y-112077619D01*
X110418571Y-112268095D01*
X110370952Y-112363333D01*
X110323333Y-112410952D01*
X110228095Y-112458571D01*
X110132857Y-112458571D01*
X110037619Y-112410952D01*
X109990000Y-112363333D01*
X109942380Y-112268095D01*
X109942380Y-112030000D01*
X109990000Y-111887142D01*
X110942380Y-111458571D02*
X109942380Y-111458571D01*
X107450000Y-113791904D02*
X107402380Y-113887142D01*
X107402380Y-114030000D01*
X107450000Y-114172857D01*
X107545238Y-114268095D01*
X107640476Y-114315714D01*
X107830952Y-114363333D01*
X107973809Y-114363333D01*
X108164285Y-114315714D01*
X108259523Y-114268095D01*
X108354761Y-114172857D01*
X108402380Y-114030000D01*
X108402380Y-113934761D01*
X108354761Y-113791904D01*
X108307142Y-113744285D01*
X107973809Y-113744285D01*
X107973809Y-113934761D01*
X108402380Y-113315714D02*
X107402380Y-113315714D01*
X108402380Y-112744285D01*
X107402380Y-112744285D01*
X108402380Y-112268095D02*
X107402380Y-112268095D01*
X107402380Y-112030000D01*
X107450000Y-111887142D01*
X107545238Y-111791904D01*
X107640476Y-111744285D01*
X107830952Y-111696666D01*
X107973809Y-111696666D01*
X108164285Y-111744285D01*
X108259523Y-111791904D01*
X108354761Y-111887142D01*
X108402380Y-112030000D01*
X108402380Y-112268095D01*
X104862380Y-114363333D02*
X105862380Y-114030000D01*
X104862380Y-113696666D01*
X105767142Y-112791904D02*
X105814761Y-112839523D01*
X105862380Y-112982380D01*
X105862380Y-113077619D01*
X105814761Y-113220476D01*
X105719523Y-113315714D01*
X105624285Y-113363333D01*
X105433809Y-113410952D01*
X105290952Y-113410952D01*
X105100476Y-113363333D01*
X105005238Y-113315714D01*
X104910000Y-113220476D01*
X104862380Y-113077619D01*
X104862380Y-112982380D01*
X104910000Y-112839523D01*
X104957619Y-112791904D01*
X105767142Y-111791904D02*
X105814761Y-111839523D01*
X105862380Y-111982380D01*
X105862380Y-112077619D01*
X105814761Y-112220476D01*
X105719523Y-112315714D01*
X105624285Y-112363333D01*
X105433809Y-112410952D01*
X105290952Y-112410952D01*
X105100476Y-112363333D01*
X105005238Y-112315714D01*
X104910000Y-112220476D01*
X104862380Y-112077619D01*
X104862380Y-111982380D01*
X104910000Y-111839523D01*
X104957619Y-111791904D01*
X129460952Y-80462380D02*
X129460952Y-79462380D01*
X129699047Y-79462380D01*
X129841904Y-79510000D01*
X129937142Y-79605238D01*
X129984761Y-79700476D01*
X130032380Y-79890952D01*
X130032380Y-80033809D01*
X129984761Y-80224285D01*
X129937142Y-80319523D01*
X129841904Y-80414761D01*
X129699047Y-80462380D01*
X129460952Y-80462380D01*
X130460952Y-80462380D02*
X130460952Y-79795714D01*
X130460952Y-79462380D02*
X130413333Y-79510000D01*
X130460952Y-79557619D01*
X130508571Y-79510000D01*
X130460952Y-79462380D01*
X130460952Y-79557619D01*
X130889523Y-80414761D02*
X130984761Y-80462380D01*
X131175238Y-80462380D01*
X131270476Y-80414761D01*
X131318095Y-80319523D01*
X131318095Y-80271904D01*
X131270476Y-80176666D01*
X131175238Y-80129047D01*
X131032380Y-80129047D01*
X130937142Y-80081428D01*
X130889523Y-79986190D01*
X130889523Y-79938571D01*
X130937142Y-79843333D01*
X131032380Y-79795714D01*
X131175238Y-79795714D01*
X131270476Y-79843333D01*
X131746666Y-79795714D02*
X131746666Y-80795714D01*
X131746666Y-79843333D02*
X131841904Y-79795714D01*
X132032380Y-79795714D01*
X132127619Y-79843333D01*
X132175238Y-79890952D01*
X132222857Y-79986190D01*
X132222857Y-80271904D01*
X132175238Y-80367142D01*
X132127619Y-80414761D01*
X132032380Y-80462380D01*
X131841904Y-80462380D01*
X131746666Y-80414761D01*
X132413333Y-80557619D02*
X133175238Y-80557619D01*
X133889523Y-80462380D02*
X133413333Y-80462380D01*
X133413333Y-79462380D01*
X134175238Y-79557619D02*
X134222857Y-79510000D01*
X134318095Y-79462380D01*
X134556190Y-79462380D01*
X134651428Y-79510000D01*
X134699047Y-79557619D01*
X134746666Y-79652857D01*
X134746666Y-79748095D01*
X134699047Y-79890952D01*
X134127619Y-80462380D01*
X134746666Y-80462380D01*
X127357142Y-74255238D02*
X127404761Y-74302857D01*
X127452380Y-74445714D01*
X127452380Y-74540952D01*
X127404761Y-74683809D01*
X127309523Y-74779047D01*
X127214285Y-74826666D01*
X127023809Y-74874285D01*
X126880952Y-74874285D01*
X126690476Y-74826666D01*
X126595238Y-74779047D01*
X126500000Y-74683809D01*
X126452380Y-74540952D01*
X126452380Y-74445714D01*
X126500000Y-74302857D01*
X126547619Y-74255238D01*
X127452380Y-73350476D02*
X127452380Y-73826666D01*
X126452380Y-73826666D01*
X127452380Y-73017142D02*
X126452380Y-73017142D01*
X127452380Y-72445714D02*
X126880952Y-72874285D01*
X126452380Y-72445714D02*
X127023809Y-73017142D01*
X129897142Y-73826666D02*
X129944761Y-73874285D01*
X129992380Y-74017142D01*
X129992380Y-74112380D01*
X129944761Y-74255238D01*
X129849523Y-74350476D01*
X129754285Y-74398095D01*
X129563809Y-74445714D01*
X129420952Y-74445714D01*
X129230476Y-74398095D01*
X129135238Y-74350476D01*
X129040000Y-74255238D01*
X128992380Y-74112380D01*
X128992380Y-74017142D01*
X129040000Y-73874285D01*
X129087619Y-73826666D01*
X129944761Y-73445714D02*
X129992380Y-73302857D01*
X129992380Y-73064761D01*
X129944761Y-72969523D01*
X129897142Y-72921904D01*
X129801904Y-72874285D01*
X129706666Y-72874285D01*
X129611428Y-72921904D01*
X129563809Y-72969523D01*
X129516190Y-73064761D01*
X129468571Y-73255238D01*
X129420952Y-73350476D01*
X129373333Y-73398095D01*
X129278095Y-73445714D01*
X129182857Y-73445714D01*
X129087619Y-73398095D01*
X129040000Y-73350476D01*
X128992380Y-73255238D01*
X128992380Y-73017142D01*
X129040000Y-72874285D01*
X132532380Y-75231428D02*
X131532380Y-75231428D01*
X132246666Y-74898095D01*
X131532380Y-74564761D01*
X132532380Y-74564761D01*
X131532380Y-73898095D02*
X131532380Y-73707619D01*
X131580000Y-73612380D01*
X131675238Y-73517142D01*
X131865714Y-73469523D01*
X132199047Y-73469523D01*
X132389523Y-73517142D01*
X132484761Y-73612380D01*
X132532380Y-73707619D01*
X132532380Y-73898095D01*
X132484761Y-73993333D01*
X132389523Y-74088571D01*
X132199047Y-74136190D01*
X131865714Y-74136190D01*
X131675238Y-74088571D01*
X131580000Y-73993333D01*
X131532380Y-73898095D01*
X132484761Y-73088571D02*
X132532380Y-72945714D01*
X132532380Y-72707619D01*
X132484761Y-72612380D01*
X132437142Y-72564761D01*
X132341904Y-72517142D01*
X132246666Y-72517142D01*
X132151428Y-72564761D01*
X132103809Y-72612380D01*
X132056190Y-72707619D01*
X132008571Y-72898095D01*
X131960952Y-72993333D01*
X131913333Y-73040952D01*
X131818095Y-73088571D01*
X131722857Y-73088571D01*
X131627619Y-73040952D01*
X131580000Y-72993333D01*
X131532380Y-72898095D01*
X131532380Y-72660000D01*
X131580000Y-72517142D01*
X132532380Y-72088571D02*
X131532380Y-72088571D01*
X134120000Y-74421904D02*
X134072380Y-74517142D01*
X134072380Y-74660000D01*
X134120000Y-74802857D01*
X134215238Y-74898095D01*
X134310476Y-74945714D01*
X134500952Y-74993333D01*
X134643809Y-74993333D01*
X134834285Y-74945714D01*
X134929523Y-74898095D01*
X135024761Y-74802857D01*
X135072380Y-74660000D01*
X135072380Y-74564761D01*
X135024761Y-74421904D01*
X134977142Y-74374285D01*
X134643809Y-74374285D01*
X134643809Y-74564761D01*
X135072380Y-73945714D02*
X134072380Y-73945714D01*
X135072380Y-73374285D01*
X134072380Y-73374285D01*
X135072380Y-72898095D02*
X134072380Y-72898095D01*
X134072380Y-72660000D01*
X134120000Y-72517142D01*
X134215238Y-72421904D01*
X134310476Y-72374285D01*
X134500952Y-72326666D01*
X134643809Y-72326666D01*
X134834285Y-72374285D01*
X134929523Y-72421904D01*
X135024761Y-72517142D01*
X135072380Y-72660000D01*
X135072380Y-72898095D01*
X136612380Y-74993333D02*
X137612380Y-74660000D01*
X136612380Y-74326666D01*
X137517142Y-73421904D02*
X137564761Y-73469523D01*
X137612380Y-73612380D01*
X137612380Y-73707619D01*
X137564761Y-73850476D01*
X137469523Y-73945714D01*
X137374285Y-73993333D01*
X137183809Y-74040952D01*
X137040952Y-74040952D01*
X136850476Y-73993333D01*
X136755238Y-73945714D01*
X136660000Y-73850476D01*
X136612380Y-73707619D01*
X136612380Y-73612380D01*
X136660000Y-73469523D01*
X136707619Y-73421904D01*
X137517142Y-72421904D02*
X137564761Y-72469523D01*
X137612380Y-72612380D01*
X137612380Y-72707619D01*
X137564761Y-72850476D01*
X137469523Y-72945714D01*
X137374285Y-72993333D01*
X137183809Y-73040952D01*
X137040952Y-73040952D01*
X136850476Y-72993333D01*
X136755238Y-72945714D01*
X136660000Y-72850476D01*
X136612380Y-72707619D01*
X136612380Y-72612380D01*
X136660000Y-72469523D01*
X136707619Y-72421904D01*
X126087142Y-71326666D02*
X126134761Y-71374285D01*
X126182380Y-71517142D01*
X126182380Y-71612380D01*
X126134761Y-71755238D01*
X126039523Y-71850476D01*
X125944285Y-71898095D01*
X125753809Y-71945714D01*
X125610952Y-71945714D01*
X125420476Y-71898095D01*
X125325238Y-71850476D01*
X125230000Y-71755238D01*
X125182380Y-71612380D01*
X125182380Y-71517142D01*
X125230000Y-71374285D01*
X125277619Y-71326666D01*
X126182380Y-70374285D02*
X126182380Y-70945714D01*
X126182380Y-70660000D02*
X125182380Y-70660000D01*
X125325238Y-70755238D01*
X125420476Y-70850476D01*
X125468095Y-70945714D01*
X176987142Y-72596666D02*
X177034761Y-72644285D01*
X177082380Y-72787142D01*
X177082380Y-72882380D01*
X177034761Y-73025238D01*
X176939523Y-73120476D01*
X176844285Y-73168095D01*
X176653809Y-73215714D01*
X176510952Y-73215714D01*
X176320476Y-73168095D01*
X176225238Y-73120476D01*
X176130000Y-73025238D01*
X176082380Y-72882380D01*
X176082380Y-72787142D01*
X176130000Y-72644285D01*
X176177619Y-72596666D01*
X176415714Y-71739523D02*
X177082380Y-71739523D01*
X176034761Y-71977619D02*
X176749047Y-72215714D01*
X176749047Y-71596666D01*
X173815714Y-61582380D02*
X173482380Y-61106190D01*
X173244285Y-61582380D02*
X173244285Y-60582380D01*
X173625238Y-60582380D01*
X173720476Y-60630000D01*
X173768095Y-60677619D01*
X173815714Y-60772857D01*
X173815714Y-60915714D01*
X173768095Y-61010952D01*
X173720476Y-61058571D01*
X173625238Y-61106190D01*
X173244285Y-61106190D01*
X174006190Y-61677619D02*
X174768095Y-61677619D01*
X174958571Y-61534761D02*
X175101428Y-61582380D01*
X175339523Y-61582380D01*
X175434761Y-61534761D01*
X175482380Y-61487142D01*
X175530000Y-61391904D01*
X175530000Y-61296666D01*
X175482380Y-61201428D01*
X175434761Y-61153809D01*
X175339523Y-61106190D01*
X175149047Y-61058571D01*
X175053809Y-61010952D01*
X175006190Y-60963333D01*
X174958571Y-60868095D01*
X174958571Y-60772857D01*
X175006190Y-60677619D01*
X175053809Y-60630000D01*
X175149047Y-60582380D01*
X175387142Y-60582380D01*
X175530000Y-60630000D01*
X175815714Y-60582380D02*
X176387142Y-60582380D01*
X176101428Y-61582380D02*
X176101428Y-60582380D01*
X176672857Y-61296666D02*
X177149047Y-61296666D01*
X176577619Y-61582380D02*
X176910952Y-60582380D01*
X177244285Y-61582380D01*
X178149047Y-61582380D02*
X177815714Y-61106190D01*
X177577619Y-61582380D02*
X177577619Y-60582380D01*
X177958571Y-60582380D01*
X178053809Y-60630000D01*
X178101428Y-60677619D01*
X178149047Y-60772857D01*
X178149047Y-60915714D01*
X178101428Y-61010952D01*
X178053809Y-61058571D01*
X177958571Y-61106190D01*
X177577619Y-61106190D01*
X178434761Y-60582380D02*
X179006190Y-60582380D01*
X178720476Y-61582380D02*
X178720476Y-60582380D01*
X179863333Y-61582380D02*
X179291904Y-61582380D01*
X179577619Y-61582380D02*
X179577619Y-60582380D01*
X179482380Y-60725238D01*
X179387142Y-60820476D01*
X179291904Y-60868095D01*
X145485953Y-106897381D02*
X145485953Y-107611667D01*
X145438334Y-107754524D01*
X145343096Y-107849762D01*
X145200239Y-107897381D01*
X145105001Y-107897381D01*
X146438334Y-107897381D02*
X145962143Y-107897381D01*
X145962143Y-106897381D01*
X146628810Y-106897381D02*
X147200239Y-106897381D01*
X146914524Y-107897381D02*
X146914524Y-106897381D01*
X148057381Y-107897381D02*
X147485953Y-107897381D01*
X147771667Y-107897381D02*
X147771667Y-106897381D01*
X147676429Y-107040239D01*
X147581191Y-107135477D01*
X147485953Y-107183096D01*
X165822380Y-106578304D02*
X166631904Y-106578304D01*
X166727142Y-106530685D01*
X166774761Y-106483066D01*
X166822380Y-106387828D01*
X166822380Y-106197352D01*
X166774761Y-106102114D01*
X166727142Y-106054495D01*
X166631904Y-106006876D01*
X165822380Y-106006876D01*
X166822380Y-105006876D02*
X166822380Y-105578304D01*
X166822380Y-105292590D02*
X165822380Y-105292590D01*
X165965238Y-105387828D01*
X166060476Y-105483066D01*
X166108095Y-105578304D01*
X169632380Y-109220000D02*
X169870476Y-109220000D01*
X169775238Y-109458095D02*
X169870476Y-109220000D01*
X169775238Y-108981904D01*
X170060952Y-109362857D02*
X169870476Y-109220000D01*
X170060952Y-109077142D01*
X168513333Y-87752380D02*
X168037142Y-87752380D01*
X168037142Y-86752380D01*
X169370476Y-87752380D02*
X168799047Y-87752380D01*
X169084761Y-87752380D02*
X169084761Y-86752380D01*
X168989523Y-86895238D01*
X168894285Y-86990476D01*
X168799047Y-87038095D01*
X167433333Y-74057142D02*
X167385714Y-74104761D01*
X167242857Y-74152380D01*
X167147619Y-74152380D01*
X167004761Y-74104761D01*
X166909523Y-74009523D01*
X166861904Y-73914285D01*
X166814285Y-73723809D01*
X166814285Y-73580952D01*
X166861904Y-73390476D01*
X166909523Y-73295238D01*
X167004761Y-73200000D01*
X167147619Y-73152380D01*
X167242857Y-73152380D01*
X167385714Y-73200000D01*
X167433333Y-73247619D01*
X167766666Y-73152380D02*
X168385714Y-73152380D01*
X168052380Y-73533333D01*
X168195238Y-73533333D01*
X168290476Y-73580952D01*
X168338095Y-73628571D01*
X168385714Y-73723809D01*
X168385714Y-73961904D01*
X168338095Y-74057142D01*
X168290476Y-74104761D01*
X168195238Y-74152380D01*
X167909523Y-74152380D01*
X167814285Y-74104761D01*
X167766666Y-74057142D01*
X172553333Y-122277142D02*
X172505714Y-122324761D01*
X172362857Y-122372380D01*
X172267619Y-122372380D01*
X172124761Y-122324761D01*
X172029523Y-122229523D01*
X171981904Y-122134285D01*
X171934285Y-121943809D01*
X171934285Y-121800952D01*
X171981904Y-121610476D01*
X172029523Y-121515238D01*
X172124761Y-121420000D01*
X172267619Y-121372380D01*
X172362857Y-121372380D01*
X172505714Y-121420000D01*
X172553333Y-121467619D01*
X172934285Y-121467619D02*
X172981904Y-121420000D01*
X173077142Y-121372380D01*
X173315238Y-121372380D01*
X173410476Y-121420000D01*
X173458095Y-121467619D01*
X173505714Y-121562857D01*
X173505714Y-121658095D01*
X173458095Y-121800952D01*
X172886666Y-122372380D01*
X173505714Y-122372380D01*
X162842380Y-88788571D02*
X162366190Y-89121904D01*
X162842380Y-89360000D02*
X161842380Y-89360000D01*
X161842380Y-88979047D01*
X161890000Y-88883809D01*
X161937619Y-88836190D01*
X162032857Y-88788571D01*
X162175714Y-88788571D01*
X162270952Y-88836190D01*
X162318571Y-88883809D01*
X162366190Y-88979047D01*
X162366190Y-89360000D01*
X162937619Y-88598095D02*
X162937619Y-87836190D01*
X162842380Y-87598095D02*
X161842380Y-87598095D01*
X161842380Y-87217142D01*
X161890000Y-87121904D01*
X161937619Y-87074285D01*
X162032857Y-87026666D01*
X162175714Y-87026666D01*
X162270952Y-87074285D01*
X162318571Y-87121904D01*
X162366190Y-87217142D01*
X162366190Y-87598095D01*
X162842380Y-86598095D02*
X161842380Y-86598095D01*
X161842380Y-86360000D01*
X161890000Y-86217142D01*
X161985238Y-86121904D01*
X162080476Y-86074285D01*
X162270952Y-86026666D01*
X162413809Y-86026666D01*
X162604285Y-86074285D01*
X162699523Y-86121904D01*
X162794761Y-86217142D01*
X162842380Y-86360000D01*
X162842380Y-86598095D01*
X162937619Y-85836190D02*
X162937619Y-85074285D01*
X162318571Y-84502857D02*
X162366190Y-84360000D01*
X162413809Y-84312380D01*
X162509047Y-84264761D01*
X162651904Y-84264761D01*
X162747142Y-84312380D01*
X162794761Y-84360000D01*
X162842380Y-84455238D01*
X162842380Y-84836190D01*
X161842380Y-84836190D01*
X161842380Y-84502857D01*
X161890000Y-84407619D01*
X161937619Y-84360000D01*
X162032857Y-84312380D01*
X162128095Y-84312380D01*
X162223333Y-84360000D01*
X162270952Y-84407619D01*
X162318571Y-84502857D01*
X162318571Y-84836190D01*
X161937619Y-83883809D02*
X161890000Y-83836190D01*
X161842380Y-83740952D01*
X161842380Y-83502857D01*
X161890000Y-83407619D01*
X161937619Y-83360000D01*
X162032857Y-83312380D01*
X162128095Y-83312380D01*
X162270952Y-83360000D01*
X162842380Y-83931428D01*
X162842380Y-83312380D01*
X144891428Y-91892380D02*
X144558095Y-91416190D01*
X144320000Y-91892380D02*
X144320000Y-90892380D01*
X144700952Y-90892380D01*
X144796190Y-90940000D01*
X144843809Y-90987619D01*
X144891428Y-91082857D01*
X144891428Y-91225714D01*
X144843809Y-91320952D01*
X144796190Y-91368571D01*
X144700952Y-91416190D01*
X144320000Y-91416190D01*
X145081904Y-91987619D02*
X145843809Y-91987619D01*
X146081904Y-91892380D02*
X146081904Y-90892380D01*
X146462857Y-90892380D01*
X146558095Y-90940000D01*
X146605714Y-90987619D01*
X146653333Y-91082857D01*
X146653333Y-91225714D01*
X146605714Y-91320952D01*
X146558095Y-91368571D01*
X146462857Y-91416190D01*
X146081904Y-91416190D01*
X147081904Y-91892380D02*
X147081904Y-90892380D01*
X147320000Y-90892380D01*
X147462857Y-90940000D01*
X147558095Y-91035238D01*
X147605714Y-91130476D01*
X147653333Y-91320952D01*
X147653333Y-91463809D01*
X147605714Y-91654285D01*
X147558095Y-91749523D01*
X147462857Y-91844761D01*
X147320000Y-91892380D01*
X147081904Y-91892380D01*
X147843809Y-91987619D02*
X148605714Y-91987619D01*
X149177142Y-91368571D02*
X149320000Y-91416190D01*
X149367619Y-91463809D01*
X149415238Y-91559047D01*
X149415238Y-91701904D01*
X149367619Y-91797142D01*
X149320000Y-91844761D01*
X149224761Y-91892380D01*
X148843809Y-91892380D01*
X148843809Y-90892380D01*
X149177142Y-90892380D01*
X149272380Y-90940000D01*
X149320000Y-90987619D01*
X149367619Y-91082857D01*
X149367619Y-91178095D01*
X149320000Y-91273333D01*
X149272380Y-91320952D01*
X149177142Y-91368571D01*
X148843809Y-91368571D01*
X150367619Y-91892380D02*
X149796190Y-91892380D01*
X150081904Y-91892380D02*
X150081904Y-90892380D01*
X149986666Y-91035238D01*
X149891428Y-91130476D01*
X149796190Y-91178095D01*
X180792380Y-104782857D02*
X180316190Y-105116190D01*
X180792380Y-105354285D02*
X179792380Y-105354285D01*
X179792380Y-104973333D01*
X179840000Y-104878095D01*
X179887619Y-104830476D01*
X179982857Y-104782857D01*
X180125714Y-104782857D01*
X180220952Y-104830476D01*
X180268571Y-104878095D01*
X180316190Y-104973333D01*
X180316190Y-105354285D01*
X179792380Y-104449523D02*
X179792380Y-103830476D01*
X180173333Y-104163809D01*
X180173333Y-104020952D01*
X180220952Y-103925714D01*
X180268571Y-103878095D01*
X180363809Y-103830476D01*
X180601904Y-103830476D01*
X180697142Y-103878095D01*
X180744761Y-103925714D01*
X180792380Y-104020952D01*
X180792380Y-104306666D01*
X180744761Y-104401904D01*
X180697142Y-104449523D01*
X180792380Y-103354285D02*
X180792380Y-103163809D01*
X180744761Y-103068571D01*
X180697142Y-103020952D01*
X180554285Y-102925714D01*
X180363809Y-102878095D01*
X179982857Y-102878095D01*
X179887619Y-102925714D01*
X179840000Y-102973333D01*
X179792380Y-103068571D01*
X179792380Y-103259047D01*
X179840000Y-103354285D01*
X179887619Y-103401904D01*
X179982857Y-103449523D01*
X180220952Y-103449523D01*
X180316190Y-103401904D01*
X180363809Y-103354285D01*
X180411428Y-103259047D01*
X180411428Y-103068571D01*
X180363809Y-102973333D01*
X180316190Y-102925714D01*
X180220952Y-102878095D01*
X176982380Y-104782857D02*
X176506190Y-105116190D01*
X176982380Y-105354285D02*
X175982380Y-105354285D01*
X175982380Y-104973333D01*
X176030000Y-104878095D01*
X176077619Y-104830476D01*
X176172857Y-104782857D01*
X176315714Y-104782857D01*
X176410952Y-104830476D01*
X176458571Y-104878095D01*
X176506190Y-104973333D01*
X176506190Y-105354285D01*
X175982380Y-104449523D02*
X175982380Y-103830476D01*
X176363333Y-104163809D01*
X176363333Y-104020952D01*
X176410952Y-103925714D01*
X176458571Y-103878095D01*
X176553809Y-103830476D01*
X176791904Y-103830476D01*
X176887142Y-103878095D01*
X176934761Y-103925714D01*
X176982380Y-104020952D01*
X176982380Y-104306666D01*
X176934761Y-104401904D01*
X176887142Y-104449523D01*
X175982380Y-103497142D02*
X175982380Y-102878095D01*
X176363333Y-103211428D01*
X176363333Y-103068571D01*
X176410952Y-102973333D01*
X176458571Y-102925714D01*
X176553809Y-102878095D01*
X176791904Y-102878095D01*
X176887142Y-102925714D01*
X176934761Y-102973333D01*
X176982380Y-103068571D01*
X176982380Y-103354285D01*
X176934761Y-103449523D01*
X176887142Y-103497142D01*
X149987142Y-73798571D02*
X150130000Y-73846190D01*
X150177619Y-73893809D01*
X150225238Y-73989047D01*
X150225238Y-74131904D01*
X150177619Y-74227142D01*
X150130000Y-74274761D01*
X150034761Y-74322380D01*
X149653809Y-74322380D01*
X149653809Y-73322380D01*
X149987142Y-73322380D01*
X150082380Y-73370000D01*
X150130000Y-73417619D01*
X150177619Y-73512857D01*
X150177619Y-73608095D01*
X150130000Y-73703333D01*
X150082380Y-73750952D01*
X149987142Y-73798571D01*
X149653809Y-73798571D01*
X150510952Y-73655714D02*
X150891904Y-73655714D01*
X150653809Y-73322380D02*
X150653809Y-74179523D01*
X150701428Y-74274761D01*
X150796666Y-74322380D01*
X150891904Y-74322380D01*
X151225238Y-73655714D02*
X151225238Y-74322380D01*
X151225238Y-73750952D02*
X151272857Y-73703333D01*
X151368095Y-73655714D01*
X151510952Y-73655714D01*
X151606190Y-73703333D01*
X151653809Y-73798571D01*
X151653809Y-74322380D01*
X152082380Y-73417619D02*
X152130000Y-73370000D01*
X152225238Y-73322380D01*
X152463333Y-73322380D01*
X152558571Y-73370000D01*
X152606190Y-73417619D01*
X152653809Y-73512857D01*
X152653809Y-73608095D01*
X152606190Y-73750952D01*
X152034761Y-74322380D01*
X152653809Y-74322380D01*
X146177142Y-73798571D02*
X146320000Y-73846190D01*
X146367619Y-73893809D01*
X146415238Y-73989047D01*
X146415238Y-74131904D01*
X146367619Y-74227142D01*
X146320000Y-74274761D01*
X146224761Y-74322380D01*
X145843809Y-74322380D01*
X145843809Y-73322380D01*
X146177142Y-73322380D01*
X146272380Y-73370000D01*
X146320000Y-73417619D01*
X146367619Y-73512857D01*
X146367619Y-73608095D01*
X146320000Y-73703333D01*
X146272380Y-73750952D01*
X146177142Y-73798571D01*
X145843809Y-73798571D01*
X146700952Y-73655714D02*
X147081904Y-73655714D01*
X146843809Y-73322380D02*
X146843809Y-74179523D01*
X146891428Y-74274761D01*
X146986666Y-74322380D01*
X147081904Y-74322380D01*
X147415238Y-73655714D02*
X147415238Y-74322380D01*
X147415238Y-73750952D02*
X147462857Y-73703333D01*
X147558095Y-73655714D01*
X147700952Y-73655714D01*
X147796190Y-73703333D01*
X147843809Y-73798571D01*
X147843809Y-74322380D01*
X148843809Y-74322380D02*
X148272380Y-74322380D01*
X148558095Y-74322380D02*
X148558095Y-73322380D01*
X148462857Y-73465238D01*
X148367619Y-73560476D01*
X148272380Y-73608095D01*
X123547142Y-82224285D02*
X123594761Y-82271904D01*
X123642380Y-82414761D01*
X123642380Y-82510000D01*
X123594761Y-82652857D01*
X123499523Y-82748095D01*
X123404285Y-82795714D01*
X123213809Y-82843333D01*
X123070952Y-82843333D01*
X122880476Y-82795714D01*
X122785238Y-82748095D01*
X122690000Y-82652857D01*
X122642380Y-82510000D01*
X122642380Y-82414761D01*
X122690000Y-82271904D01*
X122737619Y-82224285D01*
X123642380Y-81795714D02*
X122642380Y-81795714D01*
X123356666Y-81462380D01*
X122642380Y-81129047D01*
X123642380Y-81129047D01*
X122642380Y-80462380D02*
X122642380Y-80271904D01*
X122690000Y-80176666D01*
X122785238Y-80081428D01*
X122975714Y-80033809D01*
X123309047Y-80033809D01*
X123499523Y-80081428D01*
X123594761Y-80176666D01*
X123642380Y-80271904D01*
X123642380Y-80462380D01*
X123594761Y-80557619D01*
X123499523Y-80652857D01*
X123309047Y-80700476D01*
X122975714Y-80700476D01*
X122785238Y-80652857D01*
X122690000Y-80557619D01*
X122642380Y-80462380D01*
X123642380Y-79605238D02*
X122642380Y-79605238D01*
X122642380Y-79367142D01*
X122690000Y-79224285D01*
X122785238Y-79129047D01*
X122880476Y-79081428D01*
X123070952Y-79033809D01*
X123213809Y-79033809D01*
X123404285Y-79081428D01*
X123499523Y-79129047D01*
X123594761Y-79224285D01*
X123642380Y-79367142D01*
X123642380Y-79605238D01*
X123118571Y-78605238D02*
X123118571Y-78271904D01*
X123642380Y-78129047D02*
X123642380Y-78605238D01*
X122642380Y-78605238D01*
X122642380Y-78129047D01*
X123642380Y-77176666D02*
X123642380Y-77748095D01*
X123642380Y-77462380D02*
X122642380Y-77462380D01*
X122785238Y-77557619D01*
X122880476Y-77652857D01*
X122928095Y-77748095D01*
X149945477Y-106897381D02*
X149945477Y-107611667D01*
X149897858Y-107754524D01*
X149802620Y-107849762D01*
X149659762Y-107897381D01*
X149564524Y-107897381D01*
X150374048Y-107849762D02*
X150516905Y-107897381D01*
X150755001Y-107897381D01*
X150850239Y-107849762D01*
X150897858Y-107802143D01*
X150945477Y-107706905D01*
X150945477Y-107611667D01*
X150897858Y-107516429D01*
X150850239Y-107468810D01*
X150755001Y-107421191D01*
X150564524Y-107373572D01*
X150469286Y-107325953D01*
X150421667Y-107278334D01*
X150374048Y-107183096D01*
X150374048Y-107087858D01*
X150421667Y-106992620D01*
X150469286Y-106945001D01*
X150564524Y-106897381D01*
X150802620Y-106897381D01*
X150945477Y-106945001D01*
X151945477Y-107802143D02*
X151897858Y-107849762D01*
X151755001Y-107897381D01*
X151659762Y-107897381D01*
X151516905Y-107849762D01*
X151421667Y-107754524D01*
X151374048Y-107659286D01*
X151326429Y-107468810D01*
X151326429Y-107325953D01*
X151374048Y-107135477D01*
X151421667Y-107040239D01*
X151516905Y-106945001D01*
X151659762Y-106897381D01*
X151755001Y-106897381D01*
X151897858Y-106945001D01*
X151945477Y-106992620D01*
X152897858Y-107897381D02*
X152326429Y-107897381D01*
X152612143Y-107897381D02*
X152612143Y-106897381D01*
X152516905Y-107040239D01*
X152421667Y-107135477D01*
X152326429Y-107183096D01*
X183388095Y-122642380D02*
X183388095Y-123451904D01*
X183435714Y-123547142D01*
X183483333Y-123594761D01*
X183578571Y-123642380D01*
X183769047Y-123642380D01*
X183864285Y-123594761D01*
X183911904Y-123547142D01*
X183959523Y-123451904D01*
X183959523Y-122642380D01*
X184340476Y-122642380D02*
X184959523Y-122642380D01*
X184626190Y-123023333D01*
X184769047Y-123023333D01*
X184864285Y-123070952D01*
X184911904Y-123118571D01*
X184959523Y-123213809D01*
X184959523Y-123451904D01*
X184911904Y-123547142D01*
X184864285Y-123594761D01*
X184769047Y-123642380D01*
X184483333Y-123642380D01*
X184388095Y-123594761D01*
X184340476Y-123547142D01*
X170688095Y-65702380D02*
X170688095Y-66511904D01*
X170735714Y-66607142D01*
X170783333Y-66654761D01*
X170878571Y-66702380D01*
X171069047Y-66702380D01*
X171164285Y-66654761D01*
X171211904Y-66607142D01*
X171259523Y-66511904D01*
X171259523Y-65702380D01*
X171688095Y-65797619D02*
X171735714Y-65750000D01*
X171830952Y-65702380D01*
X172069047Y-65702380D01*
X172164285Y-65750000D01*
X172211904Y-65797619D01*
X172259523Y-65892857D01*
X172259523Y-65988095D01*
X172211904Y-66130952D01*
X171640476Y-66702380D01*
X172259523Y-66702380D01*
X132500952Y-113652380D02*
X132167619Y-113176190D01*
X131929523Y-113652380D02*
X131929523Y-112652380D01*
X132310476Y-112652380D01*
X132405714Y-112700000D01*
X132453333Y-112747619D01*
X132500952Y-112842857D01*
X132500952Y-112985714D01*
X132453333Y-113080952D01*
X132405714Y-113128571D01*
X132310476Y-113176190D01*
X131929523Y-113176190D01*
X132691428Y-113747619D02*
X133453333Y-113747619D01*
X133643809Y-113604761D02*
X133786666Y-113652380D01*
X134024761Y-113652380D01*
X134120000Y-113604761D01*
X134167619Y-113557142D01*
X134215238Y-113461904D01*
X134215238Y-113366666D01*
X134167619Y-113271428D01*
X134120000Y-113223809D01*
X134024761Y-113176190D01*
X133834285Y-113128571D01*
X133739047Y-113080952D01*
X133691428Y-113033333D01*
X133643809Y-112938095D01*
X133643809Y-112842857D01*
X133691428Y-112747619D01*
X133739047Y-112700000D01*
X133834285Y-112652380D01*
X134072380Y-112652380D01*
X134215238Y-112700000D01*
X135310476Y-113747619D02*
X135215238Y-113700000D01*
X135120000Y-113604761D01*
X134977142Y-113461904D01*
X134881904Y-113414285D01*
X134786666Y-113414285D01*
X134834285Y-113652380D02*
X134739047Y-113604761D01*
X134643809Y-113509523D01*
X134596190Y-113319047D01*
X134596190Y-112985714D01*
X134643809Y-112795238D01*
X134739047Y-112700000D01*
X134834285Y-112652380D01*
X135024761Y-112652380D01*
X135120000Y-112700000D01*
X135215238Y-112795238D01*
X135262857Y-112985714D01*
X135262857Y-113319047D01*
X135215238Y-113509523D01*
X135120000Y-113604761D01*
X135024761Y-113652380D01*
X134834285Y-113652380D01*
X135596190Y-112652380D02*
X135834285Y-113652380D01*
X136024761Y-112938095D01*
X136215238Y-113652380D01*
X136453333Y-112652380D01*
X137358095Y-113652380D02*
X136786666Y-113652380D01*
X137072380Y-113652380D02*
X137072380Y-112652380D01*
X136977142Y-112795238D01*
X136881904Y-112890476D01*
X136786666Y-112938095D01*
X112879523Y-94262380D02*
X112546190Y-93786190D01*
X112308095Y-94262380D02*
X112308095Y-93262380D01*
X112689047Y-93262380D01*
X112784285Y-93310000D01*
X112831904Y-93357619D01*
X112879523Y-93452857D01*
X112879523Y-93595714D01*
X112831904Y-93690952D01*
X112784285Y-93738571D01*
X112689047Y-93786190D01*
X112308095Y-93786190D01*
X113070000Y-94357619D02*
X113831904Y-94357619D01*
X114070000Y-94262380D02*
X114070000Y-93262380D01*
X114450952Y-93262380D01*
X114546190Y-93310000D01*
X114593809Y-93357619D01*
X114641428Y-93452857D01*
X114641428Y-93595714D01*
X114593809Y-93690952D01*
X114546190Y-93738571D01*
X114450952Y-93786190D01*
X114070000Y-93786190D01*
X115070000Y-94262380D02*
X115070000Y-93262380D01*
X115308095Y-93262380D01*
X115450952Y-93310000D01*
X115546190Y-93405238D01*
X115593809Y-93500476D01*
X115641428Y-93690952D01*
X115641428Y-93833809D01*
X115593809Y-94024285D01*
X115546190Y-94119523D01*
X115450952Y-94214761D01*
X115308095Y-94262380D01*
X115070000Y-94262380D01*
X115831904Y-94357619D02*
X116593809Y-94357619D01*
X116784285Y-94214761D02*
X116927142Y-94262380D01*
X117165238Y-94262380D01*
X117260476Y-94214761D01*
X117308095Y-94167142D01*
X117355714Y-94071904D01*
X117355714Y-93976666D01*
X117308095Y-93881428D01*
X117260476Y-93833809D01*
X117165238Y-93786190D01*
X116974761Y-93738571D01*
X116879523Y-93690952D01*
X116831904Y-93643333D01*
X116784285Y-93548095D01*
X116784285Y-93452857D01*
X116831904Y-93357619D01*
X116879523Y-93310000D01*
X116974761Y-93262380D01*
X117212857Y-93262380D01*
X117355714Y-93310000D01*
X117641428Y-93595714D02*
X118022380Y-93595714D01*
X117784285Y-93262380D02*
X117784285Y-94119523D01*
X117831904Y-94214761D01*
X117927142Y-94262380D01*
X118022380Y-94262380D01*
X118879523Y-94262380D02*
X118308095Y-94262380D01*
X118593809Y-94262380D02*
X118593809Y-93262380D01*
X118498571Y-93405238D01*
X118403333Y-93500476D01*
X118308095Y-93548095D01*
X127762380Y-89522380D02*
X127429047Y-89046190D01*
X127190952Y-89522380D02*
X127190952Y-88522380D01*
X127571904Y-88522380D01*
X127667142Y-88570000D01*
X127714761Y-88617619D01*
X127762380Y-88712857D01*
X127762380Y-88855714D01*
X127714761Y-88950952D01*
X127667142Y-88998571D01*
X127571904Y-89046190D01*
X127190952Y-89046190D01*
X127952857Y-89617619D02*
X128714761Y-89617619D01*
X128952857Y-89522380D02*
X128952857Y-88522380D01*
X129333809Y-88522380D01*
X129429047Y-88570000D01*
X129476666Y-88617619D01*
X129524285Y-88712857D01*
X129524285Y-88855714D01*
X129476666Y-88950952D01*
X129429047Y-88998571D01*
X129333809Y-89046190D01*
X128952857Y-89046190D01*
X129952857Y-89522380D02*
X129952857Y-88522380D01*
X130190952Y-88522380D01*
X130333809Y-88570000D01*
X130429047Y-88665238D01*
X130476666Y-88760476D01*
X130524285Y-88950952D01*
X130524285Y-89093809D01*
X130476666Y-89284285D01*
X130429047Y-89379523D01*
X130333809Y-89474761D01*
X130190952Y-89522380D01*
X129952857Y-89522380D01*
X130714761Y-89617619D02*
X131476666Y-89617619D01*
X132048095Y-88998571D02*
X131714761Y-88998571D01*
X131714761Y-89522380D02*
X131714761Y-88522380D01*
X132190952Y-88522380D01*
X132571904Y-89522380D02*
X132571904Y-88855714D01*
X132571904Y-88522380D02*
X132524285Y-88570000D01*
X132571904Y-88617619D01*
X132619523Y-88570000D01*
X132571904Y-88522380D01*
X132571904Y-88617619D01*
X133048095Y-88855714D02*
X133048095Y-89522380D01*
X133048095Y-88950952D02*
X133095714Y-88903333D01*
X133190952Y-88855714D01*
X133333809Y-88855714D01*
X133429047Y-88903333D01*
X133476666Y-88998571D01*
X133476666Y-89522380D01*
X134476666Y-89522380D02*
X133905238Y-89522380D01*
X134190952Y-89522380D02*
X134190952Y-88522380D01*
X134095714Y-88665238D01*
X134000476Y-88760476D01*
X133905238Y-88808095D01*
X183681904Y-114752380D02*
X183348571Y-114276190D01*
X183110476Y-114752380D02*
X183110476Y-113752380D01*
X183491428Y-113752380D01*
X183586666Y-113800000D01*
X183634285Y-113847619D01*
X183681904Y-113942857D01*
X183681904Y-114085714D01*
X183634285Y-114180952D01*
X183586666Y-114228571D01*
X183491428Y-114276190D01*
X183110476Y-114276190D01*
X183872380Y-114847619D02*
X184634285Y-114847619D01*
X185205714Y-114228571D02*
X184872380Y-114228571D01*
X184872380Y-114752380D02*
X184872380Y-113752380D01*
X185348571Y-113752380D01*
X185729523Y-114752380D02*
X185729523Y-113752380D01*
X186205714Y-114752380D02*
X186205714Y-113752380D01*
X186777142Y-114752380D01*
X186777142Y-113752380D01*
X187777142Y-114752380D02*
X187205714Y-114752380D01*
X187491428Y-114752380D02*
X187491428Y-113752380D01*
X187396190Y-113895238D01*
X187300952Y-113990476D01*
X187205714Y-114038095D01*
X167537142Y-118392380D02*
X167203809Y-117916190D01*
X166965714Y-118392380D02*
X166965714Y-117392380D01*
X167346666Y-117392380D01*
X167441904Y-117440000D01*
X167489523Y-117487619D01*
X167537142Y-117582857D01*
X167537142Y-117725714D01*
X167489523Y-117820952D01*
X167441904Y-117868571D01*
X167346666Y-117916190D01*
X166965714Y-117916190D01*
X167727619Y-118487619D02*
X168489523Y-118487619D01*
X169299047Y-118297142D02*
X169251428Y-118344761D01*
X169108571Y-118392380D01*
X169013333Y-118392380D01*
X168870476Y-118344761D01*
X168775238Y-118249523D01*
X168727619Y-118154285D01*
X168680000Y-117963809D01*
X168680000Y-117820952D01*
X168727619Y-117630476D01*
X168775238Y-117535238D01*
X168870476Y-117440000D01*
X169013333Y-117392380D01*
X169108571Y-117392380D01*
X169251428Y-117440000D01*
X169299047Y-117487619D01*
X169918095Y-117392380D02*
X170108571Y-117392380D01*
X170203809Y-117440000D01*
X170299047Y-117535238D01*
X170346666Y-117725714D01*
X170346666Y-118059047D01*
X170299047Y-118249523D01*
X170203809Y-118344761D01*
X170108571Y-118392380D01*
X169918095Y-118392380D01*
X169822857Y-118344761D01*
X169727619Y-118249523D01*
X169680000Y-118059047D01*
X169680000Y-117725714D01*
X169727619Y-117535238D01*
X169822857Y-117440000D01*
X169918095Y-117392380D01*
X170775238Y-118392380D02*
X170775238Y-117392380D01*
X171108571Y-118106666D01*
X171441904Y-117392380D01*
X171441904Y-118392380D01*
X171918095Y-118392380D02*
X171918095Y-117392380D01*
X172299047Y-117392380D01*
X172394285Y-117440000D01*
X172441904Y-117487619D01*
X172489523Y-117582857D01*
X172489523Y-117725714D01*
X172441904Y-117820952D01*
X172394285Y-117868571D01*
X172299047Y-117916190D01*
X171918095Y-117916190D01*
X173441904Y-118392380D02*
X172870476Y-118392380D01*
X173156190Y-118392380D02*
X173156190Y-117392380D01*
X173060952Y-117535238D01*
X172965714Y-117630476D01*
X172870476Y-117678095D01*
X156043333Y-119832380D02*
X155710000Y-119356190D01*
X155471904Y-119832380D02*
X155471904Y-118832380D01*
X155852857Y-118832380D01*
X155948095Y-118880000D01*
X155995714Y-118927619D01*
X156043333Y-119022857D01*
X156043333Y-119165714D01*
X155995714Y-119260952D01*
X155948095Y-119308571D01*
X155852857Y-119356190D01*
X155471904Y-119356190D01*
X156424285Y-118927619D02*
X156471904Y-118880000D01*
X156567142Y-118832380D01*
X156805238Y-118832380D01*
X156900476Y-118880000D01*
X156948095Y-118927619D01*
X156995714Y-119022857D01*
X156995714Y-119118095D01*
X156948095Y-119260952D01*
X156376666Y-119832380D01*
X156995714Y-119832380D01*
X158583333Y-65222380D02*
X158250000Y-64746190D01*
X158011904Y-65222380D02*
X158011904Y-64222380D01*
X158392857Y-64222380D01*
X158488095Y-64270000D01*
X158535714Y-64317619D01*
X158583333Y-64412857D01*
X158583333Y-64555714D01*
X158535714Y-64650952D01*
X158488095Y-64698571D01*
X158392857Y-64746190D01*
X158011904Y-64746190D01*
X159535714Y-65222380D02*
X158964285Y-65222380D01*
X159250000Y-65222380D02*
X159250000Y-64222380D01*
X159154761Y-64365238D01*
X159059523Y-64460476D01*
X158964285Y-64508095D01*
X114692380Y-72959523D02*
X113692380Y-72959523D01*
X113692380Y-72578571D01*
X113740000Y-72483333D01*
X113787619Y-72435714D01*
X113882857Y-72388095D01*
X114025714Y-72388095D01*
X114120952Y-72435714D01*
X114168571Y-72483333D01*
X114216190Y-72578571D01*
X114216190Y-72959523D01*
X113692380Y-72054761D02*
X114692380Y-71816666D01*
X113978095Y-71626190D01*
X114692380Y-71435714D01*
X113692380Y-71197619D01*
X114692380Y-70245238D02*
X114216190Y-70578571D01*
X114692380Y-70816666D02*
X113692380Y-70816666D01*
X113692380Y-70435714D01*
X113740000Y-70340476D01*
X113787619Y-70292857D01*
X113882857Y-70245238D01*
X114025714Y-70245238D01*
X114120952Y-70292857D01*
X114168571Y-70340476D01*
X114216190Y-70435714D01*
X114216190Y-70816666D01*
X114692380Y-69292857D02*
X114692380Y-69864285D01*
X114692380Y-69578571D02*
X113692380Y-69578571D01*
X113835238Y-69673809D01*
X113930476Y-69769047D01*
X113978095Y-69864285D01*
X158162380Y-87304285D02*
X157162380Y-87304285D01*
X157876666Y-86970952D01*
X157162380Y-86637619D01*
X158162380Y-86637619D01*
X158067142Y-85590000D02*
X158114761Y-85637619D01*
X158162380Y-85780476D01*
X158162380Y-85875714D01*
X158114761Y-86018571D01*
X158019523Y-86113809D01*
X157924285Y-86161428D01*
X157733809Y-86209047D01*
X157590952Y-86209047D01*
X157400476Y-86161428D01*
X157305238Y-86113809D01*
X157210000Y-86018571D01*
X157162380Y-85875714D01*
X157162380Y-85780476D01*
X157210000Y-85637619D01*
X157257619Y-85590000D01*
X157162380Y-85161428D02*
X157971904Y-85161428D01*
X158067142Y-85113809D01*
X158114761Y-85066190D01*
X158162380Y-84970952D01*
X158162380Y-84780476D01*
X158114761Y-84685238D01*
X158067142Y-84637619D01*
X157971904Y-84590000D01*
X157162380Y-84590000D01*
X158257619Y-84351904D02*
X158257619Y-83590000D01*
X157257619Y-83399523D02*
X157210000Y-83351904D01*
X157162380Y-83256666D01*
X157162380Y-83018571D01*
X157210000Y-82923333D01*
X157257619Y-82875714D01*
X157352857Y-82828095D01*
X157448095Y-82828095D01*
X157590952Y-82875714D01*
X158162380Y-83447142D01*
X158162380Y-82828095D01*
X104362380Y-102544285D02*
X103362380Y-102544285D01*
X104076666Y-102210952D01*
X103362380Y-101877619D01*
X104362380Y-101877619D01*
X104267142Y-100830000D02*
X104314761Y-100877619D01*
X104362380Y-101020476D01*
X104362380Y-101115714D01*
X104314761Y-101258571D01*
X104219523Y-101353809D01*
X104124285Y-101401428D01*
X103933809Y-101449047D01*
X103790952Y-101449047D01*
X103600476Y-101401428D01*
X103505238Y-101353809D01*
X103410000Y-101258571D01*
X103362380Y-101115714D01*
X103362380Y-101020476D01*
X103410000Y-100877619D01*
X103457619Y-100830000D01*
X103362380Y-100401428D02*
X104171904Y-100401428D01*
X104267142Y-100353809D01*
X104314761Y-100306190D01*
X104362380Y-100210952D01*
X104362380Y-100020476D01*
X104314761Y-99925238D01*
X104267142Y-99877619D01*
X104171904Y-99830000D01*
X103362380Y-99830000D01*
X104457619Y-99591904D02*
X104457619Y-98830000D01*
X104362380Y-98068095D02*
X104362380Y-98639523D01*
X104362380Y-98353809D02*
X103362380Y-98353809D01*
X103505238Y-98449047D01*
X103600476Y-98544285D01*
X103648095Y-98639523D01*
X155083333Y-69032380D02*
X154607142Y-69032380D01*
X154607142Y-68032380D01*
X155416666Y-68508571D02*
X155750000Y-68508571D01*
X155892857Y-69032380D02*
X155416666Y-69032380D01*
X155416666Y-68032380D01*
X155892857Y-68032380D01*
X156321428Y-69032380D02*
X156321428Y-68032380D01*
X156559523Y-68032380D01*
X156702380Y-68080000D01*
X156797619Y-68175238D01*
X156845238Y-68270476D01*
X156892857Y-68460952D01*
X156892857Y-68603809D01*
X156845238Y-68794285D01*
X156797619Y-68889523D01*
X156702380Y-68984761D01*
X156559523Y-69032380D01*
X156321428Y-69032380D01*
X157083333Y-69127619D02*
X157845238Y-69127619D01*
X158035714Y-68984761D02*
X158178571Y-69032380D01*
X158416666Y-69032380D01*
X158511904Y-68984761D01*
X158559523Y-68937142D01*
X158607142Y-68841904D01*
X158607142Y-68746666D01*
X158559523Y-68651428D01*
X158511904Y-68603809D01*
X158416666Y-68556190D01*
X158226190Y-68508571D01*
X158130952Y-68460952D01*
X158083333Y-68413333D01*
X158035714Y-68318095D01*
X158035714Y-68222857D01*
X158083333Y-68127619D01*
X158130952Y-68080000D01*
X158226190Y-68032380D01*
X158464285Y-68032380D01*
X158607142Y-68080000D01*
X158892857Y-68032380D02*
X159464285Y-68032380D01*
X159178571Y-69032380D02*
X159178571Y-68032380D01*
X159750000Y-68746666D02*
X160226190Y-68746666D01*
X159654761Y-69032380D02*
X159988095Y-68032380D01*
X160321428Y-69032380D01*
X161226190Y-69032380D02*
X160892857Y-68556190D01*
X160654761Y-69032380D02*
X160654761Y-68032380D01*
X161035714Y-68032380D01*
X161130952Y-68080000D01*
X161178571Y-68127619D01*
X161226190Y-68222857D01*
X161226190Y-68365714D01*
X161178571Y-68460952D01*
X161130952Y-68508571D01*
X161035714Y-68556190D01*
X160654761Y-68556190D01*
X161511904Y-68032380D02*
X162083333Y-68032380D01*
X161797619Y-69032380D02*
X161797619Y-68032380D01*
X162940476Y-69032380D02*
X162369047Y-69032380D01*
X162654761Y-69032380D02*
X162654761Y-68032380D01*
X162559523Y-68175238D01*
X162464285Y-68270476D01*
X162369047Y-68318095D01*
X154789523Y-107132380D02*
X154313333Y-107132380D01*
X154313333Y-106132380D01*
X155122857Y-106608571D02*
X155456190Y-106608571D01*
X155599047Y-107132380D02*
X155122857Y-107132380D01*
X155122857Y-106132380D01*
X155599047Y-106132380D01*
X156027619Y-107132380D02*
X156027619Y-106132380D01*
X156265714Y-106132380D01*
X156408571Y-106180000D01*
X156503809Y-106275238D01*
X156551428Y-106370476D01*
X156599047Y-106560952D01*
X156599047Y-106703809D01*
X156551428Y-106894285D01*
X156503809Y-106989523D01*
X156408571Y-107084761D01*
X156265714Y-107132380D01*
X156027619Y-107132380D01*
X156789523Y-107227619D02*
X157551428Y-107227619D01*
X158122857Y-106608571D02*
X157789523Y-106608571D01*
X157789523Y-107132380D02*
X157789523Y-106132380D01*
X158265714Y-106132380D01*
X158646666Y-107132380D02*
X158646666Y-106132380D01*
X159122857Y-107132380D02*
X159122857Y-106132380D01*
X159694285Y-107132380D01*
X159694285Y-106132380D01*
X160694285Y-107132380D02*
X160122857Y-107132380D01*
X160408571Y-107132380D02*
X160408571Y-106132380D01*
X160313333Y-106275238D01*
X160218095Y-106370476D01*
X160122857Y-106418095D01*
X173262380Y-87098095D02*
X172262380Y-87098095D01*
X172262380Y-86860000D01*
X172310000Y-86717142D01*
X172405238Y-86621904D01*
X172500476Y-86574285D01*
X172690952Y-86526666D01*
X172833809Y-86526666D01*
X173024285Y-86574285D01*
X173119523Y-86621904D01*
X173214761Y-86717142D01*
X173262380Y-86860000D01*
X173262380Y-87098095D01*
X173262380Y-85574285D02*
X173262380Y-86145714D01*
X173262380Y-85860000D02*
X172262380Y-85860000D01*
X172405238Y-85955238D01*
X172500476Y-86050476D01*
X172548095Y-86145714D01*
X174382380Y-94241904D02*
X173382380Y-94241904D01*
X174382380Y-93670476D02*
X173810952Y-94099047D01*
X173382380Y-93670476D02*
X173953809Y-94241904D01*
M02*
