G04 #@! TF.GenerationSoftware,KiCad,Pcbnew,(5.1.6)-1*
G04 #@! TF.CreationDate,2021-03-23T21:28:11+01:00*
G04 #@! TF.ProjectId,CentralUnit,43656e74-7261-46c5-956e-69742e6b6963,rev?*
G04 #@! TF.SameCoordinates,Original*
G04 #@! TF.FileFunction,Copper,L2,Bot*
G04 #@! TF.FilePolarity,Positive*
%FSLAX46Y46*%
G04 Gerber Fmt 4.6, Leading zero omitted, Abs format (unit mm)*
G04 Created by KiCad (PCBNEW (5.1.6)-1) date 2021-03-23 21:28:11*
%MOMM*%
%LPD*%
G01*
G04 APERTURE LIST*
G04 #@! TA.AperFunction,ComponentPad*
%ADD10C,1.524000*%
G04 #@! TD*
G04 #@! TA.AperFunction,ComponentPad*
%ADD11O,1.600000X1.600000*%
G04 #@! TD*
G04 #@! TA.AperFunction,ComponentPad*
%ADD12C,1.600000*%
G04 #@! TD*
G04 #@! TA.AperFunction,ComponentPad*
%ADD13O,1.700000X1.700000*%
G04 #@! TD*
G04 #@! TA.AperFunction,ComponentPad*
%ADD14R,1.700000X1.700000*%
G04 #@! TD*
G04 #@! TA.AperFunction,ComponentPad*
%ADD15C,1.700000*%
G04 #@! TD*
G04 #@! TA.AperFunction,ComponentPad*
%ADD16C,1.800000*%
G04 #@! TD*
G04 #@! TA.AperFunction,ComponentPad*
%ADD17R,1.800000X1.800000*%
G04 #@! TD*
G04 #@! TA.AperFunction,Conductor*
%ADD18C,0.250000*%
G04 #@! TD*
G04 #@! TA.AperFunction,Conductor*
%ADD19C,0.254000*%
G04 #@! TD*
G04 APERTURE END LIST*
D10*
X102438200Y-29276040D03*
X102438200Y-31277560D03*
X102438200Y-33276540D03*
X102438200Y-35278060D03*
X102438200Y-37277040D03*
X102438200Y-39276020D03*
X102438200Y-41277540D03*
X102438200Y-43276520D03*
X102438200Y-45278040D03*
X102438200Y-47277020D03*
X80441800Y-47277020D03*
X80441800Y-45278040D03*
X80441800Y-43276520D03*
X80441800Y-41277540D03*
X80441800Y-39276020D03*
X80441800Y-37277040D03*
X80441800Y-35278060D03*
X80441800Y-33276540D03*
X80441800Y-31277560D03*
X80441800Y-29276040D03*
D11*
X84328000Y-23876000D03*
D12*
X84328000Y-34036000D03*
D11*
X93472000Y-39116000D03*
D12*
X93472000Y-49276000D03*
D11*
X89916000Y-47244000D03*
D12*
X89916000Y-37084000D03*
D13*
X92456000Y-68580000D03*
X92456000Y-66040000D03*
D14*
X92456000Y-63500000D03*
D13*
X50800000Y-33655000D03*
X53340000Y-33655000D03*
X55880000Y-33655000D03*
X58420000Y-33655000D03*
X60960000Y-33655000D03*
D14*
X63500000Y-33655000D03*
D15*
X72890000Y-78235000D03*
X72890000Y-75695000D03*
X72890000Y-73155000D03*
X72890000Y-70615000D03*
X72890000Y-68075000D03*
X72890000Y-65535000D03*
X72890000Y-62995000D03*
X72890000Y-60455000D03*
X72890000Y-57915000D03*
X72890000Y-55375000D03*
X72890000Y-52835000D03*
X72890000Y-50295000D03*
X72890000Y-47755000D03*
X72890000Y-45215000D03*
X72890000Y-42675000D03*
X72890000Y-40135000D03*
X72890000Y-37595000D03*
X72890000Y-35055000D03*
X72890000Y-32515000D03*
X72890000Y-29975000D03*
X70350000Y-78235000D03*
X70350000Y-75695000D03*
X70350000Y-73155000D03*
X70350000Y-70615000D03*
X70350000Y-68075000D03*
X70350000Y-65535000D03*
X70350000Y-62995000D03*
X70350000Y-60455000D03*
X70350000Y-57915000D03*
X70350000Y-55375000D03*
X70350000Y-52835000D03*
X70350000Y-50295000D03*
X70350000Y-47755000D03*
X70350000Y-45215000D03*
X70350000Y-42675000D03*
X70350000Y-40135000D03*
X70350000Y-37595000D03*
X70350000Y-35055000D03*
X70350000Y-32515000D03*
G04 #@! TA.AperFunction,ComponentPad*
G36*
G01*
X69500000Y-30575000D02*
X69500000Y-29375000D01*
G75*
G02*
X69750000Y-29125000I250000J0D01*
G01*
X70950000Y-29125000D01*
G75*
G02*
X71200000Y-29375000I0J-250000D01*
G01*
X71200000Y-30575000D01*
G75*
G02*
X70950000Y-30825000I-250000J0D01*
G01*
X69750000Y-30825000D01*
G75*
G02*
X69500000Y-30575000I0J250000D01*
G01*
G37*
G04 #@! TD.AperFunction*
D16*
X80264000Y-23876000D03*
D17*
X77724000Y-23876000D03*
D16*
X94996000Y-58420000D03*
D17*
X97536000Y-58420000D03*
D16*
X89916000Y-58420000D03*
D17*
X92456000Y-58420000D03*
D18*
X69250001Y-64170001D02*
X68580000Y-63500000D01*
X72890000Y-68075000D02*
X71525001Y-66710001D01*
X70724003Y-64170001D02*
X69250001Y-64170001D01*
X76708000Y-43136002D02*
X76708000Y-34036000D01*
X71525001Y-64970999D02*
X70724003Y-64170001D01*
X71525001Y-66710001D02*
X71525001Y-64970999D01*
X68580000Y-63500000D02*
X68580000Y-47244000D01*
X69244001Y-46579999D02*
X73264003Y-46579999D01*
X68580000Y-47244000D02*
X69244001Y-46579999D01*
X73264003Y-46579999D02*
X76708000Y-43136002D01*
X77467460Y-33276540D02*
X80441800Y-33276540D01*
X76708000Y-34036000D02*
X77467460Y-33276540D01*
X72890000Y-57915000D02*
X74171000Y-57915000D01*
X82296000Y-66040000D02*
X92456000Y-66040000D01*
X74171000Y-57915000D02*
X82296000Y-66040000D01*
X71714999Y-41310001D02*
X72890000Y-40135000D01*
X71714999Y-41310001D02*
X69758001Y-41310001D01*
X69758001Y-41310001D02*
X68580000Y-40132000D01*
X68580000Y-39220011D02*
X68555601Y-39220011D01*
X68580000Y-40132000D02*
X68580000Y-39220011D01*
X68555601Y-39220011D02*
X67056000Y-37720410D01*
X67056000Y-37720410D02*
X67056000Y-36068000D01*
X67056000Y-36068000D02*
X66040000Y-35052000D01*
X62357000Y-35052000D02*
X60960000Y-33655000D01*
X66040000Y-35052000D02*
X62357000Y-35052000D01*
X71714999Y-38770001D02*
X72890000Y-37595000D01*
X67564000Y-37592000D02*
X68742001Y-38770001D01*
X67564000Y-33020000D02*
X67564000Y-37592000D01*
X66040000Y-31496000D02*
X67564000Y-33020000D01*
X68742001Y-38770001D02*
X71714999Y-38770001D01*
X60579000Y-31496000D02*
X58420000Y-33655000D01*
X66040000Y-31496000D02*
X60579000Y-31496000D01*
X68129991Y-68394991D02*
X68129991Y-45154009D01*
X70350000Y-70615000D02*
X68129991Y-68394991D01*
X73454001Y-43850001D02*
X75692000Y-41612002D01*
X68129991Y-45154009D02*
X69433999Y-43850001D01*
X69433999Y-43850001D02*
X73454001Y-43850001D01*
X75692000Y-41612002D02*
X75692000Y-33528000D01*
X77942440Y-31277560D02*
X80441800Y-31277560D01*
X75692000Y-33528000D02*
X77942440Y-31277560D01*
X76362001Y-56550001D02*
X83312000Y-63500000D01*
X70350000Y-55375000D02*
X71525001Y-56550001D01*
X83312000Y-63500000D02*
X92456000Y-63500000D01*
X71525001Y-56550001D02*
X76362001Y-56550001D01*
X80441800Y-29276040D02*
X80441800Y-29286200D01*
X84328000Y-33172400D02*
X84328000Y-34036000D01*
X80441800Y-29286200D02*
X84328000Y-33172400D01*
X71525001Y-31150001D02*
X76037999Y-31150001D01*
X70350000Y-29975000D02*
X71525001Y-31150001D01*
X77911960Y-29276040D02*
X80441800Y-29276040D01*
X76037999Y-31150001D02*
X77911960Y-29276040D01*
X102278180Y-39116000D02*
X102438200Y-39276020D01*
X93472000Y-39116000D02*
X102278180Y-39116000D01*
X82633820Y-37084000D02*
X80441800Y-39276020D01*
X89916000Y-37084000D02*
X82633820Y-37084000D01*
X93472000Y-56896000D02*
X94996000Y-58420000D01*
X93472000Y-49276000D02*
X93472000Y-56896000D01*
X80264000Y-23876000D02*
X84328000Y-23876000D01*
X89916000Y-47244000D02*
X89916000Y-58420000D01*
D19*
G36*
X103963001Y-83643000D02*
G01*
X49453000Y-83643000D01*
X49453000Y-80043872D01*
X50597000Y-80043872D01*
X50597000Y-80484128D01*
X50682890Y-80915925D01*
X50851369Y-81322669D01*
X51095962Y-81688729D01*
X51407271Y-82000038D01*
X51773331Y-82244631D01*
X52180075Y-82413110D01*
X52611872Y-82499000D01*
X53052128Y-82499000D01*
X53483925Y-82413110D01*
X53890669Y-82244631D01*
X54256729Y-82000038D01*
X54568038Y-81688729D01*
X54812631Y-81322669D01*
X54981110Y-80915925D01*
X55067000Y-80484128D01*
X55067000Y-80043872D01*
X54981110Y-79612075D01*
X54836683Y-79263397D01*
X69501208Y-79263397D01*
X69578843Y-79512472D01*
X69842883Y-79638371D01*
X70126411Y-79710339D01*
X70418531Y-79725611D01*
X70708019Y-79683599D01*
X70983747Y-79585919D01*
X71121157Y-79512472D01*
X71198792Y-79263397D01*
X70350000Y-78414605D01*
X69501208Y-79263397D01*
X54836683Y-79263397D01*
X54812631Y-79205331D01*
X54568038Y-78839271D01*
X54256729Y-78527962D01*
X53920844Y-78303531D01*
X68859389Y-78303531D01*
X68901401Y-78593019D01*
X68999081Y-78868747D01*
X69072528Y-79006157D01*
X69321603Y-79083792D01*
X70170395Y-78235000D01*
X69321603Y-77386208D01*
X69072528Y-77463843D01*
X68946629Y-77727883D01*
X68874661Y-78011411D01*
X68859389Y-78303531D01*
X53920844Y-78303531D01*
X53890669Y-78283369D01*
X53483925Y-78114890D01*
X53052128Y-78029000D01*
X52611872Y-78029000D01*
X52180075Y-78114890D01*
X51773331Y-78283369D01*
X51407271Y-78527962D01*
X51095962Y-78839271D01*
X50851369Y-79205331D01*
X50682890Y-79612075D01*
X50597000Y-80043872D01*
X49453000Y-80043872D01*
X49453000Y-41943872D01*
X50597000Y-41943872D01*
X50597000Y-42384128D01*
X50682890Y-42815925D01*
X50851369Y-43222669D01*
X51095962Y-43588729D01*
X51407271Y-43900038D01*
X51773331Y-44144631D01*
X52180075Y-44313110D01*
X52611872Y-44399000D01*
X53052128Y-44399000D01*
X53483925Y-44313110D01*
X53890669Y-44144631D01*
X54256729Y-43900038D01*
X54568038Y-43588729D01*
X54812631Y-43222669D01*
X54981110Y-42815925D01*
X55067000Y-42384128D01*
X55067000Y-41943872D01*
X54981110Y-41512075D01*
X54812631Y-41105331D01*
X54568038Y-40739271D01*
X54256729Y-40427962D01*
X53890669Y-40183369D01*
X53483925Y-40014890D01*
X53052128Y-39929000D01*
X52611872Y-39929000D01*
X52180075Y-40014890D01*
X51773331Y-40183369D01*
X51407271Y-40427962D01*
X51095962Y-40739271D01*
X50851369Y-41105331D01*
X50682890Y-41512075D01*
X50597000Y-41943872D01*
X49453000Y-41943872D01*
X49453000Y-34278237D01*
X49455843Y-34286252D01*
X49604822Y-34536355D01*
X49799731Y-34752588D01*
X50033080Y-34926641D01*
X50295901Y-35051825D01*
X50443110Y-35096476D01*
X50673000Y-34975155D01*
X50673000Y-33782000D01*
X50653000Y-33782000D01*
X50653000Y-33528000D01*
X50673000Y-33528000D01*
X50673000Y-32334845D01*
X50927000Y-32334845D01*
X50927000Y-33528000D01*
X50947000Y-33528000D01*
X50947000Y-33782000D01*
X50927000Y-33782000D01*
X50927000Y-34975155D01*
X51156890Y-35096476D01*
X51304099Y-35051825D01*
X51566920Y-34926641D01*
X51800269Y-34752588D01*
X51995178Y-34536355D01*
X52064805Y-34419466D01*
X52186525Y-34601632D01*
X52393368Y-34808475D01*
X52636589Y-34970990D01*
X52906842Y-35082932D01*
X53193740Y-35140000D01*
X53486260Y-35140000D01*
X53773158Y-35082932D01*
X54043411Y-34970990D01*
X54286632Y-34808475D01*
X54493475Y-34601632D01*
X54610000Y-34427240D01*
X54726525Y-34601632D01*
X54933368Y-34808475D01*
X55176589Y-34970990D01*
X55446842Y-35082932D01*
X55733740Y-35140000D01*
X56026260Y-35140000D01*
X56313158Y-35082932D01*
X56583411Y-34970990D01*
X56826632Y-34808475D01*
X57033475Y-34601632D01*
X57150000Y-34427240D01*
X57266525Y-34601632D01*
X57473368Y-34808475D01*
X57716589Y-34970990D01*
X57986842Y-35082932D01*
X58273740Y-35140000D01*
X58566260Y-35140000D01*
X58853158Y-35082932D01*
X59123411Y-34970990D01*
X59366632Y-34808475D01*
X59573475Y-34601632D01*
X59690000Y-34427240D01*
X59806525Y-34601632D01*
X60013368Y-34808475D01*
X60256589Y-34970990D01*
X60526842Y-35082932D01*
X60813740Y-35140000D01*
X61106260Y-35140000D01*
X61326408Y-35096210D01*
X61793200Y-35563002D01*
X61816999Y-35592001D01*
X61932724Y-35686974D01*
X62064753Y-35757546D01*
X62208014Y-35801003D01*
X62319667Y-35812000D01*
X62319676Y-35812000D01*
X62356999Y-35815676D01*
X62394322Y-35812000D01*
X65725199Y-35812000D01*
X66296001Y-36382803D01*
X66296000Y-37683087D01*
X66292324Y-37720410D01*
X66296000Y-37757732D01*
X66296000Y-37757742D01*
X66306997Y-37869395D01*
X66347028Y-38001363D01*
X66350454Y-38012656D01*
X66421026Y-38144686D01*
X66439811Y-38167575D01*
X66515999Y-38260411D01*
X66545003Y-38284214D01*
X67820000Y-39559212D01*
X67820000Y-40094678D01*
X67816324Y-40132000D01*
X67820000Y-40169322D01*
X67820000Y-40169332D01*
X67830997Y-40280985D01*
X67863362Y-40387680D01*
X67874454Y-40424246D01*
X67945026Y-40556276D01*
X67984566Y-40604455D01*
X68039999Y-40672001D01*
X68069003Y-40695804D01*
X69158490Y-41785292D01*
X69034010Y-41971589D01*
X68922068Y-42241842D01*
X68865000Y-42528740D01*
X68865000Y-42821260D01*
X68922068Y-43108158D01*
X68977342Y-43241601D01*
X68893998Y-43310000D01*
X68870200Y-43338998D01*
X67618989Y-44590210D01*
X67589991Y-44614008D01*
X67566193Y-44643006D01*
X67566192Y-44643007D01*
X67495017Y-44729733D01*
X67424445Y-44861763D01*
X67380989Y-45005024D01*
X67366315Y-45154009D01*
X67369992Y-45191342D01*
X67369991Y-68357669D01*
X67366315Y-68394991D01*
X67369991Y-68432313D01*
X67369991Y-68432323D01*
X67380988Y-68543976D01*
X67402533Y-68615001D01*
X67424445Y-68687237D01*
X67495017Y-68819267D01*
X67510946Y-68838676D01*
X67589990Y-68934992D01*
X67618994Y-68958795D01*
X68908790Y-70248592D01*
X68865000Y-70468740D01*
X68865000Y-70761260D01*
X68922068Y-71048158D01*
X69034010Y-71318411D01*
X69196525Y-71561632D01*
X69403368Y-71768475D01*
X69577760Y-71885000D01*
X69403368Y-72001525D01*
X69196525Y-72208368D01*
X69034010Y-72451589D01*
X68922068Y-72721842D01*
X68865000Y-73008740D01*
X68865000Y-73301260D01*
X68922068Y-73588158D01*
X69034010Y-73858411D01*
X69196525Y-74101632D01*
X69403368Y-74308475D01*
X69577760Y-74425000D01*
X69403368Y-74541525D01*
X69196525Y-74748368D01*
X69034010Y-74991589D01*
X68922068Y-75261842D01*
X68865000Y-75548740D01*
X68865000Y-75841260D01*
X68922068Y-76128158D01*
X69034010Y-76398411D01*
X69196525Y-76641632D01*
X69403368Y-76848475D01*
X69576729Y-76964311D01*
X69501208Y-77206603D01*
X70350000Y-78055395D01*
X71198792Y-77206603D01*
X71123271Y-76964311D01*
X71296632Y-76848475D01*
X71503475Y-76641632D01*
X71620000Y-76467240D01*
X71736525Y-76641632D01*
X71943368Y-76848475D01*
X72117760Y-76965000D01*
X71943368Y-77081525D01*
X71736525Y-77288368D01*
X71620689Y-77461729D01*
X71378397Y-77386208D01*
X70529605Y-78235000D01*
X71378397Y-79083792D01*
X71620689Y-79008271D01*
X71736525Y-79181632D01*
X71943368Y-79388475D01*
X72186589Y-79550990D01*
X72456842Y-79662932D01*
X72743740Y-79720000D01*
X73036260Y-79720000D01*
X73323158Y-79662932D01*
X73593411Y-79550990D01*
X73616036Y-79535872D01*
X97333000Y-79535872D01*
X97333000Y-79976128D01*
X97418890Y-80407925D01*
X97587369Y-80814669D01*
X97831962Y-81180729D01*
X98143271Y-81492038D01*
X98509331Y-81736631D01*
X98916075Y-81905110D01*
X99347872Y-81991000D01*
X99788128Y-81991000D01*
X100219925Y-81905110D01*
X100626669Y-81736631D01*
X100992729Y-81492038D01*
X101304038Y-81180729D01*
X101548631Y-80814669D01*
X101717110Y-80407925D01*
X101803000Y-79976128D01*
X101803000Y-79535872D01*
X101717110Y-79104075D01*
X101548631Y-78697331D01*
X101304038Y-78331271D01*
X100992729Y-78019962D01*
X100626669Y-77775369D01*
X100219925Y-77606890D01*
X99788128Y-77521000D01*
X99347872Y-77521000D01*
X98916075Y-77606890D01*
X98509331Y-77775369D01*
X98143271Y-78019962D01*
X97831962Y-78331271D01*
X97587369Y-78697331D01*
X97418890Y-79104075D01*
X97333000Y-79535872D01*
X73616036Y-79535872D01*
X73836632Y-79388475D01*
X74043475Y-79181632D01*
X74205990Y-78938411D01*
X74317932Y-78668158D01*
X74375000Y-78381260D01*
X74375000Y-78088740D01*
X74317932Y-77801842D01*
X74205990Y-77531589D01*
X74043475Y-77288368D01*
X73836632Y-77081525D01*
X73662240Y-76965000D01*
X73836632Y-76848475D01*
X74043475Y-76641632D01*
X74205990Y-76398411D01*
X74317932Y-76128158D01*
X74375000Y-75841260D01*
X74375000Y-75548740D01*
X74317932Y-75261842D01*
X74205990Y-74991589D01*
X74043475Y-74748368D01*
X73836632Y-74541525D01*
X73662240Y-74425000D01*
X73836632Y-74308475D01*
X74043475Y-74101632D01*
X74205990Y-73858411D01*
X74317932Y-73588158D01*
X74375000Y-73301260D01*
X74375000Y-73008740D01*
X74317932Y-72721842D01*
X74205990Y-72451589D01*
X74043475Y-72208368D01*
X73836632Y-72001525D01*
X73662240Y-71885000D01*
X73836632Y-71768475D01*
X74043475Y-71561632D01*
X74205990Y-71318411D01*
X74317932Y-71048158D01*
X74375000Y-70761260D01*
X74375000Y-70468740D01*
X74317932Y-70181842D01*
X74205990Y-69911589D01*
X74043475Y-69668368D01*
X73836632Y-69461525D01*
X73662240Y-69345000D01*
X73836632Y-69228475D01*
X74043475Y-69021632D01*
X74100097Y-68936890D01*
X91014524Y-68936890D01*
X91059175Y-69084099D01*
X91184359Y-69346920D01*
X91358412Y-69580269D01*
X91574645Y-69775178D01*
X91824748Y-69924157D01*
X92099109Y-70021481D01*
X92329000Y-69900814D01*
X92329000Y-68707000D01*
X92583000Y-68707000D01*
X92583000Y-69900814D01*
X92812891Y-70021481D01*
X93087252Y-69924157D01*
X93337355Y-69775178D01*
X93553588Y-69580269D01*
X93727641Y-69346920D01*
X93852825Y-69084099D01*
X93897476Y-68936890D01*
X93776155Y-68707000D01*
X92583000Y-68707000D01*
X92329000Y-68707000D01*
X91135845Y-68707000D01*
X91014524Y-68936890D01*
X74100097Y-68936890D01*
X74205990Y-68778411D01*
X74317932Y-68508158D01*
X74375000Y-68221260D01*
X74375000Y-67928740D01*
X74317932Y-67641842D01*
X74205990Y-67371589D01*
X74043475Y-67128368D01*
X73836632Y-66921525D01*
X73662240Y-66805000D01*
X73836632Y-66688475D01*
X74043475Y-66481632D01*
X74205990Y-66238411D01*
X74317932Y-65968158D01*
X74375000Y-65681260D01*
X74375000Y-65388740D01*
X74317932Y-65101842D01*
X74205990Y-64831589D01*
X74043475Y-64588368D01*
X73836632Y-64381525D01*
X73662240Y-64265000D01*
X73836632Y-64148475D01*
X74043475Y-63941632D01*
X74205990Y-63698411D01*
X74317932Y-63428158D01*
X74375000Y-63141260D01*
X74375000Y-62848740D01*
X74317932Y-62561842D01*
X74205990Y-62291589D01*
X74043475Y-62048368D01*
X73836632Y-61841525D01*
X73662240Y-61725000D01*
X73836632Y-61608475D01*
X74043475Y-61401632D01*
X74205990Y-61158411D01*
X74317932Y-60888158D01*
X74375000Y-60601260D01*
X74375000Y-60308740D01*
X74317932Y-60021842D01*
X74205990Y-59751589D01*
X74043475Y-59508368D01*
X73836632Y-59301525D01*
X73662240Y-59185000D01*
X73836632Y-59068475D01*
X74043153Y-58861954D01*
X81732201Y-66551003D01*
X81755999Y-66580001D01*
X81871724Y-66674974D01*
X82003753Y-66745546D01*
X82147014Y-66789003D01*
X82258667Y-66800000D01*
X82258676Y-66800000D01*
X82295999Y-66803676D01*
X82333322Y-66800000D01*
X91177822Y-66800000D01*
X91302525Y-66986632D01*
X91509368Y-67193475D01*
X91691534Y-67315195D01*
X91574645Y-67384822D01*
X91358412Y-67579731D01*
X91184359Y-67813080D01*
X91059175Y-68075901D01*
X91014524Y-68223110D01*
X91135845Y-68453000D01*
X92329000Y-68453000D01*
X92329000Y-68433000D01*
X92583000Y-68433000D01*
X92583000Y-68453000D01*
X93776155Y-68453000D01*
X93897476Y-68223110D01*
X93852825Y-68075901D01*
X93727641Y-67813080D01*
X93553588Y-67579731D01*
X93337355Y-67384822D01*
X93220466Y-67315195D01*
X93402632Y-67193475D01*
X93609475Y-66986632D01*
X93771990Y-66743411D01*
X93883932Y-66473158D01*
X93941000Y-66186260D01*
X93941000Y-65893740D01*
X93883932Y-65606842D01*
X93771990Y-65336589D01*
X93609475Y-65093368D01*
X93477620Y-64961513D01*
X93550180Y-64939502D01*
X93660494Y-64880537D01*
X93757185Y-64801185D01*
X93836537Y-64704494D01*
X93895502Y-64594180D01*
X93931812Y-64474482D01*
X93944072Y-64350000D01*
X93944072Y-62650000D01*
X93931812Y-62525518D01*
X93895502Y-62405820D01*
X93836537Y-62295506D01*
X93757185Y-62198815D01*
X93660494Y-62119463D01*
X93550180Y-62060498D01*
X93430482Y-62024188D01*
X93306000Y-62011928D01*
X91606000Y-62011928D01*
X91481518Y-62024188D01*
X91361820Y-62060498D01*
X91251506Y-62119463D01*
X91154815Y-62198815D01*
X91075463Y-62295506D01*
X91016498Y-62405820D01*
X90980188Y-62525518D01*
X90967928Y-62650000D01*
X90967928Y-62740000D01*
X83626802Y-62740000D01*
X79155618Y-58268816D01*
X88381000Y-58268816D01*
X88381000Y-58571184D01*
X88439989Y-58867743D01*
X88555701Y-59147095D01*
X88723688Y-59398505D01*
X88937495Y-59612312D01*
X89188905Y-59780299D01*
X89468257Y-59896011D01*
X89764816Y-59955000D01*
X90067184Y-59955000D01*
X90363743Y-59896011D01*
X90643095Y-59780299D01*
X90894505Y-59612312D01*
X90960944Y-59545873D01*
X90966498Y-59564180D01*
X91025463Y-59674494D01*
X91104815Y-59771185D01*
X91201506Y-59850537D01*
X91311820Y-59909502D01*
X91431518Y-59945812D01*
X91556000Y-59958072D01*
X92170250Y-59955000D01*
X92329000Y-59796250D01*
X92329000Y-58547000D01*
X92309000Y-58547000D01*
X92309000Y-58293000D01*
X92329000Y-58293000D01*
X92329000Y-57043750D01*
X92170250Y-56885000D01*
X91556000Y-56881928D01*
X91431518Y-56894188D01*
X91311820Y-56930498D01*
X91201506Y-56989463D01*
X91104815Y-57068815D01*
X91025463Y-57165506D01*
X90966498Y-57275820D01*
X90960944Y-57294127D01*
X90894505Y-57227688D01*
X90676000Y-57081687D01*
X90676000Y-49134665D01*
X92037000Y-49134665D01*
X92037000Y-49417335D01*
X92092147Y-49694574D01*
X92200320Y-49955727D01*
X92357363Y-50190759D01*
X92557241Y-50390637D01*
X92712000Y-50494044D01*
X92712001Y-56858668D01*
X92708324Y-56896000D01*
X92710335Y-56916415D01*
X92583000Y-57043750D01*
X92583000Y-58293000D01*
X92603000Y-58293000D01*
X92603000Y-58547000D01*
X92583000Y-58547000D01*
X92583000Y-59796250D01*
X92741750Y-59955000D01*
X93356000Y-59958072D01*
X93480482Y-59945812D01*
X93600180Y-59909502D01*
X93710494Y-59850537D01*
X93807185Y-59771185D01*
X93886537Y-59674494D01*
X93945502Y-59564180D01*
X93951056Y-59545873D01*
X94017495Y-59612312D01*
X94268905Y-59780299D01*
X94548257Y-59896011D01*
X94844816Y-59955000D01*
X95147184Y-59955000D01*
X95443743Y-59896011D01*
X95723095Y-59780299D01*
X95974505Y-59612312D01*
X96040944Y-59545873D01*
X96046498Y-59564180D01*
X96105463Y-59674494D01*
X96184815Y-59771185D01*
X96281506Y-59850537D01*
X96391820Y-59909502D01*
X96511518Y-59945812D01*
X96636000Y-59958072D01*
X97250250Y-59955000D01*
X97409000Y-59796250D01*
X97409000Y-58547000D01*
X97663000Y-58547000D01*
X97663000Y-59796250D01*
X97821750Y-59955000D01*
X98436000Y-59958072D01*
X98560482Y-59945812D01*
X98680180Y-59909502D01*
X98790494Y-59850537D01*
X98887185Y-59771185D01*
X98966537Y-59674494D01*
X99025502Y-59564180D01*
X99061812Y-59444482D01*
X99074072Y-59320000D01*
X99071000Y-58705750D01*
X98912250Y-58547000D01*
X97663000Y-58547000D01*
X97409000Y-58547000D01*
X97389000Y-58547000D01*
X97389000Y-58293000D01*
X97409000Y-58293000D01*
X97409000Y-57043750D01*
X97663000Y-57043750D01*
X97663000Y-58293000D01*
X98912250Y-58293000D01*
X99071000Y-58134250D01*
X99074072Y-57520000D01*
X99061812Y-57395518D01*
X99025502Y-57275820D01*
X98966537Y-57165506D01*
X98887185Y-57068815D01*
X98790494Y-56989463D01*
X98680180Y-56930498D01*
X98560482Y-56894188D01*
X98436000Y-56881928D01*
X97821750Y-56885000D01*
X97663000Y-57043750D01*
X97409000Y-57043750D01*
X97250250Y-56885000D01*
X96636000Y-56881928D01*
X96511518Y-56894188D01*
X96391820Y-56930498D01*
X96281506Y-56989463D01*
X96184815Y-57068815D01*
X96105463Y-57165506D01*
X96046498Y-57275820D01*
X96040944Y-57294127D01*
X95974505Y-57227688D01*
X95723095Y-57059701D01*
X95443743Y-56943989D01*
X95147184Y-56885000D01*
X94844816Y-56885000D01*
X94587070Y-56936269D01*
X94232000Y-56581199D01*
X94232000Y-50494043D01*
X94386759Y-50390637D01*
X94586637Y-50190759D01*
X94743680Y-49955727D01*
X94851853Y-49694574D01*
X94907000Y-49417335D01*
X94907000Y-49134665D01*
X94851853Y-48857426D01*
X94743680Y-48596273D01*
X94586637Y-48361241D01*
X94386759Y-48161363D01*
X94151727Y-48004320D01*
X93890574Y-47896147D01*
X93613335Y-47841000D01*
X93330665Y-47841000D01*
X93053426Y-47896147D01*
X92792273Y-48004320D01*
X92557241Y-48161363D01*
X92357363Y-48361241D01*
X92200320Y-48596273D01*
X92092147Y-48857426D01*
X92037000Y-49134665D01*
X90676000Y-49134665D01*
X90676000Y-48462043D01*
X90830759Y-48358637D01*
X91030637Y-48158759D01*
X91187680Y-47923727D01*
X91295853Y-47662574D01*
X91351000Y-47385335D01*
X91351000Y-47102665D01*
X91295853Y-46825426D01*
X91187680Y-46564273D01*
X91030637Y-46329241D01*
X90830759Y-46129363D01*
X90595727Y-45972320D01*
X90334574Y-45864147D01*
X90057335Y-45809000D01*
X89774665Y-45809000D01*
X89497426Y-45864147D01*
X89236273Y-45972320D01*
X89001241Y-46129363D01*
X88801363Y-46329241D01*
X88644320Y-46564273D01*
X88536147Y-46825426D01*
X88481000Y-47102665D01*
X88481000Y-47385335D01*
X88536147Y-47662574D01*
X88644320Y-47923727D01*
X88801363Y-48158759D01*
X89001241Y-48358637D01*
X89156000Y-48462043D01*
X89156001Y-57081687D01*
X88937495Y-57227688D01*
X88723688Y-57441495D01*
X88555701Y-57692905D01*
X88439989Y-57972257D01*
X88381000Y-58268816D01*
X79155618Y-58268816D01*
X76925805Y-56039004D01*
X76902002Y-56010000D01*
X76786277Y-55915027D01*
X76654248Y-55844455D01*
X76510987Y-55800998D01*
X76399334Y-55790001D01*
X76399323Y-55790001D01*
X76362001Y-55786325D01*
X76324679Y-55790001D01*
X74321544Y-55790001D01*
X74375000Y-55521260D01*
X74375000Y-55228740D01*
X74317932Y-54941842D01*
X74205990Y-54671589D01*
X74043475Y-54428368D01*
X73836632Y-54221525D01*
X73662240Y-54105000D01*
X73836632Y-53988475D01*
X74043475Y-53781632D01*
X74205990Y-53538411D01*
X74317932Y-53268158D01*
X74375000Y-52981260D01*
X74375000Y-52688740D01*
X74317932Y-52401842D01*
X74205990Y-52131589D01*
X74043475Y-51888368D01*
X73836632Y-51681525D01*
X73662240Y-51565000D01*
X73836632Y-51448475D01*
X74043475Y-51241632D01*
X74205990Y-50998411D01*
X74317932Y-50728158D01*
X74375000Y-50441260D01*
X74375000Y-50148740D01*
X74317932Y-49861842D01*
X74205990Y-49591589D01*
X74043475Y-49348368D01*
X73836632Y-49141525D01*
X73662240Y-49025000D01*
X73836632Y-48908475D01*
X74043475Y-48701632D01*
X74205990Y-48458411D01*
X74295387Y-48242585D01*
X79655840Y-48242585D01*
X79722820Y-48482676D01*
X79971848Y-48599776D01*
X80238935Y-48666043D01*
X80513817Y-48678930D01*
X80785933Y-48637942D01*
X81044823Y-48544656D01*
X81160780Y-48482676D01*
X81227760Y-48242585D01*
X80441800Y-47456625D01*
X79655840Y-48242585D01*
X74295387Y-48242585D01*
X74317932Y-48188158D01*
X74375000Y-47901260D01*
X74375000Y-47608740D01*
X74323342Y-47349037D01*
X79039890Y-47349037D01*
X79080878Y-47621153D01*
X79174164Y-47880043D01*
X79236144Y-47996000D01*
X79476235Y-48062980D01*
X80262195Y-47277020D01*
X80621405Y-47277020D01*
X81407365Y-48062980D01*
X81647456Y-47996000D01*
X81764556Y-47746972D01*
X81830823Y-47479885D01*
X81843710Y-47205003D01*
X81802722Y-46932887D01*
X81709436Y-46673997D01*
X81647456Y-46558040D01*
X81407365Y-46491060D01*
X80621405Y-47277020D01*
X80262195Y-47277020D01*
X79476235Y-46491060D01*
X79236144Y-46558040D01*
X79119044Y-46807068D01*
X79052777Y-47074155D01*
X79039890Y-47349037D01*
X74323342Y-47349037D01*
X74317932Y-47321842D01*
X74205990Y-47051589D01*
X74070295Y-46848508D01*
X77219004Y-43699800D01*
X77248001Y-43676003D01*
X77342974Y-43560278D01*
X77413546Y-43428249D01*
X77457003Y-43284988D01*
X77468000Y-43173335D01*
X77468000Y-43173326D01*
X77471676Y-43136003D01*
X77468000Y-43098680D01*
X77468000Y-34350801D01*
X77782262Y-34036540D01*
X79269459Y-34036540D01*
X79356680Y-34167075D01*
X79466905Y-34277300D01*
X79356680Y-34387525D01*
X79203795Y-34616333D01*
X79098486Y-34870570D01*
X79044800Y-35140468D01*
X79044800Y-35415652D01*
X79098486Y-35685550D01*
X79203795Y-35939787D01*
X79356680Y-36168595D01*
X79465635Y-36277550D01*
X79356680Y-36386505D01*
X79203795Y-36615313D01*
X79098486Y-36869550D01*
X79044800Y-37139448D01*
X79044800Y-37414632D01*
X79098486Y-37684530D01*
X79203795Y-37938767D01*
X79356680Y-38167575D01*
X79465635Y-38276530D01*
X79356680Y-38385485D01*
X79203795Y-38614293D01*
X79098486Y-38868530D01*
X79044800Y-39138428D01*
X79044800Y-39413612D01*
X79098486Y-39683510D01*
X79203795Y-39937747D01*
X79356680Y-40166555D01*
X79466905Y-40276780D01*
X79356680Y-40387005D01*
X79203795Y-40615813D01*
X79098486Y-40870050D01*
X79044800Y-41139948D01*
X79044800Y-41415132D01*
X79098486Y-41685030D01*
X79203795Y-41939267D01*
X79356680Y-42168075D01*
X79465635Y-42277030D01*
X79356680Y-42385985D01*
X79203795Y-42614793D01*
X79098486Y-42869030D01*
X79044800Y-43138928D01*
X79044800Y-43414112D01*
X79098486Y-43684010D01*
X79203795Y-43938247D01*
X79356680Y-44167055D01*
X79466905Y-44277280D01*
X79356680Y-44387505D01*
X79203795Y-44616313D01*
X79098486Y-44870550D01*
X79044800Y-45140448D01*
X79044800Y-45415632D01*
X79098486Y-45685530D01*
X79203795Y-45939767D01*
X79356680Y-46168575D01*
X79551265Y-46363160D01*
X79780073Y-46516045D01*
X79917252Y-46572867D01*
X80441800Y-47097415D01*
X80966348Y-46572867D01*
X81103527Y-46516045D01*
X81332335Y-46363160D01*
X81526920Y-46168575D01*
X81679805Y-45939767D01*
X81785114Y-45685530D01*
X81838800Y-45415632D01*
X81838800Y-45140448D01*
X81785114Y-44870550D01*
X81679805Y-44616313D01*
X81526920Y-44387505D01*
X81416695Y-44277280D01*
X81526920Y-44167055D01*
X81679805Y-43938247D01*
X81785114Y-43684010D01*
X81838800Y-43414112D01*
X81838800Y-43138928D01*
X81785114Y-42869030D01*
X81679805Y-42614793D01*
X81526920Y-42385985D01*
X81417965Y-42277030D01*
X81526920Y-42168075D01*
X81679805Y-41939267D01*
X81785114Y-41685030D01*
X81838800Y-41415132D01*
X81838800Y-41139948D01*
X81785114Y-40870050D01*
X81679805Y-40615813D01*
X81526920Y-40387005D01*
X81416695Y-40276780D01*
X81526920Y-40166555D01*
X81679805Y-39937747D01*
X81785114Y-39683510D01*
X81838800Y-39413612D01*
X81838800Y-39138428D01*
X81808172Y-38984450D01*
X81817957Y-38974665D01*
X92037000Y-38974665D01*
X92037000Y-39257335D01*
X92092147Y-39534574D01*
X92200320Y-39795727D01*
X92357363Y-40030759D01*
X92557241Y-40230637D01*
X92792273Y-40387680D01*
X93053426Y-40495853D01*
X93330665Y-40551000D01*
X93613335Y-40551000D01*
X93890574Y-40495853D01*
X94151727Y-40387680D01*
X94386759Y-40230637D01*
X94586637Y-40030759D01*
X94690043Y-39876000D01*
X101174618Y-39876000D01*
X101200195Y-39937747D01*
X101353080Y-40166555D01*
X101463305Y-40276780D01*
X101353080Y-40387005D01*
X101200195Y-40615813D01*
X101094886Y-40870050D01*
X101041200Y-41139948D01*
X101041200Y-41415132D01*
X101094886Y-41685030D01*
X101200195Y-41939267D01*
X101353080Y-42168075D01*
X101462035Y-42277030D01*
X101353080Y-42385985D01*
X101200195Y-42614793D01*
X101094886Y-42869030D01*
X101041200Y-43138928D01*
X101041200Y-43414112D01*
X101094886Y-43684010D01*
X101200195Y-43938247D01*
X101353080Y-44167055D01*
X101463305Y-44277280D01*
X101353080Y-44387505D01*
X101200195Y-44616313D01*
X101094886Y-44870550D01*
X101041200Y-45140448D01*
X101041200Y-45415632D01*
X101094886Y-45685530D01*
X101200195Y-45939767D01*
X101353080Y-46168575D01*
X101462035Y-46277530D01*
X101353080Y-46386485D01*
X101200195Y-46615293D01*
X101094886Y-46869530D01*
X101041200Y-47139428D01*
X101041200Y-47414612D01*
X101094886Y-47684510D01*
X101200195Y-47938747D01*
X101353080Y-48167555D01*
X101547665Y-48362140D01*
X101776473Y-48515025D01*
X102030710Y-48620334D01*
X102300608Y-48674020D01*
X102575792Y-48674020D01*
X102845690Y-48620334D01*
X103099927Y-48515025D01*
X103328735Y-48362140D01*
X103523320Y-48167555D01*
X103676205Y-47938747D01*
X103781514Y-47684510D01*
X103835200Y-47414612D01*
X103835200Y-47139428D01*
X103781514Y-46869530D01*
X103676205Y-46615293D01*
X103523320Y-46386485D01*
X103414365Y-46277530D01*
X103523320Y-46168575D01*
X103676205Y-45939767D01*
X103781514Y-45685530D01*
X103835200Y-45415632D01*
X103835200Y-45140448D01*
X103781514Y-44870550D01*
X103676205Y-44616313D01*
X103523320Y-44387505D01*
X103413095Y-44277280D01*
X103523320Y-44167055D01*
X103676205Y-43938247D01*
X103781514Y-43684010D01*
X103835200Y-43414112D01*
X103835200Y-43138928D01*
X103781514Y-42869030D01*
X103676205Y-42614793D01*
X103523320Y-42385985D01*
X103414365Y-42277030D01*
X103523320Y-42168075D01*
X103676205Y-41939267D01*
X103781514Y-41685030D01*
X103835200Y-41415132D01*
X103835200Y-41139948D01*
X103781514Y-40870050D01*
X103676205Y-40615813D01*
X103523320Y-40387005D01*
X103413095Y-40276780D01*
X103523320Y-40166555D01*
X103676205Y-39937747D01*
X103781514Y-39683510D01*
X103835200Y-39413612D01*
X103835200Y-39138428D01*
X103781514Y-38868530D01*
X103676205Y-38614293D01*
X103523320Y-38385485D01*
X103414365Y-38276530D01*
X103523320Y-38167575D01*
X103676205Y-37938767D01*
X103781514Y-37684530D01*
X103835200Y-37414632D01*
X103835200Y-37139448D01*
X103781514Y-36869550D01*
X103676205Y-36615313D01*
X103523320Y-36386505D01*
X103414365Y-36277550D01*
X103523320Y-36168595D01*
X103676205Y-35939787D01*
X103781514Y-35685550D01*
X103835200Y-35415652D01*
X103835200Y-35140468D01*
X103781514Y-34870570D01*
X103676205Y-34616333D01*
X103523320Y-34387525D01*
X103413095Y-34277300D01*
X103523320Y-34167075D01*
X103676205Y-33938267D01*
X103781514Y-33684030D01*
X103835200Y-33414132D01*
X103835200Y-33138948D01*
X103781514Y-32869050D01*
X103676205Y-32614813D01*
X103523320Y-32386005D01*
X103414365Y-32277050D01*
X103523320Y-32168095D01*
X103676205Y-31939287D01*
X103781514Y-31685050D01*
X103835200Y-31415152D01*
X103835200Y-31139968D01*
X103781514Y-30870070D01*
X103676205Y-30615833D01*
X103523320Y-30387025D01*
X103413095Y-30276800D01*
X103523320Y-30166575D01*
X103676205Y-29937767D01*
X103781514Y-29683530D01*
X103835200Y-29413632D01*
X103835200Y-29138448D01*
X103781514Y-28868550D01*
X103676205Y-28614313D01*
X103523320Y-28385505D01*
X103328735Y-28190920D01*
X103099927Y-28038035D01*
X102845690Y-27932726D01*
X102575792Y-27879040D01*
X102300608Y-27879040D01*
X102030710Y-27932726D01*
X101776473Y-28038035D01*
X101547665Y-28190920D01*
X101353080Y-28385505D01*
X101200195Y-28614313D01*
X101094886Y-28868550D01*
X101041200Y-29138448D01*
X101041200Y-29413632D01*
X101094886Y-29683530D01*
X101200195Y-29937767D01*
X101353080Y-30166575D01*
X101463305Y-30276800D01*
X101353080Y-30387025D01*
X101200195Y-30615833D01*
X101094886Y-30870070D01*
X101041200Y-31139968D01*
X101041200Y-31415152D01*
X101094886Y-31685050D01*
X101200195Y-31939287D01*
X101353080Y-32168095D01*
X101462035Y-32277050D01*
X101353080Y-32386005D01*
X101200195Y-32614813D01*
X101094886Y-32869050D01*
X101041200Y-33138948D01*
X101041200Y-33414132D01*
X101094886Y-33684030D01*
X101200195Y-33938267D01*
X101353080Y-34167075D01*
X101463305Y-34277300D01*
X101353080Y-34387525D01*
X101200195Y-34616333D01*
X101094886Y-34870570D01*
X101041200Y-35140468D01*
X101041200Y-35415652D01*
X101094886Y-35685550D01*
X101200195Y-35939787D01*
X101353080Y-36168595D01*
X101462035Y-36277550D01*
X101353080Y-36386505D01*
X101200195Y-36615313D01*
X101094886Y-36869550D01*
X101041200Y-37139448D01*
X101041200Y-37414632D01*
X101094886Y-37684530D01*
X101200195Y-37938767D01*
X101353080Y-38167575D01*
X101462035Y-38276530D01*
X101382565Y-38356000D01*
X94690043Y-38356000D01*
X94586637Y-38201241D01*
X94386759Y-38001363D01*
X94151727Y-37844320D01*
X93890574Y-37736147D01*
X93613335Y-37681000D01*
X93330665Y-37681000D01*
X93053426Y-37736147D01*
X92792273Y-37844320D01*
X92557241Y-38001363D01*
X92357363Y-38201241D01*
X92200320Y-38436273D01*
X92092147Y-38697426D01*
X92037000Y-38974665D01*
X81817957Y-38974665D01*
X82948623Y-37844000D01*
X88697957Y-37844000D01*
X88801363Y-37998759D01*
X89001241Y-38198637D01*
X89236273Y-38355680D01*
X89497426Y-38463853D01*
X89774665Y-38519000D01*
X90057335Y-38519000D01*
X90334574Y-38463853D01*
X90595727Y-38355680D01*
X90830759Y-38198637D01*
X91030637Y-37998759D01*
X91187680Y-37763727D01*
X91295853Y-37502574D01*
X91351000Y-37225335D01*
X91351000Y-36942665D01*
X91295853Y-36665426D01*
X91187680Y-36404273D01*
X91030637Y-36169241D01*
X90830759Y-35969363D01*
X90595727Y-35812320D01*
X90334574Y-35704147D01*
X90057335Y-35649000D01*
X89774665Y-35649000D01*
X89497426Y-35704147D01*
X89236273Y-35812320D01*
X89001241Y-35969363D01*
X88801363Y-36169241D01*
X88697957Y-36324000D01*
X82671142Y-36324000D01*
X82633819Y-36320324D01*
X82596496Y-36324000D01*
X82596487Y-36324000D01*
X82484834Y-36334997D01*
X82341573Y-36378454D01*
X82209544Y-36449026D01*
X82209542Y-36449027D01*
X82209543Y-36449027D01*
X82122816Y-36520201D01*
X82122812Y-36520205D01*
X82093819Y-36543999D01*
X82070025Y-36572992D01*
X81781703Y-36861315D01*
X81679805Y-36615313D01*
X81526920Y-36386505D01*
X81417965Y-36277550D01*
X81526920Y-36168595D01*
X81679805Y-35939787D01*
X81785114Y-35685550D01*
X81838800Y-35415652D01*
X81838800Y-35140468D01*
X81785114Y-34870570D01*
X81679805Y-34616333D01*
X81526920Y-34387525D01*
X81416695Y-34277300D01*
X81526920Y-34167075D01*
X81679805Y-33938267D01*
X81785114Y-33684030D01*
X81838800Y-33414132D01*
X81838800Y-33138948D01*
X81785114Y-32869050D01*
X81679805Y-32614813D01*
X81526920Y-32386005D01*
X81417965Y-32277050D01*
X81526920Y-32168095D01*
X81679805Y-31939287D01*
X81779471Y-31698673D01*
X83208827Y-33128029D01*
X83056320Y-33356273D01*
X82948147Y-33617426D01*
X82893000Y-33894665D01*
X82893000Y-34177335D01*
X82948147Y-34454574D01*
X83056320Y-34715727D01*
X83213363Y-34950759D01*
X83413241Y-35150637D01*
X83648273Y-35307680D01*
X83909426Y-35415853D01*
X84186665Y-35471000D01*
X84469335Y-35471000D01*
X84746574Y-35415853D01*
X85007727Y-35307680D01*
X85242759Y-35150637D01*
X85442637Y-34950759D01*
X85599680Y-34715727D01*
X85707853Y-34454574D01*
X85763000Y-34177335D01*
X85763000Y-33894665D01*
X85707853Y-33617426D01*
X85599680Y-33356273D01*
X85442637Y-33121241D01*
X85242759Y-32921363D01*
X85007727Y-32764320D01*
X84960063Y-32744577D01*
X84868001Y-32632399D01*
X84839004Y-32608602D01*
X81806486Y-29576085D01*
X81838800Y-29413632D01*
X81838800Y-29138448D01*
X81785114Y-28868550D01*
X81679805Y-28614313D01*
X81526920Y-28385505D01*
X81332335Y-28190920D01*
X81103527Y-28038035D01*
X80849290Y-27932726D01*
X80579392Y-27879040D01*
X80304208Y-27879040D01*
X80034310Y-27932726D01*
X79780073Y-28038035D01*
X79551265Y-28190920D01*
X79356680Y-28385505D01*
X79269459Y-28516040D01*
X77949282Y-28516040D01*
X77911959Y-28512364D01*
X77874636Y-28516040D01*
X77874627Y-28516040D01*
X77762974Y-28527037D01*
X77619713Y-28570494D01*
X77487683Y-28641066D01*
X77404043Y-28709708D01*
X77371959Y-28736039D01*
X77348161Y-28765037D01*
X75723198Y-30390001D01*
X74321544Y-30390001D01*
X74375000Y-30121260D01*
X74375000Y-29828740D01*
X74317932Y-29541842D01*
X74205990Y-29271589D01*
X74043475Y-29028368D01*
X73836632Y-28821525D01*
X73593411Y-28659010D01*
X73323158Y-28547068D01*
X73036260Y-28490000D01*
X72743740Y-28490000D01*
X72456842Y-28547068D01*
X72186589Y-28659010D01*
X71943368Y-28821525D01*
X71756285Y-29008608D01*
X71688405Y-28881614D01*
X71577962Y-28747038D01*
X71443386Y-28636595D01*
X71289850Y-28554528D01*
X71123254Y-28503992D01*
X70950000Y-28486928D01*
X69750000Y-28486928D01*
X69576746Y-28503992D01*
X69410150Y-28554528D01*
X69256614Y-28636595D01*
X69122038Y-28747038D01*
X69011595Y-28881614D01*
X68929528Y-29035150D01*
X68878992Y-29201746D01*
X68861928Y-29375000D01*
X68861928Y-30575000D01*
X68878992Y-30748254D01*
X68929528Y-30914850D01*
X69011595Y-31068386D01*
X69122038Y-31202962D01*
X69256614Y-31313405D01*
X69383608Y-31381285D01*
X69196525Y-31568368D01*
X69034010Y-31811589D01*
X68922068Y-32081842D01*
X68865000Y-32368740D01*
X68865000Y-32661260D01*
X68922068Y-32948158D01*
X69034010Y-33218411D01*
X69196525Y-33461632D01*
X69403368Y-33668475D01*
X69577760Y-33785000D01*
X69403368Y-33901525D01*
X69196525Y-34108368D01*
X69034010Y-34351589D01*
X68922068Y-34621842D01*
X68865000Y-34908740D01*
X68865000Y-35201260D01*
X68922068Y-35488158D01*
X69034010Y-35758411D01*
X69196525Y-36001632D01*
X69403368Y-36208475D01*
X69577760Y-36325000D01*
X69403368Y-36441525D01*
X69196525Y-36648368D01*
X69034010Y-36891589D01*
X68922068Y-37161842D01*
X68865000Y-37448740D01*
X68865000Y-37741260D01*
X68884104Y-37837303D01*
X68324000Y-37277199D01*
X68324000Y-33057322D01*
X68327676Y-33019999D01*
X68324000Y-32982676D01*
X68324000Y-32982667D01*
X68313003Y-32871014D01*
X68269546Y-32727753D01*
X68198974Y-32595724D01*
X68167532Y-32557412D01*
X68127799Y-32508996D01*
X68127795Y-32508992D01*
X68104001Y-32479999D01*
X68075009Y-32456206D01*
X66603803Y-30985002D01*
X66580001Y-30955999D01*
X66464276Y-30861026D01*
X66332247Y-30790454D01*
X66188986Y-30746997D01*
X66077333Y-30736000D01*
X66077322Y-30736000D01*
X66040000Y-30732324D01*
X66002678Y-30736000D01*
X60616322Y-30736000D01*
X60578999Y-30732324D01*
X60541676Y-30736000D01*
X60541667Y-30736000D01*
X60430014Y-30746997D01*
X60286753Y-30790454D01*
X60154723Y-30861026D01*
X60089139Y-30914850D01*
X60038999Y-30955999D01*
X60015201Y-30984997D01*
X58786408Y-32213791D01*
X58566260Y-32170000D01*
X58273740Y-32170000D01*
X57986842Y-32227068D01*
X57716589Y-32339010D01*
X57473368Y-32501525D01*
X57266525Y-32708368D01*
X57150000Y-32882760D01*
X57033475Y-32708368D01*
X56826632Y-32501525D01*
X56583411Y-32339010D01*
X56313158Y-32227068D01*
X56026260Y-32170000D01*
X55733740Y-32170000D01*
X55446842Y-32227068D01*
X55176589Y-32339010D01*
X54933368Y-32501525D01*
X54726525Y-32708368D01*
X54610000Y-32882760D01*
X54493475Y-32708368D01*
X54286632Y-32501525D01*
X54043411Y-32339010D01*
X53773158Y-32227068D01*
X53486260Y-32170000D01*
X53193740Y-32170000D01*
X52906842Y-32227068D01*
X52636589Y-32339010D01*
X52393368Y-32501525D01*
X52186525Y-32708368D01*
X52064805Y-32890534D01*
X51995178Y-32773645D01*
X51800269Y-32557412D01*
X51566920Y-32383359D01*
X51304099Y-32258175D01*
X51156890Y-32213524D01*
X50927000Y-32334845D01*
X50673000Y-32334845D01*
X50443110Y-32213524D01*
X50295901Y-32258175D01*
X50033080Y-32383359D01*
X49799731Y-32557412D01*
X49604822Y-32773645D01*
X49455843Y-33023748D01*
X49453000Y-33031763D01*
X49453000Y-24776000D01*
X76185928Y-24776000D01*
X76198188Y-24900482D01*
X76234498Y-25020180D01*
X76293463Y-25130494D01*
X76372815Y-25227185D01*
X76469506Y-25306537D01*
X76579820Y-25365502D01*
X76699518Y-25401812D01*
X76824000Y-25414072D01*
X77438250Y-25411000D01*
X77597000Y-25252250D01*
X77597000Y-24003000D01*
X76347750Y-24003000D01*
X76189000Y-24161750D01*
X76185928Y-24776000D01*
X49453000Y-24776000D01*
X49453000Y-22976000D01*
X76185928Y-22976000D01*
X76189000Y-23590250D01*
X76347750Y-23749000D01*
X77597000Y-23749000D01*
X77597000Y-22499750D01*
X77851000Y-22499750D01*
X77851000Y-23749000D01*
X77871000Y-23749000D01*
X77871000Y-24003000D01*
X77851000Y-24003000D01*
X77851000Y-25252250D01*
X78009750Y-25411000D01*
X78624000Y-25414072D01*
X78748482Y-25401812D01*
X78868180Y-25365502D01*
X78978494Y-25306537D01*
X79075185Y-25227185D01*
X79154537Y-25130494D01*
X79213502Y-25020180D01*
X79219056Y-25001873D01*
X79285495Y-25068312D01*
X79536905Y-25236299D01*
X79816257Y-25352011D01*
X80112816Y-25411000D01*
X80415184Y-25411000D01*
X80711743Y-25352011D01*
X80991095Y-25236299D01*
X81242505Y-25068312D01*
X81456312Y-24854505D01*
X81602313Y-24636000D01*
X83109957Y-24636000D01*
X83213363Y-24790759D01*
X83413241Y-24990637D01*
X83648273Y-25147680D01*
X83909426Y-25255853D01*
X84186665Y-25311000D01*
X84469335Y-25311000D01*
X84746574Y-25255853D01*
X85007727Y-25147680D01*
X85242759Y-24990637D01*
X85442637Y-24790759D01*
X85522074Y-24671872D01*
X97333000Y-24671872D01*
X97333000Y-25112128D01*
X97418890Y-25543925D01*
X97587369Y-25950669D01*
X97831962Y-26316729D01*
X98143271Y-26628038D01*
X98509331Y-26872631D01*
X98916075Y-27041110D01*
X99347872Y-27127000D01*
X99788128Y-27127000D01*
X100219925Y-27041110D01*
X100626669Y-26872631D01*
X100992729Y-26628038D01*
X101304038Y-26316729D01*
X101548631Y-25950669D01*
X101717110Y-25543925D01*
X101803000Y-25112128D01*
X101803000Y-24671872D01*
X101717110Y-24240075D01*
X101548631Y-23833331D01*
X101304038Y-23467271D01*
X100992729Y-23155962D01*
X100626669Y-22911369D01*
X100219925Y-22742890D01*
X99788128Y-22657000D01*
X99347872Y-22657000D01*
X98916075Y-22742890D01*
X98509331Y-22911369D01*
X98143271Y-23155962D01*
X97831962Y-23467271D01*
X97587369Y-23833331D01*
X97418890Y-24240075D01*
X97333000Y-24671872D01*
X85522074Y-24671872D01*
X85599680Y-24555727D01*
X85707853Y-24294574D01*
X85763000Y-24017335D01*
X85763000Y-23734665D01*
X85707853Y-23457426D01*
X85599680Y-23196273D01*
X85442637Y-22961241D01*
X85242759Y-22761363D01*
X85007727Y-22604320D01*
X84746574Y-22496147D01*
X84469335Y-22441000D01*
X84186665Y-22441000D01*
X83909426Y-22496147D01*
X83648273Y-22604320D01*
X83413241Y-22761363D01*
X83213363Y-22961241D01*
X83109957Y-23116000D01*
X81602313Y-23116000D01*
X81456312Y-22897495D01*
X81242505Y-22683688D01*
X80991095Y-22515701D01*
X80711743Y-22399989D01*
X80415184Y-22341000D01*
X80112816Y-22341000D01*
X79816257Y-22399989D01*
X79536905Y-22515701D01*
X79285495Y-22683688D01*
X79219056Y-22750127D01*
X79213502Y-22731820D01*
X79154537Y-22621506D01*
X79075185Y-22524815D01*
X78978494Y-22445463D01*
X78868180Y-22386498D01*
X78748482Y-22350188D01*
X78624000Y-22337928D01*
X78009750Y-22341000D01*
X77851000Y-22499750D01*
X77597000Y-22499750D01*
X77438250Y-22341000D01*
X76824000Y-22337928D01*
X76699518Y-22350188D01*
X76579820Y-22386498D01*
X76469506Y-22445463D01*
X76372815Y-22524815D01*
X76293463Y-22621506D01*
X76234498Y-22731820D01*
X76198188Y-22851518D01*
X76185928Y-22976000D01*
X49453000Y-22976000D01*
X49453000Y-22021000D01*
X103963000Y-22021000D01*
X103963001Y-83643000D01*
G37*
X103963001Y-83643000D02*
X49453000Y-83643000D01*
X49453000Y-80043872D01*
X50597000Y-80043872D01*
X50597000Y-80484128D01*
X50682890Y-80915925D01*
X50851369Y-81322669D01*
X51095962Y-81688729D01*
X51407271Y-82000038D01*
X51773331Y-82244631D01*
X52180075Y-82413110D01*
X52611872Y-82499000D01*
X53052128Y-82499000D01*
X53483925Y-82413110D01*
X53890669Y-82244631D01*
X54256729Y-82000038D01*
X54568038Y-81688729D01*
X54812631Y-81322669D01*
X54981110Y-80915925D01*
X55067000Y-80484128D01*
X55067000Y-80043872D01*
X54981110Y-79612075D01*
X54836683Y-79263397D01*
X69501208Y-79263397D01*
X69578843Y-79512472D01*
X69842883Y-79638371D01*
X70126411Y-79710339D01*
X70418531Y-79725611D01*
X70708019Y-79683599D01*
X70983747Y-79585919D01*
X71121157Y-79512472D01*
X71198792Y-79263397D01*
X70350000Y-78414605D01*
X69501208Y-79263397D01*
X54836683Y-79263397D01*
X54812631Y-79205331D01*
X54568038Y-78839271D01*
X54256729Y-78527962D01*
X53920844Y-78303531D01*
X68859389Y-78303531D01*
X68901401Y-78593019D01*
X68999081Y-78868747D01*
X69072528Y-79006157D01*
X69321603Y-79083792D01*
X70170395Y-78235000D01*
X69321603Y-77386208D01*
X69072528Y-77463843D01*
X68946629Y-77727883D01*
X68874661Y-78011411D01*
X68859389Y-78303531D01*
X53920844Y-78303531D01*
X53890669Y-78283369D01*
X53483925Y-78114890D01*
X53052128Y-78029000D01*
X52611872Y-78029000D01*
X52180075Y-78114890D01*
X51773331Y-78283369D01*
X51407271Y-78527962D01*
X51095962Y-78839271D01*
X50851369Y-79205331D01*
X50682890Y-79612075D01*
X50597000Y-80043872D01*
X49453000Y-80043872D01*
X49453000Y-41943872D01*
X50597000Y-41943872D01*
X50597000Y-42384128D01*
X50682890Y-42815925D01*
X50851369Y-43222669D01*
X51095962Y-43588729D01*
X51407271Y-43900038D01*
X51773331Y-44144631D01*
X52180075Y-44313110D01*
X52611872Y-44399000D01*
X53052128Y-44399000D01*
X53483925Y-44313110D01*
X53890669Y-44144631D01*
X54256729Y-43900038D01*
X54568038Y-43588729D01*
X54812631Y-43222669D01*
X54981110Y-42815925D01*
X55067000Y-42384128D01*
X55067000Y-41943872D01*
X54981110Y-41512075D01*
X54812631Y-41105331D01*
X54568038Y-40739271D01*
X54256729Y-40427962D01*
X53890669Y-40183369D01*
X53483925Y-40014890D01*
X53052128Y-39929000D01*
X52611872Y-39929000D01*
X52180075Y-40014890D01*
X51773331Y-40183369D01*
X51407271Y-40427962D01*
X51095962Y-40739271D01*
X50851369Y-41105331D01*
X50682890Y-41512075D01*
X50597000Y-41943872D01*
X49453000Y-41943872D01*
X49453000Y-34278237D01*
X49455843Y-34286252D01*
X49604822Y-34536355D01*
X49799731Y-34752588D01*
X50033080Y-34926641D01*
X50295901Y-35051825D01*
X50443110Y-35096476D01*
X50673000Y-34975155D01*
X50673000Y-33782000D01*
X50653000Y-33782000D01*
X50653000Y-33528000D01*
X50673000Y-33528000D01*
X50673000Y-32334845D01*
X50927000Y-32334845D01*
X50927000Y-33528000D01*
X50947000Y-33528000D01*
X50947000Y-33782000D01*
X50927000Y-33782000D01*
X50927000Y-34975155D01*
X51156890Y-35096476D01*
X51304099Y-35051825D01*
X51566920Y-34926641D01*
X51800269Y-34752588D01*
X51995178Y-34536355D01*
X52064805Y-34419466D01*
X52186525Y-34601632D01*
X52393368Y-34808475D01*
X52636589Y-34970990D01*
X52906842Y-35082932D01*
X53193740Y-35140000D01*
X53486260Y-35140000D01*
X53773158Y-35082932D01*
X54043411Y-34970990D01*
X54286632Y-34808475D01*
X54493475Y-34601632D01*
X54610000Y-34427240D01*
X54726525Y-34601632D01*
X54933368Y-34808475D01*
X55176589Y-34970990D01*
X55446842Y-35082932D01*
X55733740Y-35140000D01*
X56026260Y-35140000D01*
X56313158Y-35082932D01*
X56583411Y-34970990D01*
X56826632Y-34808475D01*
X57033475Y-34601632D01*
X57150000Y-34427240D01*
X57266525Y-34601632D01*
X57473368Y-34808475D01*
X57716589Y-34970990D01*
X57986842Y-35082932D01*
X58273740Y-35140000D01*
X58566260Y-35140000D01*
X58853158Y-35082932D01*
X59123411Y-34970990D01*
X59366632Y-34808475D01*
X59573475Y-34601632D01*
X59690000Y-34427240D01*
X59806525Y-34601632D01*
X60013368Y-34808475D01*
X60256589Y-34970990D01*
X60526842Y-35082932D01*
X60813740Y-35140000D01*
X61106260Y-35140000D01*
X61326408Y-35096210D01*
X61793200Y-35563002D01*
X61816999Y-35592001D01*
X61932724Y-35686974D01*
X62064753Y-35757546D01*
X62208014Y-35801003D01*
X62319667Y-35812000D01*
X62319676Y-35812000D01*
X62356999Y-35815676D01*
X62394322Y-35812000D01*
X65725199Y-35812000D01*
X66296001Y-36382803D01*
X66296000Y-37683087D01*
X66292324Y-37720410D01*
X66296000Y-37757732D01*
X66296000Y-37757742D01*
X66306997Y-37869395D01*
X66347028Y-38001363D01*
X66350454Y-38012656D01*
X66421026Y-38144686D01*
X66439811Y-38167575D01*
X66515999Y-38260411D01*
X66545003Y-38284214D01*
X67820000Y-39559212D01*
X67820000Y-40094678D01*
X67816324Y-40132000D01*
X67820000Y-40169322D01*
X67820000Y-40169332D01*
X67830997Y-40280985D01*
X67863362Y-40387680D01*
X67874454Y-40424246D01*
X67945026Y-40556276D01*
X67984566Y-40604455D01*
X68039999Y-40672001D01*
X68069003Y-40695804D01*
X69158490Y-41785292D01*
X69034010Y-41971589D01*
X68922068Y-42241842D01*
X68865000Y-42528740D01*
X68865000Y-42821260D01*
X68922068Y-43108158D01*
X68977342Y-43241601D01*
X68893998Y-43310000D01*
X68870200Y-43338998D01*
X67618989Y-44590210D01*
X67589991Y-44614008D01*
X67566193Y-44643006D01*
X67566192Y-44643007D01*
X67495017Y-44729733D01*
X67424445Y-44861763D01*
X67380989Y-45005024D01*
X67366315Y-45154009D01*
X67369992Y-45191342D01*
X67369991Y-68357669D01*
X67366315Y-68394991D01*
X67369991Y-68432313D01*
X67369991Y-68432323D01*
X67380988Y-68543976D01*
X67402533Y-68615001D01*
X67424445Y-68687237D01*
X67495017Y-68819267D01*
X67510946Y-68838676D01*
X67589990Y-68934992D01*
X67618994Y-68958795D01*
X68908790Y-70248592D01*
X68865000Y-70468740D01*
X68865000Y-70761260D01*
X68922068Y-71048158D01*
X69034010Y-71318411D01*
X69196525Y-71561632D01*
X69403368Y-71768475D01*
X69577760Y-71885000D01*
X69403368Y-72001525D01*
X69196525Y-72208368D01*
X69034010Y-72451589D01*
X68922068Y-72721842D01*
X68865000Y-73008740D01*
X68865000Y-73301260D01*
X68922068Y-73588158D01*
X69034010Y-73858411D01*
X69196525Y-74101632D01*
X69403368Y-74308475D01*
X69577760Y-74425000D01*
X69403368Y-74541525D01*
X69196525Y-74748368D01*
X69034010Y-74991589D01*
X68922068Y-75261842D01*
X68865000Y-75548740D01*
X68865000Y-75841260D01*
X68922068Y-76128158D01*
X69034010Y-76398411D01*
X69196525Y-76641632D01*
X69403368Y-76848475D01*
X69576729Y-76964311D01*
X69501208Y-77206603D01*
X70350000Y-78055395D01*
X71198792Y-77206603D01*
X71123271Y-76964311D01*
X71296632Y-76848475D01*
X71503475Y-76641632D01*
X71620000Y-76467240D01*
X71736525Y-76641632D01*
X71943368Y-76848475D01*
X72117760Y-76965000D01*
X71943368Y-77081525D01*
X71736525Y-77288368D01*
X71620689Y-77461729D01*
X71378397Y-77386208D01*
X70529605Y-78235000D01*
X71378397Y-79083792D01*
X71620689Y-79008271D01*
X71736525Y-79181632D01*
X71943368Y-79388475D01*
X72186589Y-79550990D01*
X72456842Y-79662932D01*
X72743740Y-79720000D01*
X73036260Y-79720000D01*
X73323158Y-79662932D01*
X73593411Y-79550990D01*
X73616036Y-79535872D01*
X97333000Y-79535872D01*
X97333000Y-79976128D01*
X97418890Y-80407925D01*
X97587369Y-80814669D01*
X97831962Y-81180729D01*
X98143271Y-81492038D01*
X98509331Y-81736631D01*
X98916075Y-81905110D01*
X99347872Y-81991000D01*
X99788128Y-81991000D01*
X100219925Y-81905110D01*
X100626669Y-81736631D01*
X100992729Y-81492038D01*
X101304038Y-81180729D01*
X101548631Y-80814669D01*
X101717110Y-80407925D01*
X101803000Y-79976128D01*
X101803000Y-79535872D01*
X101717110Y-79104075D01*
X101548631Y-78697331D01*
X101304038Y-78331271D01*
X100992729Y-78019962D01*
X100626669Y-77775369D01*
X100219925Y-77606890D01*
X99788128Y-77521000D01*
X99347872Y-77521000D01*
X98916075Y-77606890D01*
X98509331Y-77775369D01*
X98143271Y-78019962D01*
X97831962Y-78331271D01*
X97587369Y-78697331D01*
X97418890Y-79104075D01*
X97333000Y-79535872D01*
X73616036Y-79535872D01*
X73836632Y-79388475D01*
X74043475Y-79181632D01*
X74205990Y-78938411D01*
X74317932Y-78668158D01*
X74375000Y-78381260D01*
X74375000Y-78088740D01*
X74317932Y-77801842D01*
X74205990Y-77531589D01*
X74043475Y-77288368D01*
X73836632Y-77081525D01*
X73662240Y-76965000D01*
X73836632Y-76848475D01*
X74043475Y-76641632D01*
X74205990Y-76398411D01*
X74317932Y-76128158D01*
X74375000Y-75841260D01*
X74375000Y-75548740D01*
X74317932Y-75261842D01*
X74205990Y-74991589D01*
X74043475Y-74748368D01*
X73836632Y-74541525D01*
X73662240Y-74425000D01*
X73836632Y-74308475D01*
X74043475Y-74101632D01*
X74205990Y-73858411D01*
X74317932Y-73588158D01*
X74375000Y-73301260D01*
X74375000Y-73008740D01*
X74317932Y-72721842D01*
X74205990Y-72451589D01*
X74043475Y-72208368D01*
X73836632Y-72001525D01*
X73662240Y-71885000D01*
X73836632Y-71768475D01*
X74043475Y-71561632D01*
X74205990Y-71318411D01*
X74317932Y-71048158D01*
X74375000Y-70761260D01*
X74375000Y-70468740D01*
X74317932Y-70181842D01*
X74205990Y-69911589D01*
X74043475Y-69668368D01*
X73836632Y-69461525D01*
X73662240Y-69345000D01*
X73836632Y-69228475D01*
X74043475Y-69021632D01*
X74100097Y-68936890D01*
X91014524Y-68936890D01*
X91059175Y-69084099D01*
X91184359Y-69346920D01*
X91358412Y-69580269D01*
X91574645Y-69775178D01*
X91824748Y-69924157D01*
X92099109Y-70021481D01*
X92329000Y-69900814D01*
X92329000Y-68707000D01*
X92583000Y-68707000D01*
X92583000Y-69900814D01*
X92812891Y-70021481D01*
X93087252Y-69924157D01*
X93337355Y-69775178D01*
X93553588Y-69580269D01*
X93727641Y-69346920D01*
X93852825Y-69084099D01*
X93897476Y-68936890D01*
X93776155Y-68707000D01*
X92583000Y-68707000D01*
X92329000Y-68707000D01*
X91135845Y-68707000D01*
X91014524Y-68936890D01*
X74100097Y-68936890D01*
X74205990Y-68778411D01*
X74317932Y-68508158D01*
X74375000Y-68221260D01*
X74375000Y-67928740D01*
X74317932Y-67641842D01*
X74205990Y-67371589D01*
X74043475Y-67128368D01*
X73836632Y-66921525D01*
X73662240Y-66805000D01*
X73836632Y-66688475D01*
X74043475Y-66481632D01*
X74205990Y-66238411D01*
X74317932Y-65968158D01*
X74375000Y-65681260D01*
X74375000Y-65388740D01*
X74317932Y-65101842D01*
X74205990Y-64831589D01*
X74043475Y-64588368D01*
X73836632Y-64381525D01*
X73662240Y-64265000D01*
X73836632Y-64148475D01*
X74043475Y-63941632D01*
X74205990Y-63698411D01*
X74317932Y-63428158D01*
X74375000Y-63141260D01*
X74375000Y-62848740D01*
X74317932Y-62561842D01*
X74205990Y-62291589D01*
X74043475Y-62048368D01*
X73836632Y-61841525D01*
X73662240Y-61725000D01*
X73836632Y-61608475D01*
X74043475Y-61401632D01*
X74205990Y-61158411D01*
X74317932Y-60888158D01*
X74375000Y-60601260D01*
X74375000Y-60308740D01*
X74317932Y-60021842D01*
X74205990Y-59751589D01*
X74043475Y-59508368D01*
X73836632Y-59301525D01*
X73662240Y-59185000D01*
X73836632Y-59068475D01*
X74043153Y-58861954D01*
X81732201Y-66551003D01*
X81755999Y-66580001D01*
X81871724Y-66674974D01*
X82003753Y-66745546D01*
X82147014Y-66789003D01*
X82258667Y-66800000D01*
X82258676Y-66800000D01*
X82295999Y-66803676D01*
X82333322Y-66800000D01*
X91177822Y-66800000D01*
X91302525Y-66986632D01*
X91509368Y-67193475D01*
X91691534Y-67315195D01*
X91574645Y-67384822D01*
X91358412Y-67579731D01*
X91184359Y-67813080D01*
X91059175Y-68075901D01*
X91014524Y-68223110D01*
X91135845Y-68453000D01*
X92329000Y-68453000D01*
X92329000Y-68433000D01*
X92583000Y-68433000D01*
X92583000Y-68453000D01*
X93776155Y-68453000D01*
X93897476Y-68223110D01*
X93852825Y-68075901D01*
X93727641Y-67813080D01*
X93553588Y-67579731D01*
X93337355Y-67384822D01*
X93220466Y-67315195D01*
X93402632Y-67193475D01*
X93609475Y-66986632D01*
X93771990Y-66743411D01*
X93883932Y-66473158D01*
X93941000Y-66186260D01*
X93941000Y-65893740D01*
X93883932Y-65606842D01*
X93771990Y-65336589D01*
X93609475Y-65093368D01*
X93477620Y-64961513D01*
X93550180Y-64939502D01*
X93660494Y-64880537D01*
X93757185Y-64801185D01*
X93836537Y-64704494D01*
X93895502Y-64594180D01*
X93931812Y-64474482D01*
X93944072Y-64350000D01*
X93944072Y-62650000D01*
X93931812Y-62525518D01*
X93895502Y-62405820D01*
X93836537Y-62295506D01*
X93757185Y-62198815D01*
X93660494Y-62119463D01*
X93550180Y-62060498D01*
X93430482Y-62024188D01*
X93306000Y-62011928D01*
X91606000Y-62011928D01*
X91481518Y-62024188D01*
X91361820Y-62060498D01*
X91251506Y-62119463D01*
X91154815Y-62198815D01*
X91075463Y-62295506D01*
X91016498Y-62405820D01*
X90980188Y-62525518D01*
X90967928Y-62650000D01*
X90967928Y-62740000D01*
X83626802Y-62740000D01*
X79155618Y-58268816D01*
X88381000Y-58268816D01*
X88381000Y-58571184D01*
X88439989Y-58867743D01*
X88555701Y-59147095D01*
X88723688Y-59398505D01*
X88937495Y-59612312D01*
X89188905Y-59780299D01*
X89468257Y-59896011D01*
X89764816Y-59955000D01*
X90067184Y-59955000D01*
X90363743Y-59896011D01*
X90643095Y-59780299D01*
X90894505Y-59612312D01*
X90960944Y-59545873D01*
X90966498Y-59564180D01*
X91025463Y-59674494D01*
X91104815Y-59771185D01*
X91201506Y-59850537D01*
X91311820Y-59909502D01*
X91431518Y-59945812D01*
X91556000Y-59958072D01*
X92170250Y-59955000D01*
X92329000Y-59796250D01*
X92329000Y-58547000D01*
X92309000Y-58547000D01*
X92309000Y-58293000D01*
X92329000Y-58293000D01*
X92329000Y-57043750D01*
X92170250Y-56885000D01*
X91556000Y-56881928D01*
X91431518Y-56894188D01*
X91311820Y-56930498D01*
X91201506Y-56989463D01*
X91104815Y-57068815D01*
X91025463Y-57165506D01*
X90966498Y-57275820D01*
X90960944Y-57294127D01*
X90894505Y-57227688D01*
X90676000Y-57081687D01*
X90676000Y-49134665D01*
X92037000Y-49134665D01*
X92037000Y-49417335D01*
X92092147Y-49694574D01*
X92200320Y-49955727D01*
X92357363Y-50190759D01*
X92557241Y-50390637D01*
X92712000Y-50494044D01*
X92712001Y-56858668D01*
X92708324Y-56896000D01*
X92710335Y-56916415D01*
X92583000Y-57043750D01*
X92583000Y-58293000D01*
X92603000Y-58293000D01*
X92603000Y-58547000D01*
X92583000Y-58547000D01*
X92583000Y-59796250D01*
X92741750Y-59955000D01*
X93356000Y-59958072D01*
X93480482Y-59945812D01*
X93600180Y-59909502D01*
X93710494Y-59850537D01*
X93807185Y-59771185D01*
X93886537Y-59674494D01*
X93945502Y-59564180D01*
X93951056Y-59545873D01*
X94017495Y-59612312D01*
X94268905Y-59780299D01*
X94548257Y-59896011D01*
X94844816Y-59955000D01*
X95147184Y-59955000D01*
X95443743Y-59896011D01*
X95723095Y-59780299D01*
X95974505Y-59612312D01*
X96040944Y-59545873D01*
X96046498Y-59564180D01*
X96105463Y-59674494D01*
X96184815Y-59771185D01*
X96281506Y-59850537D01*
X96391820Y-59909502D01*
X96511518Y-59945812D01*
X96636000Y-59958072D01*
X97250250Y-59955000D01*
X97409000Y-59796250D01*
X97409000Y-58547000D01*
X97663000Y-58547000D01*
X97663000Y-59796250D01*
X97821750Y-59955000D01*
X98436000Y-59958072D01*
X98560482Y-59945812D01*
X98680180Y-59909502D01*
X98790494Y-59850537D01*
X98887185Y-59771185D01*
X98966537Y-59674494D01*
X99025502Y-59564180D01*
X99061812Y-59444482D01*
X99074072Y-59320000D01*
X99071000Y-58705750D01*
X98912250Y-58547000D01*
X97663000Y-58547000D01*
X97409000Y-58547000D01*
X97389000Y-58547000D01*
X97389000Y-58293000D01*
X97409000Y-58293000D01*
X97409000Y-57043750D01*
X97663000Y-57043750D01*
X97663000Y-58293000D01*
X98912250Y-58293000D01*
X99071000Y-58134250D01*
X99074072Y-57520000D01*
X99061812Y-57395518D01*
X99025502Y-57275820D01*
X98966537Y-57165506D01*
X98887185Y-57068815D01*
X98790494Y-56989463D01*
X98680180Y-56930498D01*
X98560482Y-56894188D01*
X98436000Y-56881928D01*
X97821750Y-56885000D01*
X97663000Y-57043750D01*
X97409000Y-57043750D01*
X97250250Y-56885000D01*
X96636000Y-56881928D01*
X96511518Y-56894188D01*
X96391820Y-56930498D01*
X96281506Y-56989463D01*
X96184815Y-57068815D01*
X96105463Y-57165506D01*
X96046498Y-57275820D01*
X96040944Y-57294127D01*
X95974505Y-57227688D01*
X95723095Y-57059701D01*
X95443743Y-56943989D01*
X95147184Y-56885000D01*
X94844816Y-56885000D01*
X94587070Y-56936269D01*
X94232000Y-56581199D01*
X94232000Y-50494043D01*
X94386759Y-50390637D01*
X94586637Y-50190759D01*
X94743680Y-49955727D01*
X94851853Y-49694574D01*
X94907000Y-49417335D01*
X94907000Y-49134665D01*
X94851853Y-48857426D01*
X94743680Y-48596273D01*
X94586637Y-48361241D01*
X94386759Y-48161363D01*
X94151727Y-48004320D01*
X93890574Y-47896147D01*
X93613335Y-47841000D01*
X93330665Y-47841000D01*
X93053426Y-47896147D01*
X92792273Y-48004320D01*
X92557241Y-48161363D01*
X92357363Y-48361241D01*
X92200320Y-48596273D01*
X92092147Y-48857426D01*
X92037000Y-49134665D01*
X90676000Y-49134665D01*
X90676000Y-48462043D01*
X90830759Y-48358637D01*
X91030637Y-48158759D01*
X91187680Y-47923727D01*
X91295853Y-47662574D01*
X91351000Y-47385335D01*
X91351000Y-47102665D01*
X91295853Y-46825426D01*
X91187680Y-46564273D01*
X91030637Y-46329241D01*
X90830759Y-46129363D01*
X90595727Y-45972320D01*
X90334574Y-45864147D01*
X90057335Y-45809000D01*
X89774665Y-45809000D01*
X89497426Y-45864147D01*
X89236273Y-45972320D01*
X89001241Y-46129363D01*
X88801363Y-46329241D01*
X88644320Y-46564273D01*
X88536147Y-46825426D01*
X88481000Y-47102665D01*
X88481000Y-47385335D01*
X88536147Y-47662574D01*
X88644320Y-47923727D01*
X88801363Y-48158759D01*
X89001241Y-48358637D01*
X89156000Y-48462043D01*
X89156001Y-57081687D01*
X88937495Y-57227688D01*
X88723688Y-57441495D01*
X88555701Y-57692905D01*
X88439989Y-57972257D01*
X88381000Y-58268816D01*
X79155618Y-58268816D01*
X76925805Y-56039004D01*
X76902002Y-56010000D01*
X76786277Y-55915027D01*
X76654248Y-55844455D01*
X76510987Y-55800998D01*
X76399334Y-55790001D01*
X76399323Y-55790001D01*
X76362001Y-55786325D01*
X76324679Y-55790001D01*
X74321544Y-55790001D01*
X74375000Y-55521260D01*
X74375000Y-55228740D01*
X74317932Y-54941842D01*
X74205990Y-54671589D01*
X74043475Y-54428368D01*
X73836632Y-54221525D01*
X73662240Y-54105000D01*
X73836632Y-53988475D01*
X74043475Y-53781632D01*
X74205990Y-53538411D01*
X74317932Y-53268158D01*
X74375000Y-52981260D01*
X74375000Y-52688740D01*
X74317932Y-52401842D01*
X74205990Y-52131589D01*
X74043475Y-51888368D01*
X73836632Y-51681525D01*
X73662240Y-51565000D01*
X73836632Y-51448475D01*
X74043475Y-51241632D01*
X74205990Y-50998411D01*
X74317932Y-50728158D01*
X74375000Y-50441260D01*
X74375000Y-50148740D01*
X74317932Y-49861842D01*
X74205990Y-49591589D01*
X74043475Y-49348368D01*
X73836632Y-49141525D01*
X73662240Y-49025000D01*
X73836632Y-48908475D01*
X74043475Y-48701632D01*
X74205990Y-48458411D01*
X74295387Y-48242585D01*
X79655840Y-48242585D01*
X79722820Y-48482676D01*
X79971848Y-48599776D01*
X80238935Y-48666043D01*
X80513817Y-48678930D01*
X80785933Y-48637942D01*
X81044823Y-48544656D01*
X81160780Y-48482676D01*
X81227760Y-48242585D01*
X80441800Y-47456625D01*
X79655840Y-48242585D01*
X74295387Y-48242585D01*
X74317932Y-48188158D01*
X74375000Y-47901260D01*
X74375000Y-47608740D01*
X74323342Y-47349037D01*
X79039890Y-47349037D01*
X79080878Y-47621153D01*
X79174164Y-47880043D01*
X79236144Y-47996000D01*
X79476235Y-48062980D01*
X80262195Y-47277020D01*
X80621405Y-47277020D01*
X81407365Y-48062980D01*
X81647456Y-47996000D01*
X81764556Y-47746972D01*
X81830823Y-47479885D01*
X81843710Y-47205003D01*
X81802722Y-46932887D01*
X81709436Y-46673997D01*
X81647456Y-46558040D01*
X81407365Y-46491060D01*
X80621405Y-47277020D01*
X80262195Y-47277020D01*
X79476235Y-46491060D01*
X79236144Y-46558040D01*
X79119044Y-46807068D01*
X79052777Y-47074155D01*
X79039890Y-47349037D01*
X74323342Y-47349037D01*
X74317932Y-47321842D01*
X74205990Y-47051589D01*
X74070295Y-46848508D01*
X77219004Y-43699800D01*
X77248001Y-43676003D01*
X77342974Y-43560278D01*
X77413546Y-43428249D01*
X77457003Y-43284988D01*
X77468000Y-43173335D01*
X77468000Y-43173326D01*
X77471676Y-43136003D01*
X77468000Y-43098680D01*
X77468000Y-34350801D01*
X77782262Y-34036540D01*
X79269459Y-34036540D01*
X79356680Y-34167075D01*
X79466905Y-34277300D01*
X79356680Y-34387525D01*
X79203795Y-34616333D01*
X79098486Y-34870570D01*
X79044800Y-35140468D01*
X79044800Y-35415652D01*
X79098486Y-35685550D01*
X79203795Y-35939787D01*
X79356680Y-36168595D01*
X79465635Y-36277550D01*
X79356680Y-36386505D01*
X79203795Y-36615313D01*
X79098486Y-36869550D01*
X79044800Y-37139448D01*
X79044800Y-37414632D01*
X79098486Y-37684530D01*
X79203795Y-37938767D01*
X79356680Y-38167575D01*
X79465635Y-38276530D01*
X79356680Y-38385485D01*
X79203795Y-38614293D01*
X79098486Y-38868530D01*
X79044800Y-39138428D01*
X79044800Y-39413612D01*
X79098486Y-39683510D01*
X79203795Y-39937747D01*
X79356680Y-40166555D01*
X79466905Y-40276780D01*
X79356680Y-40387005D01*
X79203795Y-40615813D01*
X79098486Y-40870050D01*
X79044800Y-41139948D01*
X79044800Y-41415132D01*
X79098486Y-41685030D01*
X79203795Y-41939267D01*
X79356680Y-42168075D01*
X79465635Y-42277030D01*
X79356680Y-42385985D01*
X79203795Y-42614793D01*
X79098486Y-42869030D01*
X79044800Y-43138928D01*
X79044800Y-43414112D01*
X79098486Y-43684010D01*
X79203795Y-43938247D01*
X79356680Y-44167055D01*
X79466905Y-44277280D01*
X79356680Y-44387505D01*
X79203795Y-44616313D01*
X79098486Y-44870550D01*
X79044800Y-45140448D01*
X79044800Y-45415632D01*
X79098486Y-45685530D01*
X79203795Y-45939767D01*
X79356680Y-46168575D01*
X79551265Y-46363160D01*
X79780073Y-46516045D01*
X79917252Y-46572867D01*
X80441800Y-47097415D01*
X80966348Y-46572867D01*
X81103527Y-46516045D01*
X81332335Y-46363160D01*
X81526920Y-46168575D01*
X81679805Y-45939767D01*
X81785114Y-45685530D01*
X81838800Y-45415632D01*
X81838800Y-45140448D01*
X81785114Y-44870550D01*
X81679805Y-44616313D01*
X81526920Y-44387505D01*
X81416695Y-44277280D01*
X81526920Y-44167055D01*
X81679805Y-43938247D01*
X81785114Y-43684010D01*
X81838800Y-43414112D01*
X81838800Y-43138928D01*
X81785114Y-42869030D01*
X81679805Y-42614793D01*
X81526920Y-42385985D01*
X81417965Y-42277030D01*
X81526920Y-42168075D01*
X81679805Y-41939267D01*
X81785114Y-41685030D01*
X81838800Y-41415132D01*
X81838800Y-41139948D01*
X81785114Y-40870050D01*
X81679805Y-40615813D01*
X81526920Y-40387005D01*
X81416695Y-40276780D01*
X81526920Y-40166555D01*
X81679805Y-39937747D01*
X81785114Y-39683510D01*
X81838800Y-39413612D01*
X81838800Y-39138428D01*
X81808172Y-38984450D01*
X81817957Y-38974665D01*
X92037000Y-38974665D01*
X92037000Y-39257335D01*
X92092147Y-39534574D01*
X92200320Y-39795727D01*
X92357363Y-40030759D01*
X92557241Y-40230637D01*
X92792273Y-40387680D01*
X93053426Y-40495853D01*
X93330665Y-40551000D01*
X93613335Y-40551000D01*
X93890574Y-40495853D01*
X94151727Y-40387680D01*
X94386759Y-40230637D01*
X94586637Y-40030759D01*
X94690043Y-39876000D01*
X101174618Y-39876000D01*
X101200195Y-39937747D01*
X101353080Y-40166555D01*
X101463305Y-40276780D01*
X101353080Y-40387005D01*
X101200195Y-40615813D01*
X101094886Y-40870050D01*
X101041200Y-41139948D01*
X101041200Y-41415132D01*
X101094886Y-41685030D01*
X101200195Y-41939267D01*
X101353080Y-42168075D01*
X101462035Y-42277030D01*
X101353080Y-42385985D01*
X101200195Y-42614793D01*
X101094886Y-42869030D01*
X101041200Y-43138928D01*
X101041200Y-43414112D01*
X101094886Y-43684010D01*
X101200195Y-43938247D01*
X101353080Y-44167055D01*
X101463305Y-44277280D01*
X101353080Y-44387505D01*
X101200195Y-44616313D01*
X101094886Y-44870550D01*
X101041200Y-45140448D01*
X101041200Y-45415632D01*
X101094886Y-45685530D01*
X101200195Y-45939767D01*
X101353080Y-46168575D01*
X101462035Y-46277530D01*
X101353080Y-46386485D01*
X101200195Y-46615293D01*
X101094886Y-46869530D01*
X101041200Y-47139428D01*
X101041200Y-47414612D01*
X101094886Y-47684510D01*
X101200195Y-47938747D01*
X101353080Y-48167555D01*
X101547665Y-48362140D01*
X101776473Y-48515025D01*
X102030710Y-48620334D01*
X102300608Y-48674020D01*
X102575792Y-48674020D01*
X102845690Y-48620334D01*
X103099927Y-48515025D01*
X103328735Y-48362140D01*
X103523320Y-48167555D01*
X103676205Y-47938747D01*
X103781514Y-47684510D01*
X103835200Y-47414612D01*
X103835200Y-47139428D01*
X103781514Y-46869530D01*
X103676205Y-46615293D01*
X103523320Y-46386485D01*
X103414365Y-46277530D01*
X103523320Y-46168575D01*
X103676205Y-45939767D01*
X103781514Y-45685530D01*
X103835200Y-45415632D01*
X103835200Y-45140448D01*
X103781514Y-44870550D01*
X103676205Y-44616313D01*
X103523320Y-44387505D01*
X103413095Y-44277280D01*
X103523320Y-44167055D01*
X103676205Y-43938247D01*
X103781514Y-43684010D01*
X103835200Y-43414112D01*
X103835200Y-43138928D01*
X103781514Y-42869030D01*
X103676205Y-42614793D01*
X103523320Y-42385985D01*
X103414365Y-42277030D01*
X103523320Y-42168075D01*
X103676205Y-41939267D01*
X103781514Y-41685030D01*
X103835200Y-41415132D01*
X103835200Y-41139948D01*
X103781514Y-40870050D01*
X103676205Y-40615813D01*
X103523320Y-40387005D01*
X103413095Y-40276780D01*
X103523320Y-40166555D01*
X103676205Y-39937747D01*
X103781514Y-39683510D01*
X103835200Y-39413612D01*
X103835200Y-39138428D01*
X103781514Y-38868530D01*
X103676205Y-38614293D01*
X103523320Y-38385485D01*
X103414365Y-38276530D01*
X103523320Y-38167575D01*
X103676205Y-37938767D01*
X103781514Y-37684530D01*
X103835200Y-37414632D01*
X103835200Y-37139448D01*
X103781514Y-36869550D01*
X103676205Y-36615313D01*
X103523320Y-36386505D01*
X103414365Y-36277550D01*
X103523320Y-36168595D01*
X103676205Y-35939787D01*
X103781514Y-35685550D01*
X103835200Y-35415652D01*
X103835200Y-35140468D01*
X103781514Y-34870570D01*
X103676205Y-34616333D01*
X103523320Y-34387525D01*
X103413095Y-34277300D01*
X103523320Y-34167075D01*
X103676205Y-33938267D01*
X103781514Y-33684030D01*
X103835200Y-33414132D01*
X103835200Y-33138948D01*
X103781514Y-32869050D01*
X103676205Y-32614813D01*
X103523320Y-32386005D01*
X103414365Y-32277050D01*
X103523320Y-32168095D01*
X103676205Y-31939287D01*
X103781514Y-31685050D01*
X103835200Y-31415152D01*
X103835200Y-31139968D01*
X103781514Y-30870070D01*
X103676205Y-30615833D01*
X103523320Y-30387025D01*
X103413095Y-30276800D01*
X103523320Y-30166575D01*
X103676205Y-29937767D01*
X103781514Y-29683530D01*
X103835200Y-29413632D01*
X103835200Y-29138448D01*
X103781514Y-28868550D01*
X103676205Y-28614313D01*
X103523320Y-28385505D01*
X103328735Y-28190920D01*
X103099927Y-28038035D01*
X102845690Y-27932726D01*
X102575792Y-27879040D01*
X102300608Y-27879040D01*
X102030710Y-27932726D01*
X101776473Y-28038035D01*
X101547665Y-28190920D01*
X101353080Y-28385505D01*
X101200195Y-28614313D01*
X101094886Y-28868550D01*
X101041200Y-29138448D01*
X101041200Y-29413632D01*
X101094886Y-29683530D01*
X101200195Y-29937767D01*
X101353080Y-30166575D01*
X101463305Y-30276800D01*
X101353080Y-30387025D01*
X101200195Y-30615833D01*
X101094886Y-30870070D01*
X101041200Y-31139968D01*
X101041200Y-31415152D01*
X101094886Y-31685050D01*
X101200195Y-31939287D01*
X101353080Y-32168095D01*
X101462035Y-32277050D01*
X101353080Y-32386005D01*
X101200195Y-32614813D01*
X101094886Y-32869050D01*
X101041200Y-33138948D01*
X101041200Y-33414132D01*
X101094886Y-33684030D01*
X101200195Y-33938267D01*
X101353080Y-34167075D01*
X101463305Y-34277300D01*
X101353080Y-34387525D01*
X101200195Y-34616333D01*
X101094886Y-34870570D01*
X101041200Y-35140468D01*
X101041200Y-35415652D01*
X101094886Y-35685550D01*
X101200195Y-35939787D01*
X101353080Y-36168595D01*
X101462035Y-36277550D01*
X101353080Y-36386505D01*
X101200195Y-36615313D01*
X101094886Y-36869550D01*
X101041200Y-37139448D01*
X101041200Y-37414632D01*
X101094886Y-37684530D01*
X101200195Y-37938767D01*
X101353080Y-38167575D01*
X101462035Y-38276530D01*
X101382565Y-38356000D01*
X94690043Y-38356000D01*
X94586637Y-38201241D01*
X94386759Y-38001363D01*
X94151727Y-37844320D01*
X93890574Y-37736147D01*
X93613335Y-37681000D01*
X93330665Y-37681000D01*
X93053426Y-37736147D01*
X92792273Y-37844320D01*
X92557241Y-38001363D01*
X92357363Y-38201241D01*
X92200320Y-38436273D01*
X92092147Y-38697426D01*
X92037000Y-38974665D01*
X81817957Y-38974665D01*
X82948623Y-37844000D01*
X88697957Y-37844000D01*
X88801363Y-37998759D01*
X89001241Y-38198637D01*
X89236273Y-38355680D01*
X89497426Y-38463853D01*
X89774665Y-38519000D01*
X90057335Y-38519000D01*
X90334574Y-38463853D01*
X90595727Y-38355680D01*
X90830759Y-38198637D01*
X91030637Y-37998759D01*
X91187680Y-37763727D01*
X91295853Y-37502574D01*
X91351000Y-37225335D01*
X91351000Y-36942665D01*
X91295853Y-36665426D01*
X91187680Y-36404273D01*
X91030637Y-36169241D01*
X90830759Y-35969363D01*
X90595727Y-35812320D01*
X90334574Y-35704147D01*
X90057335Y-35649000D01*
X89774665Y-35649000D01*
X89497426Y-35704147D01*
X89236273Y-35812320D01*
X89001241Y-35969363D01*
X88801363Y-36169241D01*
X88697957Y-36324000D01*
X82671142Y-36324000D01*
X82633819Y-36320324D01*
X82596496Y-36324000D01*
X82596487Y-36324000D01*
X82484834Y-36334997D01*
X82341573Y-36378454D01*
X82209544Y-36449026D01*
X82209542Y-36449027D01*
X82209543Y-36449027D01*
X82122816Y-36520201D01*
X82122812Y-36520205D01*
X82093819Y-36543999D01*
X82070025Y-36572992D01*
X81781703Y-36861315D01*
X81679805Y-36615313D01*
X81526920Y-36386505D01*
X81417965Y-36277550D01*
X81526920Y-36168595D01*
X81679805Y-35939787D01*
X81785114Y-35685550D01*
X81838800Y-35415652D01*
X81838800Y-35140468D01*
X81785114Y-34870570D01*
X81679805Y-34616333D01*
X81526920Y-34387525D01*
X81416695Y-34277300D01*
X81526920Y-34167075D01*
X81679805Y-33938267D01*
X81785114Y-33684030D01*
X81838800Y-33414132D01*
X81838800Y-33138948D01*
X81785114Y-32869050D01*
X81679805Y-32614813D01*
X81526920Y-32386005D01*
X81417965Y-32277050D01*
X81526920Y-32168095D01*
X81679805Y-31939287D01*
X81779471Y-31698673D01*
X83208827Y-33128029D01*
X83056320Y-33356273D01*
X82948147Y-33617426D01*
X82893000Y-33894665D01*
X82893000Y-34177335D01*
X82948147Y-34454574D01*
X83056320Y-34715727D01*
X83213363Y-34950759D01*
X83413241Y-35150637D01*
X83648273Y-35307680D01*
X83909426Y-35415853D01*
X84186665Y-35471000D01*
X84469335Y-35471000D01*
X84746574Y-35415853D01*
X85007727Y-35307680D01*
X85242759Y-35150637D01*
X85442637Y-34950759D01*
X85599680Y-34715727D01*
X85707853Y-34454574D01*
X85763000Y-34177335D01*
X85763000Y-33894665D01*
X85707853Y-33617426D01*
X85599680Y-33356273D01*
X85442637Y-33121241D01*
X85242759Y-32921363D01*
X85007727Y-32764320D01*
X84960063Y-32744577D01*
X84868001Y-32632399D01*
X84839004Y-32608602D01*
X81806486Y-29576085D01*
X81838800Y-29413632D01*
X81838800Y-29138448D01*
X81785114Y-28868550D01*
X81679805Y-28614313D01*
X81526920Y-28385505D01*
X81332335Y-28190920D01*
X81103527Y-28038035D01*
X80849290Y-27932726D01*
X80579392Y-27879040D01*
X80304208Y-27879040D01*
X80034310Y-27932726D01*
X79780073Y-28038035D01*
X79551265Y-28190920D01*
X79356680Y-28385505D01*
X79269459Y-28516040D01*
X77949282Y-28516040D01*
X77911959Y-28512364D01*
X77874636Y-28516040D01*
X77874627Y-28516040D01*
X77762974Y-28527037D01*
X77619713Y-28570494D01*
X77487683Y-28641066D01*
X77404043Y-28709708D01*
X77371959Y-28736039D01*
X77348161Y-28765037D01*
X75723198Y-30390001D01*
X74321544Y-30390001D01*
X74375000Y-30121260D01*
X74375000Y-29828740D01*
X74317932Y-29541842D01*
X74205990Y-29271589D01*
X74043475Y-29028368D01*
X73836632Y-28821525D01*
X73593411Y-28659010D01*
X73323158Y-28547068D01*
X73036260Y-28490000D01*
X72743740Y-28490000D01*
X72456842Y-28547068D01*
X72186589Y-28659010D01*
X71943368Y-28821525D01*
X71756285Y-29008608D01*
X71688405Y-28881614D01*
X71577962Y-28747038D01*
X71443386Y-28636595D01*
X71289850Y-28554528D01*
X71123254Y-28503992D01*
X70950000Y-28486928D01*
X69750000Y-28486928D01*
X69576746Y-28503992D01*
X69410150Y-28554528D01*
X69256614Y-28636595D01*
X69122038Y-28747038D01*
X69011595Y-28881614D01*
X68929528Y-29035150D01*
X68878992Y-29201746D01*
X68861928Y-29375000D01*
X68861928Y-30575000D01*
X68878992Y-30748254D01*
X68929528Y-30914850D01*
X69011595Y-31068386D01*
X69122038Y-31202962D01*
X69256614Y-31313405D01*
X69383608Y-31381285D01*
X69196525Y-31568368D01*
X69034010Y-31811589D01*
X68922068Y-32081842D01*
X68865000Y-32368740D01*
X68865000Y-32661260D01*
X68922068Y-32948158D01*
X69034010Y-33218411D01*
X69196525Y-33461632D01*
X69403368Y-33668475D01*
X69577760Y-33785000D01*
X69403368Y-33901525D01*
X69196525Y-34108368D01*
X69034010Y-34351589D01*
X68922068Y-34621842D01*
X68865000Y-34908740D01*
X68865000Y-35201260D01*
X68922068Y-35488158D01*
X69034010Y-35758411D01*
X69196525Y-36001632D01*
X69403368Y-36208475D01*
X69577760Y-36325000D01*
X69403368Y-36441525D01*
X69196525Y-36648368D01*
X69034010Y-36891589D01*
X68922068Y-37161842D01*
X68865000Y-37448740D01*
X68865000Y-37741260D01*
X68884104Y-37837303D01*
X68324000Y-37277199D01*
X68324000Y-33057322D01*
X68327676Y-33019999D01*
X68324000Y-32982676D01*
X68324000Y-32982667D01*
X68313003Y-32871014D01*
X68269546Y-32727753D01*
X68198974Y-32595724D01*
X68167532Y-32557412D01*
X68127799Y-32508996D01*
X68127795Y-32508992D01*
X68104001Y-32479999D01*
X68075009Y-32456206D01*
X66603803Y-30985002D01*
X66580001Y-30955999D01*
X66464276Y-30861026D01*
X66332247Y-30790454D01*
X66188986Y-30746997D01*
X66077333Y-30736000D01*
X66077322Y-30736000D01*
X66040000Y-30732324D01*
X66002678Y-30736000D01*
X60616322Y-30736000D01*
X60578999Y-30732324D01*
X60541676Y-30736000D01*
X60541667Y-30736000D01*
X60430014Y-30746997D01*
X60286753Y-30790454D01*
X60154723Y-30861026D01*
X60089139Y-30914850D01*
X60038999Y-30955999D01*
X60015201Y-30984997D01*
X58786408Y-32213791D01*
X58566260Y-32170000D01*
X58273740Y-32170000D01*
X57986842Y-32227068D01*
X57716589Y-32339010D01*
X57473368Y-32501525D01*
X57266525Y-32708368D01*
X57150000Y-32882760D01*
X57033475Y-32708368D01*
X56826632Y-32501525D01*
X56583411Y-32339010D01*
X56313158Y-32227068D01*
X56026260Y-32170000D01*
X55733740Y-32170000D01*
X55446842Y-32227068D01*
X55176589Y-32339010D01*
X54933368Y-32501525D01*
X54726525Y-32708368D01*
X54610000Y-32882760D01*
X54493475Y-32708368D01*
X54286632Y-32501525D01*
X54043411Y-32339010D01*
X53773158Y-32227068D01*
X53486260Y-32170000D01*
X53193740Y-32170000D01*
X52906842Y-32227068D01*
X52636589Y-32339010D01*
X52393368Y-32501525D01*
X52186525Y-32708368D01*
X52064805Y-32890534D01*
X51995178Y-32773645D01*
X51800269Y-32557412D01*
X51566920Y-32383359D01*
X51304099Y-32258175D01*
X51156890Y-32213524D01*
X50927000Y-32334845D01*
X50673000Y-32334845D01*
X50443110Y-32213524D01*
X50295901Y-32258175D01*
X50033080Y-32383359D01*
X49799731Y-32557412D01*
X49604822Y-32773645D01*
X49455843Y-33023748D01*
X49453000Y-33031763D01*
X49453000Y-24776000D01*
X76185928Y-24776000D01*
X76198188Y-24900482D01*
X76234498Y-25020180D01*
X76293463Y-25130494D01*
X76372815Y-25227185D01*
X76469506Y-25306537D01*
X76579820Y-25365502D01*
X76699518Y-25401812D01*
X76824000Y-25414072D01*
X77438250Y-25411000D01*
X77597000Y-25252250D01*
X77597000Y-24003000D01*
X76347750Y-24003000D01*
X76189000Y-24161750D01*
X76185928Y-24776000D01*
X49453000Y-24776000D01*
X49453000Y-22976000D01*
X76185928Y-22976000D01*
X76189000Y-23590250D01*
X76347750Y-23749000D01*
X77597000Y-23749000D01*
X77597000Y-22499750D01*
X77851000Y-22499750D01*
X77851000Y-23749000D01*
X77871000Y-23749000D01*
X77871000Y-24003000D01*
X77851000Y-24003000D01*
X77851000Y-25252250D01*
X78009750Y-25411000D01*
X78624000Y-25414072D01*
X78748482Y-25401812D01*
X78868180Y-25365502D01*
X78978494Y-25306537D01*
X79075185Y-25227185D01*
X79154537Y-25130494D01*
X79213502Y-25020180D01*
X79219056Y-25001873D01*
X79285495Y-25068312D01*
X79536905Y-25236299D01*
X79816257Y-25352011D01*
X80112816Y-25411000D01*
X80415184Y-25411000D01*
X80711743Y-25352011D01*
X80991095Y-25236299D01*
X81242505Y-25068312D01*
X81456312Y-24854505D01*
X81602313Y-24636000D01*
X83109957Y-24636000D01*
X83213363Y-24790759D01*
X83413241Y-24990637D01*
X83648273Y-25147680D01*
X83909426Y-25255853D01*
X84186665Y-25311000D01*
X84469335Y-25311000D01*
X84746574Y-25255853D01*
X85007727Y-25147680D01*
X85242759Y-24990637D01*
X85442637Y-24790759D01*
X85522074Y-24671872D01*
X97333000Y-24671872D01*
X97333000Y-25112128D01*
X97418890Y-25543925D01*
X97587369Y-25950669D01*
X97831962Y-26316729D01*
X98143271Y-26628038D01*
X98509331Y-26872631D01*
X98916075Y-27041110D01*
X99347872Y-27127000D01*
X99788128Y-27127000D01*
X100219925Y-27041110D01*
X100626669Y-26872631D01*
X100992729Y-26628038D01*
X101304038Y-26316729D01*
X101548631Y-25950669D01*
X101717110Y-25543925D01*
X101803000Y-25112128D01*
X101803000Y-24671872D01*
X101717110Y-24240075D01*
X101548631Y-23833331D01*
X101304038Y-23467271D01*
X100992729Y-23155962D01*
X100626669Y-22911369D01*
X100219925Y-22742890D01*
X99788128Y-22657000D01*
X99347872Y-22657000D01*
X98916075Y-22742890D01*
X98509331Y-22911369D01*
X98143271Y-23155962D01*
X97831962Y-23467271D01*
X97587369Y-23833331D01*
X97418890Y-24240075D01*
X97333000Y-24671872D01*
X85522074Y-24671872D01*
X85599680Y-24555727D01*
X85707853Y-24294574D01*
X85763000Y-24017335D01*
X85763000Y-23734665D01*
X85707853Y-23457426D01*
X85599680Y-23196273D01*
X85442637Y-22961241D01*
X85242759Y-22761363D01*
X85007727Y-22604320D01*
X84746574Y-22496147D01*
X84469335Y-22441000D01*
X84186665Y-22441000D01*
X83909426Y-22496147D01*
X83648273Y-22604320D01*
X83413241Y-22761363D01*
X83213363Y-22961241D01*
X83109957Y-23116000D01*
X81602313Y-23116000D01*
X81456312Y-22897495D01*
X81242505Y-22683688D01*
X80991095Y-22515701D01*
X80711743Y-22399989D01*
X80415184Y-22341000D01*
X80112816Y-22341000D01*
X79816257Y-22399989D01*
X79536905Y-22515701D01*
X79285495Y-22683688D01*
X79219056Y-22750127D01*
X79213502Y-22731820D01*
X79154537Y-22621506D01*
X79075185Y-22524815D01*
X78978494Y-22445463D01*
X78868180Y-22386498D01*
X78748482Y-22350188D01*
X78624000Y-22337928D01*
X78009750Y-22341000D01*
X77851000Y-22499750D01*
X77597000Y-22499750D01*
X77438250Y-22341000D01*
X76824000Y-22337928D01*
X76699518Y-22350188D01*
X76579820Y-22386498D01*
X76469506Y-22445463D01*
X76372815Y-22524815D01*
X76293463Y-22621506D01*
X76234498Y-22731820D01*
X76198188Y-22851518D01*
X76185928Y-22976000D01*
X49453000Y-22976000D01*
X49453000Y-22021000D01*
X103963000Y-22021000D01*
X103963001Y-83643000D01*
M02*
