G04 #@! TF.GenerationSoftware,KiCad,Pcbnew,(5.1.6)-1*
G04 #@! TF.CreationDate,2021-03-23T21:28:11+01:00*
G04 #@! TF.ProjectId,CentralUnit,43656e74-7261-46c5-956e-69742e6b6963,rev?*
G04 #@! TF.SameCoordinates,Original*
G04 #@! TF.FileFunction,Copper,L1,Top*
G04 #@! TF.FilePolarity,Positive*
%FSLAX46Y46*%
G04 Gerber Fmt 4.6, Leading zero omitted, Abs format (unit mm)*
G04 Created by KiCad (PCBNEW (5.1.6)-1) date 2021-03-23 21:28:11*
%MOMM*%
%LPD*%
G01*
G04 APERTURE LIST*
G04 #@! TA.AperFunction,ComponentPad*
%ADD10C,1.524000*%
G04 #@! TD*
G04 #@! TA.AperFunction,ComponentPad*
%ADD11O,1.600000X1.600000*%
G04 #@! TD*
G04 #@! TA.AperFunction,ComponentPad*
%ADD12C,1.600000*%
G04 #@! TD*
G04 #@! TA.AperFunction,ComponentPad*
%ADD13O,1.700000X1.700000*%
G04 #@! TD*
G04 #@! TA.AperFunction,ComponentPad*
%ADD14R,1.700000X1.700000*%
G04 #@! TD*
G04 #@! TA.AperFunction,ComponentPad*
%ADD15C,1.700000*%
G04 #@! TD*
G04 #@! TA.AperFunction,ComponentPad*
%ADD16C,1.800000*%
G04 #@! TD*
G04 #@! TA.AperFunction,ComponentPad*
%ADD17R,1.800000X1.800000*%
G04 #@! TD*
G04 APERTURE END LIST*
D10*
X102438200Y-29276040D03*
X102438200Y-31277560D03*
X102438200Y-33276540D03*
X102438200Y-35278060D03*
X102438200Y-37277040D03*
X102438200Y-39276020D03*
X102438200Y-41277540D03*
X102438200Y-43276520D03*
X102438200Y-45278040D03*
X102438200Y-47277020D03*
X80441800Y-47277020D03*
X80441800Y-45278040D03*
X80441800Y-43276520D03*
X80441800Y-41277540D03*
X80441800Y-39276020D03*
X80441800Y-37277040D03*
X80441800Y-35278060D03*
X80441800Y-33276540D03*
X80441800Y-31277560D03*
X80441800Y-29276040D03*
D11*
X84328000Y-23876000D03*
D12*
X84328000Y-34036000D03*
D11*
X93472000Y-39116000D03*
D12*
X93472000Y-49276000D03*
D11*
X89916000Y-47244000D03*
D12*
X89916000Y-37084000D03*
D13*
X92456000Y-68580000D03*
X92456000Y-66040000D03*
D14*
X92456000Y-63500000D03*
D13*
X50800000Y-33655000D03*
X53340000Y-33655000D03*
X55880000Y-33655000D03*
X58420000Y-33655000D03*
X60960000Y-33655000D03*
D14*
X63500000Y-33655000D03*
D15*
X72890000Y-78235000D03*
X72890000Y-75695000D03*
X72890000Y-73155000D03*
X72890000Y-70615000D03*
X72890000Y-68075000D03*
X72890000Y-65535000D03*
X72890000Y-62995000D03*
X72890000Y-60455000D03*
X72890000Y-57915000D03*
X72890000Y-55375000D03*
X72890000Y-52835000D03*
X72890000Y-50295000D03*
X72890000Y-47755000D03*
X72890000Y-45215000D03*
X72890000Y-42675000D03*
X72890000Y-40135000D03*
X72890000Y-37595000D03*
X72890000Y-35055000D03*
X72890000Y-32515000D03*
X72890000Y-29975000D03*
X70350000Y-78235000D03*
X70350000Y-75695000D03*
X70350000Y-73155000D03*
X70350000Y-70615000D03*
X70350000Y-68075000D03*
X70350000Y-65535000D03*
X70350000Y-62995000D03*
X70350000Y-60455000D03*
X70350000Y-57915000D03*
X70350000Y-55375000D03*
X70350000Y-52835000D03*
X70350000Y-50295000D03*
X70350000Y-47755000D03*
X70350000Y-45215000D03*
X70350000Y-42675000D03*
X70350000Y-40135000D03*
X70350000Y-37595000D03*
X70350000Y-35055000D03*
X70350000Y-32515000D03*
G04 #@! TA.AperFunction,ComponentPad*
G36*
G01*
X69500000Y-30575000D02*
X69500000Y-29375000D01*
G75*
G02*
X69750000Y-29125000I250000J0D01*
G01*
X70950000Y-29125000D01*
G75*
G02*
X71200000Y-29375000I0J-250000D01*
G01*
X71200000Y-30575000D01*
G75*
G02*
X70950000Y-30825000I-250000J0D01*
G01*
X69750000Y-30825000D01*
G75*
G02*
X69500000Y-30575000I0J250000D01*
G01*
G37*
G04 #@! TD.AperFunction*
D16*
X80264000Y-23876000D03*
D17*
X77724000Y-23876000D03*
D16*
X94996000Y-58420000D03*
D17*
X97536000Y-58420000D03*
D16*
X89916000Y-58420000D03*
D17*
X92456000Y-58420000D03*
M02*
