G04 #@! TF.GenerationSoftware,KiCad,Pcbnew,(5.1.6)-1*
G04 #@! TF.CreationDate,2021-03-23T21:28:11+01:00*
G04 #@! TF.ProjectId,CentralUnit,43656e74-7261-46c5-956e-69742e6b6963,rev?*
G04 #@! TF.SameCoordinates,Original*
G04 #@! TF.FileFunction,Legend,Top*
G04 #@! TF.FilePolarity,Positive*
%FSLAX46Y46*%
G04 Gerber Fmt 4.6, Leading zero omitted, Abs format (unit mm)*
G04 Created by KiCad (PCBNEW (5.1.6)-1) date 2021-03-23 21:28:11*
%MOMM*%
%LPD*%
G01*
G04 APERTURE LIST*
%ADD10C,0.150000*%
%ADD11C,0.203200*%
%ADD12C,0.120000*%
%ADD13C,0.127000*%
%ADD14C,0.152400*%
G04 APERTURE END LIST*
D10*
X60198095Y-36028380D02*
X60769523Y-36028380D01*
X60483809Y-37028380D02*
X60483809Y-36028380D01*
X61007619Y-36028380D02*
X61674285Y-37028380D01*
X61674285Y-36028380D02*
X61007619Y-37028380D01*
X58253333Y-37028380D02*
X57920000Y-36552190D01*
X57681904Y-37028380D02*
X57681904Y-36028380D01*
X58062857Y-36028380D01*
X58158095Y-36076000D01*
X58205714Y-36123619D01*
X58253333Y-36218857D01*
X58253333Y-36361714D01*
X58205714Y-36456952D01*
X58158095Y-36504571D01*
X58062857Y-36552190D01*
X57681904Y-36552190D01*
X58586666Y-36028380D02*
X59253333Y-37028380D01*
X59253333Y-36028380D02*
X58586666Y-37028380D01*
X50038095Y-36076000D02*
X49942857Y-36028380D01*
X49800000Y-36028380D01*
X49657142Y-36076000D01*
X49561904Y-36171238D01*
X49514285Y-36266476D01*
X49466666Y-36456952D01*
X49466666Y-36599809D01*
X49514285Y-36790285D01*
X49561904Y-36885523D01*
X49657142Y-36980761D01*
X49800000Y-37028380D01*
X49895238Y-37028380D01*
X50038095Y-36980761D01*
X50085714Y-36933142D01*
X50085714Y-36599809D01*
X49895238Y-36599809D01*
X50514285Y-37028380D02*
X50514285Y-36028380D01*
X51085714Y-37028380D01*
X51085714Y-36028380D01*
X51561904Y-37028380D02*
X51561904Y-36028380D01*
X51800000Y-36028380D01*
X51942857Y-36076000D01*
X52038095Y-36171238D01*
X52085714Y-36266476D01*
X52133333Y-36456952D01*
X52133333Y-36599809D01*
X52085714Y-36790285D01*
X52038095Y-36885523D01*
X51942857Y-36980761D01*
X51800000Y-37028380D01*
X51561904Y-37028380D01*
X93726095Y-68080000D02*
X93630857Y-68032380D01*
X93488000Y-68032380D01*
X93345142Y-68080000D01*
X93249904Y-68175238D01*
X93202285Y-68270476D01*
X93154666Y-68460952D01*
X93154666Y-68603809D01*
X93202285Y-68794285D01*
X93249904Y-68889523D01*
X93345142Y-68984761D01*
X93488000Y-69032380D01*
X93583238Y-69032380D01*
X93726095Y-68984761D01*
X93773714Y-68937142D01*
X93773714Y-68603809D01*
X93583238Y-68603809D01*
X94202285Y-69032380D02*
X94202285Y-68032380D01*
X94773714Y-69032380D01*
X94773714Y-68032380D01*
X95249904Y-69032380D02*
X95249904Y-68032380D01*
X95488000Y-68032380D01*
X95630857Y-68080000D01*
X95726095Y-68175238D01*
X95773714Y-68270476D01*
X95821333Y-68460952D01*
X95821333Y-68603809D01*
X95773714Y-68794285D01*
X95726095Y-68889523D01*
X95630857Y-68984761D01*
X95488000Y-69032380D01*
X95249904Y-69032380D01*
X94234095Y-62952380D02*
X94805523Y-62952380D01*
X94519809Y-63952380D02*
X94519809Y-62952380D01*
X95043619Y-62952380D02*
X95710285Y-63952380D01*
X95710285Y-62952380D02*
X95043619Y-63952380D01*
X94829333Y-66492380D02*
X94496000Y-66016190D01*
X94257904Y-66492380D02*
X94257904Y-65492380D01*
X94638857Y-65492380D01*
X94734095Y-65540000D01*
X94781714Y-65587619D01*
X94829333Y-65682857D01*
X94829333Y-65825714D01*
X94781714Y-65920952D01*
X94734095Y-65968571D01*
X94638857Y-66016190D01*
X94257904Y-66016190D01*
X95162666Y-65492380D02*
X95829333Y-66492380D01*
X95829333Y-65492380D02*
X95162666Y-66492380D01*
D11*
X81691480Y-28026360D02*
X81691480Y-48526700D01*
X79192120Y-48526700D02*
X81691480Y-48526700D01*
X79192120Y-28026360D02*
X79192120Y-48526700D01*
X81691480Y-28026360D02*
X79192120Y-28026360D01*
X101188520Y-28026360D02*
X101188520Y-48526700D01*
X103687880Y-48526700D02*
X101188520Y-48526700D01*
X103687880Y-28026360D02*
X103687880Y-48526700D01*
X101188520Y-28026360D02*
X103687880Y-28026360D01*
D12*
X82958000Y-32226000D02*
X85698000Y-32226000D01*
X85698000Y-32226000D02*
X85698000Y-25686000D01*
X85698000Y-25686000D02*
X82958000Y-25686000D01*
X82958000Y-25686000D02*
X82958000Y-32226000D01*
X84328000Y-32996000D02*
X84328000Y-32226000D01*
X84328000Y-24916000D02*
X84328000Y-25686000D01*
X92102000Y-47466000D02*
X94842000Y-47466000D01*
X94842000Y-47466000D02*
X94842000Y-40926000D01*
X94842000Y-40926000D02*
X92102000Y-40926000D01*
X92102000Y-40926000D02*
X92102000Y-47466000D01*
X93472000Y-48236000D02*
X93472000Y-47466000D01*
X93472000Y-40156000D02*
X93472000Y-40926000D01*
X91286000Y-38894000D02*
X88546000Y-38894000D01*
X88546000Y-38894000D02*
X88546000Y-45434000D01*
X88546000Y-45434000D02*
X91286000Y-45434000D01*
X91286000Y-45434000D02*
X91286000Y-38894000D01*
X89916000Y-38124000D02*
X89916000Y-38894000D01*
X89916000Y-46204000D02*
X89916000Y-45434000D01*
X93896000Y-62170000D02*
X93896000Y-69910000D01*
X93896000Y-69910000D02*
X96556000Y-69910000D01*
X96556000Y-69910000D02*
X96556000Y-62170000D01*
X96556000Y-62170000D02*
X93896000Y-62170000D01*
X96556000Y-63120000D02*
X102556000Y-63120000D01*
X102556000Y-63120000D02*
X102556000Y-63880000D01*
X102556000Y-63880000D02*
X96556000Y-63880000D01*
X96556000Y-63180000D02*
X102556000Y-63180000D01*
X96556000Y-63300000D02*
X102556000Y-63300000D01*
X96556000Y-63420000D02*
X102556000Y-63420000D01*
X96556000Y-63540000D02*
X102556000Y-63540000D01*
X96556000Y-63660000D02*
X102556000Y-63660000D01*
X96556000Y-63780000D02*
X102556000Y-63780000D01*
X93566000Y-63120000D02*
X93896000Y-63120000D01*
X93566000Y-63880000D02*
X93896000Y-63880000D01*
X93896000Y-64770000D02*
X96556000Y-64770000D01*
X96556000Y-65660000D02*
X102556000Y-65660000D01*
X102556000Y-65660000D02*
X102556000Y-66420000D01*
X102556000Y-66420000D02*
X96556000Y-66420000D01*
X93498929Y-65660000D02*
X93896000Y-65660000D01*
X93498929Y-66420000D02*
X93896000Y-66420000D01*
X93896000Y-67310000D02*
X96556000Y-67310000D01*
X96556000Y-68200000D02*
X102556000Y-68200000D01*
X102556000Y-68200000D02*
X102556000Y-68960000D01*
X102556000Y-68960000D02*
X96556000Y-68960000D01*
X93498929Y-68200000D02*
X93896000Y-68200000D01*
X93498929Y-68960000D02*
X93896000Y-68960000D01*
X91186000Y-63500000D02*
X91186000Y-62230000D01*
X91186000Y-62230000D02*
X92456000Y-62230000D01*
X64710000Y-23565000D02*
X64710000Y-32195000D01*
X64591905Y-23565000D02*
X64591905Y-32195000D01*
X64473810Y-23565000D02*
X64473810Y-32195000D01*
X64355715Y-23565000D02*
X64355715Y-32195000D01*
X64237620Y-23565000D02*
X64237620Y-32195000D01*
X64119525Y-23565000D02*
X64119525Y-32195000D01*
X64001430Y-23565000D02*
X64001430Y-32195000D01*
X63883335Y-23565000D02*
X63883335Y-32195000D01*
X63765240Y-23565000D02*
X63765240Y-32195000D01*
X63647145Y-23565000D02*
X63647145Y-32195000D01*
X63529050Y-23565000D02*
X63529050Y-32195000D01*
X63410955Y-23565000D02*
X63410955Y-32195000D01*
X63292860Y-23565000D02*
X63292860Y-32195000D01*
X63174765Y-23565000D02*
X63174765Y-32195000D01*
X63056670Y-23565000D02*
X63056670Y-32195000D01*
X62938575Y-23565000D02*
X62938575Y-32195000D01*
X62820480Y-23565000D02*
X62820480Y-32195000D01*
X62702385Y-23565000D02*
X62702385Y-32195000D01*
X62584290Y-23565000D02*
X62584290Y-32195000D01*
X62466195Y-23565000D02*
X62466195Y-32195000D01*
X62348100Y-23565000D02*
X62348100Y-32195000D01*
X63860000Y-32195000D02*
X63860000Y-32545000D01*
X63140000Y-32195000D02*
X63140000Y-32545000D01*
X61320000Y-32195000D02*
X61320000Y-32605000D01*
X60600000Y-32195000D02*
X60600000Y-32605000D01*
X58780000Y-32195000D02*
X58780000Y-32605000D01*
X58060000Y-32195000D02*
X58060000Y-32605000D01*
X56240000Y-32195000D02*
X56240000Y-32605000D01*
X55520000Y-32195000D02*
X55520000Y-32605000D01*
X53700000Y-32195000D02*
X53700000Y-32605000D01*
X52980000Y-32195000D02*
X52980000Y-32605000D01*
X51160000Y-32195000D02*
X51160000Y-32605000D01*
X50440000Y-32195000D02*
X50440000Y-32605000D01*
X62230000Y-23565000D02*
X62230000Y-32195000D01*
X59690000Y-23565000D02*
X59690000Y-32195000D01*
X57150000Y-23565000D02*
X57150000Y-32195000D01*
X54610000Y-23565000D02*
X54610000Y-32195000D01*
X52070000Y-23565000D02*
X52070000Y-32195000D01*
X64830000Y-23565000D02*
X64830000Y-32195000D01*
X64830000Y-32195000D02*
X49470000Y-32195000D01*
X49470000Y-23565000D02*
X49470000Y-32195000D01*
X64830000Y-23565000D02*
X49470000Y-23565000D01*
X64830000Y-34765000D02*
X63500000Y-34765000D01*
X64830000Y-33655000D02*
X64830000Y-34765000D01*
X67060000Y-24765000D02*
X76180000Y-24765000D01*
X76180000Y-24765000D02*
X76180000Y-83445000D01*
X76180000Y-83445000D02*
X67060000Y-83445000D01*
X67060000Y-83445000D02*
X67060000Y-24765000D01*
X67060000Y-52055000D02*
X68370000Y-52055000D01*
X68370000Y-52055000D02*
X68370000Y-26065000D01*
X68370000Y-26065000D02*
X74870000Y-26065000D01*
X74870000Y-26065000D02*
X74870000Y-82145000D01*
X74870000Y-82145000D02*
X68370000Y-82145000D01*
X68370000Y-82145000D02*
X68370000Y-56155000D01*
X68370000Y-56155000D02*
X68370000Y-56155000D01*
X68370000Y-56155000D02*
X67060000Y-56155000D01*
X66670000Y-29975000D02*
X65670000Y-29475000D01*
X65670000Y-29475000D02*
X65670000Y-30475000D01*
X65670000Y-30475000D02*
X66670000Y-29975000D01*
X77434000Y-22640000D02*
X77434000Y-22796000D01*
X77434000Y-24956000D02*
X77434000Y-25112000D01*
X80035130Y-24955837D02*
G75*
G02*
X77953039Y-24956000I-1041130J1079837D01*
G01*
X80035130Y-22796163D02*
G75*
G03*
X77953039Y-22796000I-1041130J-1079837D01*
G01*
X80666335Y-24954608D02*
G75*
G02*
X77434000Y-25111516I-1672335J1078608D01*
G01*
X80666335Y-22797392D02*
G75*
G03*
X77434000Y-22640484I-1672335J-1078608D01*
G01*
X97826000Y-59656000D02*
X97826000Y-59500000D01*
X97826000Y-57340000D02*
X97826000Y-57184000D01*
X95224870Y-57340163D02*
G75*
G02*
X97306961Y-57340000I1041130J-1079837D01*
G01*
X95224870Y-59499837D02*
G75*
G03*
X97306961Y-59500000I1041130J1079837D01*
G01*
X94593665Y-57341392D02*
G75*
G02*
X97826000Y-57184484I1672335J-1078608D01*
G01*
X94593665Y-59498608D02*
G75*
G03*
X97826000Y-59655516I1672335J1078608D01*
G01*
X92746000Y-59656000D02*
X92746000Y-59500000D01*
X92746000Y-57340000D02*
X92746000Y-57184000D01*
X90144870Y-57340163D02*
G75*
G02*
X92226961Y-57340000I1041130J-1079837D01*
G01*
X90144870Y-59499837D02*
G75*
G03*
X92226961Y-59500000I1041130J1079837D01*
G01*
X89513665Y-57341392D02*
G75*
G02*
X92746000Y-57184484I1672335J-1078608D01*
G01*
X89513665Y-59498608D02*
G75*
G03*
X92746000Y-59655516I1672335J1078608D01*
G01*
D13*
X99822000Y-52752171D02*
X99822000Y-53187600D01*
X99792971Y-53274685D01*
X99734914Y-53332742D01*
X99647828Y-53361771D01*
X99589771Y-53361771D01*
X100112285Y-53361771D02*
X100112285Y-52752171D01*
X100344514Y-52752171D01*
X100402571Y-52781200D01*
X100431600Y-52810228D01*
X100460628Y-52868285D01*
X100460628Y-52955371D01*
X100431600Y-53013428D01*
X100402571Y-53042457D01*
X100344514Y-53071485D01*
X100112285Y-53071485D01*
X101041200Y-53361771D02*
X100692857Y-53361771D01*
X100867028Y-53361771D02*
X100867028Y-52752171D01*
X100808971Y-52839257D01*
X100750914Y-52897314D01*
X100692857Y-52926342D01*
D14*
X82738685Y-29227659D02*
X82158114Y-29227659D01*
X82448400Y-29227659D02*
X82448400Y-28211659D01*
X82351638Y-28356801D01*
X82254876Y-28453563D01*
X82158114Y-28501944D01*
D10*
X82410380Y-29122666D02*
X81934190Y-29456000D01*
X82410380Y-29694095D02*
X81410380Y-29694095D01*
X81410380Y-29313142D01*
X81458000Y-29217904D01*
X81505619Y-29170285D01*
X81600857Y-29122666D01*
X81743714Y-29122666D01*
X81838952Y-29170285D01*
X81886571Y-29217904D01*
X81934190Y-29313142D01*
X81934190Y-29694095D01*
X81410380Y-28789333D02*
X81410380Y-28170285D01*
X81791333Y-28503619D01*
X81791333Y-28360761D01*
X81838952Y-28265523D01*
X81886571Y-28217904D01*
X81981809Y-28170285D01*
X82219904Y-28170285D01*
X82315142Y-28217904D01*
X82362761Y-28265523D01*
X82410380Y-28360761D01*
X82410380Y-28646476D01*
X82362761Y-28741714D01*
X82315142Y-28789333D01*
X91554380Y-44362666D02*
X91078190Y-44696000D01*
X91554380Y-44934095D02*
X90554380Y-44934095D01*
X90554380Y-44553142D01*
X90602000Y-44457904D01*
X90649619Y-44410285D01*
X90744857Y-44362666D01*
X90887714Y-44362666D01*
X90982952Y-44410285D01*
X91030571Y-44457904D01*
X91078190Y-44553142D01*
X91078190Y-44934095D01*
X90649619Y-43981714D02*
X90602000Y-43934095D01*
X90554380Y-43838857D01*
X90554380Y-43600761D01*
X90602000Y-43505523D01*
X90649619Y-43457904D01*
X90744857Y-43410285D01*
X90840095Y-43410285D01*
X90982952Y-43457904D01*
X91554380Y-44029333D01*
X91554380Y-43410285D01*
X92738380Y-42330666D02*
X92262190Y-42664000D01*
X92738380Y-42902095D02*
X91738380Y-42902095D01*
X91738380Y-42521142D01*
X91786000Y-42425904D01*
X91833619Y-42378285D01*
X91928857Y-42330666D01*
X92071714Y-42330666D01*
X92166952Y-42378285D01*
X92214571Y-42425904D01*
X92262190Y-42521142D01*
X92262190Y-42902095D01*
X92738380Y-41378285D02*
X92738380Y-41949714D01*
X92738380Y-41664000D02*
X91738380Y-41664000D01*
X91881238Y-41759238D01*
X91976476Y-41854476D01*
X92024095Y-41949714D01*
X85304380Y-68635238D02*
X85304380Y-68063809D01*
X86304380Y-68349523D02*
X85304380Y-68349523D01*
X86304380Y-67730476D02*
X85304380Y-67730476D01*
X86018666Y-67397142D01*
X85304380Y-67063809D01*
X86304380Y-67063809D01*
X86304380Y-66016190D02*
X85828190Y-66349523D01*
X86304380Y-66587619D02*
X85304380Y-66587619D01*
X85304380Y-66206666D01*
X85352000Y-66111428D01*
X85399619Y-66063809D01*
X85494857Y-66016190D01*
X85637714Y-66016190D01*
X85732952Y-66063809D01*
X85780571Y-66111428D01*
X85828190Y-66206666D01*
X85828190Y-66587619D01*
X86399619Y-65825714D02*
X86399619Y-65063809D01*
X85304380Y-64540000D02*
X86018666Y-64540000D01*
X86161523Y-64587619D01*
X86256761Y-64682857D01*
X86304380Y-64825714D01*
X86304380Y-64920952D01*
X85304380Y-64159047D02*
X85304380Y-63540000D01*
X85685333Y-63873333D01*
X85685333Y-63730476D01*
X85732952Y-63635238D01*
X85780571Y-63587619D01*
X85875809Y-63540000D01*
X86113904Y-63540000D01*
X86209142Y-63587619D01*
X86256761Y-63635238D01*
X86304380Y-63730476D01*
X86304380Y-64016190D01*
X86256761Y-64111428D01*
X86209142Y-64159047D01*
X55824761Y-38060380D02*
X56396190Y-38060380D01*
X56110476Y-39060380D02*
X56110476Y-38060380D01*
X57300952Y-39060380D02*
X56967619Y-38584190D01*
X56729523Y-39060380D02*
X56729523Y-38060380D01*
X57110476Y-38060380D01*
X57205714Y-38108000D01*
X57253333Y-38155619D01*
X57300952Y-38250857D01*
X57300952Y-38393714D01*
X57253333Y-38488952D01*
X57205714Y-38536571D01*
X57110476Y-38584190D01*
X56729523Y-38584190D01*
X57729523Y-39060380D02*
X57729523Y-38060380D01*
X58062857Y-38774666D01*
X58396190Y-38060380D01*
X58396190Y-39060380D01*
X58634285Y-39155619D02*
X59396190Y-39155619D01*
X59919999Y-38060380D02*
X59919999Y-38774666D01*
X59872380Y-38917523D01*
X59777142Y-39012761D01*
X59634285Y-39060380D01*
X59539047Y-39060380D01*
X60348571Y-38155619D02*
X60396190Y-38108000D01*
X60491428Y-38060380D01*
X60729523Y-38060380D01*
X60824761Y-38108000D01*
X60872380Y-38155619D01*
X60920000Y-38250857D01*
X60920000Y-38346095D01*
X60872380Y-38488952D01*
X60300952Y-39060380D01*
X60920000Y-39060380D01*
X71286666Y-23327380D02*
X71286666Y-24041666D01*
X71239047Y-24184523D01*
X71143809Y-24279761D01*
X71000952Y-24327380D01*
X70905714Y-24327380D01*
X72286666Y-24327380D02*
X71715238Y-24327380D01*
X72000952Y-24327380D02*
X72000952Y-23327380D01*
X71905714Y-23470238D01*
X71810476Y-23565476D01*
X71715238Y-23613095D01*
X70461523Y-25344380D02*
X70461523Y-24344380D01*
X70842476Y-24344380D01*
X70937714Y-24392000D01*
X70985333Y-24439619D01*
X71032952Y-24534857D01*
X71032952Y-24677714D01*
X70985333Y-24772952D01*
X70937714Y-24820571D01*
X70842476Y-24868190D01*
X70461523Y-24868190D01*
X71366285Y-24344380D02*
X71604380Y-25344380D01*
X71794857Y-24630095D01*
X71985333Y-25344380D01*
X72223428Y-24344380D01*
X73175809Y-25344380D02*
X72842476Y-24868190D01*
X72604380Y-25344380D02*
X72604380Y-24344380D01*
X72985333Y-24344380D01*
X73080571Y-24392000D01*
X73128190Y-24439619D01*
X73175809Y-24534857D01*
X73175809Y-24677714D01*
X73128190Y-24772952D01*
X73080571Y-24820571D01*
X72985333Y-24868190D01*
X72604380Y-24868190D01*
X73366285Y-25439619D02*
X74128190Y-25439619D01*
X74366285Y-25344380D02*
X74366285Y-24344380D01*
X74604380Y-24344380D01*
X74747238Y-24392000D01*
X74842476Y-24487238D01*
X74890095Y-24582476D01*
X74937714Y-24772952D01*
X74937714Y-24915809D01*
X74890095Y-25106285D01*
X74842476Y-25201523D01*
X74747238Y-25296761D01*
X74604380Y-25344380D01*
X74366285Y-25344380D01*
X75271047Y-24344380D02*
X75890095Y-24344380D01*
X75556761Y-24725333D01*
X75699619Y-24725333D01*
X75794857Y-24772952D01*
X75842476Y-24820571D01*
X75890095Y-24915809D01*
X75890095Y-25153904D01*
X75842476Y-25249142D01*
X75794857Y-25296761D01*
X75699619Y-25344380D01*
X75413904Y-25344380D01*
X75318666Y-25296761D01*
X75271047Y-25249142D01*
X99734666Y-60975428D02*
X99734666Y-60499238D01*
X100020380Y-61070666D02*
X99020380Y-60737333D01*
X100020380Y-60404000D01*
X99972761Y-60118285D02*
X100020380Y-59975428D01*
X100020380Y-59737333D01*
X99972761Y-59642095D01*
X99925142Y-59594476D01*
X99829904Y-59546857D01*
X99734666Y-59546857D01*
X99639428Y-59594476D01*
X99591809Y-59642095D01*
X99544190Y-59737333D01*
X99496571Y-59927809D01*
X99448952Y-60023047D01*
X99401333Y-60070666D01*
X99306095Y-60118285D01*
X99210857Y-60118285D01*
X99115619Y-60070666D01*
X99068000Y-60023047D01*
X99020380Y-59927809D01*
X99020380Y-59689714D01*
X99068000Y-59546857D01*
X99972761Y-59165904D02*
X100020380Y-59023047D01*
X100020380Y-58784952D01*
X99972761Y-58689714D01*
X99925142Y-58642095D01*
X99829904Y-58594476D01*
X99734666Y-58594476D01*
X99639428Y-58642095D01*
X99591809Y-58689714D01*
X99544190Y-58784952D01*
X99496571Y-58975428D01*
X99448952Y-59070666D01*
X99401333Y-59118285D01*
X99306095Y-59165904D01*
X99210857Y-59165904D01*
X99115619Y-59118285D01*
X99068000Y-59070666D01*
X99020380Y-58975428D01*
X99020380Y-58737333D01*
X99068000Y-58594476D01*
X99020380Y-57975428D02*
X99020380Y-57784952D01*
X99068000Y-57689714D01*
X99163238Y-57594476D01*
X99353714Y-57546857D01*
X99687047Y-57546857D01*
X99877523Y-57594476D01*
X99972761Y-57689714D01*
X100020380Y-57784952D01*
X100020380Y-57975428D01*
X99972761Y-58070666D01*
X99877523Y-58165904D01*
X99687047Y-58213523D01*
X99353714Y-58213523D01*
X99163238Y-58165904D01*
X99068000Y-58070666D01*
X99020380Y-57975428D01*
X99925142Y-56546857D02*
X99972761Y-56594476D01*
X100020380Y-56737333D01*
X100020380Y-56832571D01*
X99972761Y-56975428D01*
X99877523Y-57070666D01*
X99782285Y-57118285D01*
X99591809Y-57165904D01*
X99448952Y-57165904D01*
X99258476Y-57118285D01*
X99163238Y-57070666D01*
X99068000Y-56975428D01*
X99020380Y-56832571D01*
X99020380Y-56737333D01*
X99068000Y-56594476D01*
X99115619Y-56546857D01*
X100115619Y-56356380D02*
X100115619Y-55594476D01*
X100020380Y-55356380D02*
X99020380Y-55356380D01*
X99020380Y-55118285D01*
X99068000Y-54975428D01*
X99163238Y-54880190D01*
X99258476Y-54832571D01*
X99448952Y-54784952D01*
X99591809Y-54784952D01*
X99782285Y-54832571D01*
X99877523Y-54880190D01*
X99972761Y-54975428D01*
X100020380Y-55118285D01*
X100020380Y-55356380D01*
X99115619Y-54404000D02*
X99068000Y-54356380D01*
X99020380Y-54261142D01*
X99020380Y-54023047D01*
X99068000Y-53927809D01*
X99115619Y-53880190D01*
X99210857Y-53832571D01*
X99306095Y-53832571D01*
X99448952Y-53880190D01*
X100020380Y-54451619D01*
X100020380Y-53832571D01*
X88336380Y-60150095D02*
X87860190Y-60483428D01*
X88336380Y-60721523D02*
X87336380Y-60721523D01*
X87336380Y-60340571D01*
X87384000Y-60245333D01*
X87431619Y-60197714D01*
X87526857Y-60150095D01*
X87669714Y-60150095D01*
X87764952Y-60197714D01*
X87812571Y-60245333D01*
X87860190Y-60340571D01*
X87860190Y-60721523D01*
X88288761Y-59769142D02*
X88336380Y-59626285D01*
X88336380Y-59388190D01*
X88288761Y-59292952D01*
X88241142Y-59245333D01*
X88145904Y-59197714D01*
X88050666Y-59197714D01*
X87955428Y-59245333D01*
X87907809Y-59292952D01*
X87860190Y-59388190D01*
X87812571Y-59578666D01*
X87764952Y-59673904D01*
X87717333Y-59721523D01*
X87622095Y-59769142D01*
X87526857Y-59769142D01*
X87431619Y-59721523D01*
X87384000Y-59673904D01*
X87336380Y-59578666D01*
X87336380Y-59340571D01*
X87384000Y-59197714D01*
X88288761Y-58816761D02*
X88336380Y-58673904D01*
X88336380Y-58435809D01*
X88288761Y-58340571D01*
X88241142Y-58292952D01*
X88145904Y-58245333D01*
X88050666Y-58245333D01*
X87955428Y-58292952D01*
X87907809Y-58340571D01*
X87860190Y-58435809D01*
X87812571Y-58626285D01*
X87764952Y-58721523D01*
X87717333Y-58769142D01*
X87622095Y-58816761D01*
X87526857Y-58816761D01*
X87431619Y-58769142D01*
X87384000Y-58721523D01*
X87336380Y-58626285D01*
X87336380Y-58388190D01*
X87384000Y-58245333D01*
X88336380Y-57816761D02*
X87336380Y-57816761D01*
X88431619Y-57578666D02*
X88431619Y-56816761D01*
X88336380Y-56578666D02*
X87336380Y-56578666D01*
X87336380Y-56340571D01*
X87384000Y-56197714D01*
X87479238Y-56102476D01*
X87574476Y-56054857D01*
X87764952Y-56007238D01*
X87907809Y-56007238D01*
X88098285Y-56054857D01*
X88193523Y-56102476D01*
X88288761Y-56197714D01*
X88336380Y-56340571D01*
X88336380Y-56578666D01*
X88336380Y-55054857D02*
X88336380Y-55626285D01*
X88336380Y-55340571D02*
X87336380Y-55340571D01*
X87479238Y-55435809D01*
X87574476Y-55531047D01*
X87622095Y-55626285D01*
M02*
