M48
; DRILL file {KiCad (5.1.6)-1} date 03/23/21 21:28:18
; FORMAT={-:-/ absolute / inch / decimal}
; #@! TF.CreationDate,2021-03-23T21:28:18+01:00
; #@! TF.GenerationSoftware,Kicad,Pcbnew,(5.1.6)-1
; #@! TF.FileFunction,Plated,1,2,PTH
FMAT,2
INCH
T1C0.0314
T2C0.0315
T3C0.0354
T4C0.0394
%
G90
G05
T1
X3.167Y-1.1526
X3.167Y-1.2314
X3.167Y-1.3101
X3.167Y-1.3889
X3.167Y-1.4676
X3.167Y-1.5463
X3.167Y-1.6251
X3.167Y-1.7038
X3.167Y-1.7826
X3.167Y-1.8613
X4.033Y-1.1526
X4.033Y-1.2314
X4.033Y-1.3101
X4.033Y-1.3889
X4.033Y-1.4676
X4.033Y-1.5463
X4.033Y-1.6251
X4.033Y-1.7038
X4.033Y-1.7826
X4.033Y-1.8613
T2
X3.54Y-1.46
X3.54Y-1.86
X3.32Y-0.94
X3.32Y-1.34
X3.68Y-1.54
X3.68Y-1.94
T3
X3.74Y-2.3
X3.84Y-2.3
X3.06Y-0.94
X3.16Y-0.94
X3.54Y-2.3
X3.64Y-2.3
T4
X3.64Y-2.5
X3.64Y-2.6
X3.64Y-2.7
X2.0Y-1.325
X2.1Y-1.325
X2.2Y-1.325
X2.3Y-1.325
X2.4Y-1.325
X2.5Y-1.325
X2.7697Y-1.1801
X2.7697Y-1.2801
X2.7697Y-1.3801
X2.7697Y-1.4801
X2.7697Y-1.5801
X2.7697Y-1.6801
X2.7697Y-1.7801
X2.7697Y-1.8801
X2.7697Y-1.9801
X2.7697Y-2.0801
X2.7697Y-2.1801
X2.7697Y-2.2801
X2.7697Y-2.3801
X2.7697Y-2.4801
X2.7697Y-2.5801
X2.7697Y-2.6801
X2.7697Y-2.7801
X2.7697Y-2.8801
X2.7697Y-2.9801
X2.7697Y-3.0801
X2.8697Y-1.1801
X2.8697Y-1.2801
X2.8697Y-1.3801
X2.8697Y-1.4801
X2.8697Y-1.5801
X2.8697Y-1.6801
X2.8697Y-1.7801
X2.8697Y-1.8801
X2.8697Y-1.9801
X2.8697Y-2.0801
X2.8697Y-2.1801
X2.8697Y-2.2801
X2.8697Y-2.3801
X2.8697Y-2.4801
X2.8697Y-2.5801
X2.8697Y-2.6801
X2.8697Y-2.7801
X2.8697Y-2.8801
X2.8697Y-2.9801
X2.8697Y-3.0801
T0
M30
