M48
; DRILL file {KiCad (5.1.6)-1} date 05/26/20 08:12:10
; FORMAT={-:-/ absolute / inch / decimal}
; #@! TF.CreationDate,2020-05-26T08:12:10+02:00
; #@! TF.GenerationSoftware,Kicad,Pcbnew,(5.1.6)-1
; #@! TF.FileFunction,Plated,1,2,PTH
FMAT,2
INCH
T1C0.0157
T2C0.0173
T3C0.0315
T4C0.0354
T5C0.0394
T6C0.0430
T7C0.0472
T8C0.0520
T9C0.0531
T10C0.0630
%
G90
G05
T1
X4.85Y-5.3
X4.85Y-5.3
X6.95Y-4.8
X7.0Y-3.1
X7.55Y-4.35
X8.55Y-3.2
T2
X4.7106Y-3.4256
X4.7106Y-3.4768
X4.75Y-3.4
X4.75Y-3.4512
X4.75Y-3.5024
T3
X6.45Y-5.35
X6.85Y-5.35
X5.6Y-5.15
X6.0Y-5.15
X7.85Y-4.9
X7.85Y-5.3
X8.1Y-5.25
X8.1Y-5.35
X8.4Y-5.25
X8.4Y-5.35
X7.1Y-3.95
X7.2969Y-3.95
X4.85Y-4.25
X5.25Y-4.25
X8.05Y-4.95
X8.45Y-4.95
X7.1Y-3.35
X7.1Y-3.45
X7.4Y-3.35
X7.4Y-3.45
X5.45Y-4.25
X5.85Y-4.25
X7.2Y-5.25
X7.3969Y-5.25
X6.4Y-3.2
X6.8Y-3.2
X7.6Y-3.5
X8.0Y-3.5
T4
X6.65Y-5.0
X6.75Y-5.0
X6.6Y-3.5
X6.7Y-3.5
T5
X4.65Y-4.85
X4.75Y-4.85
X4.85Y-4.85
X4.95Y-4.85
X5.05Y-4.85
X5.0Y-3.8
X5.1Y-3.8
X5.2Y-3.8
X5.3Y-4.8
X5.3Y-4.9
X5.3Y-5.0
X5.3Y-5.1
X4.7Y-4.55
X4.8Y-4.55
X4.9Y-4.55
X5.0Y-4.55
X5.1Y-4.55
X5.2Y-4.55
X5.3Y-4.55
X5.4Y-4.55
X5.5Y-4.55
X5.6Y-4.55
X5.7Y-4.55
X5.8Y-4.55
X5.9Y-4.55
X6.0Y-4.55
X6.1Y-4.55
X6.2Y-4.55
X6.3Y-4.55
X6.4Y-4.55
X6.5Y-4.55
X6.6Y-4.55
X7.6Y-3.95
X7.8Y-3.95
X4.7Y-4.0
X4.8Y-4.0
X4.9Y-4.0
X5.0Y-4.0
X5.1Y-4.0
X5.2Y-4.0
X5.3Y-4.0
X5.4Y-4.0
X5.5Y-4.0
X5.6Y-4.0
X5.7Y-4.0
X5.8Y-4.0
X5.9Y-4.0
X6.0Y-4.0
X6.1Y-4.0
X6.2Y-4.0
X6.3Y-4.0
X6.4Y-4.0
X6.5Y-4.0
X6.6Y-4.0
X5.55Y-4.9
X5.65Y-4.9
X5.75Y-4.9
X5.85Y-4.9
X5.95Y-4.9
X6.05Y-4.9
X6.2719Y-4.7719
X6.2719Y-4.8719
X6.2719Y-4.9719
X5.8Y-3.7
X5.9Y-3.7
X6.0Y-3.7
X6.1Y-3.7
X6.2Y-3.7
X6.4549Y-4.7719
X6.4549Y-4.8719
X6.4549Y-4.9719
T6
X7.85Y-4.3224
X7.85Y-4.4032
X7.85Y-4.484
X7.85Y-4.5648
X7.85Y-4.6456
T7
X7.2Y-4.45
X7.2Y-4.6469
X5.25Y-3.3531
X5.25Y-3.55
T8
X8.8Y-3.6
X8.8Y-3.7969
X8.8Y-3.9937
X8.8Y-4.35
X8.8Y-4.5469
X8.8Y-4.7437
T9
X4.7413Y-3.3104
X4.7413Y-3.5919
T10
X8.15Y-3.95
X8.15Y-4.55
T0
M30
