M48
; DRILL file {KiCad (5.1.6)-1} date 06/13/20 23:13:25
; FORMAT={-:-/ absolute / inch / decimal}
; #@! TF.CreationDate,2020-06-13T23:13:25+02:00
; #@! TF.GenerationSoftware,Kicad,Pcbnew,(5.1.6)-1
; #@! TF.FileFunction,Plated,1,2,PTH
FMAT,2
INCH
T1C0.0157
T2C0.0173
T3C0.0197
T4C0.0315
T5C0.0354
T6C0.0394
T7C0.0430
T8C0.0512
T9C0.0520
T10C0.0531
T11C0.0630
T12C0.1260
%
G90
G05
T1
X4.35Y-4.65
X4.35Y-4.65
X5.25Y-3.2
X6.45Y-4.15
X6.5Y-2.45
X7.1Y-4.0
X7.45Y-2.7
T2
X4.3606Y-2.7756
X4.3606Y-2.8268
X4.4Y-2.75
X4.4Y-2.8012
X4.4Y-2.8524
T3
X4.0555Y-4.7
X4.0832Y-4.6332
X4.0832Y-4.7668
X4.15Y-4.6055
X4.15Y-4.7945
X4.2168Y-4.6332
X4.2168Y-4.7668
X4.2445Y-4.7
X7.5555Y-4.7
X7.5832Y-4.6332
X7.5832Y-4.7668
X7.65Y-4.6055
X7.65Y-4.7945
X7.7168Y-4.6332
X7.7168Y-4.7668
X7.7445Y-4.7
X7.5555Y-2.55
X7.5832Y-2.4832
X7.5832Y-2.6168
X7.65Y-2.4555
X7.65Y-2.6445
X7.7168Y-2.4832
X7.7168Y-2.6168
X7.7445Y-2.55
X4.0555Y-2.55
X4.0832Y-2.4832
X4.0832Y-2.6168
X4.15Y-2.4555
X4.15Y-2.6445
X4.2168Y-2.4832
X4.2168Y-2.6168
X4.2445Y-2.55
T4
X4.75Y-2.7031
X4.75Y-2.9
X6.6Y-2.7
X6.6Y-2.8
X6.9Y-2.7
X6.9Y-2.8
X7.1Y-4.5
X7.5Y-4.5
X6.7Y-4.75
X6.8969Y-4.75
X7.1Y-3.9
X7.1Y-4.3
X4.95Y-3.6
X5.35Y-3.6
X5.6Y-3.5
X6.0Y-3.5
X6.5Y-4.55
X6.9Y-4.55
X6.75Y-2.5
X7.15Y-2.5
X7.1Y-4.65
X7.1Y-4.75
X7.4Y-4.65
X7.4Y-4.75
X6.5Y-3.0
X6.6969Y-3.0
X6.3Y-3.2
X6.3Y-3.6
X6.95Y-3.9
X6.95Y-4.3
X4.35Y-3.6
X4.75Y-3.6
X5.95Y-4.7
X6.35Y-4.7
X5.1Y-4.55
X5.5Y-4.55
X6.05Y-2.55
X6.45Y-2.55
T5
X6.2Y-2.85
X6.3Y-2.85
X6.15Y-4.35
X6.25Y-4.35
T6
X5.05Y-4.3
X5.15Y-4.3
X5.25Y-4.3
X5.35Y-4.3
X5.45Y-4.3
X5.55Y-4.3
X5.7719Y-4.3219
X5.7719Y-4.4219
X5.7719Y-4.5219
X4.15Y-4.3
X4.25Y-4.3
X4.35Y-4.3
X4.45Y-4.3
X4.55Y-4.3
X5.9549Y-4.3219
X5.9549Y-4.4219
X5.9549Y-4.5219
X5.8Y-3.0
X5.8Y-3.1
X4.2Y-3.35
X4.3Y-3.35
X4.4Y-3.35
X4.5Y-3.35
X4.6Y-3.35
X4.7Y-3.35
X4.8Y-3.35
X4.9Y-3.35
X5.0Y-3.35
X5.1Y-3.35
X5.2Y-3.35
X5.3Y-3.35
X5.4Y-3.35
X5.5Y-3.35
X5.6Y-3.35
X5.7Y-3.35
X5.8Y-3.35
X5.9Y-3.35
X6.0Y-3.35
X6.1Y-3.35
X4.8Y-4.3
X4.8Y-4.4
X4.8Y-4.5
X4.8Y-4.6
X7.2Y-2.7531
X7.2Y-2.95
X5.55Y-2.85
X5.55Y-2.95
X5.55Y-3.05
X5.55Y-3.15
X4.5Y-3.15
X4.6Y-3.15
X4.7Y-3.15
X4.2Y-3.95
X4.3Y-3.95
X4.4Y-3.95
X4.5Y-3.95
X4.6Y-3.95
X4.7Y-3.95
X4.8Y-3.95
X4.9Y-3.95
X5.0Y-3.95
X5.1Y-3.95
X5.2Y-3.95
X5.3Y-3.95
X5.4Y-3.95
X5.5Y-3.95
X5.6Y-3.95
X5.7Y-3.95
X5.8Y-3.95
X5.9Y-3.95
X6.0Y-3.95
X6.1Y-3.95
X5.0Y-3.05
X5.1Y-3.05
X5.2Y-3.05
X5.3Y-3.05
X5.4Y-3.05
X5.95Y-3.0
X5.95Y-3.1
T7
X6.7Y-4.0044
X6.7Y-4.0852
X6.7Y-4.166
X6.7Y-4.2468
X6.7Y-4.3276
T8
X6.5819Y-3.25
X6.7Y-3.25
T9
X7.55Y-3.85
X7.55Y-4.0469
X7.55Y-4.2437
X7.55Y-3.2
X7.55Y-3.3969
X7.55Y-3.5937
T10
X4.3913Y-2.6604
X4.3913Y-2.9419
T11
X6.95Y-3.1
X6.95Y-3.7
T12
X7.65Y-2.55
X4.15Y-2.55
X4.15Y-4.7
X7.65Y-4.7
T0
M30
